<?xml version="1.0" encoding="utf-8"?>
<!-- Generator: Adobe Illustrator 14.0.0, SVG Export Plug-In . SVG Version: 6.00 Build 43363)  -->
<!DOCTYPE svg PUBLIC "-//W3C//DTD SVG 1.1//EN" "http://www.w3.org/Graphics/SVG/1.1/DTD/svg11.dtd">
<svg version="1.1" id="Layer_1" xmlns="http://www.w3.org/2000/svg" xmlns:xlink="http://www.w3.org/1999/xlink" x="0px" y="0px"
	 width="800px" height="600px" viewBox="0 0 800 600" enable-background="new 0 0 800 600" xml:space="preserve">
<g>
	<g>
		<path fill="#DADEDF" d="M666.273,252.949l0.937,0.205H265.717l126.215-126.493c6.181-6.176,9.57-14.541,9.57-23.322
			c0-8.78-3.39-17.087-9.57-23.277l-19.64-19.649c-6.175-6.175-14.404-9.59-23.18-9.59c-8.781,0-17.015,3.391-23.19,9.565
			L109.566,276.724c-6.2,6.2-9.59,14.459-9.565,23.244c-0.024,8.834,3.365,17.098,9.565,23.288l216.356,216.355
			c6.176,6.171,14.404,9.566,23.19,9.566c8.775,0,17.005-3.4,23.18-9.566l19.64-19.648c6.181-6.166,9.57-14.4,9.57-23.181
			c0-8.775-3.39-16.575-9.57-22.746l-127.64-127.2h402.43c18.083,0,33.278-15.585,33.278-33.658v-27.791
			C700,267.314,684.356,252.949,666.273,252.949z"/>
	</g>
</g>
</svg>
