<?xml version="1.0" encoding="utf-8"?>
<!-- Generator: Adobe Illustrator 14.0.0, SVG Export Plug-In . SVG Version: 6.00 Build 43363)  -->
<!DOCTYPE svg PUBLIC "-//W3C//DTD SVG 1.1//EN" "http://www.w3.org/Graphics/SVG/1.1/DTD/svg11.dtd">
<svg version="1.1" id="Ebene_1" xmlns="http://www.w3.org/2000/svg" xmlns:xlink="http://www.w3.org/1999/xlink" x="0px" y="0px"
	 width="159.384px" height="230.251px" viewBox="0 0 159.384 230.251" enable-background="new 0 0 159.384 230.251"
	 xml:space="preserve">
<path fill="#5E5E5E" d="M76.619,66.807c0.244,0.104,0.451-0.215,0.213-0.363c-0.936-0.586-1.768,0.06-1.978,1.023
	c-0.035,0.162,0.182,0.213,0.244,0.067c0.126-0.303,0.297-0.597,0.573-0.787C75.967,66.543,76.326,66.683,76.619,66.807"/>
<path fill="#5E5E5E" d="M76.539,67.077c-0.545-0.064-0.932,0.248-1.201,0.691c-0.051,0.084,0.073,0.186,0.138,0.108
	c0.285-0.344,0.6-0.571,1.063-0.576C76.686,67.298,76.678,67.093,76.539,67.077"/>
<path fill="#5E5E5E" d="M75.977,68.225c0.203-0.02,0.397-0.053,0.598-0.098c0.148-0.033,0.109-0.255-0.036-0.258
	c-0.248-0.007-0.4,0.047-0.613,0.17C75.845,68.086,75.874,68.235,75.977,68.225"/>
<path fill="#5E5E5E" d="M57.015,83.725c-0.114,0.029-0.064,0.213,0.048,0.176c0.295-0.1,0.554-0.248,0.816-0.415
	c0.061-0.038,0.008-0.13-0.056-0.096C57.563,83.529,57.303,83.654,57.015,83.725"/>
<path fill="#5E5E5E" d="M155.422,10.545c-0.485-0.7-6.323-8.588-7.86-5.965c-0.615,1.05,0.455,2.649,1.029,3.392
	c1.014,1.31,4.247,5.391,4.609,8.336c-0.068,0.28-0.154,0.556-0.285,0.822c-0.964,1.965-3.107,1.757-4.877,1.745
	c-0.02,0-0.031,0.015-0.05,0.018c-2.255-1.015-4.587-2.284-6.421-1.881c-0.699-0.082-1.407-0.046-1.668,0.475
	c-0.266,0.531,0.357,1.113,0.75,1.361c0.428,0.271,0.934,0.396,1.377,0.636c0.055,0.029,0.113,0.057,0.168,0.087
	c1.187,0.867,2.508,1.566,3.627,2.584c2.947,2.679,5.967,7.483,3.181,11.138c-3.403,1.11-7.562-2.064-10.419-4.189
	c-0.197-0.149-0.518-0.037-0.629,0.164c-0.936,1.685,0.621,3.174,1.699,4.393c5.021,5.669-0.469,13.823-7.11,14.51
	c0-0.006,0.002-0.009,0.003-0.014c0.153-2.618-0.182-4.866,0.463-7.504c0.569-2.328,1.916-4.061,2.93-6.155
	c0.332-0.683,0.258-1.209-0.096-1.816c-0.053-0.088-0.141-0.076-0.197-0.023c-0.014-0.014-0.033-0.02-0.051-0.03
	c-0.058-0.063-0.134-0.069-0.197-0.025c-0.947,0.331-1.61,0.894-2.189,1.56c-1.107,0.9-2.038,2.29-2.822,3.771
	c1.623-6.302,1.137-13.896-1.324-19.64c-1.932-4.504-5.977-11.388-11.781-10.55c-0.143,0.021-0.217,0.2-0.184,0.326
	c0.647,2.44,7.362,8.849,7.196,12.593c-0.179,0.446-0.458,0.864-0.882,1.262c-0.748,0.701-1.734,1.114-2.744,1.349
	c-1.877-0.114-3.65-1.035-5.124-2.296c-0.565-0.482-1.431-1.383-2.21-1.47c-1.652-0.183-0.947,2.001-0.33,2.718
	c1.961,2.279,5.441,3.496,6.751,6.233c0.207,0.493,0.356,1.014,0.468,1.555c0.435,3.451-4.132,3.129-6.447,2.374
	c-0.869-0.284-1.772-0.577-2.68-0.684c-0.31-0.08-0.627-0.13-0.951-0.145c-0.021-0.072-0.069-0.135-0.168-0.131
	c-0.396,0.018-0.781,0.08-1.172,0.151c-0.178,0.034-0.148,0.24-0.021,0.312c-0.04,0.086-0.049,0.193,0.021,0.28
	c0.344,0.428,0.752,0.703,1.211,0.929c1.678,1.601,4.453,2.586,6.099,3.979c2.381,2.017,3.489,9.679-0.392,10.88
	c-0.525-0.088-1.056-0.19-1.588-0.301c-0.041-0.055-0.099-0.103-0.188-0.131c-2.238-0.71-2.301-2.924-2.338-4.903
	c-0.037-1.951,0.367-3.223,1.014-4.982c0.254-0.691,0.253-2.411-1.039-1.994c-1.469,0.474-2.268,2.394-2.859,3.667
	c-0.985,2.119-0.404,4.263-0.74,6.431c-0.006,0.014-0.021,0.02-0.026,0.037c-0.004,0.015-0.005,0.032-0.009,0.048
	c-0.27-0.088-0.539-0.178-0.813-0.244c-0.836-0.199-1.561-0.097-2.354-0.523c-0.907-0.487-1.237-1.468-1.362-2.502
	c1.565-6.83-2.159-18.262-9.09-20.065c-0.226-0.058-0.524,0.118-0.495,0.377c0.246,2.248,1.398,3.905,2.674,5.75
	c3.627,5.246,5.338,14.661-3.596,15.209c-0.209,0.013-0.398,0.044-0.602,0.061c-0.873-3.86-3.193-6.782-5.826-9.633
	c-0.524-0.567-2.941-3.199-4.084-2.545c-0.092-0.024-0.199,0.004-0.219,0.111c-0.006,0.029-0.002,0.056-0.008,0.084
	c-0.019,0.023-0.031,0.059-0.05,0.085c-0.067-0.079-0.215-0.065-0.209,0.066c0.024,0.513,0.199,0.949,0.438,1.358
	c0.375,0.975,1.164,1.841,1.83,2.607c2.277,2.616,3.994,4.67,4.717,8.069c-2.689,0.201-4.985,1.477-7.274,2.968
	c-0.221,0.11-0.446,0.232-0.679,0.362c-0.204,0.083-0.407,0.165-0.614,0.249c-0.345,0.14-0.672,0.312-0.992,0.487
	c-0.385,0.107-0.775,0.15-1.167,0.055c-0.001,0-0.001,0.001-0.002,0.001c-5.46-1.253-9.585-4.338-12.254-9.445
	c-0.38-0.727-1.026-4.261-1.966-5.394c-0.114-0.231-0.501-0.705-0.759-0.64c-0.026,0.004-0.047,0.012-0.066,0.029
	c-0.046,0.034-0.088,0.085-0.116,0.177C63,32.98,63.03,33.002,63.061,33.003c-0.709,4.477,0.256,8.217,2.985,11.874
	c1.442,1.933,4.148,3.791,6.182,5.859c-0.87-0.329-1.834-0.443-2.834-0.326c-1.237-0.428-2.628-0.549-3.954-0.592
	c-0.07-0.021-0.138-0.046-0.208-0.068c-2.964-1.909-5.818-4.064-8.267-6.563c-0.586-0.78-1.135-1.587-1.578-2.452
	c-0.415-0.813-0.83-1.429-1.573-1.948c-0.138-0.097-0.281,0.062-0.257,0.198c0.048,0.33,0.117,0.656,0.207,0.976
	c0.016,0.067,0.086,0.075,0.132,0.048c0.025,0.187,0.087,0.357,0.181,0.517c1.215,3.542,3.777,6.759,6.328,9.451
	c1.272,1.341,3.048,2.023,4.771,2.542c1.877,0.565,11.482,0.854,8.541,5.007c-0.039,0.054-0.06,0.11-0.07,0.164
	c-0.359,0.168-0.728,0.308-1.171,0.393c-0.529,0.102-1.065,0.161-1.601,0.214c-0.308-0.245-0.717-0.269-1.124-0.306
	c-1.325-0.528-1.974-2.249-3.342-2.772c-2.291-0.877-4.571-0.182-6.057-2.668c-0.027-0.046-0.065-0.064-0.103-0.068
	c-0.035-0.09-0.073-0.178-0.116-0.261c-0.02-0.102-0.035-0.205-0.057-0.306c-0.019-0.091-0.164-0.07-0.161,0.022
	c0.016,0.604-0.05,1.25,0.183,1.819c0.181,1.404,0.189,2.796,0.97,4.062c0.409,0.663,1.055,1.088,1.77,1.35
	c0.829,0.305,1.699,0.15,2.525,0.278c-3.419,1.172-6.491,3.144-9.885,5.426c-3.193,2.147-6.381,2.942-10.003,3.836
	c-0.186,0.046-0.35,0.108-0.508,0.173c-0.254,0.028-0.488,0.125-0.697,0.266c-1.658,0.304-1.803,2.687-1.596,4.049
	c0.128,0.842,1.077,2.668,2.137,2.928c-0.001,0.017-0.004,0.035,0.015,0.043c0.254,0.116,0.47,0.133,0.705,0.035
	c0.355-0.013,0.873-0.292,1.253-0.539c0.758-0.283,1.447-0.757,2.223-0.943c0.337,0.046,0.729,0.157,0.992,0.361
	c-0.033,0.188-0.129,0.322-0.263,0.437c-0.626,0.266-1.307,0.407-1.967,0.561c-0.091,0.022-0.199,0.116-0.212,0.213
	c-0.002,0.01,0,0.017,0,0.026c-0.048-0.032-0.11-0.037-0.126,0.033c-0.206,0.847,0.106,1.545,0.919,1.922
	c0.935,0.433,1.791,0.024,2.599-0.456c1.81-0.438,3.541-1.125,5.371-1.603c1.921-0.502,3.857-0.318,5.795-0.035
	c-0.008,0.01-0.02,0.013-0.025,0.025c-0.861,2-1.666,3.429-3.291,4.948c-1.495,1.396-3.246,2.561-5.054,3.536
	c-0.258,0.128-0.518,0.253-0.776,0.382c-0.372,0.184-0.888,0.41-1.185,0.755c-0.617-1.382-1.494-2.612-2.475-3.375
	c0.012-0.022,0.021-0.047,0.019-0.076c-0.023-0.345,0.199-0.703,0.24-1.06c0.043-0.385-0.116-0.703-0.436-0.91
	c-0.559-0.362-1.398-0.262-1.796,0.267c-0.315,0.418-0.369,1.045-0.147,1.512c0.221,0.462,0.84,0.527,1.168,0.165
	c-0.019,0.03-0.031,0.065-0.025,0.108c0.39,2.896-0.647,5.923-1.998,8.447c-0.546,0.091-1.023,0.249-1.469,0.611
	c-0.345,0.279-0.42,0.753-0.428,1.199c-1.326,0.467-2.812,0.833-4.058,1.513c-1.404,0.586-2.958,1.767-2.551,3.334
	c0.021,0.078,0.125,0.053,0.133-0.019c0.008-0.074,0.033-0.135,0.045-0.206c0,0,0.001,0,0.002-0.001
	c0.465-0.62,1.06-1.084,1.801-0.95c0.071,0.073,0.136,0.162,0.185,0.285c0.265,0.66-0.478,1.33-0.93,1.631
	c-0.512,0.346-1.074,0.602-1.573,0.971c-0.118,0.087-0.23,0.187-0.337,0.294c-1.113,0.766-1.674,2.428-0.479,3.361
	c0.13,0.102,0.309-0.062,0.186-0.186c-0.034-0.036-0.059-0.072-0.089-0.107c0.004-0.377,0.296-0.622,0.663-0.725
	c0.325-0.091,0.525,0.004,0.657,0.196c0.056,0.137,0.055,0.299-0.042,0.504c-0.128,0.492-0.511,0.928-0.906,1.227
	c-0.459,0.349-1.026,0.535-1.523,0.819c-0.861,0.488-1.193,1.395-1.159,2.319c-0.089,1,0.369,2.178,1.472,2.302
	c0.119,0.013,0.132-0.147,0.055-0.202c-0.187-0.136-0.337-0.299-0.464-0.477c-0.004-0.023-0.013-0.044-0.013-0.068
	c-0.004-0.243,0.216-0.463,0.38-0.615c0.153-0.14,0.344-0.224,0.535-0.296c0.032,0.003,0.055-0.007,0.089-0.001
	c0.654,0.11,1.089,0.667,1.056,1.306c-0.041,0.808-0.787,2.037-1.653,2.428c-0.079-0.011-0.157-0.023-0.244-0.036
	c-0.122-0.02-0.244-0.05-0.366-0.079c-3.966-1.698-4.304-9.832-9.411-9.105c-4.033-0.474-7.279,5.084-9.781,7.531
	c-2.914,2.852-6.325,5.03-9.476,7.582c-0.641,0.521-1.161,1.107-1.624,1.728c-0.016,0.006-0.033,0.007-0.046,0.022
	c-1.895,2.379-3.237,5.063-4.924,7.562c-0.153,0.226,0.097,0.519,0.344,0.446c0.369-0.107,0.44-0.125,0.63-0.229
	c1.65-0.371,3.12-1.3,4.83-1.41c1.006-0.066,2.165,0.276,3.127-0.145c1.068-0.467,1.103-1.665,1.149-2.797
	c0.108-0.17,0.236-0.317,0.415-0.389c0.045-0.019,0.082-0.048,0.112-0.08c0.053-0.026,0.085-0.06,0.109-0.111
	c0.391,0.124,0.806,0.176,1.144,0.057c0.333,0.028,0.654-0.059,0.957-0.232c0.057-0.032,0.099-0.099,0.095-0.166
	c-0.014-0.334-0.131-0.641-0.114-0.973c0.111-0.042,0.221-0.087,0.343-0.111c0.072-0.012,0.115-0.076,0.124-0.146
	c0.028-0.024,0.055-0.051,0.071-0.09c0.243-0.618,0.217-1.29,0.252-1.96c0.999-2.729,4.338-4.891,6.425-6.425
	c1.274-0.935,2.538-2.099,4.1-2.482c0.616-0.151,1.177-0.301,1.705-0.501c0.009,0.003,0.02,0.006,0.029,0.01
	c0.791,0.558,1.333,1.914,1.565,2.782c0.139,0.52,0.24,1.326,0.583,1.862c-1.311-0.543-2.45-0.901-3.296-0.927
	c-2.954-0.093-3.299,2.931-3.217,5.056c0.264,6.91,1.108,13.818,1.446,20.738c0.002,0.035,0.013,0.06,0.021,0.088
	c-0.027,0.123-0.049,0.246-0.077,0.369c-0.106,0.213-0.203,0.428-0.277,0.648c-0.101,0.311,0.209,0.52,0.479,0.479
	c0.029-0.004,0.055-0.016,0.083-0.022c0.099,0.05,0.219,0.052,0.331-0.012c0.046,0.237,0.105,0.471,0.181,0.698
	c-0.027,0.17-0.052,0.345-0.051,0.498c0.007,1.102,0.064,2.188,0.196,3.28c0.203,1.687,0.573,3.478,1.615,4.859
	c0.201,0.266,0.716,0.31,0.793-0.103c0.448-2.392,1.407-4.317,2.584-6.41c0.105-0.061,0.203-0.127,0.284-0.205
	c0.51-0.492,0.661-1.143,0.221-1.686c-0.427-0.906-1.599-1.839-1.841-2.808c0.403-0.011,0.801-0.071,1.209-0.027
	c0.318,0.033,0.456-0.405,0.25-0.606c-0.297-0.291-0.586-0.596-0.949-0.793c0.452-0.213,0.361-0.18,1.047-0.732
	c0.133-0.105,0.115-0.337,0-0.447c-4.284-4.119-1.325-10.092-1.402-15.365c2.977,1.135,5.842,2.674,8.621,4.395
	c0.225,0.209,0.449,0.42,0.689,0.615c0.256,0.209,0.529,0.385,0.808,0.553c1.438,1.238,1.602,3.445,1.818,5.572
	c-0.008,1.437,0.144,2.939,0.573,4.283c0.001,0.058-0.003,0.114,0.001,0.17c0.007,0.078,0.119,0.125,0.159,0.043
	c0.008-0.017,0.014-0.034,0.022-0.051c0.029-0.022,0.052-0.055,0.045-0.102c0-0.001,0-0.002,0-0.003
	c0.424-0.972,0.542-2.183,1.946-1.972c0.265,0.039,0.499,0.135,0.719,0.252c1.313,1.834,2.606,4.924,4.903,4.996
	c0.092,0.004,0.158-0.045,0.208-0.105c0.256-0.029,0.473-0.18,0.716-0.383c0.067-0.057-0.017-0.139-0.085-0.11
	c-0.217,0.093-0.473,0.069-0.708,0.011c-0.193-0.219-0.319-0.457-0.365-0.707c0.098-0.328,0.382-0.367,0.75-0.254
	c0.361,0.108,0.721,0.209,1.058,0.381c0.247,0.127,0.456,0.299,0.656,0.483c0.56,0.747,0.957,1.724,1.37,2.39
	c0.202,0.325,0.424,0.642,0.666,0.936c0.123,0.214,0.263,0.42,0.428,0.607c0.762,0.859,2.053,0.959,3.108,1.16
	c0.125,0.024,0.214-0.147,0.091-0.214c-0.219-0.12-0.446-0.229-0.671-0.341c-0.305-0.499-0.596-0.941-0.589-1.486
	c2.801,0.152,5.22,2.394,7.458,3.822c2.771,1.768,5.566,3.475,8.593,4.768c0.777,0.332,1.541,0.625,2.289,0.902
	c1.199,1.025,1.682,2.655,1.826,4.253c-0.336,1.729-0.992,3.525-1.291,4.802c-0.479,2.056-0.703,4.424-0.196,6.487
	c0.529,2.156,1.277,3.888,2.411,5.796c1.161,1.956,3.801,3.348,4.364,5.711c-0.09,0.372-0.204,0.736-0.37,1.103
	c-0.128,0.284-0.281,0.556-0.426,0.831c-4.456,2.445-11.261,1.469-16.007,1.002c-2.291-0.225-4.395,0.842-6.163,2.363
	c-0.042,0-0.085,0.015-0.118,0.06c-0.04,0.056-0.088,0.108-0.129,0.164c-0.854,0.769-1.625,1.633-2.293,2.504
	c-0.729,0.776-1.395,1.597-1.788,2.59c-0.554,1.402-0.121,1.878,0.852,2.166c0.177,0.095,0.375,0.181,0.598,0.254
	c0.945,0.313,2.054-0.213,2.893-0.596c1.436-0.654,2.507-1.333,4.132-0.946c-0.012,0.049-0.026,0.1-0.037,0.145
	c-0.039,0.158,0.202,0.275,0.273,0.115c0.037-0.143,0.088-0.271,0.138-0.399c0.023-0.034,0.029-0.073,0.039-0.112
	c0.504-1.172,1.576-1.779,3.218-1.82c0.199,0.069,0.414-0.078,0.469-0.267c0.824-2.815,5.707-1.604,7.679-1.651
	c2.342-0.056,4.621-0.047,6.957,0.061c1.727,0.08,4.681,0.4,6.359-0.73c0.475-0.172,0.984-0.438,1.156-0.869
	c0.262-0.647-0.199-1.265-0.643-1.783c-0.353-1.268-0.945-2.471-1.291-3.756c-0.512-1.896,0.143-3.806,0.515-5.694
	c1.362,3.56,3.271,6.907,5.312,10.116c3.209,5.048,8.561,9.048,9.275,15.248c0.582,5.039,0.414,10.254,0.379,15.365
	c-0.212,2.191-0.636,4.327-1.566,6.394c-0.012,0.024-0.008,0.047-0.006,0.069c-0.664,0.977-1.438,1.893-2.107,2.763
	c-1.143,1.487-2.068,3.01-2.78,4.745c-0.108,0.265-0.171,0.496-0.213,0.711c-0.288,0.611-0.548,1.236-0.733,1.9
	c-0.063,0.228,0.113,0.438,0.34,0.446c2.088,0.077,4.312,0.146,6.404-0.16c1.297,0.159,2.367-0.858,2.402-2.26
	c0.186-0.694,0.251-1.474,0.298-2.198c0.299-1.102,0.778-2.091,1.804-1.732c0.264,0.092,0.481-0.187,0.428-0.428
	c-0.098-0.435-0.196-0.727-0.373-1.033c0.262-0.051,0.521-0.109,0.787-0.143c0.211-0.004,0.434-0.23,0.344-0.451
	c-0.307-0.754-0.817-1.347-1.205-2.06c-0.016-0.028-0.043-0.032-0.063-0.052v-0.002c-0.221-7.084-0.31-13.961,1.891-20.808
	c0.39-1.211,1.14-2.731,0.955-4.067c-0.078-0.564-0.233-1.059-0.418-1.527c0-0.012-0.002-0.023-0.004-0.034
	c-0.004-0.012,0.002-0.021-0.004-0.032c0-0.002-0.002-0.005-0.002-0.007c-0.189-1.141-0.904-2.063-1.568-3.004
	c-0.865-1.228-1.475-2.562-1.988-3.95c-0.932-6.771-0.158-11.818,3.521-18.16c1.252-2.162,2.215-4.225,2.692-6.371
	c0.188,0.69,0.497,1.336,1.058,1.834c0.115,0.101,0.321,0.105,0.426-0.006c0.059,1.75-0.033,3.502,1.27,4.978
	c0.24,0.272,0.738,0.133,0.817-0.216c0.088-0.385,0.28-0.693,0.446-1.014c0.787,1.356,1.873,2.4,3.727,2.598
	c0.891,0.096,1.709-0.098,2.408-0.484c0.404-0.109,0.771-0.368,1.072-0.681c1-0.57,1.459-1.962,1.668-3.013
	c0.273-1.379-0.033-2.808-0.763-3.988c-0.323-0.831-0.776-1.586-1.297-2.135c-0.05-0.052-0.144,0.019-0.101,0.08
	c1.318,1.844,1.431,4.605,0.295,6.572c-0.959,0.949-2.405,1.219-3.654,0.09c-0.385-0.35-0.682-0.816-0.945-1.293
	c-0.314-0.949-0.644-1.889-0.875-2.871c-0.445-1.897-0.285-3.772-0.471-5.681c-0.166-1.71-1.16-2.608-2.414-3.344
	c-0.105-0.082-0.212-0.162-0.322-0.238c0.014-0.044,0.037-0.083,0.028-0.137c-1.558-10.371-10.55-16.035-18.966-20.785
	c-10.157-5.731-20.713-12.779-24.392-24.364c0.024,0.006,0.045,0.014,0.071,0.015c0.047,0.023,0.092,0.037,0.137,0.052
	c0.046,0.071,0.117,0.129,0.201,0.157c1.078,0.367,1.542-1.001,1.36-1.843c0.617-0.524,1.152-1.325,1.581-1.826
	c0.995-1.161,2.114-2.098,3.309-3.005c0.693-0.244,1.341,0.177,2.084,0.169c0.552-0.007,1.162-0.218,1.579-0.585
	c0.96-0.848,1.257-2.255,0.585-3.364c-0.547-0.9-1.746-1.256-2.606-0.602c-0.356,0.27-0.499,0.645-0.537,1.073
	c-0.037,0.417,0.073,1.12-0.205,1.417c-0.041,0.006-0.083,0.011-0.125,0.015c-0.014-0.004-0.02-0.016-0.037-0.017
	c-0.265-0.018-0.517,0.014-0.773,0.055c-0.484-0.004-0.931-0.037-1.166-0.027c-0.472,0.02-0.971,0.057-1.463,0.13
	c0.279-1.055,0.702-2.026,1.2-2.965c2.698-3.975,5.571-7.895,7.389-12.329c1.401-3.422,2.832-9.559,2.183-13.984
	c0.087-0.828,0.274-1.638,0.67-2.393c0.149-0.017,0.296-0.024,0.448-0.054c2.945-0.585,4.904-2.726,7.711-3.542
	c0.252,0.093,0.576-0.192,0.387-0.441c-0.882-1.158-3.223-1.059-4.523-1.339c-1.588-0.342-3.047-1.582-4.5-2.32
	c-0.822-1.181-2.34-1.615-3.355-2.611c-0.031-0.082-0.062-0.164-0.087-0.246c2.149-4.206,15.341-0.722,18.747-0.38
	c8.058,0.807,15.4-0.204,22.771-3.533c3.721,0.217,7.434,0.987,11.203,0.623c2.689-0.261,5.588-1.12,8.1-2.494
	c5.463-2.293,10.642-7.144,13.742-11.997c0.944-1.39,1.748-2.87,2.35-4.45C160.313,27.112,160.351,17.675,155.422,10.545
	 M132.599,48.557c-0.054,0.029-0.104,0.059-0.156,0.09c0.009-0.028,0.013-0.058,0.019-0.087
	C132.507,48.56,132.552,48.558,132.599,48.557 M135.382,33.182c-0.146,0.017-0.292,0.034-0.433,0.068
	C135.101,33.193,135.248,33.161,135.382,33.182 M113.282,21.164c0.002-0.029-0.002-0.059,0.003-0.086
	c0.114,0.08,0.229,0.159,0.344,0.238c-0.036,0.026-0.05,0.087-0.003,0.123c0.418,0.314,0.852,0.601,1.289,0.882
	c0.021,0.044,0.043,0.084,0.064,0.126C114.349,22.092,113.753,21.693,113.282,21.164 M114.542,21.549
	c-0.428-0.159-0.861-0.304-1.246-0.499c0.055-0.231,0.209-0.392,0.436-0.452C114.06,20.711,114.312,21.098,114.542,21.549
	 M122.185,10.313c0.121,0.102,0.223,0.217,0.334,0.326c-0.59-0.411-1.199-0.792-1.859-1.095c-0.537-0.246-1.889-0.558-2.52-1.081
	c0.004-0.004,0.008-0.008,0.01-0.012C119.646,8.918,120.944,9.271,122.185,10.313 M118.244,9.124
	c0.008,0.001,0.019,0.004,0.026,0.006c-0.002,0.005-0.002,0.01-0.006,0.015C118.259,9.138,118.25,9.131,118.244,9.124
	 M119.093,9.392c0.108,0.037,0.215,0.074,0.319,0.11c0.28,0.099,0.55,0.228,0.821,0.352c1.605,0.851,3.214,2.211,4.207,3.199
	c1.51,1.501,1.484,3.344,1.66,5.194c-0.246-0.816-0.426-1.66-0.535-2.621c-0.084-0.731-0.535-1.579-0.984-2.137
	c-1.495-1.856-3.65-2.765-5.605-4.029C119.021,9.443,119.065,9.425,119.093,9.392 M127.528,19.687
	c0.023,0.499,0.037,0.996,0.056,1.494c-0.071-0.174-0.147-0.344-0.228-0.511c0.035-0.077,0.051-0.169,0.018-0.279
	c-0.37-1.237-0.396-2.501-0.506-3.763C127.188,17.619,127.478,18.594,127.528,19.687 M130.077,26.728
	c-0.333-0.256-0.721-0.447-1.016-0.525c-0.287-0.077-0.737-0.073-1.156,0.028c0.039-0.074,0.085-0.144,0.121-0.221
	c0.264-0.146,0.543-0.254,0.859-0.281c0.668-0.058,0.85,0.347,1.166,0.745C130.06,26.558,130.069,26.643,130.077,26.728
	 M125.173,32.204c0.485,0.128,0.867,0.357,1.186,0.645c-0.432-0.266-0.891-0.493-1.344-0.674
	C125.067,32.187,125.119,32.19,125.173,32.204 M121.5,31.938c0.044-0.052,0.093-0.098,0.14-0.144
	c0.051,0.029,0.105,0.049,0.164,0.058c-0.045,0.024-0.09,0.051-0.136,0.077C121.612,31.931,121.558,31.935,121.5,31.938
	 M126.989,34.483c-0.426-0.521-0.91-0.981-1.444-1.364C126.118,33.498,126.632,33.957,126.989,34.483 M128.358,33.907
	c0.035,0.029,0.066,0.066,0.104,0.075c0.062,0.206,0.109,0.423,0.154,0.645C128.541,34.382,128.457,34.141,128.358,33.907
	 M121.947,27.429c-0.003-0.015-0.005-0.03-0.009-0.045c0.02,0.014,0.037,0.03,0.059,0.043
	C121.979,27.423,121.964,27.431,121.947,27.429 M125.172,27.17c-1.288,0.256-2.565,0.048-3.538-0.763
	c-0.066-0.149-0.137-0.295-0.214-0.436c1.312,0.934,3.407,1.248,4.911,0.741C126.028,26.916,125.662,27.073,125.172,27.17
	 M128.802,30.819c0.08,0.156,0.162,0.346,0.24,0.553c-0.749-0.967-1.67-1.779-2.576-2.282c-1.396-0.774-3.221-0.7-4.406,0.076
	C124.408,27.429,127.39,28.117,128.802,30.819 M123.796,29.323c1.027-0.116,2.016,0.386,2.844,1.007
	c-1.604-0.69-3.641-0.692-4.961,0.248C122.062,29.878,122.804,29.435,123.796,29.323 M125.638,36.172
	c0.168,0.245,0.363,0.655,0.555,1.157c-0.047-0.052-0.1-0.103-0.149-0.154c-0.149-0.261-0.301-0.517-0.457-0.761
	c-0.797-1.242-2.125-1.903-3.437-2.492C123.509,34.228,124.733,34.859,125.638,36.172 M127.036,42.248
	c0.006-0.191,0.007-0.384-0.008-0.582c0-0.005-0.002-0.011-0.002-0.016c0.014-0.007,0.027-0.013,0.041-0.022
	C127.067,41.843,127.058,42.052,127.036,42.248 M123.813,38.746c-0.043-0.008-0.088-0.008-0.131,0.001
	c-0.102-0.411-0.229-0.818-0.385-1.212C123.509,37.917,123.683,38.321,123.813,38.746 M124.64,45.155
	c0.738-1.318,1.139-2.848,1.133-4.291C126.101,42.445,125.63,43.965,124.64,45.155 M122.013,37.202
	c-0.218-0.566-0.515-1.09-0.875-1.573c0.072,0.04,0.146,0.08,0.217,0.12c0.812,1.102,1.242,2.554,1.529,3.763
	c0.613,2.586-0.072,6.119-2.578,7.364C122.944,44.044,123.679,40.38,122.013,37.202 M127.13,37.114
	c-0.492-1.571-1.459-2.568-2.658-3.166h0.004c0.144,0.003,0.25-0.058,0.326-0.145c1.338,1.002,2.245,2.552,2.614,4.303
	C127.308,37.697,127.203,37.348,127.13,37.114 M127.194,27.334c0.855-0.065,1.598,0.185,2.221,0.825
	c0.352,0.361,0.516,0.736,0.574,1.128C129.472,28.191,128.369,27.388,127.194,27.334 M127.345,24.701
	c-0.297,1.315-2.117,1.461-3.18,1.408c-1.161-0.058-2.359-0.404-3.297-1.112c2.136,0.917,4.55,1.562,6.045-0.731
	c0.201-0.308,0.329-0.617,0.4-0.927C127.421,23.772,127.454,24.221,127.345,24.701 M123.71,24.919
	c0.572-0.055,1.128-0.162,1.616-0.349c-0.442,0.248-0.96,0.381-1.464,0.369C123.812,24.938,123.761,24.923,123.71,24.919
	 M124.788,23.623c0.688-0.493,1.257-1.344,1.439-2.23c0.063,0.181,0.115,0.364,0.154,0.552c-0.055,0.028-0.107,0.063-0.145,0.13
	c-0.545,1.007-0.957,1.592-1.946,1.835C124.456,23.813,124.634,23.735,124.788,23.623 M120.983,32.921
	c0.822,0.033,1.668,0.2,2.402,0.505c-0.002,0.035-0.002,0.07,0.004,0.104c-0.924-0.267-1.929-0.359-2.938-0.328
	C120.629,33.104,120.808,33.012,120.983,32.921 M121.104,33.746c-0.008,0.064,0.008,0.129,0.084,0.174
	c0.248,0.142,0.488,0.282,0.727,0.423c-0.051-0.021-0.102-0.038-0.15-0.058c-0.363-0.232-0.736-0.428-1.117-0.588
	C120.802,33.709,120.952,33.729,121.104,33.746 M120.38,44.445c0.598-1.324,0.887-4.131,0.941-4.531
	c0.047-0.352,0.063-0.703,0.054-1.049c0.567,2.534,0.024,5.366-1.729,7.219C119.938,45.572,120.185,45.023,120.38,44.445
	 M128.006,26.761c0.294-0.043,0.612-0.001,0.884,0.068c0.33,0.083,0.625,0.271,0.867,0.506c0.112,0.109,0.17,0.235,0.219,0.365
	C129.433,27.131,128.72,26.75,128.006,26.761 M129.144,25.113c-0.291-0.015-0.58,0.069-0.858,0.19c0.022-0.078,0.04-0.16,0.06-0.24
	c0.174-0.076,0.354-0.137,0.545-0.176c0.229-0.047,0.502-0.021,0.68,0.141c0.068,0.06,0.098,0.133,0.121,0.209
	C129.507,25.165,129.317,25.122,129.144,25.113 M122.317,24.045c-0.063-0.002-0.127-0.004-0.189-0.005
	c0.36-0.082,0.717-0.18,1.059-0.307C122.907,23.856,122.615,23.956,122.317,24.045 M120.438,24.495
	c-0.043,0.009-0.088,0.019-0.131,0.028c-0.082-0.083-0.162-0.168-0.25-0.247c0.152-0.001,0.308-0.008,0.461-0.015
	C120.474,24.332,120.448,24.414,120.438,24.495 M119.542,33.104c0.046-0.033,0.075-0.078,0.119-0.113
	c0.175-0.028,0.354-0.049,0.54-0.061c-0.091,0.071-0.183,0.137-0.272,0.211c-0.033,0.026-0.043,0.058-0.047,0.089
	c-0.22,0.016-0.438,0.037-0.654,0.063C119.332,33.23,119.437,33.179,119.542,33.104 M117.731,33.932
	c-0.055-0.013-0.109-0.026-0.164-0.038c0.045-0.005,0.091-0.019,0.137-0.026C117.713,33.89,117.72,33.911,117.731,33.932
	 M120.319,37.589c-0.414-1.045-1.028-1.977-1.883-2.674c-0.119-0.095-0.283,0.058-0.17,0.17c0.84,0.843,1.387,2.001,1.676,3.281
	c-0.525-1.707-1.545-3.191-2.994-4.245C118.95,34.678,119.972,35.968,120.319,37.589 M119.931,40.493
	c0.086,0.034,0.176,0.025,0.254-0.015c0.01,0.883-0.09,1.771-0.289,2.626C120.022,42.237,120.034,41.365,119.931,40.493
	 M129.349,23.726c-0.037,0.164-0.252,0.271-0.504,0.358c0.25-0.308,0.494-0.622,0.607-0.991c0.023-0.078,0.025-0.156,0.04-0.233
	c0.045,0.212,0.097,0.421,0.138,0.634C129.501,23.506,129.38,23.584,129.349,23.726 M128.804,22.061
	c-0.049,0.25-0.121,0.638-0.254,0.978c0.125-2.143-0.302-4.35-1.182-6.311c0.66,1.315,1.191,2.679,1.605,4.082
	C128.845,21.193,128.88,21.669,128.804,22.061 M118.789,9.595c2.005,1.442,4.162,2.814,5.474,4.961
	c0.621,1.015,0.498,2.392,0.635,3.59c-0.008-0.003-0.016-0.002-0.022-0.004c-0.235-0.737-0.317-1.484-0.478-2.27
	c-0.166-0.821-0.76-1.485-1.264-2.118c-1.25-1.563-2.949-2.706-4.371-4.119C118.774,9.624,118.778,9.608,118.789,9.595
	 M124.92,20.835c0.056,0.544-0.099,1.06-0.696,1.513c-0.306,0.23-0.646,0.419-1.006,0.583c-0.017,0.001-0.029-0.009-0.047-0.003
	c-0.215,0.078-0.428,0.121-0.641,0.174c1.111-0.386,1.763-0.976,2.07-1.694C124.726,21.227,124.831,21.036,124.92,20.835
	 M119.86,23.79c-0.109,0.016-0.215,0.03-0.322,0.044c-0.086-0.069-0.18-0.132-0.268-0.199
	C119.465,23.696,119.662,23.748,119.86,23.79 M116.149,22.53c-0.002-0.004-0.002-0.009-0.004-0.012
	c-0.244-0.289-0.555-0.494-0.891-0.664c-0.029-0.044-0.061-0.089-0.093-0.135c0.582,0.356,1.149,0.735,1.706,1.134
	C116.63,22.744,116.392,22.637,116.149,22.53 M119.413,25.8c0.254,0.321,0.445,0.619,0.596,0.913
	c-0.14-0.203-0.287-0.401-0.445-0.595c-0.473-0.581-0.969-1.162-1.518-1.682C118.539,24.84,119.002,25.283,119.413,25.8
	 M120.569,31.817c0.021,0.015,0.041,0.029,0.063,0.042c-0.006,0.013-0.015,0.024-0.021,0.038c-0.026,0.063-0.021,0.122-0.002,0.172
	c-0.07,0.015-0.141,0.026-0.213,0.044C120.453,32.013,120.524,31.922,120.569,31.817 M116.72,33.947
	c-0.029-0.02-0.063-0.035-0.094-0.055c0.032,0.003,0.064,0.007,0.096,0.009C116.72,33.917,116.72,33.931,116.72,33.947
	 M110.522,32.376c0.154-0.042,0.307-0.084,0.459-0.126c0.541,0.229,1.072,0.477,1.596,0.742c0.758,0.373,1.586,0.558,2.385,0.821
	c0.092,0.03,0.163,0.076,0.251,0.109C113.661,33.425,111.948,33.187,110.522,32.376 M120.177,48.247
	c0.008,0.009,0.018,0.018,0.027,0.026c-0.038,0.003-0.075,0.006-0.113,0.008C120.12,48.27,120.147,48.258,120.177,48.247
	 M119.468,8.229c0.666,0.09,1.313,0.367,1.936,0.762c-0.915-0.458-1.867-0.574-2.947-0.741C118.679,8.182,119,8.166,119.468,8.229
	 M118.496,9.71c1.229,1.373,2.549,2.665,3.747,4.07c0.807,0.946,1.27,1.851,1.5,3.013c-0.99-1.842-2.424-3.633-3.294-4.747
	C120.086,11.581,119.078,10.578,118.496,9.71 M115.511,21.503c-0.261-0.124-0.517-0.246-0.766-0.365
	c-0.152-0.195-0.313-0.367-0.479-0.495c0.162,0.06,0.336,0.15,0.525,0.301C115.026,21.13,115.267,21.317,115.511,21.503
	 M116.999,24.91c-0.832-0.6-1.648-1.216-2.43-1.878c-0.291-0.253-0.566-0.52-0.829-0.801c-0.179-0.181-0.284-0.366-0.36-0.549
	c0.938,1.004,2.221,1.727,3.227,2.633c0.394,0.354,0.756,0.72,1.102,1.093C117.47,25.241,117.229,25.077,116.999,24.91
	 M116.194,35.903c-1.485-1.21-3.602-1.814-5.299-2.82c0-0.002,0-0.005,0-0.007c1.067,0.594,2.261,0.925,3.502,1.305
	c3.139,0.961,4.41,3.474,4.664,6.283c-0.004-0.03-0.004-0.065-0.008-0.095C118.813,38.611,117.677,37.112,116.194,35.903
	 M110.289,39.99c0.175,1.922,0.717,4.08,0.067,5.37c0.072-0.385,0.061-0.838,0.104-1.198c0.072-0.615,0.098-1.203-0.01-1.814
	c-0.02-0.113-0.211-0.088-0.201,0.027c0.04,0.502-0.046,0.96-0.164,1.423C110.17,42.42,110.118,41.195,110.289,39.99
	 M110.826,40.683c0-0.002-0.001-0.005-0.001-0.008c0.001,0,0.002-0.002,0.003-0.002C110.827,40.676,110.827,40.68,110.826,40.683
	 M110.896,45.048c-0.018,0.01-0.035,0.013-0.051,0.029c0.01-0.04,0.019-0.081,0.027-0.122
	C110.879,44.987,110.888,45.017,110.896,45.048 M111.276,37.183c-0.032,0.541-0.176,1.047-0.352,1.573
	c-0.041,0.121-0.09,0.244-0.139,0.368c0.027-0.556,0.125-1.103,0.32-1.636C111.162,37.387,111.216,37.286,111.276,37.183
	 M108.835,41.773c0.008-0.277,0.008-0.556-0.01-0.835c-0.001-0.027-0.014-0.045-0.025-0.06c0.032-0.114,0.068-0.228,0.111-0.341
	C108.877,40.949,108.853,41.361,108.835,41.773 M108.747,43.77c0.008-0.415,0.031-0.829,0.057-1.243
	C108.786,42.942,108.769,43.356,108.747,43.77 M108.358,45.557c-0.016-0.002-0.028-0.012-0.045-0.012
	c0.006-0.028,0.013-0.056,0.018-0.084C108.341,45.493,108.347,45.528,108.358,45.557 M101.925,45.093
	c0.002,0.006,0,0.012,0.002,0.018c-0.017,0.014-0.033,0.028-0.05,0.042C101.894,45.133,101.91,45.114,101.925,45.093
	 M102.623,45.307c0.003,0.032,0.005,0.064,0.008,0.097c-0.014,0-0.028-0.001-0.042-0.001
	C102.603,45.371,102.612,45.339,102.623,45.307 M111.839,47.124c0.006,0.006,0.01,0.012,0.014,0.018
	c-0.008-0.002-0.015-0.004-0.022-0.006C111.834,47.132,111.836,47.128,111.839,47.124 M112.065,37.013
	c-0.062,0.167-0.145,0.325-0.213,0.489c0.015-0.253,0.004-0.505-0.07-0.746C111.872,36.822,111.966,36.902,112.065,37.013
	 M111.284,36.656c-0.031,0.014-0.061,0.027-0.09,0.041C111.224,36.677,111.253,36.668,111.284,36.656 M110.435,37.655
	c-0.045,0.136-0.082,0.277-0.109,0.425c-0.491,0.86-0.842,1.778-0.932,2.819c-0.086,1.017,0.168,2.784-0.103,4.149
	c0.101-1.782-0.121-3.569-0.003-5.362c0.258-0.526,0.534-1.043,0.83-1.546C110.218,37.973,110.325,37.813,110.435,37.655
	 M84.052,33.986c-0.363-0.541-0.652-1.113-0.889-1.745c0.15,0.073,0.311,0.165,0.477,0.28c-0.029,0.038-0.047,0.087-0.029,0.153
	C83.728,33.118,83.882,33.554,84.052,33.986 M91.162,43.221c-0.039-0.102-0.082-0.201-0.116-0.302
	c-0.104-0.296-0.195-0.595-0.291-0.893c-0.166-0.506-0.29-1.008-0.455-1.499c0.209,0.391,0.406,0.791,0.59,1.204
	c-0.068-0.028-0.162,0.022-0.131,0.107C90.913,42.284,91.046,42.75,91.162,43.221 M90.554,43.233
	c0.022,0.067,0.065,0.178,0.123,0.298c-0.691-0.506-0.709-2.171-0.895-2.898c-0.186-0.731-0.418-1.446-0.727-2.126
	c0.258,0.371,0.504,0.745,0.735,1.126c-0.019,0.02-0.032,0.046-0.024,0.078C90.056,40.882,90.169,42.085,90.554,43.233
	 M88.238,37.399c0.553,0.989,0.842,2.083,1.007,3.2c-0.71-1.826-1.645-3.577-2.684-5.225c0.25,0.289,0.438,0.515,0.527,0.619
	C87.496,36.465,87.874,36.932,88.238,37.399 M85.601,34.306c-0.024,0.041-0.037,0.09-0.008,0.147
	c0.324,0.678,0.627,1.365,0.924,2.053c-0.9-1.157-1.813-2.311-2.402-3.623C84.612,33.294,85.132,33.807,85.601,34.306
	 M82.847,32.122c0,0.002-0.002,0.002-0.002,0.003c0.012,0.585,0.166,1.164,0.4,1.721c-0.167-0.167-0.327-0.341-0.475-0.522
	c-0.17-0.397-0.256-0.804-0.248-1.218C82.62,32.089,82.728,32.093,82.847,32.122 M72.975,52.718c-0.401-0.502-0.736-1.1-1.217-1.518
	c0.114,0.038,0.225,0.083,0.337,0.13c-0.031,0.04-0.036,0.096,0.022,0.123c0.622,0.299,1.028,0.902,1.329,1.548
	C73.296,52.895,73.139,52.801,72.975,52.718 M71.754,52.325c-0.341-0.372-0.679-0.785-1.054-1.139
	c0.223,0.107,0.433,0.245,0.624,0.428c0.228,0.219,0.41,0.48,0.586,0.748C71.858,52.349,71.806,52.337,71.754,52.325 M69.557,51.893
	c-0.263-0.351-0.423-0.765-0.782-1.071c0-0.001-0.001-0.001-0.002-0.001h0.1c0.072,0.024,0.144,0.047,0.213,0.077
	c0.004,0.018,0.015,0.035,0.037,0.046c0.365,0.168,0.535,0.509,0.713,0.849c0.026,0.05,0.05,0.104,0.074,0.158
	C69.792,51.932,69.675,51.911,69.557,51.893 M67.942,51.342c0.158,0.078,0.276,0.183,0.377,0.3c-0.269-0.158-0.537-0.318-0.806-0.48
	C67.658,51.219,67.804,51.273,67.942,51.342 M70.07,51.587c0.157,0.151,0.31,0.31,0.458,0.475c-0.061-0.011-0.122-0.023-0.183-0.033
	C70.261,51.877,70.163,51.728,70.07,51.587 M74.433,53.987c-0.1-0.267-0.229-0.573-0.385-0.883c0.071,0.104,0.141,0.208,0.212,0.31
	c0.139,0.276,0.255,0.557,0.348,0.842C74.553,54.164,74.496,54.074,74.433,53.987 M65.884,51.301
	c-0.028-0.006-0.056-0.009-0.083-0.015c-2.628-1.499-4.869-3.328-6.822-5.614c0.92,0.853,1.876,1.671,2.824,2.504
	C63.108,49.324,64.43,50.407,65.884,51.301 M55.111,41.936c0.019,0.048,0.039,0.096,0.059,0.143c-0.023-0.04-0.042-0.08-0.064-0.12
	C55.11,41.953,55.108,41.943,55.111,41.936 M55.86,42.92c0.069,0.106,0.125,0.216,0.198,0.322c0.11,0.286,0.225,0.573,0.343,0.857
	c-0.138-0.207-0.274-0.415-0.405-0.622c0.009-0.018,0.014-0.04,0.008-0.065C55.963,43.249,55.908,43.084,55.86,42.92 M60.055,48.458
	c-0.722-0.789-1.496-1.525-2.139-2.393c-0.377-0.508-0.678-1.069-0.959-1.643c0.529,0.651,1.083,1.282,1.575,1.897
	c1.085,1.356,2.334,2.642,3.727,3.723c-0.087-0.046-0.176-0.078-0.263-0.128C61.355,49.552,60.702,49.048,60.055,48.458
	 M61.911,57.547c-0.925-0.986-0.948-2.49-1.356-3.771c-0.021-0.14-0.053-0.277-0.102-0.412c0.004-0.002,0.008-0.001,0.011-0.003
	c0.989,1.519,2.582,1.992,4.437,2.342c1.485,0.279,2.339,1.139,3.39,2.155c0.25,0.242,0.533,0.501,0.848,0.669
	c-0.553,0.08-1.092,0.184-1.622,0.305c-0.205-0.503-0.529-0.965-0.865-1.383c-0.052-0.066-0.16,0.02-0.115,0.088
	c0.244,0.371,0.406,0.77,0.581,1.167c-0.093-0.074-0.165-0.17-0.222-0.311c-0.042-0.107-0.199-0.068-0.173,0.048
	c0.045,0.222,0.136,0.387,0.276,0.509c-0.039,0.009-0.076,0.022-0.114,0.032c-0.248-0.797-1.149-1.435-1.743-1.898
	c-0.058-0.045-0.14,0.032-0.083,0.082c0.344,0.307,0.667,0.624,0.974,0.968c0.166,0.188,0.279,0.391,0.382,0.598
	c-0.823-0.802-2.205-1.096-2.999-1.921c-0.082-0.084-0.209,0.043-0.129,0.129c0.459,0.496,1.014,0.785,1.586,1.128
	c0.284,0.17,0.517,0.358,0.736,0.556C64.41,58.281,62.893,58.594,61.911,57.547 M61.523,79.555c0.611-0.298,1.243-0.554,1.889-0.78
	c-0.757,0.392-1.503,0.811-2.251,1.225C61.286,79.855,61.407,79.707,61.523,79.555 M51.909,91.124
	c-0.084-0.097-0.115-0.225-0.111-0.386C51.831,90.868,51.87,90.996,51.909,91.124 M43.642,119.167
	c0.004-0.084,0.008-0.168,0.011-0.252c0.032,0.095,0.077,0.182,0.12,0.27C43.729,119.18,43.686,119.175,43.642,119.167
	 M42.298,116.432c-0.024,0.017-0.05,0.024-0.074,0.04c-0.012-0.012-0.021-0.025-0.035-0.034c0.072-0.026,0.141-0.054,0.21-0.083
	C42.365,116.382,42.331,116.41,42.298,116.432 M41.434,116.717c-0.015,0.001-0.029,0-0.044,0.001
	c0.016-0.008,0.033-0.014,0.049-0.02C41.437,116.705,41.436,116.71,41.434,116.717 M41.061,119.182
	c0.013,0.004,0.027,0.006,0.04,0.009c0.005,0.04,0.005,0.079,0.012,0.12c-0.045-0.013-0.089-0.022-0.135-0.036
	C41.009,119.248,41.036,119.217,41.061,119.182 M35.408,116.525c-0.059-0.047-0.116-0.099-0.176-0.145
	c0.072,0.027,0.145,0.052,0.218,0.076C35.434,116.479,35.42,116.501,35.408,116.525 M41.33,129.07
	c-0.04-0.25-0.117-0.479-0.209-0.701c0.144,0.215,0.272,0.439,0.355,0.688c0.307,0.91-0.003,1.896-0.522,2.702
	C41.247,130.876,41.469,129.924,41.33,129.07 M41.442,131.96c0.001,0.012,0.004,0.021,0.005,0.033
	c-0.006-0.004-0.013-0.004-0.02-0.01C41.432,131.976,41.437,131.968,41.442,131.96 M42.27,132.375
	c-0.357-0.222-0.408-0.666-0.455-1.09c0.042-0.098,0.078-0.197,0.114-0.297c0.062,0.497,0.193,0.957,0.383,1.399
	C42.298,132.383,42.284,132.378,42.27,132.375 M40.582,132.785c0.008-0.004,0.016-0.009,0.023-0.014
	c-0.007,0.006-0.017,0.012-0.024,0.018C40.581,132.787,40.582,132.787,40.582,132.785 M42.982,132.507
	c-0.042-0.053-0.088-0.102-0.127-0.155c-0.46-0.636-0.61-1.53-0.688-2.315c0.003-0.021,0.009-0.045,0.012-0.066
	c0.028-0.213,0.032-0.411,0.02-0.6c0.37,0.873,0.537,1.899,0.682,2.694C42.908,132.212,42.95,132.359,42.982,132.507 M40.139,128.01
	c0.766,1.292,0.448,2.692,0.172,4.075c-0.043-1.383-0.011-2.883-0.256-4.213C40.082,127.919,40.112,127.965,40.139,128.01
	 M48.746,135.787c0.117,0.26,0.263,0.5,0.422,0.733c-0.116-0.051-0.233-0.099-0.347-0.157c-0.285-0.148-0.396-0.404-0.446-0.686
	c-0.017-0.184-0.037-0.367-0.041-0.553c-0.002-0.078-0.036-0.135-0.084-0.172c0.016-0.103,0.026-0.205,0.035-0.308
	C48.429,135.029,48.578,135.412,48.746,135.787 M47.318,132.835c0.797,1.043,0.516,2.391,0.123,3.547
	c-0.161-1.332-0.275-2.725-0.816-3.903c-0.191-0.415-0.414-0.788-0.654-1.144C46.41,131.843,46.908,132.299,47.318,132.835
	 M47.766,136.898L47.766,136.898l-0.001,0.002C47.765,136.899,47.766,136.899,47.766,136.898 M49.465,135.865
	c-0.5-0.764-0.883-1.592-1.292-2.406c-0.17-0.59-0.479-1.071-0.849-1.516c0.668,0.637,1.338,1.245,1.906,1.985
	c0.78,1.012,1.14,2.397,1.563,3.592C50.395,136.947,49.85,136.453,49.465,135.865 M45.444,130.61
	c0.004,0.011,0.008,0.021,0.012,0.03c-0.019-0.023-0.043-0.042-0.062-0.064C45.411,130.587,45.428,130.598,45.444,130.61
	 M43.928,129.551c1.124,1.225,1.97,2.573,2.383,4.207c0.252,0.995,0.234,1.993,0.421,2.962c-0.352-0.61-0.696-1.213-0.931-1.898
	c-0.352-1.031-0.446-2.13-0.778-3.166c-0.259-0.813-0.686-1.553-1.227-2.197C43.84,129.49,43.884,129.52,43.928,129.551
	 M42.112,128.283c1.624,1.512,2.25,3.44,2.626,5.562c-0.349-0.562-0.683-1.132-0.988-1.726c-0.203-0.695-0.411-1.394-0.674-2.088
	c-0.253-0.67-0.598-1.346-1.099-1.842C42.022,128.22,42.067,128.25,42.112,128.283 M75.663,155.109
	c0.044,0.012,0.089,0.016,0.132,0.008c-0.053,0.045-0.108,0.086-0.16,0.133C75.644,155.203,75.654,155.156,75.663,155.109
	 M76.017,154.889c0.002,0,0.002,0.002,0.003,0.003c0.018,0.012,0.038,0.009,0.056,0.014c-0.03,0.021-0.061,0.038-0.091,0.061
	C75.997,154.941,76.006,154.914,76.017,154.889 M76.358,154.701c0.066-0.045,0.146-0.093,0.228-0.139
	c0.051-0.01,0.101-0.021,0.153-0.029c-0.125,0.055-0.249,0.117-0.37,0.187C76.367,154.712,76.361,154.707,76.358,154.701
	 M81.724,156.819c-0.416,0.716-1.018,1.109-2.081,1.41c-0.952,0.271-1.936,0.458-2.835,0.89c-1.164,0.56-1.9,1.336-2.358,2.334
	c-0.012,0.015-0.024,0.027-0.036,0.041c0.622-2.131,2.463-3.826,4.734-4.078C79.984,157.324,80.993,157.267,81.724,156.819
	 M83.063,158.981c0.006,0.058,0.013,0.116,0.018,0.173c-0.029-0.008-0.059-0.016-0.088-0.017
	C83.019,159.087,83.04,159.033,83.063,158.981 M82.601,160.417c0.035,0.037,0.074,0.072,0.107,0.108
	c-0.041-0.032-0.084-0.062-0.127-0.091C82.588,160.429,82.595,160.423,82.601,160.417 M81.386,164.921
	c-0.818-1.284-1.475-2.616-2.672-3.477c0.158,0.047,0.316,0.088,0.473,0.157c1.035,0.46,1.567,1.683,2.037,2.638
	c0.203,0.414,0.383,0.864,0.561,1.323C81.638,165.328,81.5,165.105,81.386,164.921 M82.872,165.686
	c-0.492-1.135-0.969-2.362-1.73-3.351c-0.44-0.568-0.941-0.973-1.486-1.244c0.173,0.048,0.339,0.111,0.505,0.171
	c1.414,0.886,2.315,2.235,3.021,3.726c0.44,0.932,0.643,1.922,0.86,2.901C83.623,167.177,83.209,166.465,82.872,165.686
	 M82.63,159.677c0.01,0.04,0.021,0.08,0.031,0.119c-0.005,0.005-0.01,0.01-0.014,0.014c-0.028-0.023-0.058-0.047-0.086-0.07
	C82.583,159.716,82.608,159.701,82.63,159.677 M81.031,160.384c0.694,0.271,1.202,0.682,1.63,1.197
	c-0.686-0.539-1.469-0.916-2.313-1.14C80.579,160.43,80.807,160.412,81.031,160.384 M76.328,160.76
	c0.214-0.009,0.424-0.003,0.636-0.003c-0.067,0.011-0.134,0.027-0.201,0.042c-0.2-0.013-0.396-0.007-0.593,0.009
	C76.223,160.791,76.275,160.775,76.328,160.76 M74.409,162.75c0.024-0.076,0.042-0.164,0.068-0.237
	c0.879-1.076,2.068-0.878,3.083-0.21c-0.151-0.053-0.302-0.082-0.455-0.107C76.12,161.805,75.183,161.884,74.409,162.75
	 M82.166,158.688c-0.522,1.199-2.709,0.979-3.814,1.082c-0.818,0.075-1.58,0.229-2.264,0.517c0.975-0.711,2.247-1.078,3.743-1.375
	c1.245-0.248,2.25-0.801,2.693-1.797C82.458,157.64,82.394,158.166,82.166,158.688 M79.058,156.748
	c-0.957,0.147-1.742,0.545-2.535,1.098c-0.802,0.558-1.487,1.287-1.956,2.125c0.061-0.299,0.124-0.598,0.19-0.896
	c0.417-0.738,0.955-1.391,1.716-1.925c0.933-0.655,1.999-0.586,3.072-0.583c0.153,0,0.376,0.016,0.624,0.028
	C79.781,156.662,79.39,156.699,79.058,156.748 M75.498,155.882c1.083-0.939,2.329-1.122,3.633-0.975
	c-0.423,0.061-0.799,0.131-1.047,0.172c-0.816,0.138-1.833,0.465-2.631,1.004C75.468,156.017,75.483,155.951,75.498,155.882
	 M75.306,156.723c0.795-0.618,1.909-0.905,2.862-1.022c0.774-0.098,2.293-0.306,3.146,0.055c-0.551,0.107-1.44,0.046-1.769,0.063
	c-0.867,0.046-1.69,0.052-2.498,0.386c-0.782,0.326-1.437,0.844-1.967,1.473C75.156,157.358,75.231,157.041,75.306,156.723
	 M74.113,164.015c0.079-0.089,0.156-0.167,0.235-0.246c-0.089,0.121-0.162,0.258-0.229,0.405
	C74.119,164.121,74.113,164.068,74.113,164.015 M78.557,164.261c-0.223-0.246-0.459-0.473-0.723-0.664
	c-0.874-0.633-1.798-0.79-2.54-0.538C76.543,162.449,77.649,163.166,78.557,164.261 M78.777,164.533
	c-0.018-0.022-0.034-0.047-0.053-0.07C78.742,164.486,78.759,164.509,78.777,164.533 M77.209,184.162
	c-1.992-0.09-4.014,0.103-6.004,0.162c-1.452,0.045-3.373-0.445-4.808-0.05c-1.096,0.302-1.387,1.738-2.566,1.738
	c-1.413,0-2.035,1.298-2.399,2.502c-0.901-0.771-2.037-0.628-3.106-0.161c-0.906,0.395-1.76,0.906-2.693,1.24
	c-0.52,0.186-1.055,0.193-1.594,0.088c-0.445-0.087-0.653-0.275-0.725-0.516c0.004-0.08,0.008-0.162,0.035-0.258
	c0.241-0.863,0.85-1.703,1.397-2.387c0.425-0.533,0.867-1.031,1.284-1.546c1.986-1.882,4.267-3.362,7.23-3.397
	c2.667-0.033,5.412,0.392,8.107,0.416c2.425,0.022,5.086-0.026,7.233-1.129c3.15-0.767,2.709-4.515,1.585-6.848
	c-0.027-0.059-0.111-0.008-0.085,0.05c0.535,1.183,0.822,2.503,0.499,3.779c-0.043-0.626-0.254-1.164-0.623-1.922
	c-1.531-3.148-4.143-5.007-5.328-8.546c-0.259-0.777-0.407-1.559-0.48-2.344c0.525-3.324,2.857-1.414,3.671-0.565
	c0.499,0.521,0.868,1.21,1.231,1.829c0.588,1.001,1.113,2.011,1.826,2.931c0.781,1.004,2.125,1.649,3.46,1.82
	c-1.795,0.407-3.91-0.452-4.958-1.984c-0.834-1.219-1.162-2.69-2.216-3.772c-0.975-1-1.636-0.217-1.85,0.723
	c0.182-0.452,0.737-0.641,1.681-0.555c0.293,0.332,0.532,0.699,0.719,1.099c0.328,0.615,0.571,1.286,0.847,1.926
	c0.489,1.13,1.175,1.851,2.169,2.564c1.364,0.979,3.283,1.325,4.687,0.495c-0.836,1.005-1.629,1.617-3.396,1.156
	c-2.054-0.539-3.697-2.16-4.682-3.979c-0.034-0.063-0.127-0.007-0.095,0.057c1.011,2.106,2.937,3.711,5.167,4.396
	c1.162,0.358,1.983,0.12,2.668-0.421c-0.461,1.515-0.731,3.057-0.627,4.673c0.1,1.565,0.924,3.007,1.646,4.431
	c0.141,0.457,0.271,0.936,0.254,1.393C84.457,185.164,79.607,184.272,77.209,184.162 M84.791,128.147
	c10.444,7.324,22.237,11.281,26.733,24.293c-0.021-0.014-0.045-0.028-0.066-0.043c-1.943-1.26-3.357-2.606-4.445-4.667
	c-0.027-0.048-0.094-0.006-0.072,0.041c0.943,2.055,2.373,3.827,4.178,5.208c1.482,1.136,1.93,2.539,2.16,4.032
	c0.197,1.566,0.293,3.169,0.49,4.021c0.533,2.293,1.551,4.758,3.324,6.367c1.051,0.953,2.235,0.955,3.231,0.441
	c-0.96,1.018-2.361,1.457-4.099,0.695c-0.904-0.395-1.558-1.244-2.101-2.164c-0.015-0.039-0.03-0.072-0.06-0.102
	c-0.315-0.547-0.596-1.107-0.862-1.622c-0.302-1.427-0.708-2.599-0.511-4.086c0.015-0.114-0.172-0.116-0.182,0
	c-0.199,2.112,0.053,4.412,0.385,6.524c-0.016,0.027-0.026,0.055-0.041,0.08c-1.09-1.864-0.623-4.385-1.543-6.387
	c-0.006-0.029-0.008-0.058-0.014-0.087c-0.266-1.493-0.611-2.692-0.254-4.237c0.02-0.088-0.111-0.125-0.136-0.037
	c-0.545,1.955-0.21,4.117-0.073,6.154c-0.387-0.531-0.609-1.17-0.783-1.811c0.271-1.78,0.199-3.635-0.332-5.663
	c-0.021-0.077-0.063-0.124-0.113-0.151c-0.602-1.785-1.963-3.389-3.484-4.358c-0.045-0.029-0.084,0.04-0.041,0.071
	c2.047,1.443,3.105,3.924,3.303,6.379c0.174,6.363-4.055,10.297-6.143,16.215c-1.637,4.641-1.139,8.865-0.037,13.414
	c-0.77-1.486-1.186-3.076-1.632-4.737c-0.034-0.123-0.226-0.069-0.192,0.053c0.495,1.867,0.857,3.959,1.748,5.687
	c0.742,1.441,1.607,2.724,2.523,4c0.553,1.031,1.014,2.09,1.145,3.238c0.271,2.385-1.697,6.192-2.182,8.58
	c-1.021,5.024-1.215,10.402-0.547,15.498c-0.375-0.723-0.607-1.533-0.791-2.313c-0.016-0.066-0.115-0.039-0.102,0.028
	c0.323,1.529,0.838,3.407,1.891,4.668c0.043,0.069,0.08,0.145,0.119,0.217c-0.299,0.053-0.592,0.121-0.928,0.199
	c-0.203,0.045-0.347,0.338-0.209,0.517c0.197,0.223,0.332,0.472,0.436,0.733c-1.102-0.094-1.557,0.864-1.889,2.059
	c-0.152,0.39-0.242,0.813-0.314,1.24c-0.217,0.894-0.461,1.768-0.911,2.343c-0.087,0.067-0.169,0.142-0.278,0.187
	c-0.306,0.123-0.644,0.156-0.98,0.203c-0.016-0.007-0.026-0.018-0.043-0.023c-1.229-0.381-2.618-0.551-3.899-0.34
	c-1.942,0.319,1.274-4.877,1.538-5.252c1.309-1.865,2.729-3.664,3.288-5.799c0.757-2.072,0.606-4.64,0.511-6.775
	c0.121-4.358,0.016-8.742,0.117-13.086c0.127-5.457-4.225-9.047-7.291-13.058c-3.249-4.252-5.84-8.946-7.615-13.971
	c0.055-0.127-0.006-0.252-0.115-0.319c-0.344-0.998-0.668-2.006-0.947-3.031c-1.396-5.149-0.039-10.705-2.709-15.492
	c-0.1-0.178-0.346-0.021-0.27,0.156c0.631,1.455,0.959,2.988,1.143,4.561c-0.073-0.146-0.146-0.292-0.223-0.432
	c0.02-0.174-0.08-0.311-0.229-0.383c-2.15-3.507-5.83-4.842-9.992-6.188c-4.481-1.449-8.437-3.944-12.437-6.371
	c-0.088-0.054-0.175-0.108-0.263-0.164c-1.685-1.481-3.25-3.167-3.768-5.243c-0.233-0.938-0.398-1.564-1.087-2.236
	c-1.169-1.143,0.075-1.519,0.695-2.166c0.046-0.049-0.025-0.119-0.075-0.074c-0.621,0.548-1.664,0.759-1.864,1.639
	c-0.085,0.374,1.849,2.539,1.792,2.313c0.329,1.317,0.928,2.449,1.683,3.471c-1.037-0.818-2.074-1.635-2.661-2.932
	c-0.043-0.093-0.204-0.024-0.166,0.071c0.317,0.825,0.798,1.536,1.358,2.187c-0.295-0.238-0.607-0.442-0.993-0.492
	c-0.291-0.037-0.566,0.004-0.809,0.113c-0.31,0.051-0.605,0.192-0.847,0.455c-0.341,0.369-0.331,0.889-0.203,1.391
	c-0.023-0.008-0.047-0.012-0.07-0.02c-0.051-0.059-0.126-0.094-0.218-0.104c-0.074-0.041-0.148-0.084-0.219-0.134
	c-0.145-0.178-0.283-0.363-0.409-0.562c-0.161-0.346-0.298-0.709-0.512-1.018c-0.011-0.015-0.03-0.022-0.044-0.034
	c-0.618-1.365-1.017-2.936-1.55-4.212c-0.577-1.384-1.349-2.212-2.343-3.04c1.191,0.516,1.867,0.18,2.675-0.961
	c1.359-0.087,2.861,0.337,3.092-1.561c0.086-0.695-0.063-1.36-0.205-2.037c-0.166-0.793-0.086-1.301,0.244-1.715
	c0.747-0.43,1.865-0.502,1.828-1.652c-0.014-0.426-0.079-0.86-0.35-1.206c-0.351-0.447-0.988-0.951-0.309-1.694
	c0.271-0.297,0.708-0.494,1.067-0.664c0.028-0.013,0.008-0.057-0.02-0.048c-0.693,0.201-2.135,0.813-1.622,1.813
	c0.203,0.397,0.595,1.026,0.67,1.562c-0.103,0.19-0.198,0.38-0.355,0.519c-0.022-0.002-0.04-0.018-0.063-0.013
	c-1.493,0.269-2.211,1.371-1.963,2.841c0.133,0.797,0.4,1.604,0.222,2.416c-0.147,0.67-1.071,0.756-1.878,0.896
	c0.021-0.033,0.041-0.065,0.062-0.1c0.904-0.94,0.454-2.418,0.458-3.69c0.089-0.533,0.207-1.05,0.464-1.535
	c0.021-0.04-0.037-0.074-0.061-0.035c-0.242,0.412-0.445,0.748-0.536,1.144c-0.004,0.007-0.011,0.01-0.013,0.019
	c-0.003,0.017-0.002,0.032-0.005,0.049c-0.013,0.068-0.018,0.144-0.023,0.218c-0.074,0.569-0.096,1.142-0.122,1.715
	c-0.03,0.67-0.269,1.129-0.589,1.608c-1.143,1.228-1.861,1.462-3.665,0.312c-2.57-1.639-4.974-3.545-7.501-5.25
	c-2.668-1.801-6.075-3.807-9.393-5.055c-0.392-0.248-0.78-0.502-1.204-0.716c-0.779-0.394-1.427-0.858-1.66-1.71
	c0.116-0.52,0.358-0.994,0.869-1.363c0.09-0.066,0.012-0.209-0.087-0.153c-1.022,0.579-1.408,1.327-1.524,2.476
	c-0.159,1.564-0.023,3.15-0.122,4.732c-0.286,1.736-0.625,3.474-0.761,5.195c-0.115,1.478,0.057,2.894,0.508,4.297
	c0.268,0.838,1.943,2.154,1.25,3.026c-0.683,0.376-1.504,0.39-1.767-0.536c-0.014-0.043-0.082-0.037-0.082,0.01
	c0.004,0.904,0.679,1.154,1.401,1.035c0.021,0.076,0.078,0.133,0.162,0.146c0.009,0.053,0.024,0.107,0.065,0.148
	c0.068,0.071,0.142,0.138,0.212,0.205c-0.164,0.033-0.325,0.066-0.471,0.082c-0.629,0.066-1.094-0.039-1.377-0.662
	c-0.043-0.092-0.181-0.023-0.16,0.069c0.125,0.563,0.485,0.896,1.012,1.063c-0.031,0.796,0.341,1.425,0.857,2.019
	c0.588,0.681,1.829,1.427,1.195,2.306c-0.013,0.017-0.024,0.033-0.038,0.051c-0.044,0.055-0.091,0.109-0.15,0.162
	c-0.011,0.013-0.009,0.027-0.016,0.039c-0.086,0.096-0.175,0.19-0.251,0.269c-0.44,0.454-1.084,0.685-1.535,1.142
	c-0.068,0.069,0.032,0.161,0.103,0.104c0.279-0.223,0.597-0.391,0.907-0.563c-1.027,1.355-1.636,2.994-2.103,4.641
	c-1.288-2.564-1.22-5.85-1.456-8.611c0.378-0.365,0.717-0.773,0.908-1.253c0.027-0.069-0.09-0.104-0.113-0.031
	c-0.169,0.531-0.463,0.793-0.977,0.962c-0.044,0.014-0.085,0.027-0.127,0.041c-0.011,0.002-0.022,0.008-0.032,0.01
	c-0.005,0.002-0.009,0.004-0.013,0.004c-0.12-0.002-0.234,0.014-0.344,0.039c0.24-0.918,0.449-1.828,0.493-2.791
	c0.001-0.034-0.05-0.032-0.053,0c-0.039,0.381-0.163,0.738-0.319,1.084c0.169-5.52-0.399-10.928-0.911-16.428
	c-0.334-3.578-0.395-8.662,5.558-6.681c1.718,0.57,3.35,1.603,4.955,2.424c0.889,0.454,2.266,1.248,3.802,1.987
	c0.036,0.029,0.076,0.058,0.112,0.089c0.06,0.052,0.126,0.062,0.187,0.052c2.905,1.365,6.286,2.426,8.077,0.635
	c1.289-0.987,1.268-2.918,0.342-4.202c-0.059-0.081-0.19-0.01-0.137,0.08c0.611,1.073,0.388,1.977-0.06,2.874
	c-0.24,0.213-0.512,0.392-0.793,0.551c-0.087,0.018-0.173,0.029-0.256,0.035c-0.342-0.056-0.629-0.248-0.751-0.588
	c-0.044-0.194-0.07-0.394-0.083-0.586c0.051-0.799,0.151-1.588,0.435-2.412c0.464-1.332,1.325-2.51,2.284-3.55
	c0.239-0.202,0.435-0.313,0.556-0.28c0.117,0.033,0.229-0.022,0.293-0.119c0.417-0.62,0.326-1.089,1.073-1.295
	c0.631-0.173,0.722-1.258,0.703-1.754c-0.005-0.105-0.161-0.105-0.165,0c-0.06,1.7-1.158,0.883-1.582,1.731
	c-0.168,0.335-0.153,0.515-0.315,0.806c-0.04-0.008-0.082-0.003-0.122,0.03c-0.015,0.012-0.03,0.026-0.045,0.038
	c-0.13-0.027-0.337-0.053-0.405-0.001c-1.304,0.982-2.058,2.446-3.168,3.624c-0.906,0.959-1.953,1.496-3.098,1.846
	c-2.634,0.24-5.848-0.698-7.499-1.591c-0.042-0.023-0.084-0.009-0.119,0.014c-0.003-0.002-0.005-0.003-0.008-0.004
	c-1.777-0.924-3.217-2.406-4.49-3.947c-0.068-0.144-0.135-0.29-0.207-0.432c-0.341-0.677-0.803-1.392-1.502-1.666
	c0.525-0.243,1.019-0.557,1.498-1.008c0.123-0.115-0.038-0.327-0.182-0.235c-1.795,1.157-3.931,0.913-5.766,2.007
	c-1.421,0.848-2.751,2.05-4.042,3.087c-1.268,1.02-2.44,2.149-3.459,3.411c0.25-0.441,0.517-0.875,0.718-1.327
	c0.049-0.111-0.112-0.211-0.167-0.097c-0.752,1.54-2.121,2.958-2.114,4.69c-0.163,0.363-0.363,0.615-0.628,0.656
	c-0.022,0.005-0.042,0.007-0.062,0.018c-0.011,0.001-0.018,0.01-0.029,0.01c-0.021-0.002-0.033,0.012-0.05,0.019
	c-0.208-0.072-0.408-0.166-0.597-0.272c-0.333-0.187-0.63-0.397-0.97-0.104c-0.04,0.034,0.014,0.104,0.057,0.073
	c0.598-0.424,0.949,0.567,1.362,0.797c0.042,0.025,0.092,0.029,0.137,0.048c0.006,0.254-0.008,0.5,0.029,0.743
	c-0.576,0.107-1.168,0.006-1.723-0.187c-0.045-0.03-0.097-0.057-0.145-0.086c-0.014-0.008-0.024-0.019-0.04-0.022
	c-0.276-0.159-0.579-0.297-0.866-0.364c-0.413-0.101-0.614,0.374-0.735,0.676c-0.035,0.089,0.117,0.151,0.156,0.063
	c0.085-0.188,0.244-0.649,0.558-0.498c0.158,0.076,0.249,0.277,0.347,0.408c0.035,0.049,0.074,0.094,0.115,0.135
	c-0.229,0.423-0.345,0.812-0.406,1.343c-0.162,1.403-0.434,2.015-2.051,1.985c-0.836-0.013-1.627-0.047-2.455,0.078
	c-0.28,0.041-2.83,0.979-3.511,1.051c0.135-0.235,0.269-0.471,0.397-0.711c1.037-1.101,1.7-2.365,2.464-3.752
	c1.849-3.359,5.525-5.218,8.463-7.461c1.889-1.442,3.605-3.107,5.3-4.768c2.366-2.32,4.676-6.291,8.414-6.464
	c0.06-0.003,0.102-0.036,0.131-0.076c2.655,0.319,3.802,3.652,5.01,5.794c0.426,0.753,0.974,1.72,1.668,2.479
	c0.613,0.85,1.478,1.77,2.327,1.538c0.931,0.053,2.006-0.5,2.57-1.121c1.07-1.174,1.319-3.113,0.189-4.313
	c-0.003-0.004-0.008-0.002-0.011-0.005c0.002-0.014,0.008-0.026,0.001-0.042c-0.029-0.073-0.051-0.123-0.088-0.192
	c-0.062-0.119-0.232-0.015-0.177,0.103c0.023,0.058,0.052,0.113,0.088,0.164c0.002,0.002,0.004,0.002,0.006,0.004
	c-0.021,0.033-0.031,0.071-0.003,0.109c0.858,1.165,0.563,2.551-0.366,3.575c-0.31,0.341-0.68,0.612-1.098,0.79
	c0.969-0.635,1.693-1.909,1.514-2.932c-0.141-0.806-0.818-1.468-1.647-1.54c-0.507-0.045-1.02,0.127-1.327,0.484
	c0.05-1.077,0.139-1.814,1.253-2.382c0.063-0.033,0.122-0.066,0.184-0.099c0.874-0.371,1.82-1.035,2.239-1.715
	c0.388-0.63,0.577-1.724-0.119-2.194c-0.017-0.012-0.039,0.011-0.028,0.027c0.361,0.544,0.275,1.202-0.021,1.757
	c0.148-0.508,0.138-1.068-0.285-1.376c-0.435-0.317-0.903-0.244-1.313-0.011c0.064-0.242,0.126-0.484,0.231-0.72
	c0.225-0.501,0.696-0.846,1.133-1.148c0.465-0.32,0.919-0.647,1.313-1.034c0.298-0.15,0.591-0.306,0.843-0.537
	c0.596-0.546,0.678-1.513,0.289-2.177c-0.031-0.053-0.123-0.018-0.101,0.043c0.246,0.673,0.066,1.229-0.317,1.683
	c0.229-0.543,0.139-1.162-0.324-1.553c-0.265-0.225-0.572-0.262-0.878-0.207c1.545-1.474,3.877-1.135,5.519-2.33
	c0.044-0.007,0.086-0.026,0.114-0.066c0.015-0.02,0.031-0.031,0.045-0.05c0.089-0.072,0.173-0.155,0.257-0.238
	c0.371-0.24,0.806-0.136,1.241,0.028c1.123,0.712,2.267,1.392,3.425,2.047c-0.092-0.02-0.183-0.04-0.271-0.066
	c-0.031-0.009-0.053,0.041-0.022,0.055c0.236,0.105,0.477,0.185,0.722,0.255c2.2,1.238,4.419,2.446,6.543,3.823
	c2.055,1.331,4.048,2.747,6.033,4.176c1.573,1.655,2.816,3.692,4.082,5.537c0.962,1.402,1.811,2.819,2.626,4.314
	c0.679,1.248,1.762,2.21,2.741,3.237C75.53,121.126,80.21,124.936,84.791,128.147 M76.949,99.078
	c0.09-0.302,0.104-0.621,0.133-0.933c0.072-0.764,0.736-1.283,1.488-0.92c1.42,0.686,0.828,2.754-0.439,3.201
	c-0.525,0.184-1.109,0.075-1.661,0.077c0.366-0.177,0.747-0.284,1.062-0.195c0.129,0.036,0.178-0.154,0.055-0.198
	c-0.557-0.199-1.448,0.149-2,0.578c-0.035,0.019-0.068,0.044-0.101,0.066c-0.271,0.152-0.534,0.312-0.796,0.47
	c-0.01-0.021-0.015-0.046-0.048-0.05c-0.111-0.013-0.219-0.023-0.333-0.02c-0.124,0.003-0.124,0.19,0,0.193
	c0.068,0.002,0.133-0.007,0.199-0.012c-0.861,0.534-1.67,1.125-2.397,1.908c-0.854,0.919-1.762,1.721-2.657,2.561
	c-1.709-2.444-4.963-4.205-7.366-5.745c-3.971-2.545-7.954-4.551-12.108-6.732c-0.009-0.006-0.017,0.008-0.008,0.015
	c6.193,4.193,15.006,6.854,19.286,13.418c0.003,0.005,0.007,0.007,0.011,0.012c-0.005,0.023-0.004,0.045-0.011,0.068
	c-0.939-0.046-3.496-2.481-4.062-2.891c-2.198-1.596-4.421-3.158-6.675-4.674c-3.713-2.5-7.649-4.283-11.569-6.337
	c-0.007-0.006-0.007-0.016-0.015-0.022c-0.269-0.187-0.574-0.349-0.892-0.458c-0.108-0.058-0.217-0.114-0.325-0.172
	c-0.085-0.046-0.16-0.009-0.199,0.051c-0.165-0.01-0.313,0.044-0.441,0.139c0.071-0.23,0.161-0.451,0.398-0.604
	c0.136-0.086,0.273-0.16,0.41-0.233c0.568,1.04,1.989,0.334,2.227-0.617c0.022-0.086-0.101-0.142-0.144-0.062
	c-0.224,0.408-0.636,0.659-1.005,0.58c2.051-2.244,2.378-6.402,1.654-9.163c-0.033-0.126-0.152-0.125-0.228-0.062
	c0.02-0.026,0.051-0.034,0.068-0.064c0.044-0.075-0.011-0.2-0.109-0.189c-0.361,0.041-0.634,0.193-0.834-0.2
	c-0.185-0.364-0.115-0.872,0.167-1.162c0.172-0.178,0.423-0.204,0.656-0.168c0.41,0.061,0.684,0.286,0.603,0.699
	c-0.068,0.351-0.266,0.858-0.004,1.167c-0.01,0.039-0.008,0.08,0.03,0.11c2.546,2.062,2.112,5.304,2.807,8.134
	c-0.027-0.045-0.102-0.056-0.118,0.007c-0.082,0.323-0.054,0.591,0.153,0.756c-0.052,0.039-0.105,0.069-0.16,0.084
	c-0.189-0.174-0.313-0.391-0.388-0.665c-0.013-0.048-0.085-0.028-0.074,0.02c0.06,0.251,0.164,0.465,0.313,0.648
	c-0.074-0.018-0.152-0.061-0.235-0.15c-0.346-0.369-0.458-1.204-0.574-1.689c-0.013-0.057-0.111-0.045-0.103,0.013
	c0.089,0.698-0.102,1.604,0.398,2.195c0.504,0.594,1.017,0.346,1.455-0.049c0.094-0.036,0.185-0.079,0.27-0.132
	c0.041-0.023,0.057-0.059,0.081-0.093c1.745-1.11,3.553-2.168,5.166-3.463c0.304-0.036,0.614-0.304,0.81-0.621
	c0.148-0.127,0.231-0.307,0.254-0.588c0.033-0.379-0.089-0.629,0.083-1.006c0.211-0.459,0.705-0.87,1.231-0.766
	c0.807,0.156,0.918,1.512,0.097,1.717c-0.271,0.068-0.466,0.177-0.677,0.359c-0.416,0.359-0.41,0.883-0.274,1.366
	c-0.224,1.914-1.071,8.042,0.575,8.915c0,0.005-0.005,0.008-0.003,0.013c0.337,0.878,1.637,1.194,2.353,0.629
	c0.071-0.056-0.009-0.151-0.08-0.138c-0.218,0.043-0.423,0.039-0.621,0.009c0.413-0.072,0.824-0.229,1.145-0.436
	c0.081-0.052,0.03-0.2-0.067-0.162c-0.373,0.15-0.815,0.184-1.215,0.114c0.812-0.225,1.636-0.754,2.232-1.091
	c1.183-0.669,2.527-1.483,3.514-2.491c0.006-0.002,0.01,0.005,0.015,0.002c0.932-0.51,0.6-2.773,1.972-2.506
	c0.667,0.13,1.76,1.782,0.586,1.821c-0.513,0.018-1.015-0.036-1.389,0.263c-0.019-0.077-0.032-0.155-0.056-0.231
	c-0.045-0.145-0.293-0.126-0.276,0.038c0.021,0.203,0.031,0.403,0.034,0.601c-0.009,0.039-0.009,0.075-0.003,0.11
	c-0.003,1.312-0.354,2.538-0.571,3.852c-0.135,0.816-0.203,1.7,0.08,2.475c-0.058-0.025-0.117-0.05-0.174-0.079
	c-0.516-0.259-0.508-0.887-0.443-1.377c0.009-0.081-0.131-0.099-0.145-0.019c-0.087,0.508-0.066,0.941,0.194,1.389
	c0.125,0.217,0.302,0.443,0.511,0.618c-0.343,0-0.646-0.055-0.859-0.22c-0.076-0.059-0.219,0.021-0.149,0.113
	c0.611,0.793,1.452,0.748,2.366,0.496c1.569-0.433,3.166-0.97,4.782-1.3c0.809-0.073,1.619-0.141,2.429-0.276
	c0.697-0.117,1.576-0.477,1.373-1.308c-0.01-0.04-0.071-0.032-0.07,0.008c0.013,0.391-0.244,0.616-0.62,0.744
	C76.917,99.13,76.938,99.115,76.949,99.078 M60.222,90.755c-0.016-0.001-0.031-0.001-0.046,0.001c0.02-0.014,0.039-0.03,0.059-0.044
	C60.228,90.726,60.225,90.74,60.222,90.755 M59.837,91.127c-0.001-0.051-0.002-0.102-0.003-0.153
	c0.055-0.033,0.111-0.064,0.164-0.098C59.952,90.965,59.895,91.047,59.837,91.127 M73.622,95.768
	c-0.023-0.004-0.046-0.005-0.07-0.004c0.065-0.067,0.129-0.134,0.193-0.201C73.705,95.632,73.661,95.699,73.622,95.768
	 M68.747,97.059c-0.032-0.009-0.059-0.013-0.092-0.013c0.046-0.024,0.092-0.047,0.138-0.071
	C68.777,97.003,68.763,97.032,68.747,97.059 M87.235,62.916c1.342,0.549,3.012,0.439,4.396,0.886
	c-1.503,0.441-2.808,1.306-4.181,2.09c-2.569,1.467-5.432,1.394-7.915-0.059c-0.577-0.487-0.976-1.151-1.033-2.167
	c-0.005-0.086-0.131-0.086-0.135,0c-0.059,1.139,0.316,2.359,1.195,3.123c0.372,0.323,0.846,0.51,1.308,0.669
	c0.395,0.463,0.805,0.914,1.135,1.433c0.35,0.549,0.547,1.184,0.701,1.836c0.482,5.282-1.521,11.722-3.497,15.998
	c-1.24,2.683-2.997,4.975-4.565,7.385c-0.299,0.292-0.602,0.578-0.9,0.871c0.89-1.507,1.59-3.112,1.624-4.815
	c0.001-0.076-0.112-0.074-0.117,0c-0.167,2.523-1.7,4.262-2.948,6.227c-0.885,0.858-1.8,1.68-2.745,2.465
	c0.049-0.105,0.1-0.213,0.145-0.309c0.338-0.726,0.631-1.483,0.899-2.242c0.264-0.148,0.537-0.414,0.675-0.523
	c0.401-0.318,0.951-0.761,0.98-1.315c0.03-0.585-0.857-0.789-1.244-0.51c-0.422,0.305-0.551,0.886-0.612,1.42
	c-0.074,0.094-0.15,0.187-0.223,0.282c-0.559,0.371-1.131,0.723-1.703,1.075c0.089-0.799,0.203-1.608,0.15-2.404
	c0.08-0.018,0.157-0.066,0.212-0.158c0.247-0.414,1.009-0.172,1.415-0.268c0.353-0.084,0.689-0.307,0.781-0.685
	c0.214-0.888-0.475-1.719-1.162-2.191c-0.636-0.438-1.494-0.202-1.926,0.388c-0.453,0.621-0.373,1.525-0.66,2.245
	c-1.917,1.419-4.333,2.987-6.731,3.095c-0.098-0.301-0.184-0.605-0.255-0.91c0.102-1.01,0.174-2.009,0.374-3.01
	c0.058-0.291,0.13-0.579,0.207-0.867c0.153-0.281,0.313-0.56,0.491-0.838c0.314-0.49,0.496-0.892,1.123-1.104
	c0.309-0.105,0.51-0.412,0.693-0.66c0.319-0.431,0.075-1.001-0.277-1.294c-0.439-0.366-1.033-0.142-1.458,0.112
	c-0.353,0.211-0.549,0.654-0.435,0.994c-0.017,0.103,0.007,0.215,0.081,0.332c-0.314,0.545-0.756,0.938-1.267,1.273
	c-0.014-0.838-0.026-1.68-0.07-2.523c0.021-0.119,0.059-0.236,0.153-0.352c0.181-0.223,0.427-0.347,0.697-0.413
	c0.319-0.078,0.617-0.214,0.792-0.509c0.524-0.884,0.264-1.942-0.614-2.484c-0.724-0.446-1.627,0.06-2.092,0.63
	c-0.237,0.291-0.394,0.686-0.394,1.062c0.001,0.214,0.171,0.582,0.196,0.886c-0.048,0.099-0.093,0.199-0.148,0.296
	c-0.053,0.095-0.125,0.176-0.196,0.257c-1.763,1.078-3.668,1.954-5.405,3.077c-0.007,0.002-0.012-0.003-0.02-0.001
	c-0.044,0.014-0.075,0.04-0.115,0.057c0.126-0.733,0.1-1.545-0.041-2.372c0.121-0.616,0.324-1.198,0.73-1.799
	c0.556-0.822,1.313-1.578,2.005-2.306c1.422-0.736,2.78-1.589,4.044-2.585c0.348-0.273,0.748-0.616,1.147-1.006
	c1.459-0.653,2.911-1.375,4.406-1.955c-1.541,0.913-3.075,1.84-4.711,2.577c-0.072,0.032-0.01,0.138,0.063,0.105
	c2.27-1.035,4.485-2.181,6.691-3.346c0.083-0.021,0.165-0.043,0.248-0.062c-2.708,1.837-5.498,3.449-8.551,4.95
	c-0.041,0.021-0.005,0.079,0.036,0.061c4.341-2.005,9.789-3.84,12.876-7.699c0.023-0.028,0.022-0.057,0.03-0.086
	c0.18-0.201,0.322-0.433,0.392-0.678c1.187-1.793,1.533-4.33,3.223-6.216c0.123-0.138-0.067-0.33-0.203-0.203
	c-0.731,0.679-0.99,0.797-1.346,1.802c-2.346,6.627-6.445,6.27-12.285,5.428c-4.138-0.595-7.637,1.013-11.454,2.169
	c-0.213,0.031-0.427,0.041-0.646,0.023c-0.123-0.059-0.219-0.1-0.362-0.149c0.001,0.005,0.001,0.01,0.002,0.014
	c-0.008-0.003-0.015-0.002-0.023-0.004c-0.026-0.043-0.059-0.083-0.107-0.113c-0.366-0.229-0.588-0.342-0.616-0.72
	c0.394-0.116,0.771-0.248,1.127-0.418c0.024,0.026,0.061,0.043,0.106,0.022c0.869-0.382,1.836-0.416,2.725-0.716
	c0.456,0.005,0.916-0.073,1.389-0.276c0.847-0.365,1.269-1.009,2.299-1.012c0.379-0.001,0.601-0.121,0.812-0.419
	c0.035-0.051-0.033-0.106-0.081-0.08c-0.364,0.19-0.892,0.009-1.282-0.042c-0.407-0.054-0.83,0.181-1.172,0.359
	c-0.641,0.334-1.024,0.745-1.797,0.829c-0.143,0.016-0.286,0.013-0.429,0.001c-0.586-0.163-1.166-0.479-1.751-0.772
	c-0.949-0.477-1.925-0.522-2.649,0.294c-0.092,0.057-0.184,0.107-0.276,0.178c-0.695,0.54-1.631,0.345-2.327-0.081
	c-0.301-0.184-0.538-0.427-0.733-0.693c-0.145-0.457-0.311-0.917-0.351-1.392c-0.077-0.899,0.153-1.672,0.693-2.301
	c1.446-1.261,3.695-1.116,5.612-1.584c2.069-0.503,4.035-1.826,5.803-2.933c5.08-3.186,9.011-5.562,14.624-6.546
	c0.105,0.002,0.208,0.004,0.314,0.004c0.048,0.014,0.091,0.012,0.137-0.004c0.835-0.007,1.673-0.101,2.475-0.297
	c-0.031,0.023-0.059,0.049-0.089,0.072c-0.241,0.183-0.526,0.32-0.792,0.461c-0.253,0.134-0.47,0.329-0.722,0.456
	c-0.051,0.026-0.014,0.097,0.035,0.086c0.668-0.139,1.184-0.396,1.799-0.684c-0.068,0.127-0.037,0.252,0.045,0.344
	c-0.006,0.008-0.01,0.017-0.017,0.024c-0.399,0.473-0.913,0.889-1.43,1.224c-0.05,0.032-0.019,0.124,0.043,0.101
	c0.54-0.192,0.976-0.474,1.403-0.854c0.137-0.122,0.274-0.251,0.41-0.386c0.037-0.016,0.072-0.037,0.105-0.07
	c1.647-1.644,2.832-6.08,0.972-8.021c-2.238-2.336-5.164-3.863-7.504-6.127c-3.364-3.256-4.738-7.533-4.336-12.098
	c0.945,0.543,1.214,3.531,1.469,4.488c0.026,0.098,0.061,0.196,0.091,0.293c-0.438-0.95-0.78-1.926-0.991-2.869
	c-0.009-0.038-0.064-0.021-0.057,0.015c0.477,2.741,1.431,4.95,3.291,6.963c0.119,0.155,0.24,0.309,0.361,0.458
	c2.681,3.282,6.132,5.693,10.313,6.334c-0.734,0.299-1.506,0.43-2.431,0.087c-0.032-0.012-0.046,0.04-0.013,0.051
	c1.094,0.384,2.233,0.343,3.362,0.068c0.026,0.035,0.067,0.05,0.115,0.048c-0.031,0.026-0.06,0.051-0.091,0.077
	c-1.357,1.165-2.85,1.316-4.317,0.136c-0.086-0.069-0.209,0.045-0.125,0.124c0.896,0.838,1.986,1.4,3.206,1.096
	c0.042,0.026,0.089,0.04,0.138,0.007c0.046-0.03,0.091-0.061,0.137-0.092c0.583-0.215,1.133-0.646,1.651-1.108
	c0.76-0.509,1.52-1.009,2.295-1.483c0.721-0.377,1.415-0.785,2.063-1.169c0.732-0.379,1.488-0.726,2.273-1.028
	c2.969-1.14,6.109-0.471,9.09-1.218c0.09-0.023,0.176-0.055,0.267-0.082c2.132-0.463,3.737-0.744,4.829-2.858
	c1.104-2.141,1.457-4.818,1.047-7.175c-0.02-0.114-0.215-0.088-0.201,0.027c0.277,2.439-0.168,4.699-1.369,6.844
	c-0.406,0.727-0.88,1.165-1.4,1.464c1.69-1.661,2.508-4.154,2.127-6.718c-0.377-2.549-1.074-4.594-2.49-6.715
	c-0.76-1.137-1.569-2.231-2.307-3.384c-2.791-4.363,2.736,0.308,3.213,0.966c3.111,4.298,4.611,10.939,3.674,16.236
	c-0.465,1.049-1.057,1.951-1.76,2.894c-0.213,0.166-0.422,0.337-0.646,0.497c-0.123,0.088-0.012,0.291,0.121,0.207
	c0.648-0.403,1.332-0.842,1.842-1.425c-0.04,0.286-0.102,0.569-0.225,0.851c-0.217,0.503-0.588,0.924-0.926,1.347
	c-0.066,0.084,0.049,0.205,0.121,0.121c0.53-0.627,1.035-1.243,1.392-1.986c0.054,0.011,0.11,0.024,0.163,0.035
	c0.064,0.571,0.205,1.167,0.586,1.565c0.134,0.14,0.314-0.037,0.248-0.192c-0.182-0.424-0.258-0.842-0.285-1.258
	c6.581,1.448,14.824,5.473,21.293,2.633c5.916-2.596,4.938-12.666,11.166-14.824c0.01-0.003,0.014-0.014,0.021-0.018
	c-0.154,0.943-1.11,1.943-1.568,2.549c-0.754,0.999-1.182,2.044-1.629,3.205c-0.564,1.471-0.82,2.988-0.979,4.543
	c-0.09,0.871,0.026,1.736,0.089,2.589c-0.037,0.606-0.059,1.215-0.133,1.816c-0.02,0.024-0.046,0.039-0.054,0.073
	c-0.322,1.323-1.388,2.766-2.901,2.095c-0.07-0.032-0.131,0.063-0.063,0.105c0.869,0.53,1.74,0.404,2.393-0.082
	c0.04,0.002,0.081,0.002,0.127-0.028c0.234-0.157,0.448-0.32,0.646-0.492c0.037-0.019,0.072-0.04,0.107-0.059
	c0.029,0.001,0.059,0.001,0.09-0.009c1.684-0.523,3.377-0.892,4.957-1.687c1.563-0.785,2.979-1.801,4.287-2.953
	c0.102-0.092-0.047-0.235-0.15-0.151c-1.355,1.115-2.856,1.861-4.463,2.545c-0.194,0.083-0.396,0.145-0.592,0.216
	c5.142-2.101,8.967-8.461,5.6-13.564c-0.301-0.455-0.76-0.898-1.12-1.3c-0.203-0.226-0.694-1.048-1.015-1.667
	c0.369,0.478,0.929,0.842,1.453,1.088c0.104,0.047,0.184-0.087,0.09-0.152c-0.49-0.338-1.039-0.793-1.36-1.343
	c1.739,1.29,3.375,2.468,5.461,3.151c1.325,0.856,3.378,0.828,4.751,0.201c2.068-0.944,3.648-2.768,4.161-4.995
	c0.022-0.103-0.129-0.146-0.158-0.043c-0.565,2.004-1.901,3.403-3.56,4.119c1.129-0.778,2.039-1.927,2.619-3.25
	c0.025-0.062,0.018-0.119-0.006-0.168c0.307-0.759,0.227-1.784,0.174-2.492c-0.002-0.029-0.047-0.03-0.047,0
	c0.012,0.57-0.078,1.113-0.25,1.656c-0.147,0.47-0.394,0.907-0.524,1.376c-0.002,0.009,0.002,0.015,0.002,0.024
	c-0.306,0.529-0.629,0.972-0.968,1.349c0.595-1.064,0.979-2.233,0.966-3.468c-0.002-0.097-0.15-0.097-0.152,0
	c-0.038,1.723-0.827,3.151-1.901,4.409c-0.002,0.002-0.004,0.004-0.008,0.006c1.209-1.781,1.313-4.222,0.256-6.236
	c-0.877-1.672-2.029-3.043-3.338-4.363c0.709,0.439,1.405,0.909,2.152,1.315c0.09,0.049,0.166-0.082,0.08-0.137
	c-1.279-0.808-2.5-2.058-3.936-2.653c-1.5-1.02-3.233-1.679-4.594-2.951c0.223-0.095,0.459-0.146,0.703-0.172
	c0.15,0.003,0.297,0.007,0.414,0.003c0.072-0.002,0.146-0.004,0.219-0.005c1.764,0.16,3.821,1.546,5.131,2.136
	c1.154,0.52,2.342,0.789,3.598,0.859c2.261,0.127,4.229-0.992,4.688-3.154c1.01-1.602-0.724-4.422-1.646-5.652
	c-0.05-0.065-0.158-0.004-0.111,0.066c1.111,1.631,2.099,3.68,1.271,5.623c-0.021,0.052-0.014,0.104,0.002,0.151
	c-0.768,1.839-1.912,2.432-3.246,2.389c0.492-0.159,1.004-0.4,1.4-0.709c1.069-0.837,1.516-1.697,1.252-3.066
	c-0.017-0.079-0.131-0.044-0.121,0.033c0.211,1.371-0.522,2.309-1.737,2.765c0.342-0.297,0.61-0.687,0.794-1.164
	c1.001-1.595,0.313-3.933-0.094-5.581c-0.016-0.064-0.072-0.075-0.118-0.055c-0.058-0.127-0.097-0.259-0.087-0.419
	c0.007-0.082-0.131-0.102-0.143-0.02c-0.043,0.292,0.006,0.553,0.207,0.753c0.057,0.313,0.115,0.631,0.164,0.953
	c-0.802-2.548-2.779-4.317-4.55-6.864c0.56-0.213,1.12-0.426,1.681-0.638c0.379,0.459,0.752,0.923,1.117,1.392
	c2.146,2.72,4.155,4.647,5.454,8.035c1.783,4.653,1.812,9.799,0.918,14.629c-1.661,8.969-8.221,14.102-15.185,18.909
	c-8.746,5.12-21.81,3.265-31.065,1.971c-4.962-0.693-9.837-2.036-14.812-2.601c-5.024-0.569-8.318,0.044-12.621,1.707
	c0.935-0.645,1.904-1.157,2.755-1.488c3.327-1.292,7.231-1.065,10.735-0.963c0.117,0.004,0.11-0.162,0-0.176
	c-4.552-0.545-10.477-1.031-14.359,2.026c-2.045,1.61-4.355,4.21-4.18,6.899c-0.181-0.46-0.278-0.941-0.35-1.468
	c-0.004-0.031-0.053-0.023-0.053,0.006c0.011,0.576,0.041,1.192,0.271,1.722c-0.24-0.328-0.449-0.685-0.579-1.119
	c-0.032-0.106-0.188-0.062-0.164,0.045c0.234,1.033,0.733,1.991,1.456,2.771c0.099,0.108,0.215,0.232,0.337,0.362
	c-0.554-0.188-1.105-0.38-1.538-0.787c-0.007-0.007-0.02,0.004-0.012,0.012c0.64,0.68,1.495,1.055,2.305,1.502
	c0.055,0.047,0.11,0.091,0.166,0.136c-0.612,0.02-1.229,0.08-1.84,0.111c-0.128,0.007-0.172,0.217-0.032,0.236
	c1.789,0.244,3.392,0.3,5.05,1.171C85.187,61.599,86.114,62.458,87.235,62.916 M80.858,53.479c0.029,0.188,0.035,0.377,0.023,0.568
	c-0.05-0.094-0.111-0.179-0.173-0.266C80.756,53.68,80.804,53.578,80.858,53.479 M81.101,53.076c0.028-0.047,0.059-0.094,0.088-0.14
	c0.041-0.038,0.078-0.079,0.119-0.115c0.219,0.384,0.315,0.774,0.224,1.265c-0.03,0.165-0.082,0.314-0.144,0.458
	C81.417,54.024,81.329,53.487,81.101,53.076 M83.069,53.087c-0.008-0.026-0.022-0.047-0.031-0.072
	c0.033,0.006,0.063,0.016,0.098,0.021c0.116,0.014,0.236,0.003,0.354,0c0.186-0.004,0.17-0.081,0.07,0.145
	c-0.102,0.233-0.314,0.43-0.515,0.62C83.11,53.554,83.132,53.309,83.069,53.087 M85.699,52.804c-0.14,0.011-0.281,0.019-0.351,0.046
	c-0.029,0.011-0.053,0.029-0.078,0.043c-0.002-0.038-0.02-0.076-0.031-0.114c0.167-0.004,0.333-0.01,0.499-0.02
	C85.724,52.773,85.707,52.786,85.699,52.804 M84.125,53.295c0.039-0.123,0.054-0.236,0.047-0.343
	c0.142,0.069,0.284,0.108,0.446,0.128c0.008,0.002,0.007,0.001,0.016,0.002c-0.082,0.147-0.187,0.285-0.295,0.41
	c-0.285,0.326-0.66,0.59-1.064,0.779C83.58,53.98,83.991,53.713,84.125,53.295 M86.397,52.77c-0.006-0.022,0-0.047-0.012-0.066
	c0.082-0.009,0.161-0.026,0.243-0.038C86.552,52.7,86.476,52.736,86.397,52.77 M89.769,50.852c0.033,0.005,0.063,0.015,0.096,0.008
	c-0.096,0.168-0.215,0.317-0.357,0.447C89.61,51.167,89.7,51.017,89.769,50.852 M90.991,49.784
	c-0.026,0.093-0.059,0.179-0.088,0.269c-0.002-0.086-0.006-0.173-0.016-0.26C90.921,49.792,90.956,49.787,90.991,49.784
	 M90.871,51.934c0.183-0.121,0.41-0.31,0.633-0.538c-0.231,0.265-0.51,0.516-0.823,0.752c0.045-0.058,0.09-0.116,0.133-0.177
	C90.833,51.958,90.853,51.947,90.871,51.934 M90.867,53.804c0.504-0.188,0.987-0.408,1.427-0.662
	c0.914-0.528,1.02-1.312,0.975-2.158c0.004,0.006,0.006,0.012,0.01,0.017c0.556,0.9,1.068,1.568-0.268,2.058
	C92.417,53.278,91.653,53.591,90.867,53.804 M92.586,51.393c-0.011,0.512-0.19,0.99-0.892,1.414
	c-0.645,0.39-1.465,0.707-2.313,0.945c0.399-0.196,0.781-0.407,1.13-0.621C91.317,52.636,92.11,52.08,92.586,51.393 M97.343,53.669
	c-0.336,0.027-0.671,0.053-1.006,0.075c0.232-0.033,0.463-0.072,0.695-0.103C97.134,53.654,97.238,53.66,97.343,53.669
	 M93.335,53.738c0.139-0.051,0.281-0.103,0.41-0.152c0.622-0.236,0.9-0.545,0.98-0.894c0.135,0.12,0.283,0.239,0.457,0.352
	c0.115,0.074,0.244,0.129,0.367,0.188C94.808,53.36,94.069,53.545,93.335,53.738 M89.351,49.442
	c-0.506,3.194-4.539,2.761-7.289,2.799c-0.012-0.003-0.025-0.002-0.039-0.004c1.797-1.298,4.027-1.866,6.131-2.629
	C88.556,49.543,88.954,49.49,89.351,49.442 M81.62,52.652c0.148,0.059,0.293,0.129,0.415,0.189c0.341,0.171,0.446,0.394,0.354,0.763
	c-0.07,0.281-0.227,0.519-0.401,0.746c0.019-0.102,0.034-0.201,0.048-0.289C82.122,53.47,81.954,53.042,81.62,52.652 M91.517,54.459
	c0.006,0.003,0.016,0.003,0.023,0.005c-0.014-0.002-0.025-0.005-0.039-0.007C91.506,54.458,91.511,54.458,91.517,54.459
	 M91.644,54.471c0.383,0.032,0.77,0.058,1.158,0.081c-0.009,0.024-0.009,0.048,0,0.071c-0.398-0.043-0.796-0.086-1.193-0.147
	C91.62,54.474,91.632,54.473,91.644,54.471 M93.19,54.574c2.568,0.127,5.222,0.016,7.619-0.685c0.121-0.035,0.184-0.112,0.209-0.198
	c0.574,0.008,1.19,0.019,1.813-0.004c-2.994,0.94-6.092,1.263-9.201,1.026C93.485,54.668,93.338,54.623,93.19,54.574
	 M110.022,52.689c-0.082-0.013-0.17-0.028-0.25-0.039c0.009-0.008,0.018-0.016,0.025-0.025c0.16,0.014,0.317,0.029,0.475,0.047
	c-0.049-0.008-0.103-0.012-0.16-0.002C110.082,52.675,110.054,52.684,110.022,52.689 M110.577,52.845
	c-0.012-0.01-0.027-0.016-0.041-0.023c-0.059-0.07-0.133-0.124-0.229-0.146c0.107,0.012,0.217,0.024,0.323,0.037
	c-0.004,0.034-0.006,0.066-0.001,0.1C110.612,52.824,110.595,52.835,110.577,52.845 M109.483,54.383
	c0.699-0.246,1.361-0.568,1.966-0.978c0.237,0.026,0.474,0.042,0.711,0.053c-0.17,0.066-0.341,0.132-0.515,0.208
	c-0.742,0.323-1.484,0.542-2.227,0.746C109.44,54.402,109.463,54.393,109.483,54.383 M105.042,53.454
	c-0.061,0.033-0.125,0.059-0.188,0.089c0.015-0.038,0.021-0.078,0.02-0.12c0.253-0.066,0.494-0.153,0.727-0.253
	C105.38,53.282,105.181,53.38,105.042,53.454 M101.856,54.707c-0.027,0.089,0.037,0.204,0.156,0.173
	c0.754-0.195,2.278-0.522,3.637-1.047c0.025,0.029,0.049,0.057,0.08,0.079c-2.705,1.188-5.557,1.749-8.496,1.506
	C98.796,55.363,100.345,55.121,101.856,54.707 M102.278,55.715c0.226-0.006,0.449-0.013,0.676-0.023
	c-0.042,0.005-0.085,0.01-0.127,0.015c-0.186,0.004-0.372,0.01-0.557,0.009C102.272,55.716,102.276,55.715,102.278,55.715
	 M116.833,53.691c0.014-0.011,0.014-0.027,0.025-0.04c0.07-0.009,0.143-0.01,0.214-0.019c-0.101,0.034-0.201,0.072-0.304,0.106
	C116.79,53.722,116.813,53.707,116.833,53.691 M99.735,52.82c-1.865,0.015-4.199,0.162-5.434-1.609
	c-0.111-0.193-0.228-0.386-0.341-0.577c-0.241-0.485-0.438-0.977-0.778-1.427c2.812-0.004,5.678,0.336,8.92,0.994
	c1.564,0.317,3.129,0.622,4.697,0.909C105.456,53.316,101.952,52.801,99.735,52.82 M80.587,54.025
	c0.101,0.234,0.153,0.477,0.185,0.726c-0.043,0.185-0.091,0.368-0.143,0.548c-0.052-0.266-0.138-0.528-0.218-0.763
	C80.464,54.364,80.516,54.193,80.587,54.025 M84.437,54.325c0.002,0.001,0.004,0.001,0.006,0.002
	c-0.004,0.001-0.01,0.001-0.016,0.001C84.431,54.327,84.435,54.326,84.437,54.325 M90.476,54.633
	c0.012-0.001,0.018-0.012,0.028-0.014c0.404,0.109,0.808,0.221,1.218,0.308c-0.533-0.077-1.064-0.154-1.596-0.229
	C90.241,54.672,90.354,54.647,90.476,54.633 M106.229,55.911c0.041,0.043,0.082,0.087,0.148,0.112
	c0.027,0.01,0.057,0.016,0.084,0.026c-0.42,0.03-0.855,0.038-1.287,0.05C105.532,56.054,105.884,55.992,106.229,55.911
	 M109.373,55.702c0.042-0.008,0.084-0.014,0.126-0.022c-0.041,0.006-0.081,0.015-0.122,0.022H109.373z M109.58,55.665
	c1.269-0.271,2.535-0.861,3.706-1.416c0.447-0.055,0.895-0.123,1.337-0.207c0.196-0.03,0.39-0.068,0.584-0.106
	c-0.606,0.371-1.308,0.704-2.06,0.978C111.978,55.209,110.791,55.46,109.58,55.665"/>
<path fill="#5E5E5E" d="M35.941,106.442c-0.076,0.043-0.009,0.154,0.068,0.117c0.541-0.258,1.291-0.439,1.809-0.045
	c0.051,0.039,0.126-0.037,0.088-0.088C37.445,105.808,36.5,106.133,35.941,106.442"/>
<path fill="#5E5E5E" d="M72.795,48.223c-0.028-0.033-0.084,0.011-0.06,0.047c0.185,0.273,0.392,0.437,0.683,0.592
	c0.031,0.015,0.068-0.027,0.039-0.051C73.231,48.621,72.987,48.45,72.795,48.223"/>
<path fill="#5E5E5E" d="M73.772,49.081c-0.005-0.006-0.015,0-0.01,0.006c0.068,0.113,0.128,0.162,0.243,0.226
	c0.028,0.015,0.051-0.029,0.024-0.041C73.943,49.208,73.858,49.145,73.772,49.081"/>
<path fill="#5E5E5E" d="M96.407,26.124c0.566,0.795,1.227,1.514,1.861,2.252c0.043,0.051,0.131-0.018,0.092-0.071
	c-0.567-0.785-1.252-1.472-1.816-2.261C96.485,25.961,96.349,26.041,96.407,26.124"/>
<path fill="#5E5E5E" d="M99.3,29.677c0.244,0.279,0.402,0.594,0.561,0.926c0.021,0.044,0.088,0.005,0.065-0.038
	c-0.173-0.329-0.349-0.639-0.606-0.909C99.307,29.643,99.286,29.662,99.3,29.677"/>
<path fill="#5E5E5E" d="M100.368,31.716c-0.033-0.067-0.152-0.018-0.123,0.052c0.084,0.201,0.154,0.408,0.246,0.605
	c0.043,0.094,0.178,0.013,0.137-0.08C100.542,32.1,100.46,31.907,100.368,31.716"/>
<path fill="#5E5E5E" d="M100.8,33.221c0.146,0.199,0.213,0.42,0.291,0.65c0.059,0.17,0.329,0.098,0.271-0.075
	c-0.09-0.264-0.201-0.499-0.393-0.706C100.888,33.001,100.726,33.121,100.8,33.221"/>
<path fill="#5E5E5E" d="M76.727,52.284c0.212,0.011,0.412,0.065,0.602,0.162c0.17,0.078,0.271-0.164,0.099-0.236
	c-0.234-0.098-0.451-0.145-0.701-0.16C76.575,52.041,76.579,52.27,76.727,52.284"/>
<path fill="#5E5E5E" d="M76.977,53.018c-0.193-0.014-0.191,0.283,0,0.299c0.239,0.017,0.34,0.094,0.517,0.214
	c0.13,0.089,0.252-0.1,0.159-0.207C77.467,53.108,77.253,53.036,76.977,53.018"/>
<path fill="#5E5E5E" d="M77.383,54.261c-0.086-0.081-0.172-0.163-0.257-0.243c-0.088-0.084-0.216,0.045-0.133,0.133
	c0.081,0.084,0.163,0.17,0.243,0.256C77.328,54.502,77.479,54.353,77.383,54.261"/>
<path fill="#5E5E5E" d="M78.393,53.209c-0.053,0-0.053,0.082,0,0.082S78.446,53.209,78.393,53.209"/>
<path fill="#5E5E5E" d="M56.955,126.424c-1.879,0.522-1.933,1.553-1.75,3.341c0.264,2.571-1.483,2.872-3.562,3.073
	c-0.368,0.034-0.541,0.388-0.658,0.685c-0.147,0.371,0.344,0.803,0.556,1.016c0.924,0.929,1.549,1.121,1.576,2.578
	c0.021,1.099,0.496,1.509,1.504,1.074c0.133-0.058,0.035-0.257-0.094-0.226c-1.566,0.371-0.794-1.881-1.259-2.424
	c-0.329-0.384-0.741-0.673-1.137-0.984c-1.235-0.972,0.851-1.108,1.453-1.088c0.801,0.026,1.465-1.062,1.682-1.653
	c0.65-1.781-0.727-4.308,1.731-5.24C57.091,126.542,57.055,126.398,56.955,126.424"/>
<path fill="#5E5E5E" d="M75.268,166.441c0.012-0.143,0.032-0.285,0.064-0.426C75.283,166.137,75.262,166.279,75.268,166.441"/>
<path fill="#5E5E5E" d="M75.334,167.267c0.023,0.075,0.141,0.044,0.119-0.033c-0.119-0.305-0.176-0.566-0.185-0.794
	C75.243,166.742,75.262,167.035,75.334,167.267"/>
<path fill="#5E5E5E" d="M76.506,168.553c-0.048,0.047-0.097,0.094-0.145,0.142c-0.068,0.049-0.001,0.161,0.065,0.111
	c0.126-0.095,0.114-0.07,0.187-0.191C76.654,168.547,76.549,168.488,76.506,168.553"/>
<path fill="#5E5E5E" d="M49.06,94.854c-0.483-0.053-0.712,0.019-1.05,0.355c-0.638,0.637-1.167,0.627-1.935,0.359
	c-0.573-0.2-1.295,0.458-1.332,1.006c-0.037,0.538,0.092,1.03,0.217,1.551c0.113,0.471,0.517,2.678-1.258,1.758
	c-0.289-0.148-0.561-0.427-0.811-0.638c-0.682-0.571-1.316-0.752-2.103-0.283c-0.049,0.03-0.006,0.101,0.045,0.077
	c1.713-0.851,1.889,1.135,3.226,1.237c0.577,0.043,1.214-0.348,1.278-0.973c0.058-0.547-0.055-1.041-0.174-1.574
	c-0.067-0.291-0.475-2.338,0.967-1.57c0.203,0.108,0.348,0.295,0.564,0.382c1.353,0.555,1.455-0.95,2.439-1.414
	C49.28,95.058,49.188,94.868,49.06,94.854"/>
<path fill="#5E5E5E" d="M50.674,89.125c0.068-1.435-0.543-3.03-0.945-4.393c-0.026-0.084-0.148-0.048-0.13,0.036
	c0.153,0.736,0.323,1.468,0.487,2.202c0.16,0.716,0.218,1.479,0.445,2.175C50.557,89.225,50.67,89.209,50.674,89.125"/>
<path fill="#5E5E5E" d="M49.268,88.125c-0.005-0.053-0.086-0.053-0.082,0c0.098,1.493-0.068,3.112,0.649,4.483
	c0.056,0.105,0.206,0.013,0.158-0.091C49.338,91.14,49.396,89.613,49.268,88.125"/>
<path fill="#5E5E5E" d="M52.019,93.365c-0.097,0.017-0.056,0.163,0.04,0.146c0.522-0.085,1.008-0.295,1.4-0.653
	c0.055-0.049-0.017-0.142-0.078-0.101C52.953,93.046,52.536,93.278,52.019,93.365"/>
<path fill="#5E5E5E" d="M57.336,89.947c-0.924,0.345-1.621,1.207-2.486,1.677c-0.004,0.002,0,0.006,0.003,0.004
	c0.444-0.224,0.856-0.502,1.268-0.782c0.41-0.279,0.852-0.515,1.258-0.797C57.428,90.014,57.398,89.924,57.336,89.947"/>
<path fill="#5E5E5E" d="M57.713,90.188c0.01,1.859-1.319,4.154-0.373,5.918c0.047,0.086,0.182,0.026,0.156-0.065
	c-0.601-2.083,0.447-3.803,0.369-5.853C57.861,90.09,57.712,90.089,57.713,90.188"/>
<path fill="#5E5E5E" d="M55.551,93.813c0,0.746-0.027,1.433,0.255,2.138c0.022,0.054,0.112,0.032,0.091-0.026
	c-0.254-0.69-0.252-1.386-0.246-2.112C55.652,93.749,55.551,93.749,55.551,93.813"/>
<path fill="#5E5E5E" d="M54.357,93.563c-0.008,0.334-0.018,0.666-0.025,1c-0.004,0.105,0.166,0.105,0.164,0
	c-0.01-0.334-0.018-0.666-0.028-1C54.466,93.491,54.359,93.491,54.357,93.563"/>
<path fill="#5E5E5E" d="M58.074,89.349c-0.135,0.108-0.221,0.206-0.307,0.353c-0.064,0.109,0.095,0.195,0.167,0.097
	c0.098-0.084,0.195-0.168,0.292-0.252C58.383,89.463,58.223,89.231,58.074,89.349"/>
<path fill="#5E5E5E" d="M61.078,99.024c0.021,0.02,0.043,0.039,0.064,0.06c0.028,0.026,0.068-0.014,0.041-0.041
	c-0.019-0.022-0.039-0.044-0.059-0.066C61.096,98.948,61.048,98.995,61.078,99.024"/>
<path fill="#5E5E5E" d="M66.889,95.626c0.074-0.056,0.004-0.182-0.074-0.127c-0.916,0.639-1.791,1.345-2.795,1.843
	c-0.039,0.019-0.012,0.085,0.029,0.07C65.123,97.016,65.98,96.303,66.889,95.626"/>
<path fill="#5E5E5E" d="M67.24,96c-0.002-0.197-0.027-0.339-0.107-0.52c-0.018-0.041-0.077-0.009-0.069,0.03
	c0.016,0.163,0.024,0.326,0.024,0.49C67.09,96.099,67.24,96.099,67.24,96"/>
<path fill="#5E5E5E" d="M66.797,97.458c0.016-0.115-0.156-0.115-0.145-0.02c0.048,0.356-0.023,0.702-0.113,1.045
	c-0.021,0.082,0.1,0.114,0.124,0.036C66.776,98.155,66.744,97.83,66.797,97.458"/>
<path fill="#5E5E5E" d="M62.914,99.329c-0.061,0-0.061,0.097,0,0.094c0.141-0.006,0.25-0.023,0.384-0.076
	c0.041-0.016,0.025-0.081-0.019-0.067C63.16,99.323,63.038,99.338,62.914,99.329"/>
<path fill="#5E5E5E" d="M63.723,99.174c-0.018,0.006-0.011,0.034,0.008,0.027c0.152-0.054,0.297-0.113,0.443-0.183
	c0.024-0.012,0.003-0.047-0.02-0.035C64.014,99.057,63.871,99.12,63.723,99.174"/>
<path fill="#5E5E5E" d="M64.844,98.363c-0.018,0.009-0.002,0.032,0.015,0.025c0.055,0.003,0.112,0.005,0.169,0.007
	c0.026,0.016,0.05-0.027,0.023-0.039C64.92,98.297,64.969,98.294,64.844,98.363"/>
<path fill="#5E5E5E" d="M64.857,99.422c-0.078,0.562-0.176,1.135-0.166,1.703c0.002,0.125,0.189,0.124,0.193,0
	c0.024-0.564,0.041-1.124,0.088-1.687C64.978,99.373,64.866,99.357,64.857,99.422"/>
<path fill="#5E5E5E" d="M73.31,100.993c-2.319,0.037-4.175,1.99-6.577,1.316c-0.033-0.009-0.045,0.039-0.014,0.051
	c2.328,0.874,4.3-0.997,6.591-1.185C73.424,101.166,73.428,100.991,73.31,100.993"/>
<path fill="#5E5E5E" d="M68.122,103.758c-0.097,0.031-0.056,0.183,0.042,0.152c1.449-0.457,2.815-1.113,4.324-1.365
	c0.059-0.01,0.035-0.103-0.025-0.09C70.989,102.782,69.556,103.291,68.122,103.758"/>
<path fill="#5E5E5E" d="M70.613,104.143c-0.378,0.127-0.76,0.225-1.147,0.326c-0.033,0.01-0.027,0.067,0.01,0.064
	c0.412-0.041,0.803-0.027,1.197-0.175C70.804,104.308,70.751,104.096,70.613,104.143"/>
<path fill="#5E5E5E" d="M68.494,62.751c-0.002-0.02-0.029-0.025-0.035-0.005c-0.164,0.553-0.625,0.71-1.059,0.935
	c-0.04-0.003-0.083,0.003-0.13,0.023c-1.385,0.58-2.586-0.469-4.008-0.026c-1.266,0.396-1.184,2.091-2.494,2.404
	c-0.06,0-0.118,0.005-0.178-0.003c-0.149-0.018-0.33-0.018-0.453,0.082c-0.121,0.098-0.212,0.23-0.309,0.35
	c-0.194,0.238-0.475,0.37-0.744,0.501c-0.037,0.018-0.012,0.076,0.026,0.064c0.482-0.146,0.746-0.314,1.088-0.671
	c0.125-0.131,0.533,0.016,0.73,0.031c0.007,0.036,0.02,0.075,0.062,0.082c0.774,0.147,1.498,0.287,2.248,0.539
	c0.43,0.145,0.921,0.182,1.344-0.012c0.521-0.24,0.863-0.569,1.225-1.012c0.212-0.261,0.349-0.562,0.497-0.855
	c0.055,0.016,0.112,0.018,0.163-0.021c0.429-0.332,0.879-0.227,1.365-0.369c0.086-0.026,0.072-0.17-0.023-0.16
	c-0.129,0.012-0.274-0.01-0.422-0.04c0.36-0.079,0.678-0.294,0.965-0.546c0.052-0.047-0.016-0.117-0.073-0.092
	c-0.168,0.076-0.343,0.108-0.518,0.131C68.19,63.746,68.549,63.34,68.494,62.751 M63.372,64.744
	c0.018-0.002,0.029,0.009,0.048,0.005c0.105-0.026,0.211-0.086,0.264,0.041c0.06,0.142,0.048,0.315-0.017,0.453
	c-0.101,0.211-0.44,0.29-0.576,0.07c-0.088-0.14-0.036-0.331,0.055-0.487C63.219,64.798,63.295,64.77,63.372,64.744 M65.182,65.644
	c0,0.002-0.001,0.004-0.001,0.005c0-0.002-0.001-0.004-0.001-0.006C65.181,65.644,65.182,65.644,65.182,65.644 M64.052,65.954
	c-0.011,0.003-0.02,0.012-0.031,0.016c0.014-0.019,0.024-0.042,0.038-0.063C64.056,65.923,64.054,65.938,64.052,65.954
	 M64.543,65.805c0.081-0.072,0.172-0.098,0.269-0.093c0.014,0.042,0.016,0.091-0.001,0.156c-0.024,0.098-0.11,0.22-0.221,0.232
	C64.428,66.009,64.412,65.91,64.543,65.805 M64.932,64.312c0.249,0.064,0.496,0.14,0.743,0.202
	C65.414,64.588,65.164,64.557,64.932,64.312 M62.714,64.961c-0.009-0.004-0.017-0.009-0.026-0.012c0.019-0.024,0.04-0.046,0.06-0.07
	C62.733,64.905,62.725,64.934,62.714,64.961 M62.227,65.663c-0.017-0.012-0.033-0.019-0.052-0.027
	c0.012-0.017,0.027-0.031,0.04-0.047C62.217,65.614,62.223,65.638,62.227,65.663 M64.376,66.49c0.001,0,0.003,0,0.005,0
	c-0.002,0.001-0.004,0.001-0.005,0.002V66.49z M61.663,66.133c0.019,0.014,0.034,0.032,0.058,0.034
	c-0.004,0.012-0.001,0.022-0.003,0.034c-0.093,0.007-0.184,0.017-0.276,0.031C61.518,66.204,61.593,66.173,61.663,66.133"/>
<path fill="#5E5E5E" d="M73.188,140.211c-0.01,0.001-0.018-0.003-0.028-0.002C73.168,140.209,73.177,140.211,73.188,140.211"/>
<path fill="#5E5E5E" d="M75.307,138.047c0.049-0.108-0.109-0.205-0.162-0.094c-0.374,0.799-0.902,2.137-1.917,2.255
	C73.918,140.217,74.628,139.587,75.307,138.047"/>
<path fill="#5E5E5E" d="M71.48,138.527c-1.023-1.802-1.619-3.884-2.26-5.843c-0.668-2.041-1.361-6.794-3.465-7.984
	c-0.066-0.036-0.125,0.063-0.059,0.101c1.592,0.914,2.14,4.129,2.655,5.729c0.731,2.272,1.37,4.601,2.318,6.795
	c0.571,1.319,1.235,2.317,1.936,2.707C72.101,139.687,71.711,138.936,71.48,138.527"/>
<path fill="#5E5E5E" d="M73.159,140.208c-0.186-0.014-0.371-0.074-0.554-0.177C72.777,140.149,72.962,140.216,73.159,140.208"/>
<path fill="#5E5E5E" d="M73.208,140.213c0.007,0,0.013-0.004,0.02-0.005c-0.014,0-0.027,0.004-0.041,0.003
	C73.194,140.211,73.201,140.214,73.208,140.213"/>
<path fill="#5E5E5E" d="M83.286,151.465c-2.794-3.983-5.298-7.688-6.528-12.474c-0.012-0.041-0.073-0.022-0.063,0.018
	c1.087,4.852,3.529,8.587,6.47,12.525C83.218,151.607,83.339,151.539,83.286,151.465"/>
<path fill="#5E5E5E" d="M77.28,77.561c-4.634,0.686-1.452-4.805-0.573-6.189c0.051-0.081-0.076-0.154-0.127-0.075
	c-0.783,1.211-3.969,7.159-0.033,6.59c1.308-0.188-0.746,3.708-0.965,4.163c-0.528,1.095-1.029,2.191-1.442,3.333
	c-0.4,1.111-0.652,2.472,0.463,3.186c0.074,0.048,0.166-0.069,0.096-0.125c-2.599-2.047,2.602-8.097,2.721-10.778
	C77.423,77.588,77.347,77.55,77.28,77.561"/>
</svg>
