<?xml version="1.0" encoding="utf-8"?>
<!-- Generator: Adobe Illustrator 14.0.0, SVG Export Plug-In . SVG Version: 6.00 Build 43363)  -->
<!DOCTYPE svg PUBLIC "-//W3C//DTD SVG 1.1//EN" "http://www.w3.org/Graphics/SVG/1.1/DTD/svg11.dtd">
<svg version="1.1" id="Ebene_1" xmlns="http://www.w3.org/2000/svg" xmlns:xlink="http://www.w3.org/1999/xlink" x="0px" y="0px"
	 width="234.971px" height="168.465px" viewBox="0 0 234.971 168.465" enable-background="new 0 0 234.971 168.465"
	 xml:space="preserve">
<g>
	<path fill-rule="evenodd" clip-rule="evenodd" fill="#FFFFFF" d="M120.985,45.43c1.615-0.282,1.721,0.945,3,1
		c-0.19,0.81-1.003,0.997-1,2c-0.667,0-1.333,0-2,0C120.985,47.429,120.985,46.429,120.985,45.43z"/>
	<path fill-rule="evenodd" clip-rule="evenodd" fill="#5D5D5D" d="M92.988,144.417c0.89,0.443,1.788,0.878,2,2
		c0.528,5.86-5.632,5.033-6.999,8.999c1.105,3.679,7.442,7.583,0,8.999c-0.329-2.338-1.202-4.131-2-6
		c-3.203,1.464-3.224,6.109-4,9.999c-2.409,0.409-2.173-1.826-5-1c-0.722-5.721,5.721-4.277,5-9.999
		c-4.673,0.327-4.327,5.673-8.999,6c-0.443-0.891-0.878-1.789-2-2c0.038-5.295,6.774-3.892,8.999-6.999
		c-2.492-2.749-7.581,0.36-8.999,2c-0.842-2.083-3.797-4.217-2-6C79.523,151.705,89.165,152.01,92.988,144.417z"/>
	<path fill-rule="evenodd" clip-rule="evenodd" fill="#5D5D5D" d="M140.982,144.417c3.804,1.862,6.382,4.95,9.998,6.999
		c5.866,0.864,11.323-2.881,15.998,0c-1.019,1.313-0.979,3.686-1.999,5c-3.128-1.206-4.96-3.706-9.999-3
		c1.793,3.873,8.385,2.947,9.999,6.999c-0.561,1.44-1.56,2.439-3,3c-3.921-0.746-3.437-5.896-7.999-6
		c-2.03,3.076,5.369,5.263,4.999,9.999c-1.583,0.083-3.813-0.48-3.999,1c-3.305-1.694-2.583-7.415-4.999-9.999
		c-2.155,0.846-1.613,4.387-3,6c-1.479-0.521-2.521-1.479-4-2c0.652-3.015,3.927-3.406,5-5.999c-1.737-3.596-5.686-4.98-7.999-7.999
		C139.855,146.623,141.206,146.308,140.982,144.417z"/>
	<path fill-rule="evenodd" clip-rule="evenodd" fill="#5D5D5F" d="M224.972,33.431c-6.686,15.313-21.108,31.55-44.994,32.996
		c11.144,3.802,20.216-3.107,26.996-6.999c-6.547,11.783-18.534,18.127-33.995,20.997c4.445,2.413,13.465,0.824,16.998-1
		c-4.118,7.215-12.975,9.69-22.998,10.999c0.665,4.001,6.432,2.901,10.999,3c-2.292,6.373-11.196,6.135-19.997,5.999
		c-0.018,4.016,5.219,2.779,8.998,2.999c-0.438,6.587-10.567,5.288-15.998,4c-3.94,1.496,4.271,4.173,1,4.999
		c-11.919,0.506-6.055-15.499-16.998-13.998c-4.264,0.585-6.168,5.978-5.999,8.999c0.418,7.494,21.917,18.019,17.998,28.996
		c-3.123,2.623-6.24-1.163-8.999-1.999c0.896,5.516,2.497,8.271,1,13.998c-6.172,0.173-6.951-5.048-10.999-6.999
		c-1.304,9.361-4.66,16.67-8.999,22.997c-7.958-3.374-9.747-12.918-10.999-22.997c-5.109,0.89-5.264,6.734-10.999,6.999
		c-2.532-3.51,0.007-8.861,0-12.999c-2.528-1.094-5.018,3.126-9.999,1c3.175-12.823,12.37-19.626,19.998-27.996
		c-1.123-5.21-2.319-9.235-5.999-9.999c-9.326-1.935-7.991,12.482-15.998,13.998c-4.79-0.187,1.717-1.739,0-4.999
		c-6.086,1.944-14.241,1.268-16.998-3c2.064-2.269,8.899,0.234,9.999-2.999c-7.194-1.806-17.669-0.329-20.998-6
		c2.782-2.217,10.082,0.084,11.999-2.999c-9.286-2.379-18.12-5.211-23.997-10.999c4.337-0.807,11.666,2.85,17.998,1
		c-10.286-4.389-21.819-6.396-28.996-13.998c-1.622-1.718-2.969-4.704-4-6.999c6.116,4.216,12.92,7.743,23.997,6.999
		c-20.579-5.751-36.44-16.22-43.995-34.996c9.025,8.639,19.776,15.552,33.996,18.998C25.852,39.575,1.872,33.559,0,5.435
		C11.084,24.013,31.396,33.364,50.993,43.43c-7.917-9.75-24.132-19.859-24.997-39.995C37.842,29.251,67.98,36.775,86.989,55.428
		c-0.707,4.002-4.692,0.057-5.999,2c5.141,10.402,32.827,11.106,25.997-9.999c2.139-2.194,3.697-4.969,6-6.999
		c7.414-0.749,12.561,0.771,15.998,4c-0.355,5.978-7.807,4.858-9.999,8.999c0.223,3.11,4.977,1.69,7.999,2
		c-2.264,14.28,25.829,10.56,26.997,2c-0.125-2.208-4.241-0.424-5.999-1c17.719-20.276,49.928-26.063,60.992-52.994
		c-0.12,17.214-13.362,29.964-24.997,38.995c18.149-6.849,40.564-18.093,50.994-35.995c-0.938,24.393-25.08,34.245-43.995,43.994
		C204.531,50.981,216.666,41.46,224.972,33.431z M120.985,48.429c0.667,0,1.333,0,2,0c-0.003-1.003,0.81-1.19,1-2
		c-1.278-0.055-1.385-1.281-3-1C120.985,46.429,120.985,47.429,120.985,48.429z"/>
	<path fill-rule="evenodd" clip-rule="evenodd" fill="#FFFFFF" d="M-79.99,225.407c0-88.322,0-176.646,0-264.967
		c-0.086-1.419-0.165-2.832,1-3c133.648,0,267.303,0,400.95,0c0,89.323,0,178.644,0,267.967 M190.976,50.429
		c18.915-9.75,43.057-19.601,43.995-43.994c-10.43,17.902-32.845,29.146-50.994,35.995c11.635-9.031,24.877-21.781,24.997-38.995
		c-11.064,26.931-43.273,32.717-60.992,52.994c1.758,0.575,5.874-1.208,5.999,1c-1.168,8.561-29.261,12.28-26.997-2
		c-3.022-0.31-7.776,1.11-7.999-2c2.192-4.141,9.644-3.021,9.999-8.999c-3.438-3.229-8.584-4.748-15.998-4
		c-2.303,2.03-3.861,4.805-6,6.999c6.83,21.105-20.855,20.401-25.997,9.999c1.307-1.942,5.292,2.003,5.999-2
		C67.98,36.775,37.842,29.251,25.997,3.435c0.864,20.136,17.08,30.245,24.997,39.995C31.396,33.364,11.084,24.013,0,5.435
		c1.872,28.124,25.852,34.141,43.994,45.994C29.775,47.983,19.024,41.07,9.999,32.431c7.555,18.775,23.416,29.244,43.995,34.996
		c-11.077,0.744-17.881-2.783-23.997-6.999c1.031,2.295,2.378,5.281,4,6.999c7.177,7.602,18.71,9.609,28.996,13.998
		c-6.332,1.85-13.661-1.807-17.998-1c5.877,5.788,14.711,8.62,23.997,10.999c-1.917,3.083-9.217,0.782-11.999,2.999
		c3.329,5.671,13.804,4.194,20.998,6c-1.1,3.233-7.935,0.73-9.999,2.999c2.757,4.268,10.912,4.944,16.998,3
		c1.717,3.26-4.79,4.813,0,4.999c8.007-1.516,6.672-15.933,15.998-13.998c3.68,0.764,4.876,4.789,5.999,9.999
		c-7.627,8.37-16.822,15.173-19.998,27.996c4.981,2.126,7.471-2.094,9.999-1c0.007,4.138-2.532,9.489,0,12.999
		c5.735-0.265,5.889-6.109,10.999-6.999c1.252,10.079,3.041,19.623,10.999,22.997c4.339-6.327,7.695-13.636,8.999-22.997
		c4.048,1.951,4.826,7.172,10.999,6.999c1.497-5.728-0.104-8.482-1-13.998c2.759,0.836,5.876,4.622,8.999,1.999
		c3.92-10.978-17.58-21.502-17.998-28.996c-0.169-3.021,1.735-8.414,5.999-8.999c10.943-1.501,5.079,14.504,16.998,13.998
		c3.271-0.826-4.94-3.503-1-4.999c5.431,1.288,15.561,2.587,15.998-4c-3.779-0.22-9.016,1.017-8.998-2.999
		c8.801,0.136,17.705,0.374,19.997-5.999c-4.567-0.099-10.334,1.001-10.999-3c10.023-1.309,18.88-3.784,22.998-10.999
		c-3.533,1.824-12.553,3.413-16.998,1c15.461-2.87,27.448-9.214,33.995-20.997c-6.78,3.892-15.853,10.801-26.996,6.999
		c23.886-1.445,38.309-17.682,44.994-32.996C216.666,41.46,204.531,50.981,190.976,50.429z M121.984,53.428
		c7.297,0.457,12.102,3.987,16.998,0c-2.2-1.466-7.452,0.12-7.999-3c4.004-1.633,9.234-1.646,11.999-2
		c-1.818-4.181-9.519-2.479-12.999-5C131.096,50.541,124.089,49.533,121.984,53.428z M68.991,150.416c-1.798,1.783,1.158,3.917,2,6
		c1.418-1.64,6.507-4.749,8.999-2c-2.225,3.107-8.961,1.704-8.999,6.999c1.122,0.211,1.557,1.109,2,2
		c4.672-0.327,4.326-5.673,8.999-6c0.722,5.722-5.721,4.278-5,9.999c2.826-0.826,2.59,1.409,5,1c0.776-3.89,0.796-8.535,4-9.999
		c0.798,1.869,1.67,3.662,2,6c7.442-1.416,1.105-5.32,0-8.999c1.367-3.966,7.527-3.139,6.999-8.999c-0.211-1.122-1.109-1.557-2-2
		C89.165,152.01,79.523,151.705,68.991,150.416z M139.982,148.417c2.313,3.019,6.262,4.403,7.999,7.999
		c-1.072,2.593-4.348,2.984-5,5.999c1.479,0.521,2.52,1.479,4,2c1.387-1.613,0.845-5.154,3-6c2.416,2.584,1.694,8.305,4.999,9.999
		c0.186-1.48,2.416-0.917,3.999-1c0.37-4.736-7.029-6.923-4.999-9.999c4.563,0.104,4.078,5.254,7.999,6c1.44-0.561,2.439-1.56,3-3
		c-1.614-4.052-8.206-3.126-9.999-6.999c5.039-0.706,6.871,1.794,9.999,3c1.02-1.314,0.98-3.687,1.999-5
		c-4.675-2.881-10.132,0.864-15.998,0c-3.616-2.049-6.194-5.137-9.998-6.999C141.206,146.308,139.855,146.623,139.982,148.417z"/>
	<path fill-rule="evenodd" clip-rule="evenodd" fill="#5D5D5D" d="M129.983,43.43c3.479,2.52,11.181,0.818,12.999,5
		c-2.764,0.354-7.994,0.367-11.999,2c0.547,3.119,5.799,1.534,7.999,3c-4.896,3.987-9.701,0.457-16.998,0
		C124.089,49.533,131.096,50.541,129.983,43.43z"/>
</g>
</svg>
