<?xml version="1.0" encoding="utf-8"?>
<!-- Generator: Adobe Illustrator 14.0.0, SVG Export Plug-In . SVG Version: 6.00 Build 43363)  -->
<!DOCTYPE svg PUBLIC "-//W3C//DTD SVG 1.1//EN" "http://www.w3.org/Graphics/SVG/1.1/DTD/svg11.dtd">
<svg version="1.1" id="Ebene_1" xmlns="http://www.w3.org/2000/svg" xmlns:xlink="http://www.w3.org/1999/xlink" x="0px" y="0px"
	 width="149.652px" height="133.201px" viewBox="0 0 149.652 133.201" enable-background="new 0 0 149.652 133.201"
	 xml:space="preserve">
<path fill="#5E5E5E" d="M149.43,17.804c0.539-1.304,0.025-2.131-0.744-2.874c-0.088-0.226-0.186-0.465-0.357-0.635
	c-0.154-0.153-0.34-0.234-0.514-0.357c-3.406-5.726-8.863-9.829-15.752-9.984c-4.287-0.098-8.709,0.566-12.85,1.655
	c-1.789,0.47-4.939,0.83-6.209,2.539c-0.018,0.012-0.037,0.022-0.053,0.034c-0.016,0.004-0.029-0.005-0.039,0.009
	c-0.006,0.008-0.01,0.017-0.016,0.025c-0.656,0.521-1.061,1.441-1.383,2.146c-0.07,0.156,0.145,0.288,0.234,0.137
	c0.02-0.036,0.045-0.069,0.064-0.105c0.166-0.073,0.313-0.173,0.455-0.275c0.064,0.023,0.135,0.028,0.199-0.015
	c0.961-0.65,1.766-0.582,2.857-0.762c0.518-0.086,0.971-0.318,1.475-0.427c0.65-0.141,1.393,0.054,2.072,0.074
	c2.525,0.539,4.885,1.442,7.475,2.596c1.789,0.794,3.51,1.041,5.436,0.844c2.074-0.211,2.705-1.356,3.146-2.682
	c0.857,0.143,1.563-0.099,2.16-0.774c1.283-1.446,2.742-0.684,4.26-0.146c1.695,1.175,3.111,2.849,3.9,4.486
	c1.545,3.21,2.957,9.279-0.412,11.975c-4.822,3.855-12.768,0.615-17.5-2.979c-7.6-6.408-16.365-12.055-25.914-5.364
	c-5.416,3.793-6.932,10.874-6.768,17.729h-0.001c-1.274,0.674-2.729,0.946-4.06,1.512c-1.627,0.692-2.701,1.699-3.924,2.979
	c-0.041,0.041-0.086,0.082-0.127,0.124c0.195-0.404,0.241-0.922,0.233-1.402c0.103-0.368,0.177-0.738,0.19-1.109
	c0.055-1.372-0.125-2.754-0.076-4.12c0.084-0.77,0.371-3.516,0.766-4.396c0.105-0.09,0.21-0.175,0.311-0.255
	c0.092,0.05,0.186,0.079,0.277,0.095c0.117,0.052,0.237,0.085,0.35,0.088c0.313,0.099,0.674-0.003,1.095-0.779
	c1.403-2.587,0.338-5.529,1.03-8.377c0.717-2.943,2.676-7.188,5.93-8.429c0.148-0.038,0.303-0.061,0.455-0.092
	c0.453,0.008,0.898,0.077,1.359,0.01c0.455-0.065,0.653-0.16,0.928,0.19c0.062,0.08,0.176,0.17,0.277,0.186
	c0.41,0.07,1.076-0.589,1.158-0.202c0.314,1.47,1.232,0.856,1.531-0.277c0.016-0.052-0.059-0.07-0.076-0.021
	c-0.033,0.082-0.832,1.744-1.115,0.638c-0.037-0.134-0.072-0.271-0.098-0.408c-0.041-0.171-0.07-0.38-0.203-0.513
	c-0.182-0.18-0.4-0.026-0.541,0.106c-0.51,0.478-0.771-0.325-1.318-0.284c-0.324,0.025-0.662,0.046-1.002,0.075
	c-3.261-0.299-5.998,1.476-7.769,4.388c-1.142,1.875-2.281,4.014-2.461,6.256c-0.179,2.209,0.325,3.134-2.019,4.508
	c-2.906,1.701-2.121,8.269-2.776,10.871c-0.269,1.071-0.675,1.899-1.123,2.627c0.411-1.812,0.317-3.708,0.141-5.664
	c-0.348-3.83-1.153-6.623-0.354-10.519c0.736-3.581-2.297-8.542-2.504-12.626c0.104-0.862,0.229-1.669,0.57-2.537
	c0.633-1.613,1.008-1.337,1.719-2.383c0.031-0.043,0.045-0.092,0.072-0.136c0.094-0.121,0.166-0.248,0.202-0.383
	c0.536-1.318,0.138-2.957,0.961-4.286c0.052-0.081-0.071-0.176-0.133-0.103c-0.19,0.222-0.339,0.459-0.467,0.705
	c-0.003,0.002-0.005-0.002-0.007,0c-0.637,0.669-1.03,1.365-1.498,2.16c-0.406,0.691-0.879,1.375-1.287,2.073
	c-0.276,0.345-0.527,0.758-0.686,1.16c-0.576,0.83-1.068,1.745-1.313,2.948c-0.406,1.995-0.805,4.186-0.275,6.202
	c0.561,2.138,1.315,3.761,0.816,5.921c-0.08,0.086-0.158,0.173-0.246,0.255c-0.143,0.132-0.071,0.312,0.059,0.398
	c-0.078,0.232-0.147,0.46-0.256,0.705c-0.227,0.516-0.393,1.083-0.414,1.646c-0.105,2.877,0.834,5.46,1.199,8.288
	c0.1,1.408,0.271,3.117-0.18,4.525c-0.153,0.309-0.342,0.597-0.607,0.828c-0.775,0.674-1.43,1.135-1.611,2.181
	c-0.008,0.044,0.008,0.079,0.02,0.116c-0.005,0.02-0.012,0.032-0.018,0.052c-0.125,0.449-0.14,1.291-0.197,2.177
	c-0.133,0.301-0.287,0.591-0.471,0.861c-0.082,0.121-0.175,0.234-0.266,0.349c-0.09-0.115-0.184-0.228-0.266-0.349
	c-0.183-0.27-0.338-0.56-0.47-0.86c-0.058-0.887-0.073-1.729-0.197-2.178c-0.006-0.021-0.012-0.033-0.018-0.054
	c0.01-0.036,0.027-0.071,0.019-0.114c-0.18-1.046-0.836-1.507-1.611-2.181c-0.267-0.231-0.454-0.519-0.608-0.828
	c-0.452-1.408-0.278-3.117-0.18-4.525c0.366-2.828,1.305-5.411,1.2-8.288c-0.021-0.563-0.186-1.13-0.414-1.646
	c-0.108-0.245-0.179-0.473-0.256-0.704c0.131-0.087,0.201-0.267,0.06-0.399c-0.089-0.083-0.167-0.17-0.247-0.256
	c-0.498-2.159,0.256-3.782,0.817-5.92c0.528-2.016,0.13-4.207-0.275-6.202c-0.245-1.204-0.738-2.119-1.315-2.949
	c-0.159-0.404-0.41-0.817-0.686-1.161c-0.408-0.698-0.88-1.381-1.285-2.071c-0.467-0.795-0.86-1.491-1.498-2.16
	c-0.002-0.002-0.004,0.002-0.007,0c-0.127-0.246-0.275-0.483-0.466-0.705c-0.064-0.073-0.184,0.022-0.134,0.103
	c0.823,1.329,0.425,2.969,0.96,4.286c0.037,0.135,0.109,0.261,0.202,0.382c0.026,0.044,0.043,0.093,0.072,0.137
	c0.713,1.046,1.088,0.77,1.721,2.383c0.34,0.869,0.466,1.677,0.569,2.54c-0.208,4.084-3.239,9.043-2.504,12.623
	c0.799,3.896-0.006,6.689-0.352,10.519c-0.177,1.955-0.273,3.849,0.138,5.66c-0.448-0.727-0.852-1.554-1.121-2.623
	c-0.654-2.602,0.127-9.17-2.779-10.871c-2.344-1.374-1.84-2.299-2.017-4.508c-0.18-2.242-1.321-4.381-2.461-6.256
	c-1.77-2.912-4.509-4.687-7.768-4.388c-0.34-0.029-0.68-0.05-1.004-0.075C50.1,9.897,49.837,10.7,49.33,10.222
	c-0.14-0.132-0.362-0.286-0.54-0.106c-0.134,0.133-0.165,0.342-0.205,0.513c-0.028,0.137-0.059,0.274-0.096,0.408
	c-0.285,1.106-1.084-0.556-1.115-0.638c-0.02-0.049-0.094-0.031-0.08,0.021c0.298,1.133,1.216,1.747,1.533,0.277
	c0.084-0.387,0.748,0.272,1.16,0.202c0.1-0.016,0.213-0.106,0.274-0.186c0.277-0.35,0.476-0.255,0.93-0.19
	c0.461,0.067,0.906-0.002,1.358-0.01c0.153,0.031,0.308,0.055,0.458,0.092c3.252,1.242,5.209,5.487,5.925,8.429
	c0.696,2.848-0.371,5.79,1.032,8.377c0.42,0.776,0.781,0.878,1.093,0.779c0.114-0.003,0.234-0.036,0.352-0.088
	c0.092-0.016,0.184-0.045,0.275-0.095c0.102,0.08,0.206,0.165,0.313,0.255c0.392,0.876,0.679,3.606,0.765,4.387
	c0.052,1.368-0.13,2.754-0.076,4.129c0.014,0.37,0.089,0.74,0.191,1.107c-0.009,0.48,0.037,0.999,0.233,1.403
	c-0.04-0.041-0.086-0.082-0.126-0.123c-1.225-1.28-2.3-2.287-3.927-2.979c-1.33-0.566-2.781-0.838-4.058-1.512h-0.001
	c0.165-6.855-1.351-13.936-6.765-17.729c-9.548-6.691-18.315-1.046-25.912,5.362c-4.735,3.594-12.681,6.837-17.503,2.981
	c-3.369-2.696-1.958-8.765-0.412-11.975c0.788-1.637,2.203-3.311,3.898-4.486c1.517-0.538,2.978-1.3,4.262,0.146
	c0.597,0.675,1.302,0.917,2.157,0.774c0.442,1.326,1.074,2.471,3.149,2.682c1.925,0.197,3.648-0.05,5.433-0.844
	c2.591-1.154,4.95-2.056,7.476-2.596c0.677-0.019,1.421-0.215,2.071-0.074c0.507,0.109,0.961,0.341,1.477,0.427
	c1.092,0.18,1.896,0.112,2.857,0.762c0.064,0.043,0.135,0.038,0.199,0.015c0.144,0.102,0.288,0.201,0.453,0.275
	c0.022,0.035,0.046,0.069,0.067,0.105c0.092,0.151,0.303,0.019,0.232-0.137c-0.321-0.706-0.723-1.627-1.382-2.147
	c-0.006-0.007-0.008-0.016-0.014-0.024c-0.01-0.014-0.024-0.005-0.038-0.009c-0.017-0.012-0.036-0.022-0.054-0.034
	c-1.271-1.709-4.421-2.069-6.209-2.539c-4.141-1.089-8.562-1.753-12.85-1.655C10.703,4.109,5.244,8.212,1.837,13.939
	c-0.174,0.122-0.359,0.204-0.512,0.356c-0.172,0.17-0.27,0.409-0.357,0.635c-0.769,0.743-1.285,1.57-0.746,2.874
	c0.284,0.687-0.542,2.215-0.059,2.818c0.889,1.111,0.491,2.543,0.961,3.777c-0.012,0.022-0.018,0.047-0.005,0.071
	c0.226,0.44,0.32,0.86,0.672,1.229c0.083,0.086,0.186,0.159,0.282,0.238c0.188,0.618,0.027,0.949,1.025,1.56
	c1.681,1.029,2.816,2.288,4.782,2.644c0.612,0.111,1.239,0.142,1.873,0.12c8.336,0.126,14.745-6.553,21.158-11.237
	c4.501-2.326,9.164-3.178,14.377,0.898c4.04,3.159,5.645,8.572,5.847,14.109c-3.118-0.95-4.772-2.954-6.336-5.792
	c-1.203-2.182-3.154-3.815-4.353-6.012c-0.024-0.044-0.062-0.061-0.103-0.068c-0.024-0.058-0.046-0.118-0.072-0.176
	c-0.214-0.734-0.463-1.458-0.651-2.198c-0.039-0.154-0.21-0.204-0.341-0.139c-0.438,0.22-0.166-0.933-0.519-1.153
	c-0.169-0.106-0.276-0.101-0.469-0.04c-0.126,0.04-0.257,0.138-0.367,0.208c-0.714,0.457-1.039-0.33-1.082-0.856
	c-0.007-0.09-0.138-0.092-0.141,0c-0.019,0.518,0.026,0.907,0.481,1.205c0.301,0.198,1.5-0.554,1.545-0.094
	c0.057,0.581-0.232,1.442,0.509,1.233c0.005,0.016,0.01,0.033,0.014,0.049c-0.063-0.069-0.174-0.006-0.13,0.085
	c1.082,2.295,1.195,4.951,2.323,7.188c0.244,0.818,0.572,1.648,0.999,2.388c1.562,3.73,3.825,7.056,7.888,8.072
	c0.274,0.249,0.481,0.532,0.648,0.854c-0.254,2.638-0.765,5.157-1.429,7.322c-0.395,0.153-0.795,0.296-1.205,0.421
	c-3.488,1.065-7.454,1.408-11.073,0.638c-1.083-0.37-2.134-0.621-3.174-1.164c-0.161-0.105-0.321-0.212-0.485-0.311
	c-0.063-0.038-0.128-0.061-0.192-0.088c-0.35-0.225-0.682-0.467-0.996-0.73c-0.397-0.562-0.668-1.22-1.26-1.598
	c0.323-0.367,0.744-0.914,0.401-1.228c-0.287-0.262-0.312-0.283-0.689-0.317c-0.051-0.005-0.848,0.294-0.315-0.262
	c0.225-0.235,0.49-0.452,0.759-0.634c0.35-0.239,0.784-0.681,0.37-1.094c-0.084-0.085-0.266-0.161-0.394-0.142
	c-0.233,0.035-0.372,0.074-0.591,0.172c-1.236,0.549-0.23-1.762-0.209-1.806c0.037-0.079-0.066-0.137-0.116-0.068
	c-0.286,0.386-1.079,1.532-0.616,2.056c0.16,0.179,0.233,0.308,0.492,0.308c0.186,0,0.415-0.118,0.578-0.184
	c0.092,0.134,0.184,0.266,0.277,0.4c-0.145,0.075-0.282,0.161-0.411,0.261c-0.264,0.183-1.353,0.91-0.998,1.394
	c0.108,0.149,0.191,0.336,0.395,0.348c0.284,0.017,0.293,0.008,0.581-0.078c0.47-0.138-0.164,0.721-0.248,0.825
	c-0.107,0.158,0.013,0.379,0.179,0.427c0.197,0.057,0.358,0.159,0.505,0.276c0,0.014-0.003,0.027,0.006,0.041
	c0.62,1.145,1.474,2.24,2.333,3.231c2.146,3.238,6.258,4.157,9.985,4.171c1.5,0.005,3.046-0.202,4.611-0.495
	c-0.077,0.458-0.104,0.934-0.212,1.379c-0.098,0.404-0.23,0.794-0.375,1.18c-1.354,2.96-3.33,5.621-4.553,8.661
	c-1.494,3.71-2.028,7.786-2.443,11.741c-0.003,0.026-0.005,0.054-0.008,0.082c-1.317,7.735-0.767,15.461,7.076,19.778
	c8.053,4.431,15.521-3.481,15.631-11.394c0.001-0.12-0.057-0.199-0.134-0.258c0.207-2.104-0.035-4.248-0.605-6.31
	c-0.4-2.001-1.33-3.767-1.928-5.69c-0.082-1.297-0.238-2.472-0.79-3.692c-0.926-2.048-1.506-3.738-1.816-5.881
	c0.034-1.311,0.244-2.617,0.665-3.875c0.115-0.341,0.264-0.656,0.431-0.956c1.43-1.593,3.347-2.159,5.524-2.054
	c1.614,0.079,3.062,0.813,4.568,1.315c0.051,0.059,0.107,0.116,0.18,0.167c0.311,0.22,0.638,0.33,1.015,0.396
	c0.809,0.144,1.014,1.408,1.033,2.027c0.02,0.588-0.219,1.071-0.492,1.547c-0.322,0.238-0.695,0.199-1.087,0.082
	c-0.813-0.751-2.006-1.23-2.953-1.293c-0.986-0.067-1.898,0.101-2.754,0.422c-1.362,0.278-2.662,0.912-3.633,1.896
	c-0.722,0.733-2.026,2.231-1.429,3.369c0.443,0.848,1.496,0.654,1.824-0.185c0.168-0.433-0.109-0.837-0.474-0.65
	c-0.056-0.155-0.1-0.311-0.072-0.479c0.028-0.167,0.111-0.31,0.218-0.438c0.16-0.135,0.34-0.256,0.557-0.361
	c0.324-0.158,0.679-0.298,1.037-0.419c1.756-0.178,3.693,0.438,4.953,1.591c2.128,3.845-0.808,12.083-0.795,16.168
	c0.017,5.149,1.871,10.418,1.727,15.526c-0.113,0.236-0.214,0.475-0.299,0.716c-0.018,0.013-0.031,0.028-0.05,0.042
	c-0.38,0.259-0.519,0.6-0.685,0.995c-0.07,0.26-0.13,0.522-0.178,0.786c-0.092,0.447-0.922,1.923-1.565,0.785
	c-0.119-0.211-0.497-0.131-0.476,0.127c0.001,0.011,0.005,0.016,0.006,0.024c-0.439,0.73,0.012,1.488,0.622,2.041
	c0.641,0.849,1.587,1.587,2.7,1.269c1.164-0.329,0.984,1.75,1.037,2.687c-0.079,0.081-0.15,0.167-0.202,0.263
	c-0.608,1.125-1.069,2.086-2.47,2.26c-1.448,0.178-2.706-0.049-3.718,1.199c-0.028,0.035-0.034,0.072-0.028,0.108
	c-0.063,0.063-0.129,0.128-0.182,0.2c-0.259,0.209-0.502,0.499-0.794,0.813c-0.045,0.045,0.021,0.111,0.07,0.069
	c0.71-0.612,1.265-0.713,2.151-0.424c0.058,0.019,0.108,0.042,0.163,0.063c0.51,0.432,1.061,1.02,1.141,1.701
	c0.079,0.667-0.463,1.165-0.806,1.684c-0.295,0.231-0.543,0.475-0.727,0.832c-0.291,0.563-0.053,1.25-0.681,1.759
	c-0.003,0.002-0.002,0.006-0.005,0.008c-0.189,0.051-0.375,0.112-0.517,0.211c-0.546,0.379-0.762,1.202-0.716,1.892
	c-0.084,0.246-0.098,0.527-0.159,0.789c-0.012,0.018-0.023,0.034-0.035,0.053c-0.297,0.313-0.534,0.697-0.836,1
	c-0.061,0.062,0.018,0.164,0.093,0.119c0.218-0.131,0.458-0.289,0.671-0.471c1.714-0.377,2.482,0.98,3.844,1.508
	c0.379,0.146,0.804,0.143,1.119-0.023c0.05,0.556,0.076,1.033-0.481,1.558c-0.811,0.763-1.693,1.302-1.732,2.519
	c-0.004,0.135,0.193,0.13,0.205,0c0.041-0.446,0.315-0.807,0.671-1.131c0.305-0.135,0.597-0.125,0.89-0.068
	c-0.309-0.021-0.592,0.029-0.935,0.121c-0.105,0.027-0.058,0.173,0.044,0.158c1.177-0.17,1.9,0.963,3,1.082
	c0.388,0.043,0.664-0.013,1.007-0.194c0.717-0.378,1.173-0.158,1.908-0.183c0.171-0.004,0.28-0.106,0.342-0.23
	c0.093,0.16,0.175,0.307,0.222,0.428c0.226,0.592,0.278,1.193,0.877,1.543c-0.005,0.041-0.02,0.079-0.002,0.124
	c1.117,2.673,2.172,5.064,1.977,8.039c-0.007,0.095,0.144,0.115,0.166,0.022c0.173-0.741,0.267-1.547,0.285-2.365
	c0.044-0.23,0.09-0.459,0.135-0.689c0.017-0.027,0.039-0.052,0.039-0.093c0-0.038,0.002-0.077,0.002-0.114
	c0.126-0.635,0.259-1.267,0.423-1.894c0.263-0.994,0.812-1.794,1.217-2.687c0.147-0.105,0.291-0.213,0.467-0.304
	c0.662-0.344,0.703-0.971,0.938-1.583c0.072-0.187,0.226-0.43,0.375-0.693c0.369,0.217,0.817,0.416,1.24,0.291
	c0.588-0.172,1.303-0.728,1.938-0.724c0.011,0.007,0.021,0.009,0.033,0.015c0.146,0.09,0.303,0.19,0.479,0.205
	c0.883,0.076,1.599-0.565,2.415-0.207c0.355,0.324,0.628,0.685,0.669,1.131c0.013,0.13,0.209,0.135,0.205,0
	c-0.037-1.217-0.923-1.756-1.729-2.519c-0.582-0.545-0.531-1.04-0.478-1.626c0.369-0.033,0.709-0.212,1.028-0.451
	c0.16-0.119,0.301-0.257,0.445-0.391c0.811-0.341,1.641-0.604,2.475-0.923c0.01-0.003,0.014-0.013,0.022-0.017
	c0.302,0.029,0.595,0.109,0.876,0.262c0.238,0.228,0.523,0.418,0.782,0.574c0.074,0.045,0.151-0.058,0.092-0.119
	c-0.302-0.303-0.538-0.688-0.837-1c-0.011-0.019-0.021-0.035-0.033-0.051c-0.061-0.264-0.076-0.545-0.16-0.791
	c0.047-0.688-0.168-1.513-0.715-1.892c-0.143-0.099-0.328-0.16-0.516-0.211c-0.003-0.002-0.002-0.005-0.005-0.008
	c-0.632-0.509-0.392-1.196-0.681-1.759c-0.186-0.356-0.434-0.6-0.729-0.832c-0.343-0.519-0.887-1.017-0.809-1.684
	c0.082-0.681,0.632-1.269,1.141-1.701c0.057-0.021,0.107-0.043,0.167-0.063c0.886-0.289,1.438-0.188,2.149,0.424
	c0.047,0.042,0.115-0.024,0.072-0.069c-0.293-0.314-0.537-0.605-0.798-0.814c-0.052-0.072-0.118-0.135-0.18-0.199
	c0.005-0.035-0.001-0.072-0.029-0.107c-1.012-1.248-2.271-1.021-3.717-1.199c-1.401-0.174-1.862-1.135-2.472-2.26
	c-0.012-0.023-0.034-0.043-0.051-0.065c-0.051-0.205-0.111-0.407-0.156-0.614c-0.047-0.22-0.076-0.458-0.096-0.697
	c0.051-0.629,0.248-1.261,0.692-1.594c0.472-0.354,1.614,0.387,2.019-0.148c0.545-0.094,1.004-0.59,1.336-1.101
	c0.049-0.073,0.035-0.139-0.002-0.192c0.504-0.53,0.807-1.203,0.416-1.85c0.002-0.008,0.004-0.012,0.004-0.021
	c0.024-0.258-0.354-0.338-0.474-0.127c-0.646,1.138-1.473-0.338-1.565-0.785c-0.049-0.264-0.108-0.526-0.178-0.786
	c-0.166-0.396-0.304-0.736-0.685-0.995c-0.019-0.014-0.033-0.029-0.052-0.044c-0.086-0.24-0.187-0.478-0.299-0.713
	c-0.142-5.109,1.711-10.378,1.728-15.527c0.015-4.084-2.922-12.322-0.796-16.166c1.259-1.155,3.197-1.771,4.953-1.593
	c0.359,0.121,0.714,0.261,1.037,0.419c0.218,0.105,0.397,0.226,0.557,0.36c0.107,0.128,0.191,0.272,0.221,0.439
	c0.028,0.168-0.016,0.324-0.072,0.479c-0.367-0.186-0.644,0.217-0.474,0.65c0.328,0.839,1.382,1.033,1.824,0.185
	c0.597-1.138-0.709-2.636-1.433-3.369c-0.969-0.984-2.271-1.619-3.631-1.896c-0.856-0.322-1.77-0.489-2.754-0.422
	c-0.949,0.063-2.141,0.542-2.953,1.293c-0.393,0.117-0.766,0.156-1.088-0.082c-0.272-0.476-0.512-0.959-0.492-1.547
	c0.019-0.588,0.211-1.746,0.922-1.985c2.637-0.118,5.094-1.972,7.646-2.626c0.092,0.02,0.184,0.036,0.276,0.062
	c1.856,0.531,3.284,1.795,3.907,3.654c0.422,1.257,0.631,2.562,0.664,3.871c-0.31,2.145-0.89,3.836-1.815,5.885
	c-0.552,1.221-0.708,2.396-0.789,3.694c-0.597,1.918-1.524,3.68-1.925,5.674c-0.471,1.699-0.719,3.453-0.678,5.197
	c-0.006,0.018-0.02,0.03-0.017,0.051c0.009,0.061,0.017,0.123,0.024,0.184c0.037,0.973,0.169,1.939,0.404,2.891
	c0.066,0.295,0.146,0.586,0.235,0.877c1.013,4.562,3.149,9.076,8.604,9.412c6.326,0.389,15.08-5.352,13.529-12.531
	c-0.02-0.08-0.066-0.137-0.127-0.176c0.295-2.58,0.256-5.184-0.02-7.789c-0.418-3.955-0.947-8.03-2.441-11.741
	c-1.225-3.034-3.193-5.691-4.547-8.642c-0.148-0.392-0.283-0.788-0.385-1.199c-0.105-0.445-0.135-0.922-0.213-1.379
	c1.568,0.293,3.113,0.5,4.615,0.495c3.727-0.014,7.836-0.933,9.984-4.171c0.857-0.99,1.713-2.086,2.334-3.231
	c0.008-0.015,0.006-0.028,0.004-0.042c0.148-0.117,0.309-0.218,0.506-0.275c0.168-0.048,0.285-0.27,0.176-0.428
	c-0.084-0.106-0.715-0.962-0.248-0.824c0.289,0.086,0.297,0.095,0.582,0.078c0.205-0.012,0.287-0.199,0.398-0.348
	c0.352-0.484-0.736-1.211-0.998-1.394c-0.131-0.1-0.27-0.186-0.412-0.261c0.092-0.134,0.184-0.266,0.275-0.4
	c0.164,0.066,0.393,0.184,0.578,0.184c0.262,0,0.332-0.129,0.49-0.308c0.465-0.524-0.33-1.67-0.615-2.056
	c-0.051-0.069-0.15-0.011-0.113,0.068c0.02,0.044,1.023,2.355-0.209,1.806c-0.223-0.098-0.359-0.137-0.594-0.172
	c-0.129-0.019-0.307,0.057-0.393,0.142c-0.414,0.413,0.02,0.855,0.371,1.094c0.266,0.182,0.533,0.399,0.758,0.634
	c0.533,0.556-0.264,0.257-0.316,0.262c-0.375,0.034-0.4,0.055-0.688,0.317c-0.342,0.314,0.078,0.861,0.402,1.228
	c-0.594,0.379-0.863,1.037-1.264,1.6c-0.313,0.262-0.643,0.503-0.992,0.727c-0.064,0.027-0.131,0.051-0.193,0.089
	c-0.164,0.098-0.324,0.205-0.484,0.311c-1.041,0.543-2.092,0.794-3.176,1.165c-3.619,0.769-7.584,0.426-11.074-0.639
	c-0.408-0.125-0.809-0.268-1.205-0.421c-0.661-2.165-1.172-4.683-1.428-7.321c0.168-0.322,0.375-0.606,0.648-0.855
	c4.061-1.015,6.322-4.338,7.887-8.066c0.426-0.74,0.756-1.571,1-2.39c1.129-2.238,1.242-4.896,2.326-7.192
	c0.041-0.091-0.068-0.155-0.133-0.084c0.006-0.017,0.012-0.033,0.016-0.05c0.74,0.209,0.451-0.652,0.506-1.233
	c0.045-0.46,1.246,0.292,1.545,0.094c0.455-0.298,0.5-0.687,0.484-1.205c-0.004-0.092-0.135-0.09-0.143,0
	c-0.043,0.526-0.369,1.313-1.084,0.856c-0.107-0.07-0.24-0.168-0.365-0.208c-0.191-0.061-0.299-0.066-0.469,0.04
	c-0.352,0.22-0.082,1.373-0.518,1.153c-0.131-0.065-0.303-0.015-0.342,0.139c-0.189,0.744-0.441,1.471-0.654,2.208
	c-0.025,0.054-0.045,0.111-0.07,0.166c-0.039,0.007-0.078,0.024-0.102,0.068c-1.201,2.197-3.15,3.83-4.354,6.012
	c-1.563,2.838-3.219,4.842-6.336,5.792c0.201-5.537,1.807-10.95,5.848-14.109c7.508-5.87,13.875-1.523,20.258,2.736
	c2.33,1.595,4.662,3.176,7.061,4.676c0.641,0.799,1.494,1.24,2.508,1.364c2.443,1.171,5.123,1.887,7.58,1.443
	c1.969-0.356,3.104-1.615,4.781-2.644c1-0.611,0.838-0.942,1.027-1.56c0.096-0.079,0.199-0.152,0.281-0.238
	c0.354-0.369,0.445-0.789,0.674-1.229c0.012-0.024,0.006-0.049-0.006-0.071c0.471-1.233,0.07-2.666,0.961-3.777
	C149.971,20.02,149.145,18.491,149.43,17.804 M116.098,8.601c-0.039-0.019-0.078-0.033-0.119-0.049
	c0.072,0.007,0.143,0.018,0.213,0.025C116.162,8.584,116.131,8.592,116.098,8.601 M125.432,10.327
	c-3.689-1.729-7.324-2.414-11.383-2.481c-0.076-0.001-0.123,0.033-0.168,0.069c-0.004-0.002-0.004-0.007-0.008-0.009
	c1.193-0.835,3.064-1.333,4.883-1.669c2.914-0.27,5.445-0.363,8.355,0.03c1.783,0.241,3.174-0.284,4.873-0.826
	c0.096-0.029,0.057-0.172-0.041-0.146c-2.979,0.787-5.955,0.372-8.979,0.299c0.008-0.002,0.018-0.003,0.027-0.005
	c2.975-0.501,6.031-1.084,9.07-0.892c1.838,0.116,3.539,0.425,5.119,0.918c-0.275,0.029-0.531,0.157-0.762,0.39
	c-0.414,0.261-0.951,0.594-1.131,1.031C133.205,12.043,129.748,12.346,125.432,10.327 M137.234,7.939
	c-0.016-0.015-0.027-0.032-0.049-0.04c0.059-0.008,0.115-0.01,0.174-0.018C137.318,7.901,137.273,7.918,137.234,7.939
	 M136.807,7.964c0.074-0.016,0.146-0.033,0.219-0.046c-0.061,0.032-0.129,0.06-0.193,0.092
	C136.824,7.995,136.818,7.979,136.807,7.964 M135.697,7.523c0.023-0.052,0.047-0.105,0.07-0.156
	c0.406-0.079,0.813-0.123,1.219-0.114C136.531,7.281,136.086,7.366,135.697,7.523 M135.961,7.035
	c0.025-0.04,0.045-0.082,0.072-0.122c0.01-0.001,0.016,0.003,0.023-0.001c0.705-0.325,1.348-0.234,1.984-0.005
	C137.365,6.817,136.67,6.851,135.961,7.035 M139.018,7.124c-0.771-0.463-1.783-0.956-2.633-0.662c0.078-0.086,0.17-0.166,0.26-0.246
	c1.119-0.425,2.199,0.4,3.18,1.205C139.559,7.304,139.291,7.207,139.018,7.124 M139.168,7.748c0.021-0.014,0.049-0.022,0.055-0.046
	c0.117,0.043,0.232,0.095,0.346,0.143C139.438,7.806,139.303,7.774,139.168,7.748 M98.118,46.155
	c0.452,0.185,0.911,0.36,1.373,0.526c0.011,0.022,0.022,0.04,0.036,0.059c-0.701,0.137-1.445,0.316-2.021-0.238
	c-0.283-0.271-0.47-0.595-0.641-0.929C97.277,45.781,97.693,45.982,98.118,46.155 M93.913,43.422
	c-1.188-0.619-2.442-1.055-3.764-0.896c1.18-0.896,2.362-1.785,3.614-2.593c0.433-0.111,0.863-0.14,1.306-0.067
	c0.208,1.525,0.481,2.974,0.786,4.329C95.221,43.911,94.574,43.649,93.913,43.422 M82.916,42.041c0,0-0.002-0.001-0.003-0.001
	c0.011-0.007,0.017-0.016,0.027-0.022C82.932,42.024,82.924,42.032,82.916,42.041 M85.922,39.84c0.012,0.009,0.026,0.014,0.041,0.02
	c-0.043,0.039-0.08,0.08-0.121,0.119C85.868,39.934,85.895,39.887,85.922,39.84 M79.027,44.304c-0.005-0.009-0.008-0.02-0.014-0.027
	c0.011-0.041,0.022-0.081,0.035-0.12C79.043,44.208,79.033,44.253,79.027,44.304 M80.43,40.727c0.002-0.008,0.004-0.016,0.008-0.024
	c-0.002,0.006-0.002,0.011-0.004,0.017C80.432,40.721,80.43,40.723,80.43,40.727 M81.799,1.334
	c-0.013,0.004-0.024,0.004-0.035,0.014c0.024-0.044,0.056-0.082,0.082-0.125C81.831,1.26,81.813,1.296,81.799,1.334 M74.826,45.225
	c-0.06-0.066-0.114-0.139-0.165-0.22c0.002-0.001,0.003-0.002,0.005-0.003c0.048-0.027,0.103-0.054,0.16-0.081
	c0.057,0.027,0.112,0.054,0.16,0.081c0.002,0.001,0.003,0.002,0.004,0.003C74.94,45.085,74.885,45.158,74.826,45.225 M67.89,1.35
	c-0.011-0.01-0.024-0.01-0.036-0.015c-0.013-0.039-0.034-0.075-0.048-0.114C67.833,1.264,67.864,1.304,67.89,1.35 M69.213,40.695
	c0.004,0.01,0.006,0.02,0.011,0.031c-0.002-0.003-0.004-0.006-0.006-0.009C69.216,40.71,69.215,40.703,69.213,40.695 M70.638,44.277
	c-0.006,0.007-0.008,0.018-0.014,0.027c-0.005-0.051-0.015-0.097-0.021-0.148C70.615,44.196,70.628,44.236,70.638,44.277
	 M66.736,42.041c-0.008-0.008-0.017-0.016-0.025-0.024c0.011,0.007,0.018,0.016,0.029,0.023
	C66.739,42.04,66.738,42.04,66.736,42.041 M63.731,39.84c0.028,0.047,0.054,0.094,0.082,0.14c-0.043-0.04-0.08-0.08-0.122-0.12
	C63.705,39.854,63.719,39.85,63.731,39.84 M55.742,43.421c-0.663,0.227-1.309,0.489-1.945,0.774
	c0.303-1.355,0.577-2.804,0.786-4.328c0.442-0.074,0.871-0.045,1.304,0.065c1.253,0.808,2.436,1.698,3.617,2.594
	C58.184,42.367,56.93,42.803,55.742,43.421 M50.161,46.681c0.462-0.166,0.92-0.341,1.373-0.526c0.426-0.174,0.842-0.374,1.255-0.582
	c-0.171,0.334-0.359,0.657-0.642,0.929c-0.577,0.554-1.322,0.375-2.021,0.237C50.138,46.721,50.151,46.703,50.161,46.681
	 M12.294,7.881c0.057,0.008,0.115,0.009,0.173,0.018c-0.021,0.008-0.033,0.025-0.048,0.04C12.379,7.918,12.335,7.901,12.294,7.881
	 M12.82,8.01c-0.064-0.032-0.13-0.06-0.193-0.092c0.072,0.013,0.146,0.03,0.219,0.046C12.835,7.979,12.829,7.995,12.82,8.01
	 M12.667,7.253c0.406-0.009,0.813,0.035,1.217,0.114c0.026,0.051,0.047,0.104,0.072,0.156C13.566,7.366,13.122,7.281,12.667,7.253
	 M11.613,6.907c0.635-0.229,1.277-0.32,1.981,0.005c0.008,0.003,0.016-0.001,0.024,0.001c0.027,0.04,0.048,0.082,0.073,0.122
	C12.982,6.851,12.288,6.817,11.613,6.907 M13.006,6.215c0.09,0.08,0.184,0.159,0.262,0.246c-0.851-0.294-1.86,0.199-2.633,0.662
	c-0.272,0.083-0.542,0.181-0.806,0.297C10.809,6.615,11.888,5.791,13.006,6.215 M10.429,7.701c0.008,0.024,0.035,0.032,0.056,0.046
	c-0.136,0.027-0.269,0.059-0.402,0.098C10.198,7.796,10.313,7.744,10.429,7.701 M33.554,8.602c-0.031-0.009-0.062-0.017-0.093-0.025
	c0.072-0.008,0.141-0.018,0.213-0.025C33.635,8.567,33.594,8.582,33.554,8.602 M26.663,5.589c0.008,0.002,0.018,0.003,0.027,0.004
	c-3.025,0.074-6.002,0.489-8.982-0.298c-0.096-0.026-0.133,0.117-0.041,0.146c1.701,0.542,3.09,1.067,4.875,0.826
	c2.909-0.393,5.44-0.3,8.353-0.03c1.819,0.336,3.69,0.834,4.886,1.669c-0.004,0.002-0.005,0.007-0.009,0.009
	c-0.045-0.036-0.093-0.07-0.168-0.069c-4.06,0.067-7.692,0.752-11.384,2.481c-4.313,2.019-7.77,1.716-9.855-3.291
	c-0.183-0.438-0.721-0.772-1.134-1.033c-0.23-0.231-0.485-0.359-0.76-0.388c1.58-0.493,3.28-0.802,5.119-0.918
	C20.628,4.505,23.684,5.088,26.663,5.589 M50.826,36.221c0.071,0.006,0.146,0.009,0.218,0.012c-0.225,0.354-0.457,0.678-0.782,0.955
	c-0.084-0.028-0.165-0.059-0.247-0.088c0.269-0.236,0.522-0.492,0.736-0.775C50.774,36.294,50.801,36.255,50.826,36.221
	 M51.118,36.78c-0.135,0.184-0.275,0.364-0.454,0.517c-0.058-0.017-0.118-0.03-0.176-0.048c0.259-0.186,0.474-0.465,0.644-0.753
	C51.129,36.591,51.122,36.686,51.118,36.78 M51.095,37.252c-0.003,0.053-0.005,0.106-0.008,0.16
	c-0.046-0.011-0.089-0.025-0.134-0.036C51.005,37.34,51.049,37.295,51.095,37.252 M51.152,35.985
	c-0.048-0.007-0.095-0.014-0.142-0.022c0.049-0.071,0.096-0.146,0.141-0.222C51.15,35.822,51.153,35.904,51.152,35.985
	 M41.943,25.146c1.156,1.572,2.146,3.148,3.099,4.849c1.432,2.554,3.362,4.046,6.106,4.844c0.001,0.059,0.001,0.118,0.001,0.176
	c-0.172,0.279-0.292,0.606-0.442,0.896c-0.822-0.157-1.546-0.437-1.976-1.346c-0.037-0.079-0.133-0.082-0.201-0.053
	c-1.281,0.555-1.393-1.143-1.907-1.808c-0.036-0.048-0.126-0.056-0.175-0.023c-1.52,1.046-2.92-2.186-3.424-3.177
	c-0.039-0.077-0.125-0.053-0.163,0.004c-0.468-0.988-0.885-2.002-1.27-3.006c-0.191-0.944-0.417-1.936-0.717-2.899
	C41.208,24.133,41.574,24.646,41.943,25.146 M44.058,31.755c0.21,0.304,0.432,0.6,0.688,0.873c0.758,0.81,1.786,0.158,2.124,1.251
	c0.238,0.77,0.508,1.368,1.403,1.112c0.397-0.113,0.667,0.645,0.989,0.808c0.426,0.216,0.839,0.325,1.27,0.384
	c-0.192,0.314-0.424,0.595-0.694,0.843C47.308,36.05,45.472,34.094,44.058,31.755 M45.875,19.164
	c-7.232-5.534-13.095-2.223-19.032,1.907c-3.012,1.586-5.708,3.725-8.471,5.715c-0.097,0.058-0.195,0.116-0.295,0.174
	c-2.541,1.312-5.07,2.143-7.949,2.749c-2.022,0.111-3.867-0.412-5.096-2.051c-0.688-0.917-2.272-2.179-3.374-2.849
	c-0.004-0.013,0.003-0.024-0.005-0.038c-0.822-1.476-0.7-4.051-0.586-5.83c0.128-0.601,0.19-1.226,0.211-1.822
	c0-0.031-0.045-0.035-0.053-0.007c-0.071,0.255-0.157,0.515-0.244,0.776c-0.099-0.187-0.212-0.359-0.191-0.321
	c-0.682-1.282,0.331-2.108,1.035-2.782c0.58-0.555,1.092-1.174,1.385-1.92c0.027-0.07-0.081-0.11-0.118-0.049
	c-0.239,0.381-0.56,0.714-0.903,1.029c2.271-3.573,5.07-6.093,8.523-7.579c-0.833,0.579-1.619,1.389-2.119,1.82
	c-1.207,0.762-2.306,1.78-3.255,2.775c-2.973,3.117-3.575,7.777-2.948,11.853c0.658,4.275,5.456,5.276,8.947,4.995
	c4.568-0.369,9.345-3.248,12.491-6.43c0.007-0.007,0.005-0.014,0.009-0.022c7.358-5.659,16.474-10.038,24.765-2.913
	c7.008,6.023,6.196,18.184,4.271,26.278c-0.324,0.152-0.649,0.304-0.973,0.457c0-0.008,0.002-0.014,0.002-0.023
	c0.001-0.06-0.09-0.06-0.094,0c-0.007,0.026-0.013,0.051-0.021,0.076c-0.428,0.202-0.86,0.399-1.295,0.588
	C53.152,37.633,53.144,24.726,45.875,19.164 M36.781,49.623c-1.356-1.154-2.641-2.344-3.818-3.651
	c-0.085-0.096-0.166-0.195-0.249-0.293c0.006,0.005,0.013,0.009,0.02,0.013c0.214,0.191,0.437,0.369,0.669,0.524
	c0.889,0.596,1.849,0.796,2.828,1.037c0.35,0.114,0.695,0.21,1.039,0.292c0.061,0.02,0.122,0.037,0.183,0.058
	c0.021,0.008,0.034-0.004,0.053-0.004c2.363,0.522,4.675,0.364,7.768,0.184c1.49-0.087,2.934-0.445,4.34-0.918
	c0.054,0.028,0.114,0.043,0.176,0.046c0.36,0.202,0.592,0.396,1.077,0.434c0.466,0.037,0.85,0.012,1.276-0.184
	c0.669-0.308,1.007-1.104,1.315-1.804c0.051-0.046,0.094-0.103,0.116-0.188c0.747-0.392,1.493-0.789,2.272-1.108
	c2.897-1.185,5.766,0.076,7.97,1.958c0.387,0.463,0.726,0.969,1.057,1.471c0.177,0.269,0.297,0.54,0.403,0.813
	c-1.088-1.332-2.344-2.57-4.081-2.507c-1.536,0.057-2.073-1.072-3.353-1.496c-0.728-0.241-2.304,1.159-2.793,1.268
	c-0.067,0.015-0.039,0.115,0.028,0.102c1.168-0.231,2.291-1.817,3.592-0.6c0.607,0.568,0.83,1.162,1.693,1.283
	c1.63,0.229,2.508,0.084,3.715,1.309c0.671,0.681,1.128,1.462,1.765,2.12c0.133,0.241,0.34,0.443,0.558,0.604
	c-2.629-1.859-6.136-2.807-9.136-2.644C51.421,48.061,42.675,52.582,36.781,49.623 M55.096,92.952
	c-0.046,0.015-0.091,0.032-0.138,0.046C55.005,92.983,55.05,92.967,55.096,92.952 M58.056,64.563c-0.409-0.675-0.78-1.379-1-2.187
	c-0.03-0.114-0.204-0.067-0.175,0.046c0.596,2.354,2.047,4.173,2.715,6.464c0.026,0.086,0.058,0.175,0.084,0.262
	c-0.023,0.006-0.042,0.023-0.028,0.053c0.05,0.104,0.098,0.213,0.147,0.317c0.06,0.188,0.12,0.378,0.183,0.567
	c-0.115-0.189-0.233-0.375-0.351-0.561c-0.065-0.127-0.13-0.253-0.201-0.378c-0.035-0.06-0.145-0.019-0.117,0.051
	c0.153,0.368,0.289,0.741,0.498,1.082c0.008,0.013,0.022,0.004,0.032,0.009c1.644,3.622,2.301,7.135,2.287,11.197
	c-0.004,1.314-0.193,2.502-0.528,3.583c-0.073,0.218-0.147,0.435-0.225,0.651c-1.053,2.744-3.154,4.728-5.913,6.158
	c-3.833,1.282-8.173-0.309-11.42-3.262c-1.242-1.525-2.2-3.156-2.721-5.505c-0.747-3.371-0.4-7.063-0.053-10.461
	c0.33-3.229,0.935-6.435,1.974-9.5c0.013-0.018,0.033-0.026,0.04-0.053c0.058-0.218,0.128-0.428,0.2-0.638
	c0.102-0.281,0.211-0.559,0.32-0.837c0.684-1.582,1.684-2.972,2.614-4.458c0.654-1.045,1.213-2.165,1.717-3.31
	c0.018,0.003,0.039,0.002,0.057-0.013c0.793-0.612,1.672-0.968,2.568-1.339c-0.088,0.234-0.219,0.439-0.453,0.577
	c-0.635,0.374-1.387,0.435-1.993,0.866c-0.081,0.058-0.007,0.193,0.08,0.137c0.402-0.264,0.847-0.442,1.31-0.562
	c0.239-0.061,0.557-0.127,0.84-0.217c-0.567,1.686-1.178,3.355-1.934,4.986c-0.055,0.118-0.114,0.235-0.171,0.353
	c-0.454,0.841-0.912,1.682-1.356,2.53c-1.685,2.529-2.924,4.978-3.831,7.899c-1.081,3.477-0.596,6.458-0.14,9.982
	c0.012,0.097,0.162,0.1,0.152,0c-0.45-4.238-0.053-7.797,1.133-11.272c-0.202,0.81-0.361,1.636-0.448,2.492
	c-0.395,3.871-0.514,9.538,1.302,13.698c-0.911-1.297-1.602-2.728-1.995-3.936c-0.029-0.086-0.158-0.052-0.136,0.037
	c0.662,2.777,2.848,8.028,6.201,8.465c0.22,0.027,0.44,0.047,0.66,0.063c0.963,0.149,2.006,0.067,3.034-0.181
	c0.121-0.023,0.24-0.056,0.36-0.084c0.009-0.002,0.017-0.004,0.026-0.006c1.297-0.315,2.505-0.875,3.516-1.699
	c0.037-0.027,0.079-0.053,0.115-0.08c0.757-0.576,1.324-1.232,1.74-1.944c0.03-0.05,0.058-0.103,0.086-0.154
	c0.294-0.536,0.505-1.103,0.641-1.694c0.036-0.086,0.076-0.172,0.107-0.258c0.68-1.922,0.72-3.683,0.491-5.697
	c-0.01-0.094-0.156-0.098-0.152,0c0.045,1.142-0.039,2.256-0.259,3.354c-0.021-0.324-0.055-0.652-0.102-0.98
	c-0.131-1.446-0.545-2.84-1.094-4.187c0.015-0.028,0.02-0.062,0.005-0.1c-1.529-3.939-2.882-7.728-3.88-11.847
	c-0.561-2.318-0.477-4.228-0.4-6.309c0.243-1.184,0.628-2.316,1.274-3.389c0.342-0.566,0.782-1.027,1.257-1.45
	c0.05-0.045,0.098-0.092,0.149-0.137c0.106-0.09,0.215-0.178,0.323-0.266c0.629-0.508,1.325-0.971,2.074-1.399
	c0.857-0.363,1.714-0.648,2.614-0.752c-0.751,0.247-1.472,0.573-1.899,1.219c-0.469,0.711-1.102,0.891-1.733,1.26
	c-0.209,0.123-0.335,0.435-0.354,0.674c-0.051,0.627-1.085,1.398-1.628,1.852c-0.414,0.347-0.494,1.267-0.557,1.723
	c-0.232,1.673,0.517,3.489,0.941,5.067c0.026,0.096,0.169,0.056,0.147-0.039c-0.331-1.45-0.722-2.869-0.843-4.358
	c-0.144-1.786,1.578-2.33,2.206-3.603c0.605-1.224,0.948-0.771,1.667-1.533c0.661-0.701-0.184-0.432,1.134-1.357
	c0.582-0.409,1.406-0.549,2.127-0.811c0.888,0.265,1.754,0.644,2.589,1.177c-0.153-0.051-0.309-0.093-0.468-0.122
	c-0.029-0.006-0.041,0.035-0.012,0.045c0.545,0.207,1.044,0.564,1.498,0.924c0.048,0.037,0.085,0.085,0.131,0.124
	c-1.077-0.564-2.344-0.82-3.483-1.165c-0.07-0.022-0.095,0.081-0.029,0.107c1.416,0.558,2.857,0.993,4.035,1.972
	c-0.835-0.532-1.738-0.955-2.687-0.954c-0.07,0-0.066,0.097,0,0.105c0.787,0.104,1.383,0.463,1.941,0.881
	c-3.004-1.086-6.066-1.066-8.168,2.224C56.697,57.517,57.013,61.422,58.056,64.563 M56.092,50.311
	c-0.379,0.519-0.936,1.316-1.029,2.028c-0.409,0.649-0.732,1.353-0.973,2.099c-0.119,0.285-0.225,0.576-0.306,0.875
	c-0.084,0.309-0.112,0.62-0.116,0.933c-0.106,0.668-0.163,1.356-0.178,2.056c-0.254,4.5,1.028,9.005,2.919,13.138
	c1.464,4.113,2.889,8.104,1.633,12.283c-0.209,0.371-0.464,0.719-0.756,1.054c-0.341,0.392-0.753,0.724-1.112,1.101
	c-1.227,0.809-2.599,1.312-4.346,1.694c-1.275,0.279-2.475-0.015-3.559-0.651c-0.118-0.088-0.24-0.174-0.352-0.272
	c-0.317-0.276-0.58-0.62-0.825-0.958c-0.363-0.501-0.7-1.02-1.055-1.525c-2.182-5.205-1.925-12.061-0.739-17.072
	c0.427-1.808,1.15-3.529,1.97-5.222c0.904-1.668,1.942-3.284,2.741-4.994c0.788-1.688,1.386-3.501,1.9-5.316
	c0.024-0.071,0.053-0.14,0.076-0.212c0.114-0.354,0.268-0.76,0.362-1.162c0.051-0.1,0.115-0.188,0.183-0.273
	c1.655-0.367,3.305-0.701,4.923-0.868C56.881,49.267,56.432,49.843,56.092,50.311 M48.652,52.616c0.661-0.62,1.45-1.06,2.375-1.175
	c-0.014,0.046-0.025,0.094-0.037,0.142c-0.945,0.26-1.768,0.793-2.506,1.436C48.539,52.884,48.598,52.751,48.652,52.616
	 M48.385,53.256c0.764-0.583,1.595-1.087,2.524-1.314c-0.013,0.065-0.028,0.129-0.042,0.193c-0.936,0.348-1.838,0.824-2.615,1.44
	C48.297,53.469,48.34,53.362,48.385,53.256 M59.841,61.359c-0.041,0.038-0.083,0.074-0.122,0.114
	c0.042-0.055,0.089-0.105,0.133-0.159C59.847,61.329,59.844,61.344,59.841,61.359 M69.173,100.416
	c0.008-0.011,0.003-0.022,0.01-0.033c0.023,0.059,0.046,0.117,0.064,0.181c-0.033-0.044-0.063-0.091-0.1-0.129
	C69.154,100.426,69.166,100.424,69.173,100.416 M65.115,117.799L65.115,117.799c-0.006,0.008-0.006,0.015-0.011,0.021
	c-0.007-0.002-0.017-0.003-0.025-0.005c-0.025-0.01-0.049-0.018-0.073-0.025c0.011,0,0.023,0,0.035-0.003
	C65.066,117.791,65.091,117.795,65.115,117.799 M66.293,118.104c0.02,0.007,0.038,0.01,0.057,0.019
	c0.006,0.002,0.01,0.002,0.015,0.004c-0.025,0.004-0.049,0.012-0.074,0.022C66.292,118.135,66.294,118.119,66.293,118.104
	 M61.867,117.627c0.631-0.228,1.312-0.148,1.985-0.027c-0.01,0.013-0.017,0.027-0.02,0.045
	C63.188,117.479,62.511,117.477,61.867,117.627 M67.329,122.504c-0.027,0.023-0.055,0.045-0.081,0.071
	c-0.133-0.04-0.26-0.083-0.383-0.125C67.015,122.483,67.17,122.5,67.329,122.504 M83.156,118.17
	c-0.004,0.006-0.007,0.012-0.01,0.018c-0.002-0.004-0.004-0.01-0.006-0.012C83.145,118.174,83.15,118.172,83.156,118.17
	 M78.852,121.713c0.002-0.037-0.004-0.07-0.006-0.105c0.02,0.031,0.043,0.059,0.065,0.089
	C78.891,121.697,78.872,121.707,78.852,121.713 M83.262,118.859c0.004,0.003,0.008,0.005,0.013,0.008
	c-0.005,0.002-0.009,0.006-0.013,0.008V118.859z M86.639,107.489c-0.258-0.053-0.553-0.024-0.933,0.142
	c-0.155,0.069-0.348,0.149-0.547,0.244c-0.976,0.358-1.728,1.094-1.694,2.305c0.028,1.175,0.946,1.531,1.644,2.271
	c0.366,0.388,0.284,1.123,0.635,1.58c0.005,0.007,0.013,0.011,0.019,0.019c-0.433-0.106-0.86-0.228-1.256-0.438
	c-0.095-0.054-0.164,0.078-0.082,0.142c0.617,0.471,1.433,0.899,2.185,1.106c0.677,0.187,0.856,1.106,0.94,1.765
	c-0.101-0.043-0.201-0.072-0.305-0.092c-0.195-0.051-0.404-0.063-0.634-0.018c-1.046,0.113-2.142,0.758-2.815-0.139
	c-0.074-0.095-0.211-0.166-0.324-0.084c-0.644,0.268-1.176,0.184-1.609-0.222c-0.141-0.247-0.385-0.428-0.626-0.606
	c-0.019-0.021-0.037-0.041-0.058-0.06c-0.004-0.005-0.01,0.001-0.017-0.001c-0.088-0.066-0.175-0.136-0.245-0.213
	c-0.035-0.038-0.107,0.015-0.074,0.057c0.278,0.369,0.558,0.813,0.914,1.1h0.002c0.35,0.354,0.73,0.559,1.262,0.611
	c0.015,0.002,0.486-0.154,0.529-0.087c0.082,0.134,0.205,0.226,0.332,0.312c-0.139,0.054-0.275,0.111-0.41,0.156
	c-0.176,0.06-0.355,0.114-0.535,0.166c-0.418-0.021-0.788-0.082-1.194-0.313c-0.41-0.233-0.808-0.521-1.144-0.853
	c-0.055-0.054-0.153,0.019-0.11,0.086c0.235,0.377,0.685,0.859,1.196,1.201c0.339,0.401,0.638,0.67,0.604,1.252
	c-0.024,0.387-0.108,0.815-0.01,1.198c0.164,0.644,0.535,1.099,1.03,1.459c-0.148-0.021-0.299-0.022-0.45,0.031
	c-0.45,0.157-0.722,0.021-1.021-0.104c-0.738-0.766-2.277-1.004-2.019-2.305c0.017-0.081-0.104-0.115-0.126-0.033
	c-0.234,0.941,0.37,1.653,1.051,2.262c-0.613,0.135-1.371,0.36-1.656-0.215c-0.188-0.381-0.336-0.736-0.652-1.019
	c-0.07-0.197-0.109-0.397-0.084-0.638c0.006-0.06-0.09-0.07-0.104-0.014c-0.053,0.213-0.08,0.414-0.064,0.61
	c-0.002,0.002-0.006,0.002-0.008,0.004c-0.283-0.446-0.563-0.894-0.646-1.45c-0.012-0.076-0.139-0.059-0.133,0.016
	c0.09,0.965,1.176,2.798,0.641,3.541c-0.715,0.99-1.449,1.939-2.225,2.871c-0.51,0.611-0.809,1.306-0.986,2.037
	c-0.177-0.731-0.478-1.426-0.986-2.037c-0.776-0.932-1.51-1.881-2.224-2.871c-0.536-0.743,0.55-2.576,0.64-3.541
	c0.005-0.074-0.121-0.092-0.133-0.016c-0.084,0.557-0.363,1.004-0.647,1.45c-0.002-0.002-0.006-0.002-0.008-0.004
	c0.016-0.196-0.011-0.397-0.063-0.61c-0.015-0.057-0.11-0.046-0.104,0.014c0.025,0.24-0.015,0.441-0.084,0.639
	c-0.316,0.282-0.465,0.637-0.653,1.018c-0.285,0.575-1.043,0.349-1.655,0.213c0.68-0.606,1.283-1.318,1.049-2.26
	c-0.02-0.082-0.14-0.048-0.123,0.033c0.257,1.301-1.282,1.539-2.022,2.305c-0.298,0.127-0.569,0.262-1.017,0.104
	c-0.151-0.054-0.302-0.052-0.452-0.031c0.496-0.36,0.866-0.815,1.032-1.459c0.097-0.383,0.012-0.812-0.01-1.198
	c-0.035-0.582,0.264-0.851,0.601-1.25c0.513-0.343,0.963-0.826,1.198-1.203c0.043-0.067-0.053-0.14-0.11-0.086
	c-0.338,0.332-0.732,0.619-1.142,0.853c-0.407,0.231-0.778,0.293-1.195,0.313c-0.18-0.052-0.359-0.106-0.537-0.166
	c-0.133-0.045-0.27-0.102-0.408-0.156c0.127-0.086,0.25-0.178,0.333-0.312c0.041-0.067,0.512,0.089,0.526,0.087
	c0.534-0.053,0.916-0.259,1.267-0.613c0.357-0.287,0.635-0.73,0.912-1.098c0.033-0.042-0.037-0.095-0.073-0.057
	c-0.071,0.077-0.158,0.146-0.246,0.213c-0.007,0.001-0.013-0.004-0.019,0.001c-0.02,0.021-0.04,0.042-0.06,0.062
	c-0.24,0.179-0.481,0.358-0.622,0.604c-0.431,0.406-0.965,0.49-1.61,0.223c-0.112-0.082-0.251-0.011-0.321,0.084
	c-0.679,0.899-1.78,0.248-2.83,0.139c-0.224-0.043-0.431-0.032-0.623,0.019c-0.103,0.019-0.204,0.048-0.303,0.091
	c0.085-0.658,0.262-1.578,0.941-1.765c0.753-0.207,1.568-0.636,2.184-1.106c0.082-0.063,0.014-0.195-0.083-0.142
	c-0.393,0.211-0.821,0.331-1.253,0.438c0.006-0.008,0.013-0.012,0.018-0.019c0.348-0.457,0.267-1.192,0.634-1.58
	c0.696-0.739,1.614-1.096,1.645-2.271c0.032-1.211-0.722-1.946-1.697-2.305c-0.198-0.095-0.392-0.175-0.547-0.244
	c-0.378-0.166-0.674-0.194-0.932-0.142c1.538-1.409,3.672,0.158,5.18-1.177c0.685-0.605,0.968-1.705,1.642-2.25
	c0.002,0.025,0.009,0.051,0.01,0.076c0,0.003,0.003,0.002,0.003,0.004c0.021,0.215,0.042,0.431,0.07,0.646
	c-0.102,0.528-0.299,1.029-0.503,1.528c-0.308,0.754-0.965,0.913-1.71,0.715c-0.072-0.019-0.121,0.088-0.053,0.123
	c0.705,0.358,1.345,0.263,1.901-0.296c0.297-0.298,0.447-0.655,0.517-1.034c0.025,0.14,0.058,0.282,0.085,0.423
	c-0.105,0.282-0.181,0.562-0.357,0.817c-0.04,0.06,0.055,0.135,0.101,0.078c0.135-0.169,0.241-0.359,0.326-0.558
	c0.029,0.135,0.053,0.269,0.084,0.403c-0.016,0.011-0.035,0.013-0.049,0.03c-0.069,0.099-0.08,0.132-0.123,0.249
	c-0.056,0.155,0.168,0.227,0.252,0.106c0.002-0.002,0.004-0.005,0.005-0.007c0.261,1.093,0.587,2.188,0.943,3.282
	c-0.481,0.079-0.768,0.088-1.206,0.307c-0.59,0.295-1.119,0.653-1.819,0.653c-0.088,0-0.235,0.054-0.292,0.135
	c-0.544,0.781-0.347,1.796-1.824,1.527c-0.044-0.009-0.063,0.056-0.019,0.065c0.781,0.207,1.602-0.031,1.813-0.871
	c0.166-0.664,0.619-0.44,1.096-0.676c0.299-0.147,0.591-0.306,0.883-0.467c0.499-0.275,0.944-0.265,1.473-0.349
	c0.363,1.098,0.751,2.19,1.134,3.27c-0.193,0.248-0.475,0.416-0.598,0.712c-0.166,0.399-0.139,0.768-0.081,1.188
	c0.018,0.118,0.216,0.09,0.207-0.027c-0.029-0.424-0.076-1.045,0.385-1.266c0.097-0.048,0.179-0.095,0.25-0.148
	c0.414,1.171,0.813,2.322,1.155,3.444c-0.01,0.008-0.021,0.01-0.031,0.021c-0.197,0.2-0.208,0.354-0.225,0.631
	c-0.018,0.319,0.06,0.453-0.024,0.781c-0.076,0.297-0.434,0.629-0.618,0.901c-0.411,0.606,0.271,1.658,0.483,2.22
	c0.039,0.1,0.2,0.059,0.164-0.045c-0.271-0.794-0.857-1.669-0.183-2.392c0.17-0.183,0.345-0.365,0.424-0.611
	c0.081-0.253,0.058-0.633,0.192-0.881c0.169,0.589,0.325,1.172,0.45,1.742c0.035,0.163,0.23,0.144,0.299,0.03
	c0.068,0.113,0.264,0.133,0.299-0.03c0.125-0.57,0.281-1.153,0.45-1.742c0.134,0.248,0.11,0.628,0.192,0.881
	c0.078,0.246,0.254,0.429,0.424,0.611c0.674,0.723,0.088,1.598-0.184,2.392c-0.035,0.104,0.125,0.145,0.164,0.045
	c0.213-0.562,0.895-1.613,0.484-2.22c-0.186-0.272-0.543-0.604-0.619-0.901c-0.084-0.328-0.006-0.462-0.023-0.781
	c-0.018-0.276-0.027-0.431-0.225-0.631c-0.011-0.012-0.021-0.014-0.033-0.022c0.342-1.121,0.742-2.272,1.156-3.443
	c0.071,0.054,0.153,0.101,0.25,0.148c0.461,0.221,0.414,0.842,0.385,1.266c-0.008,0.117,0.189,0.146,0.207,0.027
	c0.059-0.421,0.086-0.789-0.08-1.188c-0.125-0.296-0.406-0.464-0.6-0.712c0.385-1.079,0.771-2.172,1.135-3.27
	c0.529,0.084,0.973,0.073,1.473,0.349c0.293,0.161,0.584,0.319,0.884,0.467c0.478,0.235,0.93,0.012,1.096,0.676
	c0.211,0.84,1.033,1.078,1.812,0.871c0.045-0.01,0.027-0.074-0.017-0.065c-1.479,0.269-1.28-0.746-1.825-1.527
	c-0.056-0.081-0.205-0.135-0.289-0.135c-0.703,0-1.231-0.358-1.822-0.653c-0.438-0.219-0.725-0.228-1.205-0.307
	c0.355-1.094,0.682-2.189,0.941-3.282c0.002,0.002,0.004,0.005,0.006,0.007c0.084,0.12,0.309,0.049,0.252-0.106
	c-0.043-0.117-0.053-0.15-0.123-0.249c-0.014-0.018-0.032-0.02-0.049-0.03c0.03-0.135,0.056-0.269,0.084-0.403
	c0.084,0.198,0.191,0.389,0.328,0.558c0.045,0.057,0.141-0.019,0.101-0.078c-0.177-0.256-0.255-0.535-0.359-0.817
	c0.028-0.141,0.062-0.283,0.086-0.425c0.07,0.38,0.22,0.738,0.517,1.036c0.558,0.559,1.197,0.654,1.902,0.296
	c0.069-0.035,0.02-0.142-0.054-0.123c-0.744,0.198-1.401,0.039-1.709-0.715c-0.204-0.5-0.401-1.001-0.503-1.531
	c0.027-0.215,0.048-0.429,0.068-0.644c0-0.002,0.002-0.001,0.002-0.004c0.002-0.025,0.01-0.051,0.012-0.076
	c0.673,0.546,0.957,1.645,1.643,2.25C82.967,107.647,85.1,106.08,86.639,107.489 M80.309,101.252c0-0.052,0-0.103,0-0.152
	c0.022,0.004,0.043,0.01,0.066,0.011C80.352,101.157,80.327,101.203,80.309,101.252 M89.813,61.36
	c-0.004-0.015-0.008-0.03-0.012-0.045c0.043,0.053,0.09,0.102,0.131,0.156C89.893,61.433,89.852,61.397,89.813,61.36 M84.112,58.514
	c1.485,0.188,2.692,0.884,3.912,1.622c-0.796-0.337-1.649-0.547-2.498-0.663c-0.187-0.025-2.904,0.03-2.763,0.489
	c-0.418-1.348-1.916,1.185-2.034,1.517c-0.019,0.054,0.067,0.09,0.092,0.039c0.114-0.236,1.356-2.115,1.629-1.157
	c0.035,0.121,0.194,0.205,0.31,0.125c1.006-0.716,2.433-0.659,3.756-0.289c-3.744,0.035-6.897,2.689-6.1,7.305
	c0.547,3.172,1.989,6.08,1.975,9.371c-0.01,2.506-0.233,4.973-0.385,7.471c-0.179,2.943-0.807,5.828-0.767,8.746
	c-0.173-0.576-0.292-1.185-0.267-1.785c0-0.01-0.012-0.01-0.017-0.002c-0.252,0.679-0.143,1.414-0.038,2.119
	c0.023,0.164,0.055,0.353,0.094,0.549c-0.816-1.232-0.758-2.818-0.166-4.318c0.022-0.053-0.063-0.087-0.09-0.038
	c-0.597,1.117-0.858,2.433-0.644,3.697c0.267,1.539,1.496,2.312,1.858,3.761c0.211,0.839,0.74,1.702,1.724,1.743
	c0.313,0.013,0.546-0.047,0.739-0.147c-0.383,0.654-1.156,1.229-1.807,1.019c-0.533-0.17-0.968-0.539-1.472-0.771
	c-0.239-0.109-0.457-0.144-0.661-0.142c-0.285-0.198-0.556-0.412-0.747-0.711c-0.378-0.593-0.585-1.238-0.54-1.945
	c0.004-0.063-0.098-0.075-0.109-0.015c-0.131,0.765-0.033,1.64,0.365,2.318c0.101,0.172,0.242,0.39,0.409,0.592
	c-0.05,0.052-0.087,0.131-0.13,0.197c-0.132-0.029-0.266-0.056-0.387-0.111c-0.008-0.004-0.014,0.002-0.021,0
	c-0.037-0.021-0.08-0.018-0.121-0.016c-0.271-0.272-0.511-0.554-0.559-1.029c-0.008-0.08-0.131-0.084-0.129,0
	c0.005,0.418,0.184,0.918,0.457,1.314v0.001c1.311,5.878-1.963,12.911-3.641,18.904c-0.008,0.017-0.012,0.034-0.016,0.052
	c-0.189,0.682-0.361,1.352-0.5,2.002c-0.139-0.65-0.31-1.318-0.499-1.998c-0.004-0.02-0.008-0.039-0.016-0.059
	c-1.679-5.992-4.95-13.023-3.641-18.901c0.274-0.397,0.452-0.896,0.457-1.315c0.002-0.084-0.121-0.08-0.129,0
	c-0.049,0.476-0.287,0.757-0.557,1.029c-0.043-0.002-0.084-0.005-0.122,0.016c-0.008,0.002-0.014-0.004-0.021,0
	c-0.124,0.056-0.256,0.084-0.388,0.111c-0.043-0.066-0.08-0.146-0.131-0.197c0.168-0.202,0.31-0.42,0.41-0.592
	c0.399-0.679,0.496-1.554,0.365-2.318c-0.011-0.061-0.113-0.049-0.109,0.015c0.046,0.707-0.162,1.353-0.54,1.945
	c-0.189,0.299-0.46,0.513-0.747,0.711c-0.204-0.002-0.421,0.032-0.66,0.142c-0.505,0.231-0.939,0.601-1.471,0.771
	c-0.65,0.21-1.424-0.364-1.808-1.019c0.194,0.101,0.427,0.16,0.741,0.147c0.983-0.041,1.51-0.904,1.72-1.743
	c0.364-1.449,1.596-2.222,1.86-3.761c0.216-1.265-0.047-2.58-0.643-3.697c-0.026-0.049-0.111-0.015-0.091,0.038
	c0.592,1.5,0.652,3.086-0.165,4.318c0.04-0.196,0.072-0.385,0.096-0.549c0.104-0.705,0.211-1.44-0.041-2.119
	c-0.003-0.008-0.018-0.008-0.018,0.002c0.026,0.601-0.091,1.207-0.264,1.783c0.039-2.918-0.588-5.801-0.767-8.744
	c-0.151-2.498-0.376-4.965-0.387-7.471c-0.013-3.291,1.43-6.199,1.978-9.371c0.796-4.616-2.357-7.269-6.1-7.305
	c1.323-0.37,2.749-0.427,3.757,0.289c0.111,0.08,0.273-0.004,0.307-0.125c0.271-0.958,1.514,0.921,1.631,1.157
	c0.024,0.051,0.109,0.015,0.09-0.039c-0.119-0.332-1.617-2.865-2.036-1.517c0.143-0.459-2.574-0.514-2.759-0.489
	c-0.849,0.116-1.703,0.326-2.498,0.663c1.218-0.739,2.425-1.434,3.91-1.622c1.993-0.251,3.116,0.705,4.234,1.929
	c-0.192,0.172-0.338,0.393-0.381,0.653c-0.017,0.1,0.128,0.144,0.153,0.043c0.052-0.219,0.204-0.392,0.389-0.522
	c0.022,0.025,0.044,0.048,0.066,0.073c-0.277,0.39-0.359,0.962-0.317,1.428c0.012,0.122,0.198,0.127,0.194,0
	c-0.017-0.469,0.087-0.885,0.353-1.169c0.025,0.027,0.049,0.055,0.073,0.082c-0.297,0.555-0.268,1.302-0.107,1.883
	c0.014,0.051,0.094,0.053,0.107,0c0.073-0.293,0.051-0.574,0.058-0.874c0.005-0.234,0.054-0.422,0.136-0.594
	c0.094,0.768,0.449,1.57,0.371,2.336c0.005,0.181-0.342,0.098-0.445,0.273c-0.147,0.252,0.205,0.653,0.212,0.907
	c0.004,0.146,0.229,0.147,0.229,0c-0.002-0.249-0.383-0.782-0.037-0.799c0.199-0.01,0.229-0.118,0.212-0.249
	c0.113-0.423,0.189-0.798,0.109-1.251c-0.206-1.155-0.072-1.761,0.417-2.768c0.044-0.089,0.084-0.18,0.125-0.269
	c-0.015,0.41-0.024,0.808-0.009,1.179c0.12,2.874,0.074,5.75,0.148,8.625c0.003,0.142,0.211,0.141,0.217,0
	c0.092-2.465,0.451-5.443,0.484-8.327c0.327-1.687,0.693-3.456,0.652-5.172c-0.002-0.076-0.111-0.074-0.117,0
	c-0.064,0.879-0.285,1.761-0.48,2.645c-0.021-0.858-0.077-1.714-0.049-2.582c0.015-0.465-0.453-2.406,0.15-2.478
	c0.043-0.005,0.09-0.035,0.086-0.085c-0.035-0.46-0.016-0.308-0.098-0.763c-0.009-0.059-0.109-0.045-0.103,0.013
	c0.087,0.754-0.752,0.493-0.583,1.237c0.174,0.772,0.142,1.472,0.09,2.223c-0.054-0.228-0.109-0.456-0.174-0.676
	c0.036-0.033,0.062-0.076,0.052-0.135c-0.052-0.318-0.084-0.858-0.283-1.125c-0.168-0.223-0.68-0.603-0.547-0.914
	c0.153-0.359,0.591-0.762,0.313-1.184c-0.214-0.326-0.447-0.4-0.829-0.48c-0.653-0.135,0.029-1.812-0.25-2.349
	c-0.029-0.056-0.125-0.017-0.101,0.043c0.32,0.852-1.106,2.34,0.437,2.634c0.702,0.134-0.076,1.246-0.12,1.664
	c-0.013,0.116,0.106,0.261,0.183,0.329c0.059,0.052,0.108,0.105,0.163,0.157c-0.315-0.182-0.663-0.31-0.979-0.392
	c-0.575-0.151-0.978-1.199-1.451-2.151c0.009-0.027,0.019-0.053,0.008-0.088c-0.248-0.773-0.303-1.565-1.137-1.915
	c-0.035-0.014-0.063-0.041-0.094-0.06c-0.2-0.318-0.33-0.597-0.229-0.995c0.06-0.245,0.293-0.393,0.537-0.333
	c0.123,0.03,0.582,0.495,0.205,0.457c-0.108-0.011-0.111,0.165,0,0.169c0.27,0.012,0.367-0.161,0.331-0.416
	c-0.06-0.428-0.44-0.69-0.862-0.643c-0.321,0.036-0.532,0.264-0.647,0.552c-0.079-0.275-0.149-0.541-0.24-0.74
	c-0.233-0.507-0.627-0.931-1.016-1.32c-0.039-0.039-0.113,0.014-0.078,0.06c0.36,0.471,0.643,0.954,0.844,1.507
	c-0.075-0.094-0.153-0.189-0.232-0.284c-0.419-0.683-1.032-1.299-1.679-1.815c-0.273-0.259-0.557-0.508-0.849-0.747
	c-1.618-1.917-3.743-3.83-6.095-5.074c-0.153-0.197-0.308-0.392-0.44-0.606c-0.165-0.266-0.292-0.543-0.406-0.824
	c0.653,0.435,1.389,0.531,2.151,0.759c0.357,0.106,0.771-0.214,0.882,0.44c0.05,0.289,0.17,0.468,0.435,0.59
	c0.111,0.051,0.23-0.08,0.135-0.175c-0.308-0.309-0.275-1.088-0.851-1.12c-0.403-0.021-0.745-0.01-1.148-0.115
	c-0.599-0.158-1.183-0.328-1.688-0.701c-0.014-0.011-0.028-0.006-0.042-0.009c-0.173-0.497-0.304-1.01-0.439-1.53
	c-0.028-0.112-0.063-0.273-0.106-0.452c2.188,0.895,3.989,1.101,5.864,2.813c1.095,0.999,2.337,1.978,3.568,2.987
	c0.001,0.003,0.003,0.005,0.004,0.007c0.003,0.003,0.006,0.002,0.009,0.004c1.744,1.431,3.463,2.925,4.698,4.643
	c0.045,0.063,0.142,0.009,0.106-0.063c-0.356-0.704-0.834-1.371-1.381-2.01c-0.053-0.376-0.151-0.776-0.354-1.079
	c-0.166-0.249-0.389-0.39-0.563-0.575c-0.056-0.518-0.17-1-0.722-1.256c-0.558-0.261-1.185-0.18-1.735-0.356
	c-0.064-0.125-0.132-0.251-0.191-0.376c-0.001-0.334-0.011-0.67-0.023-1.004c-0.004-0.111-0.161-0.109-0.17,0
	c-0.011,0.153-0.03,0.307-0.046,0.461c-0.03-0.074-0.063-0.148-0.092-0.221c0.037-0.35,0.053-0.703,0.097-1.053
	c0.01-0.068-0.107-0.084-0.121-0.016c-0.044,0.224-0.088,0.453-0.117,0.682c-0.05-0.142-0.102-0.285-0.147-0.426
	c0.125-0.544,0.132-1.134,0.145-1.677c0-0.01-0.016-0.012-0.017-0.002c-0.069,0.361-0.203,0.729-0.298,1.1
	c-0.016-0.057-0.03-0.115-0.044-0.173c0.095-0.702,0.186-1.411,0.236-2.113c0.006-0.083-0.125-0.099-0.144-0.019
	c-0.087,0.368-0.207,0.756-0.306,1.149c-0.01-0.052-0.021-0.103-0.029-0.155c0.012-0.797,0.118-1.606,0.157-2.412
	c0.076-1.612-0.056-3.201-0.492-4.752c-0.003-0.012-0.019-0.007-0.017,0.004c0.273,1.899,0.297,3.697,0.135,5.575
	c-0.176-1.701-0.22-3.413-0.533-5.225c0.02-0.874-0.021-1.742-0.408-2.44c-0.09-0.163-0.188-0.3-0.298-0.42
	c0.445,0.219,0.735,0.989,0.9,1.43c0.025,0.069,0.136,0.041,0.113-0.032c-0.195-0.595-0.42-1.262-0.908-1.686
	c-0.339-0.295-0.623-0.212-0.911-0.095c-0.152,0.007-0.274,0.065-0.382,0.139c-0.069,0.018-0.138,0.029-0.21,0.032
	c-1.993-1.902-0.834-4.92-1.27-7.254c-0.532-2.853-2.004-6.726-4.546-8.78c4.043,2.179,6.522,7.041,6.159,11.776
	c-0.082,1.072,0.22,2.235,1.47,2.415c3.164,0.459,2.791,9.279,3.435,11.881c0.764,3.094,3.653,4.01,4.148,7.386
	c-0.072,0.507-0.128,1.056,0.059,1.497c0.262,0.62,1.159,0.635,1.03,1.269c-0.3,1.479,0.507,2.55,1.796,3.163
	c0.094,0.044,0.176-0.088,0.083-0.141c-0.841-0.485-1.493-1.078-1.589-2.092c-0.069-0.74,0.442-0.801,0.442-1.373
	c0-0.295-0.16-0.576-0.414-0.725c-0.547-0.321-0.783-0.672-0.894-1.09c0.033-0.623,0.171-1.24,0.005-1.867
	c-0.008-0.031-0.025-0.059-0.035-0.089c0.001-0.014,0.01-0.022,0.008-0.037c-0.125-0.815-0.479-1.436-0.91-2.127
	c-0.552-0.885-0.937-1.771-1.267-2.729c-0.48-3.667,0.095-7.158,0.863-10.912c0.839-4.102-1.978-7.111-0.014-11.463
	c0.845-1.869,1.434-4.655,1.116-7.107c-0.086-1.202-0.422-2.444-1.101-3.369c-0.004-0.007,0-0.013-0.005-0.02
	c-0.065-0.095-0.138-0.163-0.208-0.244c-0.04-0.045-0.072-0.098-0.114-0.142c-0.677-0.704-0.904-1.599-1.111-2.515
	c-0.004-0.056-0.008-0.112-0.013-0.167c0.235,0.38,0.499,0.743,0.769,1.096c0.792,1.318,1.727,2.531,2.307,4.032
	c1.564,4.045,0.344,7.622-0.421,11.608c-0.093-0.526-0.055-1.085,0.154-1.674c0.011-0.031-0.041-0.047-0.051-0.014
	c-0.331,1.069-0.598,2.299-0.107,3.248c0.092,0.43,0.27,0.851,0.472,1.313c0.844,1.928,0.266,4.136-0.105,6.098
	c-0.014,0.072,0.094,0.104,0.113,0.031c0.347-1.344,0.61-2.668,0.705-4.051c0.298,2.714-0.685,5.277-0.875,8.098
	c-0.011,0.012-0.025,0.022-0.027,0.042c-0.078,0.569-0.135,1.124-0.17,1.676c-0.001,0.007-0.002,0.012-0.001,0.019
	c-0.031,0.502-0.039,1.003,0.008,1.506c-0.345-1.766-0.153-3.825-0.058-5.223c0.008-0.126-0.18-0.122-0.194,0
	c-0.22,2.051-0.663,5.704,0.8,7.661c0.025,0.065,0.042,0.127,0.07,0.192c0.154,0.201,0.312,0.397,0.474,0.59
	c0.589,0.73,1.007,1.375,1.108,2.222c-0.023-0.046-0.038-0.092-0.065-0.138c-0.181-0.319-0.521-0.534-0.817-0.731
	c-0.834-0.557-1.419-0.982-1.796-1.976c-0.024-0.063-0.123-0.039-0.102,0.027c0.36,1.178,1.051,1.672,1.971,2.408
	c0.69,0.552,0.462,1.51,0.572,2.268c0.07,0.472,0.403,0.926,0.748,1.281c0.072,0.216,0.139,0.435,0.187,0.661
	c-0.255,0.505-0.322,1.039-0.396,1.618c-0.017,0.135,0.213,0.165,0.235,0.032c0.056-0.339,0.152-0.668,0.31-0.955
	c0.041,0.053,0.096,0.095,0.168,0.117c0.083,0.025,0.143,0.042,0.2,0.057c0.039,0.056,0.091,0.1,0.166,0.094
	c0.098-0.008,0.171-0.014,0.236-0.02c0.064,0.006,0.138,0.012,0.236,0.02c0.074,0.006,0.128-0.038,0.166-0.094
	c0.057-0.015,0.115-0.032,0.199-0.057c0.072-0.022,0.127-0.064,0.168-0.117c0.158,0.287,0.254,0.616,0.311,0.955
	c0.021,0.133,0.252,0.103,0.234-0.032c-0.073-0.579-0.141-1.112-0.396-1.617c0.049-0.227,0.116-0.446,0.188-0.662
	c0.346-0.355,0.679-0.809,0.748-1.281c0.111-0.758-0.117-1.716,0.572-2.268c0.92-0.736,1.611-1.23,1.971-2.408
	c0.021-0.066-0.078-0.09-0.102-0.027c-0.377,0.994-0.961,1.419-1.795,1.976c-0.297,0.197-0.637,0.412-0.818,0.731
	c-0.026,0.046-0.041,0.092-0.064,0.138c0.102-0.847,0.52-1.492,1.107-2.222c0.162-0.193,0.32-0.389,0.475-0.59
	c0.027-0.065,0.045-0.128,0.07-0.192c1.461-1.958,1.019-5.61,0.799-7.661c-0.014-0.122-0.201-0.126-0.193,0
	c0.096,1.397,0.286,3.455-0.057,5.22c0.046-0.501,0.037-1.001,0.007-1.503c0.001-0.007,0-0.012-0.001-0.019
	c-0.035-0.552-0.094-1.107-0.17-1.676c-0.004-0.02-0.016-0.03-0.027-0.042c-0.189-2.82-1.173-5.384-0.876-8.098
	c0.097,1.383,0.358,2.707,0.706,4.051c0.02,0.073,0.127,0.041,0.113-0.031c-0.371-1.962-0.949-4.17-0.105-6.098
	c0.201-0.462,0.381-0.883,0.471-1.313c0.492-0.949,0.225-2.179-0.105-3.248c-0.01-0.033-0.063-0.017-0.051,0.014
	c0.209,0.588,0.246,1.147,0.154,1.672c-0.767-3.985-1.985-7.562-0.422-11.606c0.58-1.499,1.512-2.711,2.303-4.026
	c0.272-0.355,0.537-0.721,0.775-1.103c-0.006,0.054-0.01,0.11-0.014,0.166c-0.207,0.916-0.434,1.813-1.111,2.517
	c-0.044,0.045-0.078,0.1-0.119,0.147c-0.067,0.079-0.141,0.146-0.205,0.239c-0.004,0.007,0,0.014-0.002,0.02
	c-0.682,0.927-1.018,2.17-1.103,3.373c-0.317,2.452,0.271,5.235,1.114,7.103c1.968,4.352-0.852,7.361-0.012,11.463
	c0.768,3.755,1.342,7.246,0.861,10.914c-0.329,0.958-0.713,1.842-1.266,2.727c-0.432,0.691-0.785,1.312-0.91,2.127
	c-0.002,0.015,0.007,0.023,0.007,0.037c-0.009,0.03-0.026,0.058-0.034,0.089c-0.164,0.626-0.027,1.243,0.006,1.865
	c-0.111,0.419-0.347,0.771-0.895,1.092c-0.254,0.149-0.414,0.43-0.414,0.725c0,0.572,0.512,0.633,0.441,1.373
	c-0.096,1.014-0.748,1.607-1.588,2.092c-0.094,0.053-0.012,0.185,0.082,0.141c1.289-0.613,2.096-1.684,1.797-3.163
	c-0.129-0.634,0.768-0.649,1.029-1.269c0.188-0.441,0.131-0.99,0.059-1.497c0.496-3.376,3.385-4.292,4.15-7.386
	c0.641-2.602,0.27-11.422,3.434-11.881c1.25-0.18,1.552-1.343,1.47-2.415c-0.362-4.735,2.118-9.598,6.161-11.777
	c-2.543,2.054-4.016,5.928-4.549,8.781c-0.437,2.334,0.723,5.352-1.27,7.254c-0.072-0.003-0.141-0.014-0.209-0.032
	c-0.109-0.074-0.23-0.132-0.383-0.139c-0.288-0.117-0.572-0.2-0.911,0.095c-0.487,0.424-0.713,1.091-0.905,1.686
	c-0.024,0.073,0.086,0.101,0.112,0.032c0.164-0.441,0.453-1.211,0.897-1.43c-0.11,0.12-0.209,0.257-0.297,0.42
	c-0.388,0.698-0.428,1.566-0.408,2.441c-0.313,1.808-0.357,3.517-0.531,5.215c-0.162-1.874-0.139-3.67,0.134-5.566
	c0.002-0.011-0.014-0.016-0.019-0.004c-0.434,1.551-0.567,3.14-0.489,4.752c0.038,0.806,0.144,1.614,0.155,2.411
	c-0.01,0.051-0.02,0.102-0.029,0.154c-0.1-0.392-0.219-0.78-0.307-1.147c-0.019-0.08-0.149-0.064-0.144,0.019
	c0.052,0.702,0.142,1.411,0.236,2.112c-0.015,0.058-0.028,0.115-0.043,0.172c-0.097-0.37-0.229-0.738-0.3-1.098
	c-0.002-0.01-0.017-0.008-0.017,0.002c0.013,0.543,0.021,1.132,0.146,1.676c-0.047,0.141-0.096,0.284-0.147,0.426
	c-0.028-0.229-0.073-0.457-0.116-0.681c-0.015-0.068-0.129-0.052-0.121,0.016c0.043,0.35,0.06,0.702,0.097,1.051
	c-0.029,0.074-0.062,0.147-0.093,0.221c-0.016-0.153-0.035-0.307-0.047-0.459c-0.006-0.109-0.164-0.111-0.168,0
	c-0.013,0.332-0.021,0.667-0.022,1c-0.06,0.126-0.127,0.254-0.192,0.38c-0.55,0.176-1.176,0.096-1.734,0.356
	c-0.551,0.256-0.666,0.738-0.721,1.257c-0.176,0.184-0.397,0.325-0.566,0.574c-0.201,0.303-0.299,0.703-0.352,1.079
	c-0.548,0.639-1.025,1.306-1.381,2.01c-0.037,0.072,0.059,0.126,0.105,0.063c1.234-1.717,2.951-3.21,4.695-4.64
	c0.004-0.005,0.008-0.002,0.012-0.007c0.004-0.003,0.006-0.007,0.009-0.01c1.229-1.008,2.47-1.986,3.565-2.984
	c1.875-1.712,3.674-1.918,5.861-2.813c-0.044,0.179-0.078,0.34-0.107,0.452c-0.133,0.52-0.264,1.033-0.438,1.53
	c-0.014,0.002-0.027-0.002-0.042,0.009c-0.504,0.373-1.088,0.543-1.688,0.701c-0.401,0.105-0.746,0.094-1.147,0.115
	c-0.574,0.032-0.541,0.811-0.853,1.12c-0.092,0.095,0.026,0.226,0.135,0.175c0.267-0.122,0.388-0.301,0.437-0.59
	c0.113-0.654,0.525-0.334,0.884-0.44c0.76-0.228,1.498-0.324,2.149-0.76c-0.112,0.282-0.239,0.559-0.403,0.825
	c-0.134,0.214-0.289,0.409-0.441,0.606c-2.352,1.245-4.479,3.157-6.096,5.074c-0.297,0.242-0.584,0.495-0.861,0.758
	c-0.641,0.512-1.245,1.121-1.662,1.796c-0.08,0.097-0.157,0.192-0.234,0.288c0.201-0.551,0.482-1.033,0.844-1.503
	c0.035-0.046-0.041-0.099-0.08-0.06c-0.389,0.389-0.785,0.813-1.017,1.32c-0.091,0.199-0.161,0.465-0.239,0.739
	c-0.117-0.287-0.326-0.515-0.646-0.551c-0.424-0.047-0.804,0.215-0.862,0.643c-0.035,0.255,0.059,0.428,0.331,0.416
	c0.109-0.004,0.107-0.18,0-0.169c-0.377,0.038,0.082-0.427,0.203-0.457c0.244-0.06,0.476,0.088,0.537,0.333
	c0.101,0.398-0.03,0.677-0.229,0.995c-0.033,0.019-0.06,0.046-0.095,0.06c-0.834,0.35-0.889,1.142-1.137,1.915
	c-0.011,0.035-0.001,0.062,0.008,0.088c-0.472,0.952-0.875,2-1.45,2.151c-0.316,0.082-0.664,0.211-0.979,0.392
	c0.054-0.052,0.104-0.105,0.163-0.157c0.076-0.068,0.195-0.213,0.184-0.329c-0.045-0.418-0.822-1.53-0.121-1.664
	c1.545-0.294,0.117-1.782,0.438-2.634c0.023-0.06-0.072-0.099-0.102-0.043c-0.279,0.537,0.402,2.214-0.25,2.349
	c-0.381,0.08-0.615,0.154-0.828,0.48c-0.279,0.422,0.16,0.825,0.313,1.184c0.133,0.311-0.379,0.691-0.547,0.914
	c-0.199,0.267-0.23,0.807-0.283,1.125c-0.01,0.059,0.016,0.102,0.052,0.135c-0.065,0.22-0.12,0.448-0.174,0.676
	c-0.052-0.751-0.085-1.451,0.091-2.223c0.168-0.744-0.67-0.483-0.584-1.237c0.006-0.058-0.094-0.072-0.104-0.013
	c-0.082,0.455-0.063,0.303-0.098,0.763c-0.004,0.05,0.043,0.08,0.086,0.085c0.604,0.072,0.135,2.013,0.15,2.478
	c0.027,0.869-0.027,1.725-0.049,2.583c-0.194-0.884-0.416-1.766-0.48-2.646c-0.006-0.074-0.115-0.076-0.117,0
	c-0.041,1.716,0.326,3.484,0.652,5.171c0.033,2.884,0.391,5.863,0.484,8.328c0.006,0.141,0.215,0.142,0.217,0
	c0.074-2.875,0.027-5.75,0.148-8.625c0.016-0.371,0.006-0.768-0.01-1.178c0.043,0.089,0.082,0.179,0.125,0.268
	c0.49,1.007,0.623,1.613,0.418,2.768c-0.08,0.453-0.004,0.828,0.108,1.251c-0.017,0.131,0.013,0.239,0.212,0.249
	c0.346,0.017-0.035,0.55-0.037,0.799c0,0.147,0.225,0.146,0.229,0c0.008-0.254,0.359-0.655,0.213-0.907
	c-0.104-0.176-0.459-0.089-0.445-0.277c-0.077-0.765,0.277-1.566,0.37-2.332c0.083,0.171,0.132,0.36,0.138,0.594
	c0.006,0.3-0.016,0.581,0.057,0.874c0.014,0.053,0.094,0.051,0.107,0c0.16-0.581,0.188-1.328-0.107-1.883
	c0.024-0.027,0.049-0.055,0.074-0.082c0.266,0.284,0.369,0.7,0.353,1.169c-0.005,0.127,0.182,0.122,0.192,0
	c0.043-0.466-0.039-1.038-0.315-1.428c0.022-0.025,0.044-0.048,0.065-0.073c0.187,0.13,0.338,0.303,0.392,0.522
	c0.022,0.101,0.168,0.057,0.151-0.043c-0.043-0.26-0.188-0.481-0.381-0.654C80.998,59.219,82.12,58.263,84.112,58.514
	 M108.33,83.112c-0.039,0.172-0.092,0.321-0.135,0.485c-0.738,2.16-1.902,4.164-3.434,5.736c-3.133,2.485-7.066,3.719-10.576,2.543
	c-4.01-2.08-6.646-5.32-6.663-10.391c-0.013-4.063,0.644-7.575,2.286-11.197c0.012-0.005,0.025,0.004,0.033-0.009
	c0.209-0.341,0.347-0.714,0.498-1.082c0.028-0.069-0.084-0.11-0.119-0.051c-0.047,0.082-0.076,0.172-0.121,0.255
	c-0.146,0.225-0.291,0.454-0.43,0.686c0.063-0.188,0.121-0.375,0.18-0.563c0.052-0.106,0.1-0.217,0.152-0.323
	c0.012-0.029-0.008-0.047-0.031-0.053c0.027-0.087,0.06-0.176,0.084-0.262c0.668-2.292,2.119-4.11,2.715-6.464
	c0.029-0.113-0.143-0.16-0.174-0.046c-0.219,0.808-0.59,1.511-0.998,2.186c1.041-3.141,1.358-7.047-0.405-9.808
	c-2.101-3.289-5.163-3.31-8.167-2.224c0.559-0.418,1.154-0.777,1.941-0.881c0.063-0.008,0.069-0.105,0-0.105
	c-0.951-0.001-1.855,0.422-2.69,0.954c1.178-0.979,2.618-1.414,4.037-1.972c0.065-0.026,0.041-0.129-0.029-0.107
	c-1.142,0.346-2.409,0.601-3.485,1.167c0.045-0.041,0.084-0.089,0.131-0.126c0.455-0.36,0.955-0.717,1.5-0.924
	c0.029-0.01,0.017-0.051-0.012-0.045c-0.16,0.03-0.316,0.072-0.47,0.123c0.835-0.534,1.702-0.913,2.591-1.178
	c0.721,0.262,1.545,0.402,2.127,0.811c1.319,0.925,0.473,0.656,1.133,1.357c0.719,0.762,1.063,0.309,1.668,1.533
	c0.627,1.273,2.351,1.817,2.207,3.603c-0.123,1.489-0.513,2.908-0.845,4.358c-0.022,0.095,0.121,0.135,0.146,0.039
	c0.427-1.578,1.177-3.394,0.945-5.067c-0.065-0.456-0.146-1.376-0.56-1.723c-0.543-0.454-1.576-1.225-1.627-1.852
	c-0.019-0.239-0.146-0.551-0.354-0.674c-0.632-0.369-1.265-0.549-1.734-1.26c-0.426-0.646-1.146-0.972-1.897-1.219
	c0.9,0.104,1.757,0.389,2.613,0.751c0.744,0.426,1.435,0.886,2.062,1.39c0.114,0.093,0.229,0.186,0.342,0.281
	c0.033,0.03,0.065,0.062,0.1,0.092c0.492,0.433,0.947,0.906,1.3,1.49c0.647,1.075,1.033,2.211,1.276,3.398
	c0.076,2.077,0.158,3.986-0.401,6.3c-0.997,4.12-2.353,7.908-3.881,11.847c-0.015,0.038-0.01,0.073,0.005,0.102
	c-0.548,1.345-0.962,2.737-1.093,4.181c-0.047,0.332-0.082,0.66-0.103,0.986c-0.22-1.098-0.305-2.213-0.258-3.355
	c0.004-0.098-0.144-0.094-0.154,0c-0.228,2.015-0.187,3.775,0.492,5.697c0.03,0.088,0.071,0.176,0.108,0.264
	c0.136,0.588,0.347,1.152,0.638,1.687c0.029,0.052,0.057,0.106,0.088,0.157c0.416,0.712,0.982,1.367,1.739,1.943
	c0.04,0.031,0.086,0.059,0.127,0.089c1.11,0.901,2.452,1.491,3.892,1.782c1.029,0.246,2.072,0.328,3.035,0.179
	c0.219-0.017,0.438-0.036,0.658-0.063c3.352-0.437,5.539-5.688,6.201-8.465c0.02-0.089-0.109-0.123-0.137-0.037
	c-0.393,1.209-1.084,2.641-1.996,3.938c1.816-4.161,1.697-9.83,1.305-13.701c-0.088-0.856-0.246-1.683-0.449-2.492
	c1.186,3.476,1.584,7.034,1.133,11.272c-0.01,0.1,0.139,0.097,0.154,0c0.455-3.524,0.938-6.506-0.143-9.982
	c-0.906-2.92-2.145-5.37-3.832-7.898c-0.441-0.848-0.9-1.689-1.354-2.53c-0.059-0.118-0.117-0.236-0.172-0.354
	c-0.758-1.631-1.367-3.3-1.934-4.986c0.281,0.09,0.602,0.156,0.84,0.217c0.463,0.12,0.906,0.298,1.311,0.562
	c0.084,0.056,0.162-0.079,0.08-0.137c-0.607-0.431-1.359-0.492-1.996-0.866c-0.232-0.138-0.363-0.343-0.451-0.577
	c0.896,0.371,1.775,0.727,2.568,1.339c0.018,0.015,0.039,0.016,0.057,0.013c0.504,1.145,1.063,2.265,1.717,3.31
	c0.932,1.486,1.932,2.877,2.613,4.459c0.111,0.279,0.221,0.559,0.324,0.84c0.07,0.209,0.141,0.417,0.199,0.634
	c0.006,0.026,0.023,0.034,0.039,0.051c1.037,3.066,1.641,6.272,1.971,9.502C108.729,76.049,109.078,79.741,108.33,83.112
	 M98.625,51.442c0.926,0.115,1.715,0.554,2.377,1.176c0.053,0.134,0.113,0.267,0.168,0.402c-0.738-0.643-1.563-1.177-2.508-1.438
	C98.65,51.535,98.639,51.487,98.625,51.442 M98.743,51.942c0.931,0.227,1.763,0.731,2.524,1.315
	c0.045,0.106,0.088,0.212,0.133,0.317c-0.777-0.615-1.68-1.091-2.614-1.439C98.771,52.071,98.756,52.007,98.743,51.942
	 M97.121,49.912c0.069,0.086,0.133,0.174,0.184,0.274c0.096,0.402,0.248,0.808,0.365,1.162c0.02,0.062,0.045,0.122,0.065,0.184
	c0.515,1.824,1.116,3.647,1.907,5.344c0.799,1.709,1.838,3.324,2.742,4.992c0.82,1.692,1.543,3.415,1.971,5.224
	c1.186,5.012,1.443,11.865-0.74,17.072c-0.355,0.506-0.691,1.024-1.055,1.525c-0.246,0.338-0.51,0.682-0.826,0.958
	c-0.111,0.099-0.232,0.185-0.352,0.272c-1.084,0.637-2.283,0.931-3.558,0.651c-1.748-0.383-3.121-0.886-4.349-1.696
	c-0.358-0.375-0.768-0.707-1.11-1.099c-0.292-0.335-0.546-0.683-0.756-1.054c-1.256-4.18,0.169-8.168,1.631-12.281
	c1.892-4.131,3.175-8.634,2.922-13.132c-0.015-0.705-0.071-1.397-0.179-2.07c-0.004-0.311-0.033-0.62-0.116-0.927
	c-0.081-0.3-0.187-0.591-0.305-0.875c-0.242-0.746-0.563-1.449-0.972-2.098c-0.095-0.713-0.652-1.51-1.031-2.029
	c-0.342-0.467-0.791-1.044-1.362-1.265C93.817,49.211,95.467,49.545,97.121,49.912 M104.381,47.782
	c3.092,0.18,5.404,0.338,7.766-0.184c0.02,0,0.031,0.012,0.055,0.004c0.061-0.021,0.121-0.038,0.184-0.058
	c0.342-0.082,0.688-0.178,1.037-0.292c0.979-0.241,1.939-0.441,2.83-1.037c0.232-0.155,0.455-0.333,0.67-0.525
	c0.006-0.004,0.01-0.007,0.016-0.011c-0.086,0.101-0.17,0.204-0.258,0.305c-1.174,1.301-2.455,2.487-3.805,3.636
	c-5.895,2.963-14.642-1.56-20.488-1.879c-2.998-0.163-6.506,0.785-9.135,2.645c0.217-0.161,0.426-0.364,0.559-0.605
	c0.637-0.658,1.095-1.439,1.765-2.12c1.207-1.225,2.086-1.08,3.716-1.309c0.862-0.121,1.086-0.715,1.692-1.283
	c1.301-1.217,2.424,0.369,3.592,0.6c0.065,0.013,0.097-0.087,0.029-0.102c-0.49-0.109-2.066-1.509-2.796-1.268
	c-1.276,0.424-1.815,1.553-3.35,1.496c-1.736-0.063-2.992,1.174-4.082,2.506c0.106-0.272,0.227-0.543,0.403-0.812
	c0.33-0.502,0.67-1.008,1.058-1.471c2.203-1.882,5.072-3.143,7.967-1.958c0.779,0.319,1.526,0.716,2.272,1.108
	c0.022,0.084,0.065,0.142,0.117,0.188c0.308,0.7,0.647,1.496,1.315,1.804c0.424,0.196,0.81,0.221,1.276,0.184
	c0.483-0.038,0.716-0.232,1.075-0.434c0.063-0.003,0.123-0.018,0.178-0.046C101.443,47.337,102.889,47.695,104.381,47.782
	 M98.903,36.325c0.212,0.283,0.465,0.539,0.733,0.775c-0.082,0.029-0.162,0.06-0.246,0.088c-0.325-0.276-0.557-0.601-0.782-0.954
	c0.073-0.004,0.147-0.007,0.219-0.013C98.852,36.254,98.881,36.294,98.903,36.325 M98.559,37.251
	c0.045,0.044,0.09,0.089,0.142,0.125c-0.046,0.011-0.089,0.025-0.134,0.036C98.563,37.358,98.561,37.305,98.559,37.251
	 M98.988,37.297c-0.18-0.153-0.318-0.334-0.453-0.518c-0.004-0.094-0.011-0.188-0.014-0.282c0.17,0.288,0.385,0.566,0.643,0.753
	C99.106,37.268,99.047,37.281,98.988,37.297 M98.502,35.985c-0.002-0.081,0.002-0.163,0-0.244c0.045,0.076,0.092,0.15,0.141,0.222
	C98.596,35.97,98.549,35.979,98.502,35.985 M99.814,37.026c-0.27-0.248-0.502-0.528-0.694-0.842c0.431-0.06,0.845-0.168,1.271-0.385
	c0.322-0.163,0.592-0.921,0.99-0.808c0.895,0.256,1.164-0.342,1.404-1.112c0.338-1.093,1.363-0.441,2.123-1.251
	c0.254-0.272,0.475-0.566,0.684-0.869C104.178,34.096,102.342,36.051,99.814,37.026 M104.609,29.995
	c0.953-1.701,1.943-3.277,3.102-4.849c0.369-0.502,0.736-1.014,1.07-1.546c-0.301,0.961-0.525,1.952-0.717,2.895
	c-0.387,1.007-0.805,2.023-1.273,3.012c-0.037-0.056-0.121-0.079-0.16-0.003c-0.504,0.991-1.906,4.223-3.426,3.177
	c-0.047-0.033-0.139-0.025-0.174,0.023c-0.516,0.665-0.625,2.363-1.908,1.808c-0.07-0.029-0.164-0.026-0.201,0.053
	c-0.43,0.909-1.154,1.189-1.977,1.346c-0.148-0.29-0.27-0.616-0.441-0.895c0.002-0.059,0-0.118,0.002-0.178
	C101.25,34.041,103.178,32.549,104.609,29.995 M148.865,17.566c0.02-0.038-0.094,0.133-0.191,0.32
	c-0.088-0.261-0.174-0.52-0.246-0.775c-0.006-0.028-0.051-0.024-0.051,0.007c0.02,0.595,0.082,1.219,0.211,1.818
	c0.113,1.779,0.236,4.357-0.586,5.834c-0.008,0.014-0.002,0.025-0.006,0.038c-1.102,0.67-2.688,1.932-3.373,2.849
	c-2.92,3.894-9.285,1.552-13.336-0.869c-2.77-1.993-5.469-4.136-8.484-5.723c-5.934-4.128-11.795-7.433-19.025-1.902
	c-7.27,5.562-7.275,18.47-4.616,26.557c-0.437-0.19-0.866-0.387-1.296-0.589c-0.007-0.025-0.014-0.05-0.021-0.076
	c-0.002-0.06-0.092-0.06-0.092,0c0,0.009,0.002,0.015,0.002,0.023c-0.326-0.153-0.649-0.305-0.975-0.457
	c-1.924-8.094-2.736-20.255,4.271-26.278c8.291-7.124,17.406-2.747,24.764,2.912c0.004,0.007,0.004,0.016,0.012,0.023
	c3.145,3.182,7.924,6.061,12.49,6.43c3.49,0.281,8.289-0.72,8.945-4.995c0.627-4.076,0.027-8.736-2.947-11.853
	c-0.947-0.995-2.047-2.013-3.254-2.775c-0.5-0.431-1.287-1.242-2.119-1.821c3.451,1.487,6.252,4.006,8.521,7.579
	c-0.342-0.315-0.664-0.647-0.902-1.028c-0.037-0.061-0.143-0.021-0.117,0.049c0.293,0.746,0.807,1.365,1.387,1.92
	C148.533,15.458,149.547,16.284,148.865,17.566"/>
</svg>
