<?xml version="1.0" encoding="utf-8"?>
<!-- Generator: Adobe Illustrator 14.0.0, SVG Export Plug-In . SVG Version: 6.00 Build 43363)  -->
<!DOCTYPE svg PUBLIC "-//W3C//DTD SVG 1.1//EN" "http://www.w3.org/Graphics/SVG/1.1/DTD/svg11.dtd">
<svg version="1.1" id="Ebene_1" xmlns="http://www.w3.org/2000/svg" xmlns:xlink="http://www.w3.org/1999/xlink" x="0px" y="0px"
	 width="165.076px" height="119.434px" viewBox="0 0 165.076 119.434" enable-background="new 0 0 165.076 119.434"
	 xml:space="preserve">
<path fill="#5E5E5E" d="M114.075,14.824c1.906,0.157,3.031,1.346,4.6,2.253c0.793,0.459,1.705,0.782,2.623,0.955
	c0.297,0.891,1.285,1.632,1.908,2.226c0.049,0.049,0.115-0.021,0.074-0.074c-0.287-0.367-0.59-0.719-0.889-1.076
	c-0.225-0.27-0.371-0.53-0.484-0.81c1.34,0.942,3.133,2.486,4.67,3.315c-0.197-0.002-0.396-0.013-0.615-0.064
	c-0.818-0.188-1.611-0.673-2.355-1.048c-0.07-0.035-0.133,0.07-0.063,0.107c0.92,0.482,1.738,1.197,2.74,1.51
	c0.441,0.137,0.914,0.095,1.361-0.048v0.001c-0.248,0.199-0.52,0.371-0.848,0.476c-0.678,0.217-1.471-0.003-2.131-0.19
	c-0.035-0.01-0.055,0.04-0.025,0.059c1.287,0.759,2.508,0.608,3.484-0.247c0.02,0.002,0.039,0.004,0.057,0.005
	c-0.004,0.006-0.006,0.013-0.01,0.019c-0.354,0.6-0.865,1.044-1.471,1.377c-0.076,0.042-0.025,0.176,0.061,0.144
	c0.813-0.306,1.615-0.925,2.164-1.682c0.16-0.09,0.301-0.229,0.418-0.412c0.684-0.567,0.98-1.693,1.643-2.366
	c0.047-0.002,0.098-0.013,0.146-0.02c0.02,0.352,0.012,0.687-0.055,1.029c-0.068-0.049-0.135-0.099-0.203-0.148
	c-0.145-0.109-0.342,0.01-0.393,0.16c-0.516,1.566-1.637,3.235-2.932,4.257c-0.08,0.064,0.025,0.199,0.111,0.142
	c1.348-0.879,2.574-2.382,3.197-3.904c0.082,0.062,0.162,0.124,0.244,0.187c0.148,0.114,0.35-0.014,0.4-0.164
	c0.063-0.18,0.107-0.353,0.141-0.524c0.063,0.36,0.076,0.726,0.01,1.108c-0.158-0.037-0.318-0.068-0.484-0.103
	c-0.096-0.022-0.174,0.015-0.23,0.094c-0.188,0.263-0.09,0.293-0.164,0.698c-0.07,0.388-0.266,0.751-0.359,1.134
	c-0.027,0.101,0.117,0.136,0.152,0.043c0.141-0.376,0.338-0.727,0.482-1.101c0.076-0.192-0.012-0.479,0.193-0.368
	c0.166,0.09,0.373,0.146,0.547,0.215c0.146,0.056,0.301-0.061,0.342-0.194c0.217-0.689,0.184-1.339,0.027-1.986
	c0.438,0.82,0.758,1.786,0.143,2.475c-0.074,0.085,0.041,0.201,0.125,0.125c0.906-0.814,0.609-2.028,0.123-3.049
	c0.271,0.249,0.531,0.502,0.758,0.795c0.061,0.077,0.166-0.022,0.129-0.1c-0.195-0.394-0.428-0.771-0.693-1.121
	c-0.057-0.073-0.115-0.152-0.172-0.232c0.418-0.271,0.746-0.65,0.965-1.1c0.75,0.593,1.695,0.696,2.602,0.902
	c0.287,0.066,0.578,0.13,0.869,0.193c-0.119,0.017-0.24,0.032-0.354,0.051c-0.418,0.07-0.898,0.114-1.279,0.311
	c-0.615,0.318-1.256,0.945-1.922,0.202c-0.047-0.052-0.137,0.017-0.098,0.075c0.48,0.711,0.961,0.719,1.74,0.41
	c0.822-0.325,1.713-0.28,2.59-0.314c-1.523,0.795-3.029,1.788-4.641,2.272c-0.109,0.032-0.092,0.22,0.029,0.207
	c3.689-0.419,6.771-3.068,10.584-2.883c0.135,0.007,0.199-0.203,0.072-0.262c-1.293-0.592-2.49-0.598-3.645-0.307
	c-2.047-0.502-4.662,0.166-6.48-0.958c-0.006-0.003-0.008,0.005-0.014,0.003c0.252-0.568,0.336-1.226,0.215-1.876
	c-0.355-1.913-2.232-3.335-3.584-4.555c-0.072-0.066-0.205,0.021-0.143,0.111c0.777,1.12,1.516,2.256,2.154,3.463
	c0.32,0.605,0.6,1.342,0.484,2.038c-0.045,0.275-0.178,0.488-0.348,0.672c-0.5,0.208-0.902,0.156-1.162-0.484
	c-0.025-0.06-0.125-0.037-0.102,0.029c0.17,0.484,0.525,0.761,0.926,0.75c-0.082,0.06-0.168,0.118-0.256,0.174
	c-1.066-0.095-1.537-2.347-2.104-3.037c-1.141-1.388-3.68,0.419-5.086-0.033c-0.061-0.019-0.084,0.073-0.027,0.096
	c0.936,0.379,1.699,0.191,2.641-0.078c1.762-0.506,2.369,0.264,3.006,1.662c0.203,0.447,0.633,1.313,1.158,1.645
	c-0.098,0.06-0.191,0.122-0.281,0.185c-0.037,0.008-0.074,0.015-0.109,0.025c-1.027-0.329-1.797-2.331-3.309-2.187
	c-2.238,0.215-4.133,1.106-6.234,1.042c-1.256-0.427-2.496-0.802-3.682-1.492c-1.156-0.674-2.32-1.136-3.676-1.035
	C113.942,14.628,113.944,14.813,114.075,14.824 M123.411,18.372c-0.17-0.112-0.344-0.222-0.525-0.33
	c0.023-0.001,0.047-0.003,0.07-0.003C123.112,18.144,123.265,18.252,123.411,18.372 M130.019,18.934
	c-0.85,0.913-1.336,2.28-2.814,1.496c-1.125-0.595-1.938-1.798-3.004-2.494c0.773-0.11,1.564-0.291,2.385-0.527
	C128.368,16.897,129.081,18.28,130.019,18.934"/>
<path fill="#5E5E5E" d="M111.284,14.961c0.037,0.083,0.17,0.095,0.229,0.029c0.229-0.258,0.49-0.591,0.879-0.535
	c0.189,0.028,0.352,0.156,0.531,0.216c0.322,0.108,0.605,0.138,0.92-0.003c0.037-0.016,0.012-0.062-0.018-0.065
	c-0.545-0.066-0.938-0.372-1.453-0.468c-0.375-0.07-0.695,0.231-0.938,0.503c-0.275-0.51-0.641-0.935-1.162-1.22
	c-0.059-0.033-0.127,0.048-0.074,0.096C110.657,13.937,111.026,14.394,111.284,14.961"/>
<path fill="#5E5E5E" d="M107.972,12.711c0.482,0.086,0.945,0.197,1.416,0.336c0.086,0.025,0.145-0.107,0.063-0.145
	c-0.455-0.199-0.953-0.261-1.438-0.337C107.917,12.549,107.874,12.694,107.972,12.711"/>
<path fill="#5E5E5E" d="M106.097,11.892c-1.02-0.181-1.949-0.593-2.832-1.126c-0.049-0.029-0.092,0.046-0.045,0.076
	c0.881,0.571,1.799,1.013,2.834,1.208C106.157,12.07,106.2,11.911,106.097,11.892"/>
<path fill="#5E5E5E" d="M106.757,12.28c-0.027-0.018-0.061,0.023-0.035,0.045c0.141,0.121,0.24,0.166,0.426,0.191
	c0.057,0.008,0.084-0.08,0.023-0.089C107.021,12.417,106.884,12.368,106.757,12.28"/>
<path fill="#5E5E5E" d="M127.065,24.782c-3.43,1.264-6.178-3.564-8.314-5.412c-1.678-1.45-3.572-2.136-5.758-2.263
	c-0.129-0.007-0.158,0.198-0.031,0.225c3.643,0.75,5.777,3.429,8.082,6.093c0.777,0.897,1.602,1.692,2.496,2.14
	c-0.021,0.016-0.047,0.02-0.064,0.05c-0.291,0.555-0.641,1.089-1.316,1.165c-0.137,0.015-0.143,0.215,0,0.217
	c0.773,0.008,1.34-0.516,1.682-1.169c0.023-0.043,0.016-0.082,0.01-0.121c0.203,0.081,0.41,0.137,0.619,0.178
	c-0.258,0.293-0.457,0.64-0.701,0.945c-0.064,0.081,0.035,0.186,0.115,0.116c0.346-0.305,0.656-0.649,0.939-1.014
	c0.18,0.013,0.361,0.012,0.549-0.009c-0.08,0.144-0.182,0.28-0.277,0.4c-0.072,0.093,0.035,0.203,0.129,0.129
	c0.221-0.177,0.406-0.357,0.51-0.594c0.475-0.113,0.969-0.338,1.482-0.717C127.382,25.019,127.29,24.7,127.065,24.782"/>
<path fill="#5E5E5E" d="M119.692,27.506c0.145-0.061,0.094-0.266-0.066-0.237c-1.707,0.303-3.404,0.821-4.928,1.648
	c-0.014-0.004-0.023-0.015-0.039-0.013c-1.242,0.131-1.914-0.176-2.727-1.123c-0.031-0.037-0.1-0.058-0.146-0.039
	c-0.34,0.137-0.691,0.211-1.018,0.385c-0.086,0.047-0.131-0.359-0.178-0.464c-0.051-0.118-0.256-0.032-0.209,0.088
	c0.139,0.355-0.109,0.45,0.184,0.73c0.039,0.039,0.113,0.056,0.16,0.021c0.389-0.29,0.939-0.56,1.299-0.155
	c0.232,0.261,0.498,0.483,0.787,0.679c0.35,0.237,0.773,0.312,1.189,0.292c-0.217,0.139-0.43,0.288-0.639,0.442
	c-0.596,0.124-1.09,0.036-1.707-0.324c-0.336-0.198-0.77-0.387-1.162-0.387c-1.008,0-1.996,1.727-2.363-0.365
	c-0.016-0.092-0.135-0.128-0.209-0.085c-0.875,0.514-1.664,0.97-2.746,0.562c-0.074-0.028-0.104,0.09-0.033,0.119
	c0.529,0.21,0.852,0.226,1.436,0.156c0.16-0.02,1.279-0.674,1.369-0.145c0.057,0.346,0.313,0.992,0.783,0.903
	c0.344-0.065,0.609-0.238,0.9-0.425c0.793-0.509,1.338-0.322,2.123,0.145c0.369,0.218,0.701,0.303,1.031,0.309
	c-0.025,0.021-0.049,0.039-0.072,0.059c-0.684,0.342-1.451,0.345-2.098-0.099c-0.096-0.064-0.209-0.027-0.289,0.037
	c-0.408,0.332-0.793,0.689-1.195,1.029c-0.977,0.825-1.75,0.472-2.41-0.563c-0.049-0.077-0.17-0.008-0.121,0.07
	c0.666,1.098,1.348,1.708,2.561,0.984c0.262-0.156,0.504-0.377,0.738-0.569c0.598-0.485,0.551-0.306,1.246-0.147
	c0.285,0.065,0.533,0.07,0.771,0.046c-0.209,0.231-0.414,0.467-0.602,0.715c-0.027,0.003-0.059,0.015-0.082,0.048
	c-0.357,0.506-0.775,0.949-1.244,1.346c-0.004-0.097-0.008-0.195-0.012-0.291c-0.008-0.148-0.199-0.206-0.277-0.075
	c-0.797,1.295-2.152,1.259-2.826-0.119c-0.027-0.053-0.121-0.014-0.096,0.04c0.623,1.501,1.906,1.547,2.885,0.555
	c-0.002,0.088-0.006,0.177-0.01,0.266c-0.006,0.127,0.152,0.224,0.264,0.15c0.105-0.072,0.201-0.152,0.299-0.231
	c-0.201,0.359-0.393,0.723-0.582,1.092c-0.256,0.067-0.424,0.259-0.648,0.384c-0.066-0.127-0.164-0.249-0.227-0.328
	c-0.068-0.088-0.203-0.027-0.23,0.062c-0.131,0.392-0.281,0.865-0.775,0.761c-0.201-0.042-0.385-0.092-0.592-0.089
	c-0.041,0-0.039,0.06,0,0.064c0.311,0.033,0.596,0.241,0.91,0.212c0.277-0.026,0.459-0.318,0.588-0.582
	c0.023,0.082-0.016,0.035,0.119-0.012c-0.195,0.068-0.174,0.375,0.051,0.372c0.195-0.003,0.334-0.076,0.461-0.163
	c-0.703,1.418-1.395,2.849-2.355,4.08c-0.064,0.085,0.049,0.205,0.119,0.12c1.617-1.895,2.641-4.15,3.945-6.254
	C113.038,29.901,116.319,28.902,119.692,27.506"/>
<path fill="#5E5E5E" d="M114.058,24.346c-0.014,0.191,0.211,0.365,0.393,0.299c1.607-0.582-0.326,0.906-0.682,1.351
	c-0.111,0.139,0.068,0.333,0.197,0.2c0.695-0.725,1.561-1.003,1.742-2.04c0.023-0.127-0.059-0.304-0.215-0.285
	c-0.24,0.03-0.479,0.059-0.713,0.092c1.096-4.568-5.986-3.911-8.195-6.086c-0.121-0.119-0.303,0.065-0.186,0.188
	C108.663,20.44,114.351,20.118,114.058,24.346"/>
<path fill="#5E5E5E" d="M114.118,26.389c-0.105,0.002-0.105,0.162,0,0.164c0.082,0.001,0.166,0.002,0.25,0.003
	c0.107,0.001,0.107-0.171,0-0.17C114.284,26.387,114.2,26.388,114.118,26.389"/>
<path fill="#5E5E5E" d="M112.63,24.877c0.045,0.111,0.242,0.112,0.229-0.031c-0.1-1.102-1.205-2.328-2.379-1.926
	c-0.055,0.018-0.049,0.105,0.012,0.103C111.735,22.996,112.21,23.859,112.63,24.877"/>
<path fill="#5E5E5E" d="M110.427,24.708c0.369,0.157,0.66,0.421,0.988,0.645c0.164,0.112,0.313-0.151,0.154-0.262
	c-0.334-0.237-0.656-0.477-1.043-0.619C110.39,24.422,110.292,24.65,110.427,24.708"/>
<path fill="#5E5E5E" d="M152.409,34.125c-5.199-0.311-8.396-4.589-11.854-7.788c-2.625-2.428-4.523,0.334-7.369-0.47
	c-0.135-0.038-0.188,0.165-0.055,0.209c2.277,0.749,4.627-0.968,6.861,0.823c1.568,1.258,2.758,3.077,4.137,4.528
	c1.672,1.76,5.914,3.217,8.305,2.889C152.548,34.299,152.513,34.131,152.409,34.125"/>
<path fill="#7D1531" d="M139.427,23.073c-0.084-0.025-0.115,0.102-0.035,0.131c3.004,1.094,6.6-0.897,9.32,0.482
	c1.814,0.921,2.539,2.701,4.646,3.219c0.24,0.059,0.334-0.291,0.102-0.367c-2.025-0.668-3.123-2.971-5.133-3.461
	C145.364,22.354,142.489,24.01,139.427,23.073"/>
<path fill="#5E5E5E" d="M109.761,42.659c-0.764,1.142-0.854,2.391-0.574,3.703c0.016,0.075,0.123,0.041,0.111-0.031
	c-0.188-1.258,0.031-2.451,0.676-3.547C110.056,42.645,109.849,42.528,109.761,42.659"/>
<path fill="#5E5E5E" d="M110.767,43.62c-0.273,0.276-0.428,0.57-0.541,0.937c-0.057,0.184,0.217,0.25,0.283,0.079
	c0.117-0.301,0.246-0.569,0.459-0.813C111.089,43.684,110.897,43.487,110.767,43.62"/>
<path fill="#5E5E5E" d="M113.2,41.425c-0.152,0.49-0.262,1.031-0.225,1.546c0.014,0.183,0.26,0.178,0.283,0
	c0.059-0.496,0.127-0.977,0.275-1.454C113.601,41.303,113.267,41.213,113.2,41.425"/>
<path fill="#5E5E5E" d="M122.804,51.004c-2.275-1.713-4.404-3.426-6.502-5.344c-0.08-0.073-0.199,0.045-0.119,0.121
	c2.102,1.985,4.094,3.732,6.377,5.539c2.191,1.733,4.764,2.714,7.117,4.179c0.143,0.088,0.27-0.135,0.131-0.223
	C127.472,53.813,125.017,52.67,122.804,51.004"/>
<path fill="#5E5E5E" d="M130.259,55.86c-0.035-0.022-0.064,0.032-0.033,0.057c0.164,0.117,0.271,0.271,0.4,0.422
	c0.039,0.044,0.109-0.024,0.066-0.067C130.552,56.123,130.433,55.973,130.259,55.86"/>
<path fill="#5E5E5E" d="M131.163,56.592c-0.066,0.105-0.146,0.196-0.229,0.289c-0.008-0.025-0.018-0.051-0.027-0.076
	c-0.012-0.104-0.172-0.108-0.164,0c0.012,0.166,0.004,0.141,0.092,0.293c0.027,0.051,0.096,0.056,0.137,0.017
	c0.152-0.139,0.254-0.246,0.348-0.431C131.374,56.579,131.226,56.492,131.163,56.592"/>
<path fill="#5E5E5E" d="M131.685,56.78c0.049,0.07,0.098,0.143,0.146,0.213c0.039,0.096,0.199,0.055,0.158-0.043
	c-0.072-0.168-0.057-0.143-0.189-0.287C131.728,56.585,131.614,56.702,131.685,56.78"/>
<path fill="#5E5E5E" d="M132.61,57.678c-0.143-0.044-0.236,0.172-0.102,0.24c0.248,0.125,0.322,0.314,0.432,0.548
	c0.08,0.173,0.311,0.04,0.283-0.12C133.169,57.99,132.946,57.78,132.61,57.678"/>
<path fill="#5E5E5E" d="M133.509,29.694c-0.037-0.021-0.068,0.034-0.033,0.055c4.818,2.832,9.365,6.086,14.324,8.681
	c0.059,0.031,0.107-0.056,0.051-0.086C142.86,35.815,138.425,32.356,133.509,29.694"/>
<path fill="#5E5E5E" d="M165.073,24.096c-0.033-0.861-0.748-1.647-1.51-1.963c-0.572-0.237-1.211-0.317-1.877-0.324
	c-2.543-0.521-4.984-1.064-7.477-1.817c-0.529-0.445-1.088-0.867-1.715-1.24c-3.92-2.326-9.387-1.429-13.898-2.133
	c-2.672-1.552-3.328-4.52-5.768-6.345c-1.48-1.108-3.406-0.926-5.305-0.583c-0.248-0.821-1.148-0.98-2.271-0.835
	c-2.086-1.057-4.008-1.43-6.385-1.268c-0.195,0.013-0.385,0.016-0.576,0.026c-0.018-0.01-0.027-0.029-0.047-0.035
	c-1.633-0.465-3.303-0.998-4.992-1.358c0.002-0.062-0.018-0.127-0.074-0.186c-3.168-3.407-5.744-4.074-9.902-2.099
	c-8.523,4.045-17.855,3.507-24.632-3.699c-0.061-0.066-0.142-0.062-0.213-0.035c-0.036-0.052-0.064-0.106-0.103-0.157
	c-0.068-0.089-0.204-0.037-0.182,0.077c0.388,2.014,1.077,5.819,2.795,7.928c-1.983-0.051-4.116,0.954-6.023,1.128
	c-1.198,0.11-2.403,0.06-3.601-0.092c-0.74-0.165-1.509-0.287-2.276-0.421c-1.63-0.396-3.224-0.968-4.739-1.652
	c-0.186-0.134-0.37-0.273-0.545-0.432c-0.106-0.099-0.229-0.053-0.291,0.036c-0.261-0.127-0.528-0.25-0.784-0.382
	c-0.148-0.076-0.266,0.129-0.131,0.222c0.161,0.112,0.323,0.21,0.484,0.317c0.855,1.571,1.314,3.085,2.652,4.339
	c0.704,0.659,1.564,1.309,2.466,1.855c-0.875,0.218-1.767,0.581-2.726,0.772c-0.031,0.006-0.042,0.028-0.063,0.042
	c-2.362,0.265-4.656,0.804-7.062,0.73c-2.845-0.088-6.136-0.761-8.961-1.379c-0.922-1.041-1.845-2.081-2.872-3.015
	c-0.141-0.129-0.326,0.062-0.207,0.207c0.951,1.156,1.78,2.358,2.634,3.535c0.582,1.508,1.824,2.864,2.921,3.959
	c0.449,0.45,1.06,0.98,1.731,1.41c-0.992,0.331-1.803,0.791-2.813,1.4c-2.705,1.631-5.862,1.76-8.933,1.823
	c-2.845,0.058-4.827-0.489-6.729-2.784c-0.783-0.943-1.521-1.349-2.664-1.73c-0.175-0.059-0.299,0.226-0.127,0.3
	c1.792,0.762,2.346,2.357,3.431,3.559c0.677,2.105,2.777,4.116,5.05,5.305c-1.903,1.089-3.676,1.98-5.708,2.512
	c-2.076,0.248-4.099,0.01-6.314-0.196c-2.916-0.27-6.15,0.409-8.322-2.043c-0.118-0.132-0.295,0.058-0.191,0.192
	c0.938,1.203,2.105,1.906,3.405,2.334c2.121,1.756,4.321,3.82,6.821,5.073c-1.177,0.223-0.962,0.183-2.353,0.872
	c-2.859,1.416-5.839,1.389-8.943,1.488c-4.857,0.155-9.028,0.326-12.008-4.324C7.089,32.914,6.951,32.997,7,33.099
	c1.019,2.099,2.427,3.566,4.081,4.547c1.646,1.665,3.591,3.598,5.706,4.991c-0.611,0.675-1.198,1.316-1.98,1.865
	c-0.791,0.556-1.624,1.076-2.473,1.549c-0.066-0.056-0.152-0.087-0.258-0.073c-2.272,0.287-4.56,1.5-6.825,1.276
	c-1.518-0.677-3.111-1.162-5.092-1.197c-0.212-0.004-0.211,0.32,0,0.328c1.299,0.052,2.381,0.341,3.354,0.777
	c0.364,0.273,0.771,0.488,1.211,0.642c0.741,0.452,1.438,0.98,2.146,1.532c0.451,0.453,0.965,0.839,1.522,1.177
	c0.379,0.283,0.771,0.563,1.185,0.834c1.206,0.792,2.596,1.423,3.888,2.058c0.66,0.323,1.918,1.019,3.06,1.271
	c-0.077,0.158-0.155,0.318-0.24,0.471c-0.418,0.752-0.903,1.457-1.461,2.112c-1.202,1.411-2.604,2.284-4.451,2.576
	c-0.158,0.025-0.121,0.288,0.037,0.278c1.458-0.113,2.768-0.593,3.948-1.386c0.765-0.241,1.518-0.32,2.332-0.372
	c0.49-0.031,0.974-0.019,1.463,0.036c0.076,0.009,0.15,0.026,0.226,0.043c-0.333,1.109-0.026,2.442-0.198,3.707
	c-0.345,2.532-2.387,5.424-4.74,6.39c-0.096,0.037-0.143,0.144-0.136,0.236c-1.009,0.482-2.101,0.761-3.439,0.479
	c-0.185-0.039-0.262,0.231-0.078,0.283c2.604,0.743,4.824-0.384,7.142-1.56c2.488-1.263,5.053-0.806,7.469,0.312
	c1.075,0.496,1.728,0.737,2.692,0.639c-0.521,2.871-1.046,6.308-2.463,8.943c-0.109,0.174-0.21,0.34-0.324,0.518
	c-0.018,0.029-0.02,0.057-0.032,0.085c-0.071,0.116-0.145,0.231-0.221,0.343c-0.39,0.373-0.782,0.787-1.195,1.273
	c-0.033,0.041-0.048,0.09-0.046,0.139c-0.939,0.842-2.101,1.451-3.587,1.678c-0.074,0.012-0.068,0.131,0,0.146
	c1.086,0.248,2.099,0.027,3.019-0.448c0.078,0.024,0.165,0.026,0.249-0.015c1.178-0.56,2.201-1.352,3.328-2.004
	c1.685-0.975,3.833-0.703,5.676-0.557c1.568,0.125,3.395,0.025,4.791-0.777c-0.159,1.358-0.071,2.791-0.089,4.099
	c-0.046,3.358-1.464,7.28-4.538,8.983c-0.165,0.09-0.053,0.377,0.131,0.31c1.44-0.545,2.545-1.318,3.415-2.242
	c0.04-0.003,0.079-0.019,0.116-0.043c3.546-1.258,7.102-0.873,10.844-0.868C47,88.483,47.827,88.419,48.6,88.24
	c-0.087,0.827-0.01,1.704,0.077,2.578c0.277,2.793,0.257,5.534-1.063,7.782c-0.529,0.508-1.009,1.067-1.418,1.664
	c-0.024,0.034-0.018,0.067-0.021,0.101c-0.211,0.192-0.433,0.379-0.678,0.559c-0.159,0.117-0.026,0.341,0.155,0.263
	c1.159-0.504,1.997-1.176,2.604-1.966c2.361-1.463,5.034-1.442,7.586,0.163c0.688,0.432,1.533,0.84,2.353,0.937
	c-0.225,1.188-0.299,2.408-0.307,3.602c-0.01,1.587,0.813,3.662,1.819,4.933c1.99,2.506,4.03,3.679,5.241,7.008
	c0.021,0.058,0.061,0.097,0.107,0.122c0.055,0.172,0.111,0.342,0.154,0.518c0.02,0.08,0.106,0.095,0.167,0.065
	c0.029,0.25,0.063,0.494,0.098,0.737c-0.001-0.035-0.021-0.069-0.066-0.069c-0.091,0-0.091,0.14,0,0.14
	c0.045,0,0.066-0.033,0.066-0.068c0.104,0.689,0.229,1.355,0.391,1.973c0.07,0.272,0.474,0.156,0.418-0.115
	c-1.112-5.342,0.687-14.263,6.053-16.797c0.761,1.797,1.733,3.428,2.728,4.657c0.053,0.066,0.116,0.097,0.183,0.116
	c0.44,0.822,0.782,1.689,0.875,2.665c0.035,0.364,0.549,0.373,0.574,0c0.078-1.224-0.265-2.388-0.792-3.488
	c-0.022-0.375-0.03-0.752-0.021-1.131c0.156-0.959,0.25-1.927,0.359-2.892c0.827-3.901,3.003-7.733,5.656-10.342
	c1.102,2.131,2.68,4.086,4.723,5.763c0.102,0.083,0.211,0.098,0.309,0.077c0.035,0.047,0.063,0.095,0.1,0.142
	c0.225,0.29,0.605-0.078,0.473-0.365c-0.537-1.161-0.969-2.255-1.291-3.335c-0.381-3.281,0.506-6.328,2.324-9.188
	c0.836-1.313,1.883-2.44,2.594-3.766c0.43,1.57,1.07,3.059,1.977,4.399c0.43,1.043,1.232,1.924,1.975,2.786
	c0.086,0.103,0.225-0.027,0.174-0.135c-0.236-0.491-0.5-0.972-0.75-1.457c0.041-0.031,0.072-0.08,0.068-0.153
	c-0.045-0.679-0.09-1.351-0.127-2.022c0.434-3.328,0.58-6.525,2.094-9.736c0.887-1.881,2.229-2.668,3.676-4.018
	c0.072-0.066,0.131-0.123,0.189-0.18c0.188,0.288,0.395,0.566,0.641,0.818c0.006,0.009,0.014,0.011,0.023,0.018
	c0.225,0.701,0.461,1.42,0.68,2.188c0.023,0.076,0.07,0.123,0.125,0.149c0.119,0.337,0.27,0.671,0.461,1
	c0.111,0.188,0.363,0.054,0.332-0.142c-0.121-0.76-0.148-1.487-0.1-2.19c0.73-3.604,4.102-7.196,6.363-9.639
	c2.377-2.567,4.906-3.886,7.734-5.049c0.715,0.05,1.43,0.01,2.176-0.06c0.91-0.086,1.645-0.054,2.344,0.132
	c1.15,0.656,2.051,1.643,2.525,3.255c0.996,3.379-2.162,5.849-5.217,5.806c-0.189-0.002-0.24,0.306-0.045,0.334
	c2.672,0.393,5.104-0.474,6.344-2.474c0.51-0.301,1.068-0.281,1.889,0.015c0.762,0.274,1.682,0.687,2.508,0.562
	c1.402-0.212,1.359-1.984,2.545-2.216c-0.004,0.007-0.008,0.015-0.012,0.021c-0.615,1.535-1.201,3.574-3.166,3.285
	c-1.164-0.637-2.059-1.055-3.383-0.056c-0.135,0.101-0.02,0.315,0.137,0.231c2.061-1.094,2.551,0.975,3.752,1.644
	c0.912,0.509,1.76,0.737,2.805,0.728c2.465-0.022,2.318-2.565,4.051-3.463c0.012-0.008,0.018-0.019,0.031-0.026
	c0.582-0.048,1.283,0.202,1.82,0.11c0.783-0.131,1.176-0.922,1.412-1.584c0.197-0.554,0.037-1.222,0.121-1.791
	c0.098-0.65,0.752-0.836,1.188-1.172c0.369-0.287,0.553-0.621,0.592-0.988c0.021-0.023,0.043-0.041,0.063-0.065
	c0.039-0.046,0.066-0.104,0.102-0.155c0.047-0.017,0.092-0.037,0.125-0.079c0.463-0.592,0.416-2.031-0.15-2.566
	c0.719-0.724,1.205-2.543,1.414-3.046c0.49-1.173,1.779-3.674,1.268-5.019c0.023-0.047,0.055-0.088,0.078-0.135
	c0.102-0.207-0.18-0.371-0.309-0.181c-1.656,2.425-4.27,3.643-6.479,5.429c-0.025-1.306-0.426-2.616-0.482-3.922
	c-0.004-0.068-0.053-0.111-0.111-0.125c0.021-0.026,0.043-0.047,0.063-0.074c0.064-0.094-0.08-0.203-0.156-0.121
	c-1.207,1.285-2.879,1.596-4.336,2.421c0.197-0.529,0.189-1.177,0.225-1.72c0.098-1.43-0.047-2.902-0.465-4.275
	c0.008-0.012,0.018-0.02,0.023-0.032c0.045-0.086,0.006-0.16-0.055-0.195c-0.008-0.156-0.006-0.314,0.041-0.484
	c0.023-0.093-0.109-0.127-0.141-0.039c-0.057,0.154-0.107,0.341-0.131,0.528c-0.047,0.033-0.086,0.083-0.074,0.157
	c0,0.002,0,0.004,0,0.006c-1.156,1.481-3.049,1.809-4.684,2.547c0.188-1.38,0.209-2.881-0.023-4.276
	c0.018-0.015,0.029-0.037,0.031-0.068c0.031-0.6-0.17-1.191-0.182-1.791c0-0.033-0.027-0.039-0.051-0.05
	c0.014-0.081,0.037-0.164,0.039-0.242c0-0.071-0.115-0.091-0.127-0.017c-0.086,0.576-0.684,0.926-1.021,1.387
	c-0.824,0.808-1.711,1.504-2.666,2.162c0.066-0.708-0.111-1.475-0.215-2.15c-0.18-1.174-0.461-2.347-0.723-3.506
	c-0.016-0.072-0.07-0.099-0.127-0.101c-0.014-0.119-0.033-0.24-0.057-0.372c-0.01-0.052-0.09-0.038-0.092,0.014
	c-0.006,0.334-0.158,0.613-0.283,0.913c-0.006,0.013,0.002,0.023,0,0.035c-0.588,0.351-1.193,0.778-1.826,1.095
	c-1.057,0.116-1.99-0.233-2.623-1.202c-0.467-0.721-0.584-1.674-0.729-2.528c0.006-0.033,0.006-0.068,0.012-0.1
	c0.1-0.562,0.338-1.11,0.625-1.645c0.322-0.415,0.717-0.821,1.164-1.087c0.174,0.029,0.34,0.084,0.521,0.166
	c0.029,0.012,0.057,0.013,0.082,0.019c0.611,1.563,1.949,3.087,2.971,3.728c0.018,0.012,0.037,0.004,0.057,0.01
	c-0.008,0.081,0.098,0.138,0.15,0.055c0.016-0.028,0.039-0.056,0.055-0.084c0.055-0.039,0.092-0.092,0.109-0.159
	c0.5-0.75,1.154-1.5,1.752-2.145c0.313-0.337,0.684-0.615,1.074-0.854c0.07-0.044,0.143-0.078,0.215-0.115
	c0.432-0.028,0.846,0.079,1.279,0.052c0.125-0.007,0.244-0.045,0.359-0.092c-0.209,1.402,0.684,3.005,1.617,4.154
	c0.086,0.158,0.197,0.302,0.297,0.455c0.004,0.026,0.018,0.048,0.041,0.063c0.051,0.085,0.086,0.179,0.111,0.279
	c-0.004,0.024-0.014,0.046-0.018,0.07c-0.006,0.065,0.084,0.096,0.125,0.052c0.404-0.434,0.684-0.992,1.01-1.484
	c0.244-0.368,0.584-0.705,0.859-1.067c0.561-0.538,1.186-0.972,1.848-1.375c0.117,0.112,0.242,0.22,0.383,0.317
	c0.275,0.188,0.58,0.251,0.896,0.253c-0.414,1.159,0.363,2.74,0.916,3.755c0.004,0.01,0.006,0.021,0.016,0.029
	c0.027,0.048,0.053,0.098,0.078,0.143c0.049,0.09,0.182,0.011,0.137-0.08c-0.016-0.03-0.025-0.063-0.041-0.094
	c0.672-0.545,1.363-1.074,2.051-1.597c0.602-0.459,1.27-0.748,1.916-1.119c0.064,0.027,0.123,0.064,0.189,0.087
	c0.012,0.004,0.02-0.003,0.029-0.001c0.396,0.244,0.805,0.468,1.248,0.621c0.092,0.033,0.189,0.048,0.285,0.073
	c-0.908,0.634-0.477,2.248-0.352,3.217c-0.012,0.015-0.027,0.026-0.041,0.041c-0.059,0.073,0.018,0.195,0.107,0.138
	c0.004-0.002,0.008-0.004,0.012-0.007c0.043,0.02,0.092,0.015,0.115-0.045c0.004-0.008,0.004-0.018,0.006-0.025
	c1.066-0.655,2.211-1.161,3.363-1.639c0.912-0.379,2.107-0.624,2.914-1.232c0.164,0.041,0.328,0.079,0.494,0.116
	c0.004,0.082,0.012,0.168,0.018,0.264c0.053,0.666-0.059,1.321-0.217,1.966c-0.322,1.321-1.09,2.746-2.299,3.44
	c-0.096,0.054-0.037,0.19,0.061,0.18c0.012,0.011,0.021,0.025,0.039,0.031c1.828,0.643,3.844-0.152,5.291-1.339
	c1.473-1.21,2.205-2.852,3.164-4.41c1.787,0.01,2.641-0.356,3.432-2.13c0.42-0.94,0.771-1.824,1.348-2.682
	c0.07-0.105,0.143-0.21,0.215-0.316c0.635-0.908,1.281-1.768,1.861-2.712c0.043-0.001,0.086-0.011,0.117-0.036
	c0.643-0.504,1.072-1.125,1.475-1.825c0.375-0.654,0.834-1.4,0.99-2.144c0.014-0.065-0.004-0.126-0.023-0.185
	c0.164-0.123,0.334-0.239,0.486-0.378c0.756-0.685,1.385-1.626,1.76-2.569c0.037-0.094,0.01-0.176-0.041-0.246
	C165.036,24.812,165.087,24.478,165.073,24.096 M155.956,21.703v0.004c0-0.003-0.002-0.004-0.004-0.006
	C155.954,21.701,155.956,21.702,155.956,21.703 M155.612,21.314c-0.01-0.008-0.016-0.017-0.023-0.025
	c0.008,0.004,0.02,0.007,0.029,0.012C155.616,21.306,155.614,21.31,155.612,21.314 M157.376,22.043
	c0.008-0.004,0.018-0.005,0.025-0.01c0.023,0.01,0.051,0.019,0.074,0.029c-0.039-0.001-0.078-0.001-0.115-0.001
	C157.366,22.054,157.372,22.049,157.376,22.043 M95.202,34.179c0.732,0.78,1.875,1.786,3.059,1.548
	c0.092-0.019,0.174-0.054,0.262-0.082c-0.117,0.107-0.125,0.32,0.076,0.38c1.484,0.441,0.916,3.286,0.695,4.397
	c-0.24,1.221-0.844,2.305-1.365,3.427c-1.973,1.802-4.318,2.273-7.23,2.741c-0.588,0.095-1.145,0.231-1.688,0.385
	c-0.547,0.024-1.076,0.072-1.576,0.173c-0.727,0.147-1.307,0.38-1.809,0.676c0.334-0.581,0.609-1.203,0.818-1.868
	c1.182-1.369,2.529-2.061,4.453-2.756c0.854-0.309,1.889-0.725,2.43-1.5c0.801-1.147,0.936-2.309,0.883-3.698
	c-0.059-1.531-0.402-2.11,0.492-3.771c0.203-0.379,0.504-0.729,0.84-1.064c0.008,0.011,0.002,0.026,0.018,0.031
	c0.52,0.168,2.188,1.117,3.041,1.048c0.02,0.04,0.068,0.065,0.107,0.025c0.02-0.02,0.035-0.04,0.053-0.06
	c0.068-0.02,0.137-0.042,0.186-0.085c-0.18,0.193-0.377,0.367-0.609,0.508c-0.846,0.519-2.186-0.386-2.922-0.731
	C95.237,33.82,95.06,34.028,95.202,34.179 M75.164,104.973c-0.479-0.758-1.009-1.478-1.524-2.159
	c-1.69-3.541-2.649-7.595-1.17-11.214c0.094-0.104,0.181-0.213,0.276-0.315c0.595-0.636,1.167-0.527,1.845-0.879
	c0.4-0.205,0.794-0.431,1.041-0.828c0.297-0.481,0.624-0.394,1.042-0.246c-0.674,0.408-1.241,0.965-1.556,1.707
	c-0.242,0.566-0.143,1.305-0.172,1.899c-0.019,0.371-0.271,0.127-0.583,0.31c-1.523,0.893-0.416,4.767-0.252,6.14
	c0.019,0.166,0.281,0.17,0.264,0c-0.087-0.81-1.028-6.371,0.71-5.647c0.133,0.055,0.317-0.059,0.343-0.195
	c0.103-0.521,0.143-0.998,0.156-1.532c0.032-1.244,0.996-1.993,2.088-2.402c0.321,0.054,0.607,0.05,0.873,0.013
	c-0.116,1.26-0.394,2.511-0.435,3.762c-1.099,1.816-1.756,3.832-2.166,5.935C75.298,101.191,74.952,103.049,75.164,104.973
	 M13.267,51.452c-1.188-0.633-2.26-1.249-2.624-1.422c-1.304-0.623-2.452-1.283-3.582-1.885c0.274-0.003,0.551-0.021,0.826-0.047
	c1.49,1.946,5.465,2.614,7.344,0.875c0.611-0.567,0.367,1.388,1.46,1.06c0.833-0.25,1.4-0.958,2.051-1.548
	c-0.31,1.457-0.714,2.886-1.066,4.347c-0.088,0.036-0.173,0.085-0.247,0.159c-0.043,0.043-0.111,0.064-0.195,0.073
	C16.024,52.357,14.655,51.892,13.267,51.452 M30.393,36.219c0.086-0.038,0.173-0.076,0.258-0.115
	c-0.307,0.414-0.48,0.918-0.607,1.439c-1.866,2.005-3.921,3.021-6.989,2.804c-3.089-0.218-5.665,0.257-8.646-1.069
	c-0.001-0.001-0.001,0-0.001,0c-0.251-0.174-0.496-0.349-0.738-0.531c1.389,0.397,2.874,0.563,4.402,0.544
	C22.495,39.769,26.795,39.14,30.393,36.219 M82.056,12.847c0.009,0.003,0.016,0.009,0.024,0.013
	c-0.013,0.005-0.025,0.011-0.037,0.016C82.047,12.867,82.052,12.857,82.056,12.847 M79.804,10.912
	c0.005-0.018,0.011-0.036,0.016-0.053c0.026-0.106,0.024-0.201,0.021-0.297c0.088-0.021,0.176-0.04,0.265-0.061
	C80.005,10.638,79.902,10.773,79.804,10.912 M49.808,96.285c0.992-2.682,0.512-5.879,0.593-8.774
	c1.639-0.229,3.016-1.652,4.442-2.515c1.179-0.713,3.842,0.81,5.403,0.691c-0.347,0.506-0.584,1.079-0.772,1.729
	c-0.3,1.043-0.894,4.877-2.705,3.488c-2.462-1.89-3.129,3.469-5.038,3.778c-0.046,0.007-0.034,0.082,0.012,0.08
	c1.036-0.038,1.542-0.668,2.064-1.509c0.435-0.696,1.315-2.692,2.484-2.137c0.297,0.141,0.611,0.69,1.012,0.674
	c2.534-0.098,2.393-4.484,3.854-6.111c1.265,1.957,0.448,5.346,0.019,7.886c-0.002,0.011,0.001,0.019,0,0.029
	c-0.181,0.528-0.394,1.047-0.686,1.479c-0.061,0.088-0.059,0.172-0.026,0.245c-0.371,0.503-0.727,1.015-1.041,1.556
	c-0.128,0.223-0.24,0.451-0.349,0.681c-1.669-0.353-3.346-1.259-4.938-1.651C52.623,95.528,51.119,95.636,49.808,96.285
	 M18.85,66.135c-0.041,0.005-0.082,0.008-0.123,0.013c0.239-0.316,0.459-0.64,0.648-0.975c0.932-0.584,1.838-1.141,2.615-1.954
	c1.132-1.187,1.468-2.89,3.725-2.269c0.909,0.25,2.147-0.449,3.324-1.33c-0.542,2.353-0.567,5.125-1.684,6.947
	C24.569,65.885,21.556,65.242,18.85,66.135 M8.117,48.071c3.755,0.159,7.425-1.096,10.634-3.062
	c0.089,0.702,0.177,1.434,0.208,2.166c-1.304,0.568-2.308,3.239-3.114,0.984c-0.064-0.184-0.325-0.246-0.431-0.057
	c-1.354,2.423-5.69,1.713-7.354-0.024C8.08,48.076,8.097,48.074,8.117,48.071 M29.519,43.207c1.608-1.063,2.939-2.891,3.148-4.819
	c0.004-0.039-0.005-0.071-0.008-0.106c0.663-1.168,1.505-2.166,3.044-2.358c1.45-0.182,2.974,0.47,4.448,0.52
	c-0.6,2.262-0.434,5.137-2.697,5.97c-0.176,0.065-0.109,0.321,0.078,0.282c0.438-0.092,0.802-0.231,1.108-0.41
	c-0.623,0.596-1.144,1.384-1.519,2.455c-0.147,0.422-0.276,0.847-0.397,1.272c-1.835,1.413-4.379,0.92-6.574-0.111
	c-0.7-0.415-1.4-0.883-2.131-1.32c-0.018-0.048-0.044-0.095-0.088-0.134c-0.087-0.079-0.172-0.142-0.258-0.212
	c0.363,0.015,0.761,0.075,1.044,0.061c0.878-0.046,1.761-0.527,2.592-0.779c1.306-0.395,1.58,0.429,2.61,0.274
	c0.942-0.141,1.677-0.751,2.614-0.919c0.174-0.031,0.135-0.326-0.042-0.31c-0.556,0.051-0.956,0.189-1.46,0.423
	c-1.149,0.533-2.026-0.068-3.165,0.055c-0.914,0.098-1.787,0.606-2.648,0.902c-0.634,0.218-1.172,0.067-1.727,0.143
	c-0.012-0.009-0.025-0.021-0.037-0.029C28.117,43.94,28.792,43.687,29.519,43.207 M39.905,40.91
	c0.103-0.055,0.194-0.116,0.294-0.173c0.012-0.008,0.032-0.014,0.042-0.025c1.571-0.933,2.553-2.274,3.844-3.585
	c0.847-0.859,1.707-0.804,2.723-1.17c0.599-0.214,1.14-1.23,1.659-1.636c0.097-0.076,0.035-0.182-0.054-0.218
	c0.387-0.41,0.769-0.839,1.134-1.287c0.063,0.098,0.19,0.164,0.312,0.102c0.669-0.337,1.602-0.209,2.294,0.016
	c0.428,0.138,0.743,0.46,1.11,0.678c-0.634,0.44-1.179,0.983-1.575,1.668c-0.298,0.513-0.543,1.045-0.758,1.586
	c-2.849,4.186-8.333,2.565-11.667,4.912c0.231-0.25,0.418-0.541,0.573-0.872C39.856,40.918,39.877,40.923,39.905,40.91
	 M78.493,27.251c-1.677,0.874-1.887,3.268-2.018,5.037c-0.055,0.742-0.128,2.621-0.546,4.11c-0.012,0.011-0.022,0.021-0.035,0.032
	c0.149-0.455,0.253-0.934,0.3-1.432c0.299-3.177-0.833-6.451,1.521-8.799C77.974,26.551,78.234,26.901,78.493,27.251 M71.179,77.903
	c-1.231,0.281-2.496,0.976-3.414,1.813c-0.976,0.497-1.968,0.954-2.976,1.366c-0.203-0.065-0.437-0.039-0.653,0.16
	c-0.056,0.051-0.095,0.107-0.143,0.16c-0.029,0.012-0.058,0.025-0.086,0.035c0.38-0.584,0.648-1.24,0.853-1.932
	c0.785-1.469,1.063-3.182,1.143-4.944c0.053-1.198-0.038-2.451-0.3-3.625c-0.276-1.25-1.361-2.885-0.135-3.636
	c2.448,0.736,4.896,0.238,7.129-1.081c1.444-0.853,2.325-1.874,3.919-1.882c0.292,0.141,0.578,0.15,0.858,0.08
	c0.01,0.004,0.019,0.002,0.03,0.004c0.002,0.002,0.004,0.002,0.007,0.002c-1.428,3.545-0.544,7.908-2.462,11.345
	c-0.252,0.163-0.484,0.362-0.722,0.552C73.203,76.818,72.19,77.357,71.179,77.903 M43.449,71.248
	c-0.976-0.189-1.841-0.147-2.581,0.1c1.179-0.947,2.918-1.264,4.078-2.342c1.307-1.213,1.513-3.939,3.995-3.01
	c0.165,0.063,0.311-0.151,0.224-0.291c-1.588-2.545,0.828-4.004,2.499-5.166c0.181-0.127,0.01-0.426-0.174-0.299
	c-1.083,0.741-2.925,1.788-3.2,3.213c-0.134,0.692-0.091,1.114,0.135,1.783c0.098,0.288-0.451-0.042-0.867-0.062
	c-1.11-0.054-1.893,1.376-2.379,2.143c-0.816,1.287-1.861,2.011-3.22,2.644c-0.103,0.048-0.202,0.088-0.302,0.13
	c1.026-1.541,1.33-3.525,1.655-5.56c0.512-3.185,2.125-4.895,5.216-5.138c0.737,0.045,1.481,0.047,2.218-0.001
	c0.888,0.045,1.709,0.085,2.505,0.001c-0.797,2.208,0.802,5.59,0.787,7.578c-0.002,0.29,0.216,0.472,0.458,0.517
	c-0.037,0.172-0.067,0.346-0.119,0.512c-0.052-0.012-0.11-0.012-0.168,0.02c-0.035,0.018-0.068,0.035-0.101,0.053
	c-0.247,0.131-0.127,0.393,0.051,0.479c-0.27,0.62-0.655,1.202-1.242,1.719c-0.023,0.019-0.031,0.042-0.033,0.063
	c-2.478,1.05-4.6,1.748-7.65,1.227c-0.357-0.061-0.696-0.104-1.029-0.137C43.953,71.358,43.701,71.296,43.449,71.248 M43.152,61.188
	c-2.563,3.688-8.344,0.478-12.015,2.505c-0.208,0.08-0.406,0.174-0.601,0.272c0.053-0.114,0.106-0.228,0.162-0.345
	c1.021-0.711,1.76-1.646,2.424-2.75c0.433-0.722,0.813-1.474,1.229-2.203c0.654-1.144,1.137,0.659,1.479,1.273
	c0.053,0.098,0.219,0.135,0.295,0.038c0.709-0.908,1.035-1.932,2.576-1.611c0.193,0.041,0.264-0.226,0.082-0.293
	c-0.739-0.274-1.262-0.231-1.877,0.263c-0.268,0.215-0.471,0.575-0.659,0.848c-0.347,0.506-1.135-1.245-1.357-1.552
	c-0.074-0.104-0.224-0.116-0.297,0c-1.202,1.908-2.004,4.072-3.69,5.553c0.684-1.441,1.398-2.986,1.772-4.532
	c0.248-0.505,0.489-1.016,0.729-1.539c0.333-0.732,0.707-1.337,1.128-1.836c0.19-0.159,0.365-0.338,0.526-0.528
	c1.227-1.107,2.813-1.504,4.936-1.463c1.731,0.034,3.987,0.854,5.629,0.418c-0.032,0.155-0.066,0.307-0.095,0.463
	c-0.629,3.315-1.621,5.788-5.858,5.095c-0.05-0.009-0.073,0.063-0.021,0.079c1.674,0.489,3.196,0.889,4.455,0.633
	c-0.213,0.209-0.418,0.442-0.615,0.705c-0.116,0.153-0.21,0.315-0.307,0.476C43.172,61.169,43.161,61.175,43.152,61.188
	 M56.13,26.396c0.245-0.997,0.54-1.973,1.015-2.886c0.401-0.774,1.069-1.355,1.643-2.008c0.58-0.348,1.185-0.592,1.788-0.877
	c0.903,0.161,1.786,0.608,2.533,1.086c0.745,0.478,1.641,1.046,2.478,0.853c-0.208,0.35-0.42,0.705-0.64,1.057
	c-0.438,0.596-0.901,1.154-1.415,1.65c-0.014,0.002-0.027,0.007-0.039,0.009c-0.163,0.02-0.248,0.145-0.259,0.27
	c-0.613,0.537-1.308,0.982-2.136,1.287c-0.86,0.252-1.745,0.468-2.688,0.49c-0.249,0.005-0.323,0.399-0.062,0.448
	c1.472,0.276,2.791,0.251,4.288,0.108c1.598-0.152,2.626,0.276,3.671,0.839c-0.064,0.052-0.13,0.097-0.194,0.15
	c-2.484,2.012-4.237,2.939-7.543,2.24c-1.077-0.227-2.214-0.527-3.322-0.66c0.046-0.038,0.103-0.071,0.144-0.11
	c0.734-0.695,1.021-1.717,1.89-2.304c0.082-0.057,0.011-0.174-0.076-0.133c-0.717,0.34-1.126,0.941-1.571,1.574
	c-0.315,0.449-0.642,0.705-1.081,0.914c-0.222-0.01-0.44-0.014-0.658-0.004C54.679,29.088,55.745,27.977,56.13,26.396
	 M87.333,35.471c-0.586,0.595-0.998,1.334-1.242,2.197c-2.119,1.476-3.976,0.996-6.392,0.636c2.612-0.254,5.388-1.448,7.251-2.942
	C87.077,35.403,87.206,35.44,87.333,35.471 M58.911,55.623c-0.099,0-0.201,0.016-0.31,0.072c-0.109,0.056-0.218,0.117-0.326,0.176
	c-0.187,0.082-0.368,0.172-0.551,0.268c0.92-0.975,1.526-2.185,1.844-3.745c0.247-1.219,0.244-2.441,0.377-3.66
	c0.178-0.906,0.388-1.796,0.681-2.641c0.755-1.575,2.126-2.839,3.447-4.003c1.017-0.394,2.024-0.831,3.056-1.181
	c1.217-0.414,3.021-0.222,4.526-0.49c-0.769,0.474-1.465,1.082-2.133,1.776c-0.908,0.946-2.288,5.167-3.787,4.197
	c-1.362-0.88-3.475,6.166-3.807,6.667c-0.053,0.08,0.073,0.15,0.127,0.074c0.725-1.047,1.122-2.314,1.585-3.489
	c0.105-0.265,1.283-3.787,2.452-2.413c0.291,0.34,0.359,0.318,0.775,0.361c0.688,0.072,1.073-1.047,1.229-1.488
	c0.676-1.91,1.823-3.395,3.323-4.509c-0.738,1.35-1.097,2.862-1.294,4.472c-0.235,1.916-0.217,3.765-0.834,5.62
	c-0.734,2.214-2.592,2.589-4.321,3.476c-1.037,0.136-2.095,0.104-3.258,0.059C60.71,55.183,59.785,55.327,58.911,55.623
	 M83.299,44.082c0.084,1.499-0.073,2.761-0.912,4.042c-0.896,1.369-2.108,1.709-3.424,2.034c-0.031-0.006-0.061-0.015-0.096-0.011
	c-1.201,0.13-2.416,0.209-3.596,0.475c-0.873,0.197-1.655,0.679-2.456,1.114c-0.37,0.113-0.74,0.226-1.108,0.346
	c0.494-0.732,0.688-1.753,0.79-2.722c0.233-2.185-0.292-4.931,0.231-7.218c0.084-0.216,0.178-0.43,0.28-0.641
	c2.229-1.901,5.135-1.124,7.821-0.258c0.632,0.204,1.492,0.375,2.314,0.364c-1.535,1.166-2.938,3.389-4.074,4.124
	c-1.078,0.696-2.119-0.788-3.033-0.031c-1.665,1.377-1.196,4.265-3.446,5.056c-0.112,0.039-0.063,0.219,0.051,0.18
	c0.941-0.318,1.527-0.824,1.865-1.797c0.288-0.831,0.51-1.66,0.921-2.445c0.959-1.832,1.809-0.276,2.78-0.315
	c2.271-0.091,3.451-2.409,5.094-3.741C83.272,43.11,83.272,43.593,83.299,44.082 M71.818,50.438
	c-0.065,0.33-0.158,0.636-0.284,0.914C71.641,51.052,71.74,50.747,71.818,50.438 M71.863,46.826
	c0.015,0.203,0.029,0.406,0.043,0.606c-0.028-0.026-0.06-0.046-0.09-0.067C71.831,47.185,71.847,47.005,71.863,46.826 M68.988,63.49
	c0.861-1.287,1.101-2.652,1.093-4.054c0.021-0.221,0.046-0.44,0.06-0.661c0.069-1.098-0.406-2.322-0.432-3.438
	c1.444-2.638,6.084-1.863,9.426-2.315c-1.001,0.66-2.054,1.245-2.979,2.029c-0.851,0.721-0.944,3.902-2.835,2.176
	c-0.137-0.123-0.317-0.059-0.38,0.101c-0.98,2.464-1.513,5.876-4.325,6.808c0.089-0.158,0.169-0.322,0.25-0.486
	C68.906,63.594,68.949,63.546,68.988,63.49 M73.47,63.246c-1.343,0.897-2.29,1.957-3.854,2.58c-1.018,0.405-2.133,0.576-3.24,0.709
	c0.837-0.461,1.478-1.172,1.996-2c1.643-0.394,2.532-1.439,3.296-2.906c0.368-0.705,0.621-1.477,0.899-2.219
	c0.429-1.147,0.416-1.293,1.41-1.038c1.026,0.264,1.438-0.535,1.844-1.367c0.921-1.889,2.784-2.656,4.3-3.905
	c-0.038,0.509-0.028,1.031,0.012,1.546c0.207,2.653,0.534,5.401-1.327,7.296c-0.044,0.014-0.089,0.014-0.132,0.034
	C76.926,62.789,75.259,62.049,73.47,63.246 M73.708,30.392c-0.487,0.574-0.909,1.213-1.292,1.835
	c-0.516,0.836-0.84,2.239-2.112,2.303c-0.721,0.037-1.12,0.127-1.762,0.497c-0.723,0.417-0.907,1.083-1.083,1.835
	c-0.595,2.555-2.91,2.759-4.543,4.283c-0.09,0.084,0.027,0.236,0.13,0.17c1.224-0.787,2.609-1.283,3.721-2.23
	c1.101-0.934,0.892-2.751,2.049-3.592c1-0.727,2.314,0.183,3.151-0.94c0.637-0.854,1.169-1.764,1.747-2.639
	c0.043,0.44,0.112,0.889,0.196,1.35c0.349,1.918,0.127,4.978-1.639,6.121c-1.656,0.392-3.831,0.082-5.407,0.563
	c-1.461,0.445-2.792,1.157-4.161,1.779c-0.12-0.094-0.267-0.148-0.421-0.141c0.493-0.54,0.894-1.216,1.217-2.039
	c0.559-1.425,0.735-3.003,0.985-4.503c0.149-0.896,0.46-1.738,0.731-2.585c1.092-0.932,2.031-2.16,3.46-2.519
	c1.891,0.776,3.609,0.979,5.044,0.319C73.714,30.303,73.712,30.348,73.708,30.392 M52.781,52.288
	c-0.453,2.402-4.304,5.269-6.442,5.957c-0.002,0.001-0.003,0.002-0.005,0.003c0.213-0.377,0.404-0.821,0.569-1.349
	c0.587-1.877,0.817-3.829,1.451-5.692c0.492-1.446,0.985-2.869,1.752-4.197c0.076-0.134,0.186-0.246,0.279-0.368
	c2.25-1.382,4.987-2.516,7.598-2.798c0.537-0.058,1.014-0.192,1.449-0.381c-1.198,0.909-2.104,2.073-2.697,3.52
	c-0.418,1.02-0.682,3.193-2.335,2.244c-0.492-0.283-0.424-0.27-0.979-0.135C52.535,49.307,52.875,51.789,52.781,52.288
	 M46.269,58.35c0.001,0.006-0.003,0.012-0.001,0.018c-0.004,0.001-0.007,0.001-0.011,0.001
	C46.261,58.363,46.265,58.357,46.269,58.35 M53.333,50.752c0.027-1.391,1.976,0.067,2.572-0.736
	c0.627-0.846,1.004-1.823,1.415-2.786c0.579-1.356,1.496-2.331,2.552-3.242c-0.973,1.897-1.156,4.304-1.622,6.36
	c-0.564,2.481-2.062,4.96-4.212,6.377c-1.53,1.006-4.605,1.343-6.949,1.565C50.153,57.403,53.272,53.794,53.333,50.752
	 M79.218,29.378c0,0-0.001-0.001-0.002-0.001c-0.002,0.006-0.004,0.012-0.005,0.017c-0.041,0.092-0.076,0.185-0.115,0.278
	c-0.12,0.112-0.235,0.226-0.343,0.347c0.147-0.265,0.313-0.512,0.503-0.734C79.244,29.316,79.233,29.348,79.218,29.378
	 M66.841,20.594c-0.171,0.229-0.339,0.479-0.506,0.739c-0.093-0.145-0.229-0.262-0.402-0.307c-0.3-0.079-0.597-0.182-0.891-0.296
	c-0.825-0.599-1.614-1.248-2.639-1.396c-0.148-0.021-0.317-0.018-0.499-0.003c0.947-0.242,1.889-0.569,2.828-0.925
	c1.309,0.039,2.534,0.172,3.694,0.443C67.803,19.315,67.27,20.021,66.841,20.594 M66.41,14.809c0,0.026,0.001,0.052,0.003,0.078
	c-0.049,0.006-0.094,0.003-0.146,0.019c-0.132,0.04-0.264,0.071-0.396,0.106C66.049,14.946,66.231,14.878,66.41,14.809
	 M58.958,19.802c-0.122,0.003-0.239-0.001-0.353-0.012c-0.025-0.031-0.053-0.055-0.077-0.083c0.193,0.012,0.388,0.017,0.583,0.015
	C59.06,19.75,59.009,19.771,58.958,19.802 M51.022,31.533c-0.038,0.036-0.074,0.078-0.112,0.115c-0.045,0.02-0.09,0.04-0.136,0.059
	c0.016-0.022,0.031-0.044,0.049-0.066C50.886,31.603,50.955,31.568,51.022,31.533 M54.429,34.291
	c1.894-1.244,4.631-1.455,6.817-1.756c0.03-0.005,0.04-0.03,0.063-0.04c0.188,0.003,0.373,0.004,0.559-0.007
	c0.526-0.034,1.034-0.168,1.525-0.368c-0.021,0.061-0.046,0.121-0.065,0.182c-1.036,0.956-1.942,2.048-3.138,2.823
	c-0.976,0.633-2.069,0.952-2.533,2.075c-0.371,0.9-0.451,2.177-1.986,1.582c-0.146-0.057-0.367-0.028-0.515,0.041
	c-1.488,0.687-2.146,2.171-3.236,3.326c-0.09,0.096,0.051,0.238,0.146,0.144c1.082-1.08,2.116-3.49,3.924-2.982
	c0.753,0.211,1.128,0.059,1.729-0.42c0.154-0.123,0.235-0.369,0.271-0.559c0.226-1.254,0.919-1.722,1.942-2.267
	c1.192-0.635,2.111-1.553,3.047-2.468c-0.119,0.555-0.219,1.123-0.337,1.7c-0.474,2.311-2.025,4.512-4.04,5.701
	c-2.412,1.425-5.196,1.583-7.399,3.197c-0.674,0.277-1.304,0.64-1.87,1.12c0.584-1.114,1-2.35,1.325-3.752
	C51.306,38.745,51.825,36.004,54.429,34.291 M47.32,43.87c-0.266,3.016-1.385,5.668-4.471,6.72
	c-0.072,0.025-0.113,0.074-0.136,0.129c-1.372,0.317-2.772,0.384-4.171,0.633c-0.157,0.028-0.087,0.261,0.067,0.238
	c1.93-0.291,4.525,0.174,6.292-0.82c0.75-0.423,1.468-0.997,2.05-1.679c-0.087,0.215-0.176,0.42-0.26,0.655
	c-0.106,0.293-0.199,0.586-0.291,0.879c-0.17,0.172-0.357,0.334-0.602,0.467c-0.06,0.033-0.007,0.121,0.053,0.091
	c0.148-0.074,0.301-0.159,0.451-0.251c-0.145,0.482-0.271,0.967-0.389,1.454c-1.715,0.957-4.033-0.026-5.921-0.233
	c-1.15-0.127-2.352,0.034-3.462,0.406c0.445-1.025,0.565-2.08,0.653-3.188c0.016-0.078,0.033-0.15,0.044-0.233
	c0.008-0.057-0.004-0.11-0.012-0.163c0.003-0.038,0.006-0.074,0.009-0.111c0.14-1.717,0.945-3.295,1.642-4.85
	c0.875-1.241,2.15-2.107,4.069-2.265c1.527-0.126,2.888-0.225,4.372-0.648c0.257-0.073,0.502-0.171,0.744-0.275
	C47.554,41.706,47.417,42.75,47.32,43.87 M23.102,45.906c0.012,0.001,0.022,0.003,0.033,0.005c-0.018,0.005-0.035,0.014-0.053,0.019
	C23.088,45.922,23.095,45.914,23.102,45.906 M24.367,44.839c0.203-0.101,0.405-0.16,0.609-0.197c0.113,0.061,0.227,0.125,0.339,0.19
	C25,44.807,24.682,44.812,24.367,44.839 M18.543,54.615c0.097-0.081,0.159-0.212,0.155-0.341c0.173-0.414,0.314-0.838,0.416-1.27
	c0.011-0.044-0.011-0.084-0.039-0.115c0.271-0.447,0.497-0.925,0.702-1.414c0.632-1.074,1.154-2.233,1.76-3.279
	c0.149-0.26,0.305-0.522,0.464-0.78c2.156-1.347,4.777,0.341,7.158,1.95c-1.027,0.287-1.929,0.838-2.442,1.673
	c-1.376,2.244-3.346,0.11-4.943,1.272c-1.545,1.121-2.596,2.687-4.087,3.827C18.011,55.652,18.299,55.141,18.543,54.615
	 M35.12,51.782c-0.384,0.953-0.885,1.775-1.592,2.412C34.192,53.496,34.723,52.671,35.12,51.782 M20.667,58.23
	c0.463-0.57,1.084-0.947,1.7-1.327c1.953-0.145,3.97,0.704,6.018,1.021c0.303,0.047,0.612,0.072,0.92,0.084
	c-0.114,0.091-0.229,0.179-0.347,0.273c-0.751,0.598-1.484,1.198-2.302,1.704c-0.531,0.328-1.542-0.063-2.164-0.062
	c-0.563,0.001-1.269,0.659-1.526,1.077c-0.953,1.552-2.001,2.582-3.31,3.643c0.889-1.848,1.103-3.928,0.828-6.154
	C20.545,58.402,20.601,58.311,20.667,58.23 M54.141,69.707c2.215-1.978,1.546-5.396,1.537-8.268
	c-0.001-0.225,0.021-0.427,0.039-0.632c0.434-1.813,1.988-2.984,3.44-4.017c1.679-0.483,3.704-0.465,5.46-0.425
	c0.991,0.022,1.878-0.28,2.717-0.711c-0.975,1.063-1.73,2.356-3.112,3.165c-1.581,0.926-1.438,4.912-3.903,2.576
	c-0.097-0.09-0.293-0.092-0.354,0.046c-0.852,1.949-1.616,3.734-3.138,5.28c-0.107,0.108,0.057,0.272,0.166,0.166
	c0.794-0.772,1.384-1.524,1.952-2.476c0.469-0.785,0.81-2.776,1.922-1.808c0.426,0.373,1.18,0.548,1.631,0.108
	c1.045-1.014,1.083-2.917,2.605-3.411c0.469-0.15,0.971-0.519,1.236-0.945c0.336-0.537,0.656-1.028,0.997-1.478
	c-0.036,1.27,0.373,2.549,0.497,3.894c0.249,2.685-3.446,5.406-5.047,7.242c-0.074,0.084-0.101,0.174-0.104,0.262
	C60.259,69.443,56.659,68.721,54.141,69.707 M65.981,82.592c-0.079,0.243-0.153,0.487-0.216,0.735
	C65.815,83.078,65.881,82.832,65.981,82.592 M82.665,59.123c-0.334,0.058-0.658,0.157-0.973,0.286
	c0.008-0.017,0.014-0.037,0.021-0.054c0.638-0.756,0.993-1.668,1.144-2.8c0.227-1.711,0.381-3.336,1.092-4.927
	c0.07-0.162,0.166-0.313,0.25-0.468c0.111-0.193,0.225-0.384,0.336-0.579c0.32-0.496,0.678-0.971,1.037-1.441
	c0.279-0.144,0.557-0.287,0.844-0.418c1.438-0.442,3.527-0.235,4.846-0.262c0.904-0.018,1.85-0.077,2.744-0.281
	c-0.596,0.716-1.15,1.469-1.654,2.278c-0.861,1.386-1.518,4.737-3.736,3.258C86.56,52.348,83.601,58.307,82.665,59.123
	 M84.71,47.248c0.023,0.017,0.049,0.018,0.074,0.028c-0.123,0.209-0.254,0.414-0.396,0.613
	C84.517,47.681,84.622,47.466,84.71,47.248 M87.763,38.016c-0.35,0.639-0.652,1.3-0.914,1.977c0.004-1.638,0.213-3.167,1.322-4.377
	c0.352,0.03,0.697,0.022,1.039-0.013C88.608,36.378,88.132,37.179,87.763,38.016 M66.542,23.474c1.169-1.707,2.418-3.647,4.32-3.793
	c0.295,0.135,0.586,0.284,0.873,0.446C70.091,20.767,68.179,22.257,66.542,23.474 M57.805,16.781
	c0.896,0.527,1.827,0.997,2.792,1.274c-0.597,0.118-1.197,0.212-1.813,0.25c-2.929,0.185-6.405-2.172-8.361-4.323
	c1.615,0.606,3.125,1.175,4.694,1.59C55.967,16.049,56.87,16.456,57.805,16.781 M17.337,56.635c0.871-0.448,1.53-0.992,2.269-1.768
	c0.998-1.049,2.267-3.005,4.175-2.199c0.472,0.201,0.806,0.429,1.347,0.429c0.805,0,1.578-0.466,1.974-1.157
	c0.708-1.234,1.875-1.737,3.148-1.843c0.553,0.365,1.088,0.698,1.591,0.952c0.688,0.347,1.429,0.568,2.136,0.625
	c-0.356,1.298-0.925,2.483-2.254,3.453c-0.037,0.027-0.048,0.064-0.062,0.098c-1.119,0.35-2.538,0.451-4.422,0.193
	c-1.537-0.209-2.768-0.222-3.92,0.09c-0.982,0.039-1.85,0.281-2.648,0.798c-0.077-0.023-0.162-0.026-0.236,0.006
	c-1.034,0.442-2.149,0.436-3.253,0.532C17.235,56.775,17.287,56.706,17.337,56.635 M29.899,64.053
	c0.002-0.003,0.004-0.007,0.006-0.011c-0.001,0.009-0.003,0.017-0.005,0.023c-0.024,0.092,0.013,0.165,0.064,0.227
	c-0.078,0.053-0.153,0.108-0.228,0.164C29.792,64.324,29.846,64.189,29.899,64.053 M42.354,63.384
	c-0.002,0.008-0.004,0.015-0.005,0.023c-0.005-0.006-0.01-0.008-0.015-0.013C42.341,63.392,42.347,63.388,42.354,63.384
	 M38.366,79.604c-0.013,0.938-0.099,1.864-0.28,2.797C38.214,81.481,38.3,80.544,38.366,79.604 M39.542,72.154
	c0.059-0.086,0.103-0.176,0.167-0.261c0.115-0.065,0.221-0.134,0.327-0.203c0.012,0.011,0.024,0.019,0.038,0.027
	c-0.106,0.069-0.196,0.159-0.294,0.239c-0.032,0.008-0.064,0.014-0.09,0.045c-0.021,0.024-0.033,0.05-0.054,0.074
	C39.606,72.103,39.572,72.125,39.542,72.154 M50.667,85.304c3.192-1.202,2.182-5.045,1.722-7.842
	c-0.708-4.31,0.69-7.613,5.701-7.416c1.335,0.053,2.462,0.082,3.456-0.174c-0.506,1.146-0.701,2.627-0.869,3.492
	c-0.241,1.245-0.565,1.902-2.559,1.928c-0.381,0.006-0.951-0.047-1.237,0.317c-1.252,1.604-0.172,3.755-1.586,5.414
	c-0.085,0.099,0.053,0.242,0.146,0.144c0.796-0.844,0.943-1.711,1.021-2.853c0.096-1.388-0.112-2.752,2.218-2.569
	c0.49,0.041,0.766,0.11,1.227-0.16c1.766-1.033,1.477-3.666,2.374-5.351c-0.069,1.509,0.418,2.951,0.611,4.486
	c0.353,2.767-0.04,5.192-1.141,7.694c-0.155,0.078-0.313,0.146-0.475,0.205c-0.098,0.035-0.192,0.069-0.289,0.102
	c-0.92,0.275-1.926,0.303-2.908,0.221c-1.107-0.304-1.88-0.582-3.055-0.379c-1.066,0.184-1.938,1.156-2.815,2.061
	c-0.544,0.311-1.083,0.558-1.618,0.756C50.617,85.355,50.641,85.33,50.667,85.304 M65.098,90.689
	c-0.06,0.059-0.117,0.121-0.178,0.18c0.038-0.054,0.073-0.111,0.109-0.168C65.052,90.699,65.076,90.694,65.098,90.689
	 M86.995,65.908c-0.125-0.07-0.305-0.055-0.365,0.123c-0.119,0.359-0.459,1.422-0.912,0.918c-0.289-0.322-0.621-0.598-0.895-0.933
	c-0.059-0.069-0.164-0.022-0.189,0.051c-0.438,1.3-0.117,2.691-0.465,4.011c-0.025,0.092,0.123,0.133,0.146,0.039
	c0.316-1.24,0.018-2.599,0.469-3.802c0.303,0.384,0.67,0.708,0.961,1.103c0.047,0.063,0.121,0.093,0.193,0.051
	c0.43-0.246,0.803-0.572,1.029-1.002c-0.092,1.609-0.326,3.166-1.416,4.314c-0.414,0.5-0.807,1.01-1.199,1.465
	c-0.168,0.196,0.088,0.455,0.281,0.283c1.244-1.095,2.447-2.173,4.047-2.705c0.387-0.129,0.781-0.145,1.18-0.142
	c-0.193,0.508-0.221,1.122-0.238,1.631c-0.014,0.394,0.016,0.779,0.061,1.163c-2.887,1.466-5.457,2.479-8.967,2.052
	c-1.1-0.134-2.094-0.171-3.001,0.044c-0.286-0.033-0.574,0.11-0.826,0.291c-0.162,0.074-0.325,0.149-0.48,0.246
	c0.279-0.269,0.518-0.548,0.728-0.837c2.839-0.571,2.935-3.057,4.186-5.224c0.229,0.66,0.439,1.322,0.78,1.939
	c0.227,0.407,1.068,0.745,1.053,1.108c-0.005,0.103,0.149,0.121,0.175,0.024c0.014-0.06,0.177-0.479,0.231-0.631
	c0.027-0.076-0.096-0.127-0.128-0.054c-0.119,0.267-0.121,0.578-0.101,0.285c0.003-0.041-0.03-0.072-0.065-0.084
	c-1.179-0.415-1.364-2.056-1.711-3.093c-0.054-0.164-0.26-0.188-0.354-0.047c-1.378,2.056-1.281,4.688-3.87,5.496
	c0.479-0.752,0.766-1.592,0.944-2.578c0.603-1.945,1.144-4.117,1.36-6.174c0.06-0.188,0.123-0.365,0.192-0.539
	c0.242-0.531,0.532-1.033,0.868-1.508c0.567-0.684,1.332-1.211,2.411-1.593c0.938-0.332,1.942-0.458,2.934-0.483
	c0.607-0.017,1.211,0.139,1.809,0.109C87.087,62.528,87.067,64.22,86.995,65.908 M85.642,59.211
	c-0.971-0.158-1.883-0.227-2.738-0.117c0.947-0.786,1.574-1.744,2.222-2.808c0.77-1.262,2.316-3.461,3.994-1.821
	c0.186,0.181,0.545,0.522,0.83,0.527c1.059,0.019,1.514-0.522,1.84-1.471c0.799-2.338,2.215-4.102,3.838-5.815
	c-0.066,0.896,0.041,1.85,0.223,2.786c0.111,0.576,0.209,1.122,0.287,1.656c0.053,0.473,0.104,0.937,0.137,1.394
	c0.027,0.611-0.006,1.212-0.111,1.814c-0.951,1.111-1.945,2.097-3.203,2.995C90.616,60.026,88.276,59.639,85.642,59.211
	 M92.665,34.672c0.029-0.106,0.045-0.21,0.035-0.306c0.051-0.029,0.102-0.056,0.152-0.086
	C92.786,34.408,92.722,34.539,92.665,34.672 M98.86,31.31c-0.693,0.436-1.373,0.799-2.215,0.869
	c0.039-0.034,0.078-0.067,0.117-0.101c0.109-0.055,0.219-0.111,0.328-0.165c0.172-0.087,0.342-0.155,0.512-0.233
	C98.001,31.53,98.423,31.404,98.86,31.31 M96.368,32.417c1.531,0.208,2.721-0.374,4.072-1.288c0.053,0,0.105,0.001,0.158,0.002
	c-0.322,0.09-0.615,0.276-0.834,0.6c-0.371,0.55-0.609,1.16-1.025,1.684c-0.396,0.499-2.512-0.176-3.117-0.329
	C95.86,32.857,96.114,32.635,96.368,32.417 M102.278,31.431c-0.006-0.019-0.031-0.028-0.041-0.044
	c-0.004-0.006-0.01-0.011-0.014-0.016c0.027,0.008,0.055,0.014,0.08,0.022C102.296,31.406,102.288,31.418,102.278,31.431
	 M76.333,26.732c-0.065-0.032-0.14-0.044-0.224,0.012c-2.454,1.621-5.396,0.251-7.875-0.577c1.062,0.037,2.124,0.064,3.188,0.042
	c0.423-0.008,0.911-0.09,1.419-0.188c1.368,0.173,2.728,0.284,4.079-0.183c0.14-0.048,0.256-0.132,0.36-0.229
	c0.047,0.063,0.094,0.126,0.139,0.189C76.972,26.032,76.616,26.35,76.333,26.732 M53.384,20.807
	c0.001,0.006,0.004,0.013,0.006,0.019c-0.014,0-0.023,0-0.037-0.001C53.364,20.819,53.375,20.812,53.384,20.807 M47.831,34.393
	c-0.011,0.009-0.008,0.021-0.014,0.031c-0.552,0.477-1.025,1.184-1.763,1.143c-0.662-0.037-1.095,0.177-1.621,0.619
	c-1.644,1.38-2.61,3.469-4.514,4.539c0.16-0.38,0.291-0.802,0.411-1.272c0.381-1.488,0.563-2.826,1.452-4.132
	c0.917-1.347,1.703-2.543,2.246-4.082c0.801-2.27,1.558-4.382,4.354-3.751c0.818,0.183,1.604,0.49,2.401,0.755
	C49.502,30.142,49.656,32.755,47.831,34.393 M14.995,39.68c2.878,1.118,6.063,1.124,9.123,1.34c2.296,0.162,4.146-0.679,5.629-2.138
	c-0.423,1.675-1.68,3.011-3.125,3.882c-0.033,0.02-0.042,0.053-0.061,0.081c-0.801,0.188-1.666,0.255-2.505,0.279
	c-0.18-0.024-0.36-0.043-0.542-0.061c-2.193-0.922-4.541-1.302-6.744-2.375c-0.513-0.25-1.013-0.531-1.506-0.828
	C15.172,39.802,15.084,39.74,14.995,39.68 M28.507,72.615c0.269-1.214,0.248-2.476,0.253-3.705c0.003-0.701,0.086-1.354,0.213-1.99
	c1.659-2.504,5.287-2.531,8.044-1.426c1.18,0.472,2.322,0.711,3.335,0.489c-0.018,0.095-0.032,0.191-0.048,0.288
	c-1.323,1.413-3.26,3.852-4.731,3.411c-0.162-0.049-0.321,0.058-0.369,0.209c-0.607,0.104-1.213,0.209-1.82,0.313
	c-0.077-0.097-0.262-0.067-0.313,0.041c-1.229,2.555-3.001,4.234-5.239,5.912c-0.074,0.055-0.006,0.18,0.074,0.127
	c1.878-1.244,3.481-2.475,4.732-4.377c1.196-1.82,1.35,0.447,2.419-0.69c0.48-0.511,0.291-0.839,0.94-0.841
	c0.609-0.004,1.267-0.543,1.731-0.856c0.764-0.519,1.66-1.183,2.419-1.935c-0.041,0.353-0.089,0.701-0.168,1.033
	c-0.25,1.043-1.177,1.879-1.561,2.881c-0.419,1.094-0.508,2.115-0.457,3.273c-2.266,1.674-6.004,1.293-8.7,1.672
	c-1.135,0.159-2.051,0.393-2.855,0.744c0.04-0.072,0.072-0.152,0.111-0.229C27.397,75.626,28.143,74.262,28.507,72.615
	 M36.481,87.924c1.412-1.843,2.479-3.666,2.945-6.13c0.466-2.463-0.539-5.215-0.123-7.666c2.084-2.686,5.215-0.666,8.117,0.093
	c0.592,0.153,1.201,0.233,1.791,0.229c-0.628,0.53-1.108,1.266-1.405,2.024c-0.247,0.633-0.403,1.201-0.42,1.873
	c0.011,0.315,0.017,0.635,0.021,0.951c0.039,2.502-2.037,0.049-2.263-0.294c-0.088-0.133-0.269-0.1-0.321,0.044
	c-0.946,2.503-2.112,4.354-4.181,6.071c-0.14,0.117,0.062,0.313,0.199,0.201c1.383-1.134,2.487-2.299,3.323-3.884
	c0.095-0.183,0.956-1.748,0.847-1.942c0.347,0.623,0.925,1.067,1.548,1.377c0.527,0.265,1.102-0.08,1.224-0.627
	c0.398-1.795,0.287-3.623,1.461-4.898c0.021,0.391,0.089,0.793,0.215,1.203c0.343,1.115,1.046,2.14,1.464,3.23
	c0.889,2.316-0.56,4.354-1.941,6.064c-2.092,0.441-4.209,0.337-6.623,0.477c-2.135,0.121-3.722,0.51-5.336,1.36
	C36.838,87.755,36.662,87.842,36.481,87.924 M65.242,113.399c-0.281-2.024-1.08-2.975-3.037-4.714
	c-0.006-0.009-0.012-0.018-0.019-0.027c-2.039-3.412-1.795-7.55-0.968-11.324c0.263-0.527,0.536-1.053,0.813-1.575
	c0.908-1.492,2.008-2.779,3.924-3.556c1.243-0.506,2.731-0.758,4.1-0.601c-1.273,0.472-2.05,1.254-3.239,2.442
	c-0.648,0.648-0.411,1.716-0.289,2.49c0.439,2.793-0.145,1.114-1.284,1.178c-2.315,0.132-0.995,8.724-0.691,10.205
	c0.029,0.142,0.241,0.08,0.215-0.06c-0.335-1.784-0.362-3.639-0.381-5.45c-0.018-1.927-0.37-4.697,2.15-3.385
	c0.09,0.049,0.187,0.02,0.244-0.064c0.888-1.319-0.646-3.94,1.321-4.519c1.115-0.327,1.776-1.416,2.865-1.991
	c-1.43,2.539-2.225,6.275-1.321,8.826c-1.733,1.762-2.814,3.878-3.452,6.172C65.581,109.332,65.288,111.391,65.242,113.399
	 M80.083,82.746c-0.101,0.016-0.198,0.084-0.212,0.226c-0.139,1.351-1.608,5.354-3.968,4.099c-0.274-0.146-0.627-0.074-0.911-0.066
	c-1.423,0.037-1.48,2.274-3.668,2.156c-1.699-0.093-3.083,0.185-4.322,0.724c3.071-2.687,6.238-5.276,9.277-8
	c0.119-0.105,0.069-0.359-0.102-0.384c-2.151-0.301,3.132-4.404,3.597-4.723c0.067-0.046,0.007-0.156-0.065-0.111
	c-1.164,0.705-5.209,2.91-4.717,4.697c0.07,0.26,0.342,0.366,0.555,0.471c-0.102-0.051-2.686,2.384-3.018,2.675
	c-2.269,1.987-4.868,3.791-7.092,5.866c0.01-0.028,0.025-0.049,0.03-0.082c0.034-0.246,0.083-0.488,0.127-0.731
	c0.007-0.022,0.019-0.038,0.025-0.06c0.071-0.217,0.119-0.436,0.158-0.654c0.219-0.479,0.354-0.992,0.359-1.557
	c0.665-2.194,1.699-4.26,3.043-6.151c1.179-0.96,2.67-1.577,3.521-2.792c0.288-0.148,0.569-0.307,0.849-0.469
	c0.377-0.102,0.744-0.228,1.089-0.428c0.173-0.102,0.352-0.203,0.526-0.309c0.079,0.021,0.167,0.02,0.26-0.023
	c0.523-0.248,0.955-0.617,1.392-0.99c0.257-0.219,0.597-0.422,0.876-0.666c1.335,0.166,2.57,0.921,3.804,1.484
	C80.708,78.875,80.24,80.824,80.083,82.746 M87.372,84.21c0.002,0.002,0.004,0.008,0.006,0.012c-0.02,0.027-0.037,0.057-0.055,0.085
	C87.339,84.275,87.354,84.242,87.372,84.21 M98.394,61.31c0.506-0.896,1.064-1.813,1.953-2.374c0.416-0.263,0.875-0.368,1.332-0.473
	c-0.021,0.035-0.051,0.063-0.072,0.1c-1.453,2.415-2.77,6.521-2.131,9.828c-2.252,2.187-4.18,4.583-5.301,7.538
	c0.041-2.005,0.162-3.926,1.447-5.76c1.109-1.584,1.975-2.84,1.949-4.823c0-0.101-0.156-0.101-0.158,0
	c-0.035,2.905-2.246,4.379-3.449,6.764c-0.832,1.647-0.467,3.771-0.307,5.679c-0.324,1.875-0.156,3.867,0.096,5.807
	c0.004,0.104,0.006,0.205,0.01,0.309c-1.781-5.035-3.762-12.089,0.053-16.261c1.057-0.431,1.969-1.129,2.76-2.007
	c0.063-0.069,0.088-0.153,0.088-0.236c0.641-0.635,1.121-1.496,1.104-2.345c-0.002-0.142-0.201-0.138-0.217,0
	c-0.098,0.969-0.771,1.472-1.412,2.038c-1.018,0.744-1.947,1.474-3.166,1.859c-1.152,0.366-2.416,0.42-3.596,0.676
	c-0.703,0.154-1.369,0.339-1.902,0.637c0.766-2.494,0.324-5.385,1.979-7.639c0.406,0.014,0.801-0.002,1.18-0.065
	c1.713-0.286,3.299-1.359,4.592-2.701c-0.904,1.567-2.131,2.99-3.184,4.457c-0.096,0.132,0.113,0.286,0.219,0.171
	c0.885-0.955,1.973-1.848,2.979-2.807c0.059,0.04,0.143,0.049,0.203-0.013c1.533-1.565,3.725-1.759,5.922-1.962
	c-0.537,0.287-1.066,0.58-1.521,1c-0.748,0.691-1.279,1.529-1.75,2.426C97.987,61.332,98.284,61.508,98.394,61.31 M96.81,57.958
	c0.039-0.007,0.076-0.015,0.117-0.023c-0.064,0.032-0.125,0.072-0.186,0.107C96.763,58.013,96.788,57.987,96.81,57.958
	 M101.028,32.187c-0.113-0.131-0.271-0.169-0.42-0.145c0.045-0.027,0.094-0.048,0.143-0.068c0.094,0.071,0.189,0.145,0.285,0.216
	C101.032,32.188,101.03,32.188,101.028,32.187 M89.679,10.695c0.01,0.004,0.021,0.008,0.029,0.012
	c-0.031,0.014-0.066,0.029-0.098,0.043C89.632,10.732,89.657,10.714,89.679,10.695 M81.368,3.703
	c0.236,0.228,0.476,0.455,0.72,0.676c-0.951-0.667-1.851-1.394-2.7-2.29c-0.063-0.17-0.133-0.338-0.203-0.504
	C79.866,2.375,80.593,3.079,81.368,3.703 M79.922,3.661c0.587,0.753,1.249,1.439,2.05,2.05c0.988,0.755,3.068,1.932,3.97,3.266
	c0.031,0.098,0.09,0.189,0.16,0.273c0.025,0.045,0.047,0.09,0.068,0.135c-0.18-0.011-0.363-0.028-0.537-0.031
	c-0.174-0.047-0.346-0.097-0.516-0.149c0.059-0.149,0.012-0.339-0.174-0.388c-1.068-0.285-2.004-0.378-2.892-1.115
	c-0.76-0.631-1.222-1.649-1.593-2.539C80.256,4.673,80.086,4.168,79.922,3.661 M74.343,10.269c-0.003,0.01-0.003,0.021-0.005,0.031
	c-0.013-0.009-0.026-0.019-0.04-0.029C74.315,10.27,74.33,10.27,74.343,10.269 M63.552,7.113c0.123,0.077,0.247,0.151,0.37,0.226
	c1.248,1.272,2.641,2.087,4.372,2.718c1.701,0.621,3.766,0.585,5.238,1.785c1.175,0.958,2.97,3.492,2.058,5.154
	c-0.017-0.008-0.032-0.02-0.051-0.027c-0.995-0.361-1.604-0.642-2.305-1.478c-0.571-0.684-1.022-1.518-1.768-2.038
	c-0.607-0.423-1.191-0.607-1.769-0.65c-0.952-0.774-2.105-1.351-3.08-2.074C65.281,9.736,64.532,8.383,63.552,7.113 M36.465,22.466
	c0.091,0.065,0.169,0.138,0.269,0.198c0.864,0.515,1.678,0.788,2.529,0.936c1.779,0.57,3.698,0.766,5.58,0.788
	c2.371,0.028,4.274-0.822,6.073-1.974c1.208-0.286,2.443-0.253,3.796-0.05c0.316,0.047,0.628,0.076,0.932,0.076
	c-0.848,0.805-1.684,1.622-2.699,2.247c-0.542,0.333-2.061,0.185-2.774,0.427c-1.661,0.558-3.435,0.902-5.178,1.019
	c-0.113,0.008-0.115,0.177,0,0.176c1.235-0.012,2.368-0.146,3.579-0.385c0.996-0.195,2.026-0.66,3.068-0.406
	c0.341,0.084,0.739,0.166,1.074,0.058c0.928-0.299,1.729-0.812,2.47-1.416c-0.095,0.23-0.184,0.461-0.266,0.69
	c-0.296,0.835-0.502,1.634-0.759,2.426c-3.213,1.174-6.642-2.779-9.586,0.137c-0.03,0.028-0.049,0.066-0.076,0.096
	c-0.052-0.102-0.137-0.188-0.259-0.229C41.432,26.335,38.219,25.008,36.465,22.466 M41.585,27.494
	c-0.048,0.021-0.097,0.031-0.146,0.067c-0.099,0.072-0.196,0.145-0.295,0.217c0.121-0.104,0.243-0.205,0.363-0.316
	C41.535,27.473,41.559,27.483,41.585,27.494 M27.176,30.517c0.775,0.051,1.565,0.095,2.361,0.124
	c2.696,0.326,5.327,0.29,7.803-0.607c2.145-0.052,3.455,1.71,3.243,3.775c-0.014,0.01-0.032,0.015-0.046,0.025
	c-0.12,0.083-0.077,0.251,0.043,0.282c0,0.007,0,0.015,0,0.022c-0.35,0.3-0.712,0.566-1.209,0.627
	c-0.452,0.055-0.938-0.015-1.407-0.083c0.504-0.029,1.007-0.089,1.486-0.162c0.345-0.053,0.263-0.637-0.083-0.609
	c-2.529,0.199-4.456,0.011-6.392-1.799c-0.063-0.061-0.154-0.059-0.219,0c-1.869,1.705-3.924-0.145-5.224-1.182
	c-0.059-0.047-0.142,0.033-0.082,0.082c1.078,0.925,3.476,3.138,5.017,1.77c0.404-0.358,2.679,1.416,3.293,1.647
	c0.251,0.095,0.513,0.149,0.776,0.194c-0.919,0.092-1.798,0.423-2.693,0.685c-0.051-0.074-0.123-0.139-0.235-0.175
	c-3.233-1.012-5.687-3.131-8.458-4.849C25.806,30.4,26.486,30.471,27.176,30.517 M71.548,100.794L71.548,100.794
	c0.046-0.043,0.086-0.09,0.133-0.133c0.007-0.008,0.01-0.016,0.016-0.022c0.012,0.038,0.022,0.077,0.036,0.114
	C71.67,100.768,71.612,100.768,71.548,100.794 M81.379,90.871c0.003-0.004,0.006-0.008,0.009-0.012
	c0.001,0.002,0.002,0.006,0.003,0.008C81.387,90.867,81.383,90.869,81.379,90.871 M81.451,88.772
	c-1.374-3.864-0.557-7.829,0.478-11.635c0.006,0.002,0.013,0.006,0.02,0.008c1.144,0.468,2.68,0.241,3.862,0.115
	c0.938-0.099,1.934-0.31,2.822-0.693c-0.01,0.029-0.02,0.058-0.029,0.087c-0.578,0.521-1.158,0.961-1.908,1.26
	c-0.723,0.289-1.49,0.467-2.223,0.737c-0.086,0.031-0.051,0.171,0.039,0.14c1.443-0.457,2.828-0.64,3.934-1.575
	c-0.023,0.099-0.045,0.196-0.066,0.286c-0.244,1.129-0.24,2.313-0.168,3.461c-1.941,2.806-3.398,5.89-3.648,9.017
	c-0.281-1.399-0.354-2.819-0.449-4.258c-0.088-1.326-1.264-2.663,0.506-3.579c1.484-0.77,0.352-2.081-0.01-3.202
	c-0.049-0.147-0.277-0.086-0.232,0.062c0.441,1.428,0.609,2.545-0.818,3.392c-0.302,0.179-0.477,0.623-0.436,0.956
	c0.313,2.499,0.473,5.287,1.413,7.661c0.012,1.463,0.289,2.928,0.939,4.373C83.786,93.421,82.434,91.542,81.451,88.772
	 M131.862,62.589c0.086-0.024,0.168-0.049,0.248-0.07c-0.041,0.072-0.084,0.143-0.123,0.215
	C131.958,62.677,131.913,62.628,131.862,62.589 M132.091,64.481c0.34-0.796,0.568-1.616,0.918-2.397
	c0.16-0.146,0.307-0.338,0.439-0.618c0.035-0.074,0.02-0.146-0.012-0.21c0.434-0.809,0.338-1.511-0.107-2.335
	c-0.055-0.098-0.217-0.031-0.182,0.077c0.236,0.743,0.1,1.372-0.172,1.971c-0.049-0.266-0.098-0.518-0.016-0.815
	c0.016-0.057-0.072-0.098-0.096-0.04c-0.184,0.415-0.318,0.819-0.068,1.229c-0.023,0.043-0.049,0.086-0.072,0.129
	c-0.143,0.095-0.293,0.175-0.449,0.242c0.014-0.307-0.047-0.541-0.287-0.762c0.322-0.584,0.641-1.145,0.504-1.834
	c-0.021-0.11-0.18-0.061-0.164,0.045c0.1,0.671-0.285,1.204-0.617,1.745c-0.027,0.047-0.023,0.122,0.021,0.159
	c0.297,0.24,0.205,0.492,0.178,0.783c-0.158,0.051-0.314,0.097-0.473,0.142c0.059-0.197,0.105-0.392,0.125-0.602
	c0.006-0.063-0.051-0.137-0.111-0.146c-0.086-0.017-0.17-0.024-0.25-0.039c0.418-0.781,0.969-1.27,0.553-2.127
	c0.016-0.008,0.025-0.024,0.01-0.041c-0.023-0.026-0.047-0.052-0.07-0.077c-0.021-0.037-0.029-0.068-0.055-0.106
	c-0.051-0.079-0.176-0.007-0.127,0.074c0.572,0.937-0.023,1.574-0.613,2.283c-0.064,0.078-0.045,0.197,0.059,0.226
	c0.096,0.026,0.188,0.044,0.281,0.065c-0.031,0.199-0.088,0.392-0.135,0.588c-0.166,0.049-0.326,0.103-0.48,0.166
	c0.1-0.379,0.068-0.737-0.268-0.996c0.15-0.161,0.301-0.336,0.391-0.486c0.078-0.134-0.049-0.521-0.1-0.652
	c-0.031-0.086-0.172-0.052-0.141,0.039c0.066,0.202,0.162,0.416-0.059,0.543c-0.203,0.118-0.369,0.28-0.57,0.404
	c-0.148,0.092-0.152,0.309,0,0.398c0.596,0.357,0.127,0.82-0.059,1.297c-0.189,0.227-0.33,0.521-0.395,0.927
	c-0.031,0.212-2.141-0.623-2.566-0.614c-0.094,0.002-0.182,0.018-0.27,0.033c1.588-1.152,3.434-2.468,1.773-4.494
	c-0.752-0.917-1.281,0.503-1.57-1.015c-0.262-1.378-0.424-2.296-1.848-2.785c-0.154-0.053-0.207,0.179-0.066,0.238
	c1.707,0.709,1.34,2.432,1.828,3.854c0.041,0.118,0.195,0.213,0.313,0.127c1.273-0.933,1.584,0.848,1.654,1.417
	c0.082,0.646-1.109,1.381-1.51,1.668c-0.447,0.316-0.895,0.631-1.318,0.977c0.752-1.485,0.594-3.081-0.32-4.85
	c-0.367-0.713-0.861-1.271-1.432-1.714c-2.428-3.377-6.723-5.576-10.709-4.362c-0.123,0.038-0.072,0.225,0.053,0.193
	c2.451-0.633,4.486,0.123,6.225,1.494c-0.154-0.06-0.301-0.115-0.432-0.162c-1.611-0.582-4.195-0.942-5.686,0.096
	c-0.07,0.049-0.006,0.164,0.068,0.117c1.342-0.851,3.086-0.554,4.68,0.211c-1.373-0.201-2.654,0.064-4.07,0.566
	c-0.102,0.035-0.061,0.191,0.045,0.164c1.361-0.361,2.818-0.24,4.166,0.203c-0.559,0.01-1.105,0.045-1.625,0.098
	c-5.563,0.568-9.646,5.001-12.322,9.81c-0.65,0.871-1.246,1.776-1.73,2.699c0.176-0.882,0.451-1.748,0.791-2.666
	c0.668-1.799,0.566-3.754,2.973-4.097c0.102-0.015,0.076-0.188-0.023-0.179c-1.871,0.154-2.486,1.338-2.941,3.027
	c-0.539,1.998-1.439,3.537-1.486,5.463c-0.059,0.157-0.111,0.315-0.16,0.474c-0.479-3.198-0.584-5.935,0.855-9.115
	c1.16-2.559,3.801-3.631,5.951-5.151c3.484-2.463,1.199-5.978,3.469-8.957c0.168-0.221-0.209-0.439-0.375-0.218
	c-1.723,2.294-1.799,4.988-3.492,7.115c-0.48,0.543-1.002,1.012-1.557,1.429c-0.74,0.498-1.525,0.881-2.283,1.291
	c-1.152,0.475-2.424,0.802-3.855,0.969c-0.688,0.079-1.369,0.166-2.023,0.305c0.434-0.236,0.84-0.559,1.27-1.043
	c0.375-0.422,0.35-1.035,0.387-1.545c0.109-1.452,1.039-0.647,1.746-1.062c1.156-0.677,1-2.543,0.879-3.641
	c-0.223-2.037-0.762-3.19,1.258-4.862c1.082-0.896,1.713-1.705,2.285-2.982c0.033-0.072-0.072-0.134-0.104-0.062
	c-0.988,2.099-3.338,2.928-4.188,4.971c-0.178,0.434,0.068,1.111,0.166,1.512c0.264,1.061,1.324,5.988-2.008,4.64
	c-0.08-0.033-0.184,0.035-0.203,0.115c-0.369,1.541-0.629,2.68-2,3.772c-0.057,0.046-0.629,0.251-1.031,0.398
	c0.328-0.485,0.617-0.993,0.816-1.55c1.281-3.611-0.988-7.017,0.305-10.466c1.396-1.872,2.705-3.521,2.795-6.026
	c0.041-1.128-0.291-2.638-1.184-3.444c0.619-0.118,1.268-0.548,1.783-0.813c0.602-0.31,1.496-0.976,1.471-1.744
	c-0.008-0.213-0.281-0.285-0.395-0.107c-0.348,0.541-0.996,0.92-1.455,1.361c-0.406,0.39-1.072,0.996-1.666,1.121
	c-0.236-0.161-0.496-0.291-0.803-0.346c-0.004,0-0.006,0.003-0.01,0.002c0.99-0.4,1.688-1.381,2.18-2.33
	c1.049,0.426,2.043,0.112,2.271-1.146c0.111,0.052,0.219,0.106,0.34,0.13c0.08,0.014,0.154-0.008,0.217-0.046
	c0.227,0.2,0.436,0.427,0.615,0.693c1.088,1.615,1.201,4.475,0.125,6.098c-0.086,0.13,0.113,0.286,0.215,0.167
	c1.496-1.744,1.873-4.262,0.885-6.319c-0.291-2.146-1.16-4.687-3.461-5.018c-0.096-0.014-0.139,0.129-0.041,0.146
	c1.709,0.319,2.293,1.576,2.637,2.995c-2.275-3.08-7.592-1.094-10.707-0.157c-1.6,0.481-3.16,0.894-4.838,0.979
	c-3.191,0.16-5.566-3.787-7.395-5.817c-1.919-2.132-3.959-4.008-6.264-5.569c-0.991-0.881-1.975-1.557-2.974-2.042
	c0.904,0.186,1.993,0.16,3.089,0.01c0.31,0.232,0.759,0.331,1.111,0.171c0.568-0.258,1.09-0.509,1.594-0.762
	c0.767-0.228,1.436-0.478,1.902-0.703c3.163-1.524,6.079-3.491,9.178-5.136c4.885-2.592,7.395,1.438,11.549,1.773
	c0.195,0.139,0.354,0.31,0.463,0.586c0.211,0.543,0.076,1.106-0.314,1.526c-0.09,0.098,0.045,0.232,0.145,0.145
	c0.594-0.524,0.865-1.595,0.588-2.349c0.578,0.535,0.498,1.46,0.975,2.3c0.389,0.681,1.42,0.974,2.137,0.912
	c0.967-0.082,1.869-1.912,2.203-0.215c0.043,0.223,0.398,0.169,0.393-0.053c-0.082-2.904-1.973-0.137-3.516-0.916
	c-0.777-0.394-0.814-2.246-1.498-2.939c-0.254-0.258-0.799-0.427-1.152-0.442c-0.689-0.028-1.289,0.018-1.893-0.133
	c-0.01-0.005-0.02-0.012-0.031-0.018c1.029,0.129,1.83-0.427,2.383-1.425c0.057-0.101-0.086-0.178-0.152-0.089
	c-1.504,2.05-2.869,0.479-4.344-0.574c0.078,0.021,0.152,0.034,0.234,0.059c0.494,0.151,0.951,0.31,1.391,0.592
	c0.25,0.159,0.594,0.437,0.918,0.431c1.289-0.024,1.686-1.448,1.715-2.546c0.002-0.116-0.164-0.11-0.176,0
	c-0.113,1.023-0.836,2.728-2.088,1.637c-0.451-0.394-0.971-0.72-1.535-0.928c-0.271-0.1-0.58-0.208-0.906-0.299
	c0.842-0.006,1.73,0.114,2.561-0.019c1.199-0.192,1.607-0.889,2.141-1.926c0.057-0.11-0.104-0.205-0.166-0.098
	c-0.424,0.702-0.795,1.557-1.736,1.535c-0.799-0.017-1.65-0.228-2.451-0.309c-0.869-0.088-1.891-0.105-2.762,0.189
	c-0.412-0.197-0.844-0.364-1.293-0.511c2.365,0.096,5.129-0.204,7.166-1.126c1.947-0.881,3.791-1.936,5.803-2.678
	c2.016-0.741,4.111,0.916,5.881,1.97c-0.727-0.111-1.459-0.18-2.191-0.183c-0.092-0.001-0.107,0.13-0.023,0.154
	c1.266,0.375,2.57,1.021,3.9,1.54c-1.758-0.156-3.508-0.418-5.285-0.713c-0.711-0.261-1.365-0.414-2.176-0.362
	c-1.008,0.065-2.045,0.541-3.027,0.778c-0.129,0.031-0.072,0.236,0.055,0.198c1.449-0.446,3.064-0.459,4.6-0.238
	c0.02,0.015,0.027,0.037,0.055,0.045c2.412,0.742,4.814,1.304,7.318,1.612c2.879,0.353,5.504-0.116,8.254,0.421
	c-1.664,0.479-3.348,1.188-4.004,1.255c-0.123,0.013-0.127,0.191,0,0.194c1.094,0.026,2.213-0.197,3.285-0.393
	c0.889-0.161,2.541-0.721,3.568-0.385c-1.014,0.197-1.99,0.373-2.854,0.349c-0.092-0.002-0.115,0.147-0.023,0.161
	c3.934,0.599,8.053-1.184,10.566,2.868c0.576,0.931,1.182,1.98,1.959,2.748c-0.459-0.182-0.912-0.386-1.35-0.618
	c-0.064-0.034-0.117,0.06-0.057,0.096c0.916,0.537,1.906,1.29,2.986,1.499c0.27,0.078,0.561,0.12,0.871,0.119
	c3.523,1.004,7.111,1.018,10.752,1.736c4.527,0.893,6.885,4.834,10.049,7.718c0.135,0.124,0.387-0.044,0.266-0.206
	c-0.078-0.106-0.152-0.213-0.23-0.319c0.449,0.088,0.82,0.116,1.113,0.568c0.332,0.515,0.252,1.073-0.221,1.458
	c-0.084,0.069,0.025,0.199,0.115,0.148c0.641-0.368,1.139-1.017,0.857-1.778c0.09-0.317-0.023-0.618-0.238-0.867
	c-0.162-0.279-0.559-0.467-1.006-0.605c-0.018-0.005-0.033-0.011-0.053-0.016c-0.516-0.155-1.088-0.249-1.441-0.352
	c-0.037-0.012-0.076-0.022-0.111-0.036c-0.023-0.008-0.051-0.017-0.072-0.025c0,0-0.002,0-0.004,0
	c-0.014-0.006-0.027-0.008-0.041-0.014c-0.484-0.671-0.975-1.327-1.48-1.96c0.742,0.14,1.529,0.155,2.234,0.173
	c1.258,0.033,2.498-0.043,3.732,0.248c1.078,0.254,1.299,0.972,1.146,1.802c-0.691,0.243-1.303,0.385-1.621-0.704
	c-0.025-0.088-0.137-0.117-0.201-0.053c-1.211,1.188-2.533,0.451-3.598-0.484c-0.094-0.082-0.23,0.054-0.137,0.137
	c0.936,0.833,2.449,1.806,3.623,0.765c0.037-0.033,0.537,0.802,0.754,0.867c0.367,0.113,0.742,0.019,1.086-0.146
	c-0.273,0.919-0.893,1.905-1.271,2.522c-0.807,0.842-1.814,1.497-2.66,2.304c-0.105,0.101,0.049,0.244,0.158,0.156
	c0.412-0.331,0.861-0.608,1.314-0.881c-2.418,3.255-4.033,7.403-7.635,9.397c-0.023-0.006-0.045-0.018-0.072-0.02
	c-0.525-0.037-1.189,0.194-1.613,0.525c-0.012-0.053-0.051-0.1-0.115-0.097c-1.002,0.044-1.865,0.002-2.777-0.473
	c-0.127-0.066-0.234,0.118-0.113,0.192c0.85,0.52,1.93,0.762,2.908,0.525c0.002,0.022,0.006,0.036,0.016,0.057
	c-3.65,0.794-8.99-1.985-11.865-3.451c-2.871-1.464-5.465-3.381-8.215-5.041c-4.039-2.438-7.336-1.995-10.25-0.235
	c-2.889,0.93-4.711,3.631-6.535,6.016c-0.053,0.024-0.107,0.059-0.152,0.122c-0.059,0.085-0.092,0.175-0.143,0.261
	c-0.006,0.007-0.012,0.014-0.018,0.021c-1.352,1.546-2.684,3.091-4.049,4.395c-0.125,0.119,0.045,0.349,0.189,0.244
	c1.148-0.844,2.252-1.948,3.355-3.138c-0.193,1.496,0.297,3.098,0.328,4.628c0.004,0.145,0.213,0.142,0.223,0
	c0.074-0.975-0.018-1.922-0.074-2.894c-0.027-0.487,0.027-0.934,0.121-1.37c0.977,4.418,5.553,6.685,8.941,9.324
	c1.479,1.151,2.986,2.272,4.506,3.37c-1.896-0.876-3.736-1.86-5.457-3.137c-0.049-0.036-0.094,0.045-0.047,0.081
	c2.658,2.046,5.469,4.013,8.598,5.217c1.016,0.613,2.293,1.001,3.553,1.418c0.037,0.027,0.072,0.041,0.115,0.038
	c1.604,0.534,3.158,1.14,4.082,2.351c-0.197,0.018-0.393-0.031-0.594-0.203c-0.264-0.224-0.451-0.548-0.666-0.822
	c-0.063-0.082-0.195,0.024-0.141,0.11c0.494,0.796,0.834,1.543,1.889,1.482c0.01,0,0.018-0.005,0.027-0.005
	c0.127,0.039,0.271,0.029,0.41-0.029c0.145,0.307,0.156,0.641,0.074,0.993c-0.059,0.258-0.152,0.484-0.145,0.734
	c-0.1,0.164-0.217,0.311-0.41,0.425c-0.266,0.158-0.553,0.283-0.785,0.495c-0.021,0.021-0.035,0.045-0.057,0.067
	c-0.049,0.023-0.088,0.051-0.129,0.078c-0.174-0.466-0.547-0.91-0.408-1.396c0.211-0.728-0.309-1.426-0.699-1.992
	c-0.055-0.079-0.182-0.008-0.131,0.078c0.234,0.387,0.436,0.767,0.584,1.197c0.186,0.539-0.238,0.754-0.205,1.203
	c0.025,0.301,0.023,0.31,0.164,0.573c0.168,0.315,0.23,0.626,0.252,0.944c0,0.004,0.002,0.007,0,0.011
	c0.004,0.043,0.004,0.088,0.006,0.132c-0.154,0.367-0.234,0.768-0.27,1.205c-0.002,0.034-0.002,0.074-0.004,0.112
	c-0.262,0.712-0.711,1.178-1.908,1.235c0.121-0.299,0.215-0.607,0.295-0.941c0.035-0.139,0.061-0.293,0.029-0.434
	c-0.129-0.564,0.221-1.015,0.602-1.381c0.781-0.752,0.363-1.841-0.141-2.632c-0.037-0.061-0.131-0.006-0.094,0.056
	c0.473,0.794,0.844,1.949-0.164,2.424c-0.236,0.112-0.541,0.255-0.662,0.51c-0.123,0.261-0.232,0.444-0.186,0.742
	c0.102,0.649-0.211,1.258-0.527,1.819c-0.482,0.238-0.885,0.713-1.18,1.088c-0.389,0.498-0.676,1.062-1.07,1.558
	c-0.223,0.278-0.48,0.468-0.758,0.589c-0.855,0.21-1.869-0.22-2.582-0.578C130.706,66.895,131.55,65.75,132.091,64.481
	 M133.327,36.532c-0.65-0.879-0.807-1.829-1.076-2.99c-0.115-0.504-0.277-0.99-0.506-1.435c0.402,0.261,0.801,0.534,1.195,0.812
	c0.275,0.854,0.178,2.153,0.439,2.765c0.18,0.416,0.436,0.745,0.744,1.003c-0.053,0.006-0.105,0.001-0.158,0.009
	C133.716,36.73,133.511,36.657,133.327,36.532 M121.673,41.602c0.025,0.845,0.105,1.692,0.197,2.53
	c0.055,0.509,0.094,1.071,0.188,1.61c-1.355-0.966-2.797-1.858-4.039-2.91C119.294,43.019,120.915,42.554,121.673,41.602
	 M131.12,31.718c0.574,0.905,0.646,2.055,0.805,3.131c-0.033-0.035-0.064-0.065-0.096-0.099c-0.314-0.832-0.58-1.683-0.965-2.482
	c-0.41-0.848-1.26-1.252-2.049-1.668C129.585,30.869,130.358,31.26,131.12,31.718 M128.694,30.686
	c0.895,0.699,1.605,1.215,1.928,2.364c0.086,0.312,0.152,0.635,0.229,0.952c-0.465-0.536-1.012-1-1.574-1.481
	c-0.682-0.58-0.992-1.442-1.457-2.193c0.313,0.062,0.631,0.146,0.947,0.254C128.704,30.563,128.636,30.639,128.694,30.686
	 M127.364,30.253c0.486,0.783,0.643,1.732,1.287,2.425c0.336,0.364,0.697,0.701,1.063,1.036c-0.486-0.071-0.975-0.081-1.461-0.212
	c-0.834-0.225-0.91-1.242-1.068-1.931c-0.111-0.488-0.271-1.015-0.572-1.377C126.858,30.203,127.11,30.222,127.364,30.253
	 M128.044,34.137c-0.041,0.011-0.084,0.019-0.125,0.031c0.004-0.02,0.014-0.042,0.012-0.06
	C127.966,34.121,128.007,34.126,128.044,34.137 M126.097,30.186c0.734,0.526,0.52,2.212,0.824,2.957
	c0.17,0.417,0.438,0.67,0.748,0.838c-0.02,0.007-0.043,0.006-0.061,0.021c-0.104,0.083-0.529,0.504-0.697,0.369
	c-0.188-0.151-0.236-0.501-0.287-0.72c-0.127-0.55-0.152-1.119-0.221-1.677c-0.123-0.97-0.85-1.575-1.688-1.635
	C125.163,30.252,125.622,30.198,126.097,30.186 M123.587,30.637c0.002,0.046,0.039,0.092,0.092,0.074
	c1.191-0.396,2.158,0.278,2.258,1.473c0.051,0.58,0.08,1.16,0.191,1.732c0.074,0.372,0.221,0.63,0.402,0.795
	c-0.057,0.023-0.113,0.049-0.17,0.071c-0.006,0.002-0.014-0.004-0.02-0.002c-0.018-0.033-0.025-0.068-0.064-0.092
	c-0.727-0.459-0.668-1.246-0.766-2.004c-0.063-0.497-0.279-0.86-0.586-1.246c-0.512-0.647-1.293-0.66-2.039-0.528
	C123.118,30.811,123.351,30.718,123.587,30.637 M122.032,31.325c0.021,0.01,0.045,0.021,0.076,0.015
	c0.508-0.09,1.014-0.199,1.531-0.182c0.938,0.029,1.357,0.913,1.441,1.717c0.008,0.082,0.014,0.163,0.021,0.243
	c-0.107-0.215-0.203-0.394-0.275-0.481c-0.947-1.143-2.205-1.079-3.486-0.911C121.569,31.583,121.798,31.451,122.032,31.325
	 M137.802,36.212c0.08,0.43,0.166,0.936,0.324,1.389c-0.135-0.113-0.264-0.234-0.385-0.369c-0.426-0.477-0.713-0.995-0.887-1.584
	C137.167,35.841,137.485,36.028,137.802,36.212 M136.608,35.501c0.014,0.14,0.033,0.277,0.061,0.415
	c-0.094-0.123-0.193-0.243-0.277-0.374c-0.063-0.097-0.123-0.195-0.184-0.293c0.084,0.054,0.168,0.111,0.248,0.162
	C136.505,35.443,136.558,35.47,136.608,35.501 M135.638,34.864c0.316,0.734,0.678,1.527,1.307,1.952
	c0.02,0.048,0.035,0.098,0.057,0.145c-0.533-0.457-1.09-0.893-1.623-1.347c-0.557-0.476-0.9-1.085-1.129-1.748
	C134.726,34.215,135.19,34.553,135.638,34.864 M133.849,33.574c0.145,1.227,0.914,2.241,1.842,3.083
	c-0.131-0.015-0.258-0.031-0.404-0.036c-0.021,0-0.039,0.004-0.059,0.003c-0.441-0.186-0.852-0.418-1.152-0.843
	c-0.398-0.562-0.453-1.288-0.566-1.945c-0.033-0.188-0.074-0.395-0.127-0.601C133.54,33.348,133.696,33.461,133.849,33.574
	 M139.378,38.304c-0.67-0.405-0.967-1.132-1.203-1.87c0.23,0.128,0.461,0.247,0.693,0.371c0.164,0.537,0.344,1.143,0.701,1.574
	C139.505,38.354,139.442,38.33,139.378,38.304 M141.485,38.239c-0.047-0.067-0.104-0.125-0.141-0.199
	c0.061,0.027,0.117,0.056,0.178,0.082C141.503,38.159,141.493,38.198,141.485,38.239 M140.847,37.806
	c0.055,0.245,0.133,0.5,0.252,0.73c-0.09-0.094-0.186-0.185-0.271-0.284c-0.17-0.195-0.328-0.424-0.451-0.666
	C140.532,37.662,140.69,37.732,140.847,37.806 M139.985,37.393c0.047,0.336,0.146,0.697,0.313,1.015
	c-0.283-0.257-0.535-0.481-0.732-0.832c-0.098-0.175-0.18-0.357-0.26-0.541C139.532,37.154,139.755,37.278,139.985,37.393
	 M140.448,38.653c0.002,0.002,0.004,0.004,0.006,0.007c-0.004-0.001-0.006-0.001-0.008-0.002
	C140.446,38.656,140.448,38.655,140.448,38.653 M135.448,51.487c0.244,0.478,0.107,0.671-0.291,0.908
	c-0.229,0.134-0.334,0.318-0.436,0.557c-0.125,0.296-0.174,0.669-0.164,1.044c-0.678-0.232-1.352-0.477-2.006-0.774
	C133.517,52.62,134.554,52.157,135.448,51.487 M143.624,49.754c-0.027,1.063-0.977,2.671-1.301,3.459
	c-0.332,0.811-0.67,1.655-1.123,2.406c-0.168,0.278-0.781,1.21-0.738,1.196c-0.104,0.035-0.176,0.108-0.227,0.192
	c-0.086,0.027-0.367-0.159-0.703-0.412c-0.176-0.28,0.324-0.396,0.492-0.424c0.061-0.01,0.107-0.092,0.086-0.149
	c-0.195-0.491-0.373-0.988-0.553-1.486c-0.029-0.08-0.156-0.047-0.131,0.037c0.141,0.453,0.277,0.906,0.404,1.362
	c-0.291,0.004-0.561,0.095-0.676,0.368c-0.473-0.375-0.941-0.772-1.063-0.844c-0.17-0.099-0.342-0.184-0.516-0.272
	C139.79,53.657,142.224,52.079,143.624,49.754 M136.423,50.56c-0.268,1.339,0.047,2.834,0.184,4.181
	c-0.525-0.214-1.063-0.403-1.6-0.588c-0.053-0.222-0.096-0.447-0.102-0.694c-0.014-0.638,0.277-0.801,0.729-1.074
	c0.422-0.254,0.17-0.696-0.047-0.999C135.89,51.146,136.169,50.87,136.423,50.56 M131.636,47.011
	c0.111,1.262,0.016,2.593-0.082,3.841c-0.041,0.522-0.277,1.278-0.082,1.809c-0.512-0.301-1.016-0.622-1.514-0.955
	c0.01-0.347-0.066-0.666-0.248-0.973c-0.039-0.065-0.133-0.008-0.1,0.06c0.135,0.268,0.176,0.54,0.215,0.824
	c-0.863-0.579-1.709-1.193-2.543-1.828C128.813,49.038,130.61,48.392,131.636,47.011 M125.921,44.585
	c0.006,0.036,0.012,0.073,0.02,0.109c0.008,0.054,0.098,0.054,0.105,0c0.008-0.039,0.014-0.079,0.021-0.119
	c0.008-0.048-0.02-0.072-0.049-0.082c0.035-0.036,0.074-0.07,0.109-0.105c0.271,1.54,0.016,3.065,0.119,4.602
	c-0.406-0.318-0.813-0.637-1.215-0.955c-0.076-0.137-0.146-0.276-0.23-0.408c-0.014-0.021-0.049-0.002-0.035,0.022
	c0.045,0.081,0.068,0.168,0.1,0.254c-0.627-0.497-1.252-0.991-1.875-1.473C124.108,46.134,125.077,45.393,125.921,44.585
	 M123.325,36.42c-0.74,0.76-1.031,1.659-1.443,2.565c-0.088-0.093-0.176-0.187-0.264-0.284c0.035,0.045,0.113,0.046,0.105-0.021
	c-0.016-0.152-0.047-0.285-0.094-0.432c-0.021-0.068-0.127-0.04-0.107,0.03c0.041,0.128,0.064,0.258,0.07,0.394
	c-1.473-1.65-2.662-3.84-1.629-5.959c0.252-0.2,0.508-0.394,0.768-0.577c1.061,0.25,2.199,0.116,3.098,0.832
	c0.74,0.589,0.674,1.576,1.23,2.265C124.394,35.432,123.759,35.974,123.325,36.42 M130.226,38.557
	c-0.025,0.032-0.053,0.062-0.076,0.094c-0.469,0.56-0.902,1.147-1.326,1.714c-0.209-0.556-0.543-1.083-0.801-1.605
	c-0.553-1.125-0.656-2.279-0.318-3.472c0.303-0.545,0.904-0.676,1.398-0.993c0.01-0.006,0.012-0.015,0.02-0.022
	c0.281,0.003,0.559,0,0.828-0.001c1.133,0.293,1.445,1.539,2.203,2.541C131.421,37.273,130.796,37.886,130.226,38.557
	 M134.851,41.388c-0.471-1.119-0.67-2.573-0.139-3.657c0.719-0.143,1.465-0.328,2.15-0.061c-0.107,0.159-0.178,0.364-0.213,0.541
	c-0.174,0.866-1.191,0.306-1.49,1.029c-0.039,0.092,0.117,0.157,0.16,0.067c0.172-0.365,0.559-0.257,0.887-0.269
	c0.227-0.008,0.416-0.129,0.557-0.296c0.123-0.142,0.154-0.36,0.193-0.536c0.027-0.128,0.049-0.271,0.137-0.373
	c0.02-0.022,0.16-0.034,0.279-0.043c0.102,0.067,0.203,0.135,0.301,0.204c0.164,0.183,0.352,0.343,0.549,0.49
	C136.876,39.039,135.796,40.36,134.851,41.388 M143.333,40.858c-1,0.422-1.963,0.941-2.73,1.707
	c0.078-0.346,0.127-0.704,0.152-1.047c0.047-0.648,0.277-1.133,0.648-1.654c0.018-0.027,0.014-0.054,0.021-0.081
	c0.49,0.042,0.996,0.03,1.508-0.007c-0.477,0.337-0.811,0.872-1.316,1.205c-0.09,0.06-0.01,0.201,0.086,0.146
	c0.615-0.343,0.984-1.035,1.584-1.379c0.645-0.055,1.289-0.12,1.9-0.121c0.189,0.064,0.381,0.124,0.574,0.184
	C144.923,40.087,144.071,40.547,143.333,40.858 M145.519,45.789c1.035-0.565,1.713-1.673,2.207-2.722
	c0.238-0.508,0.729-1.728,0.697-2.637c1.273,0.191,2.566,0.219,3.77-0.027c-0.297,0.502-0.543,1.049-0.814,1.576
	C150.261,44.149,147.911,45.539,145.519,45.789"/>
<path fill="#7D1531" d="M145.562,18.837c0.139-0.06,0.035-0.304-0.105-0.246c-0.342,0.139-0.664,0.209-1.033,0.082
	c-0.053-0.019-0.09,0.065-0.039,0.091C144.782,18.958,145.151,19.012,145.562,18.837"/>
<path fill="#7D1531" d="M148.772,30.525c0.715,0.814,1.658,1.644,2.803,1.638c0.141,0,0.137-0.205,0-0.217
	c-1.102-0.093-1.963-0.747-2.697-1.528C148.812,30.345,148.706,30.452,148.772,30.525"/>
<path fill="#5E5E5E" d="M121.835,34.799c0.021-0.071-0.023-0.15-0.098-0.17c-1.182-0.312-0.871-1.264-0.518-2.1
	c0.025-0.066-0.078-0.105-0.113-0.047c-0.404,0.675-0.979,1.684-0.123,2.243c0.102,0.067,0.57,0.069,0.525,0.274
	c-0.084,0.374-0.289,0.702-0.363,1.084c-0.098,0.505,0.383,1.004,0.377,1.513c-0.002,0.109,0.162,0.131,0.188,0.025
	c0.061-0.217,0.113-0.496,0.018-0.714c-0.139-0.313-0.355-0.676-0.289-1.028C121.511,35.512,121.731,35.162,121.835,34.799"/>
<path fill="#5E5E5E" d="M121.618,37.92c0.041,0,0.041-0.064,0-0.064C121.575,37.856,121.575,37.92,121.618,37.92"/>
<path fill="#5E5E5E" d="M120.772,44.54c-0.018,0.066,0.064,0.09,0.102,0.043c0.178-0.232,0.172-0.42,0.145-0.707
	c-0.018-0.191-0.123-0.539,0.117-0.606c0.109-0.029,0.293-0.113,0.324-0.231c0.025-0.084,0-0.157-0.021-0.238
	c-0.043-0.167,0.041-0.703,0.072-0.855c0.016-0.077-0.094-0.108-0.119-0.032c-0.068,0.213-0.217,0.606-0.162,0.831
	c0.08,0.332-0.297,0.353-0.502,0.465c-0.033,0.018-0.055,0.057-0.055,0.096C120.671,43.755,120.915,44.056,120.772,44.54"/>
<path fill="#5E5E5E" d="M120.784,44.719c-0.002-0.002-0.006,0.002-0.002,0.004c0.014,0.014,0.027,0.027,0.041,0.041
	c0,0.004,0.008,0.002,0.006-0.002C120.819,44.727,120.827,44.742,120.784,44.719"/>
<path fill="#5E5E5E" d="M129.401,36.432c-0.951-0.087-0.172-1.151,0.168-1.361c0.072-0.045,0.006-0.16-0.068-0.116
	c-0.373,0.221-1.258,1.084-0.629,1.538c0.133,0.094,0.223,0.126,0.387,0.15c0.488,0.066-0.314,0.875-0.416,0.98
	c-0.402,0.424-0.068,1.082-0.143,1.575c-0.018,0.109,0.146,0.159,0.17,0.047c0.105-0.552-0.176-1.108,0.25-1.584
	c0.25-0.28,0.428-0.496,0.523-0.867c0.027-0.105,0.002-0.255-0.102-0.314C129.501,36.455,129.45,36.437,129.401,36.432"/>
<path fill="#5E5E5E" d="M128.681,39.638c-0.002,0.056-0.002,0.11-0.004,0.167c0,0.029,0.049,0.029,0.047,0
	c0-0.057-0.002-0.111-0.002-0.167C128.72,39.612,128.681,39.612,128.681,39.638"/>
<path fill="#5E5E5E" d="M125.696,45.661c0.029-0.049-0.049-0.094-0.074-0.045c-0.053,0.068-0.104,0.137-0.154,0.205
	c-0.033,0.033,0.016,0.078,0.049,0.051C125.655,45.761,125.608,45.815,125.696,45.661"/>
<path fill="#5E5E5E" d="M125.208,46.318c-0.055-0.12-0.107-0.241-0.158-0.362c-0.027-0.069-0.135-0.043-0.113,0.031
	c0.045,0.153,0.084,0.259,0.174,0.388C125.153,46.434,125.235,46.383,125.208,46.318"/>
<path fill="#5E5E5E" d="M125.101,46.934c0.012,0.037,0.012,0.029,0.051,0.05c0.018,0.009,0.031-0.015,0.016-0.026
	c-0.01-0.01-0.021-0.022-0.033-0.034C125.13,46.903,125.095,46.913,125.101,46.934"/>
<path fill="#5E5E5E" d="M125.04,47.036c0.031-0.012,0.014-0.057-0.018-0.043c-0.084,0.039-0.051,0.018-0.125,0.092
	c-0.018,0.015,0.006,0.039,0.025,0.023C124.962,47.084,125.001,47.06,125.04,47.036"/>
<path fill="#5E5E5E" d="M130.659,48.643c0.596-0.072,0.809-0.393,0.91-0.954c0.008-0.044-0.055-0.064-0.068-0.019
	c-0.143,0.52-0.344,0.698-0.863,0.799C130.54,48.489,130.562,48.655,130.659,48.643"/>
<path fill="#5E5E5E" d="M130.489,49.544c-0.053-0.247-0.121-0.486-0.146-0.739c-0.006-0.074-0.121-0.076-0.117,0
	c0.018,0.277,0.076,0.515,0.193,0.768C130.437,49.615,130.497,49.584,130.489,49.544"/>
<path fill="#5E5E5E" d="M130.015,50.089c0.174-0.03,0.121-0.013,0.273-0.122c0.107-0.078-0.004-0.225-0.109-0.144
	c-0.068,0.038-0.139,0.076-0.207,0.114C129.874,49.969,129.915,50.107,130.015,50.089"/>
<path fill="#7D1531" d="M149.759,41.036c-0.301,0.96-0.063,2.428-1.229,2.77c-0.469,0.137-0.793,0.4-0.75,0.915
	c0.004,0.047,0.076,0.063,0.086,0.012c0.109-0.498,0.373-0.685,0.826-0.842c0.178-0.06,0.395-0.156,0.512-0.309
	c0.586-0.778,0.502-1.599,0.689-2.509C149.911,40.985,149.784,40.949,149.759,41.036"/>
<path fill="#7D1531" d="M147.542,45.036c-0.023,0.043,0.043,0.081,0.066,0.038c0.021-0.022,0.039-0.044,0.061-0.065
	c0.049-0.012,0.027-0.086-0.02-0.075C147.573,44.954,147.589,44.958,147.542,45.036"/>
<path fill="#7D1531" d="M140.96,53.221c0-0.027,0.002-0.056,0.002-0.084c0.002-0.067-0.107-0.067-0.105,0
	c0,0.028,0.002,0.057,0.002,0.084C140.86,53.286,140.958,53.286,140.96,53.221"/>
<path fill="#7D1531" d="M140.024,54.36c0.141-0.099,0.285-0.158,0.42-0.27c0.043-0.037-0.016-0.112-0.061-0.078
	c-0.135,0.1-0.285,0.15-0.424,0.237C139.888,54.294,139.958,54.408,140.024,54.36"/>
<path fill="#5E5E5E" d="M96.827,34.01c-0.059,0-0.059,0.088,0,0.088C96.884,34.098,96.884,34.01,96.827,34.01"/>
<path fill="#5E5E5E" d="M103.026,34.922c-0.441,0.365-0.564,1.071-1.219,1.068c-0.439-0.002-0.592,0.44-0.621,0.848
	c-0.004,0.059,0.035,0.111,0.082,0.143c0.004,0.002,0.008,0.005,0.014,0.007c0.049,0.034,0.098,0.026,0.139-0.002
	c0,0.001,0,0.001,0,0.002c0.162-0.083,0.242-0.347,0.355-0.518c0.895,0.073,1.258-0.548,1.563-1.366
	C103.413,34.91,103.157,34.815,103.026,34.922"/>
<path fill="#5E5E5E" d="M103.007,19.055c-0.236,1.822-2.521-0.372-3.064-0.697c-0.137-0.081-0.285,0.002-0.336,0.136
	c-0.967,2.498-3.213,0.292-4.436-1.118c-0.16-0.184-0.406-0.016-0.43,0.179c-0.035,0.293-0.066,0.586-0.102,0.879
	c0.236,1.707-0.85,2.319-3.256,1.838c-0.285-0.783-0.457-1.586-0.768-2.364c-0.191-0.484-0.797-1.283-1.359-1.404
	c-0.867-0.187-1.535-0.342-2.287,0.422c-3.246,3.303-7.474,2.052-11.477,1.757c-0.229-0.017-0.282,0.363-0.054,0.403
	c3.663,0.635,6.941,1.798,10.503,0.286c2.654-1.126,3.52-1.842,4.656,1.117c0.189,0.498,0.488,1.225,0.932,1.567
	c1.24,0.956,2.205,0.726,3.076-0.467c0.141-0.194,0.738-3.242,1.02-2.915c0.963,1.117,1.953,1.741,3.305,2.273
	c0.127,0.049,0.246-0.055,0.289-0.164c0.732-1.931,2.047-0.992,3.283,0.093c0.105,0.091,0.275,0.086,0.346-0.044
	c0.566-1.036,0.453-0.592,0.463-1.777C103.313,18.852,103.03,18.865,103.007,19.055"/>
<path fill="#5E5E5E" d="M94.444,25.471c-2.885,1.682-2.869-0.787-4.539-1.885c-0.26-0.172-0.889-0.136-1.146,0.069
	c-1.254,0.998-2.877,1.379-4.164,0.131c-0.947-0.917-1.862-1.897-3.077-2.441c-0.057-0.026-0.107,0.054-0.051,0.086
	c1.595,0.879,2.504,2.567,4.02,3.545c1.156,0.748,1.461-0.015,2.547-0.44c0.738-0.29,1.344-1.463,2.338-0.043
	c0.318,0.457,0.506,1.24,1.033,1.548c1.148,0.674,2.223,0.335,3.156-0.418C94.647,25.553,94.538,25.417,94.444,25.471"/>
<path fill="#5E5E5E" d="M99.56,24.322c-0.025-0.029-0.082-0.038-0.113-0.015c-1.117,0.847-2.244,2.014-3.59,0.719
	c-0.039-0.037-0.098,0.02-0.061,0.058c0.693,0.699,1.322,0.868,2.221,0.45c0.602-0.279,1.203-1.242,1.818-0.637
	c0.453,0.445,1.074,0.749,1.623,1.049c0.078,0.043,0.143-0.068,0.07-0.115C100.817,25.374,100.104,24.986,99.56,24.322"/>
<path fill="#5E5E5E" d="M106.706,24.85c0.176,0.519-0.127,1.172-0.359,1.619c-0.055,0.104,0.01,0.268,0.146,0.256
	c0.439-0.039,0.813-0.223,1.199-0.423c0.895-0.462,1.982-1.215,2.049,0.586c0.004,0.109,0.174,0.109,0.17,0
	c-0.094-2.504-1.732-0.88-3.131-0.552c0.322-0.775,0.584-2.021-0.393-2.332c-1.475-0.466-1.789,1.217-2.756,2.024
	c-0.031,0.027,0.012,0.086,0.047,0.059c0.504-0.384,0.891-0.905,1.299-1.384C105.437,24.164,106.376,23.878,106.706,24.85"/>
<path fill="#5E5E5E" d="M45.409,69.055c0.035-0.026,0.071-0.053,0.108-0.08c0.114-0.026,0.064-0.209-0.049-0.175
	c-0.136,0.042-0.214,0.104-0.224,0.255C45.237,69.162,45.394,69.158,45.409,69.055"/>
<path fill="#5E5E5E" d="M108.409,5.824c0.133-0.012,0.133-0.193,0-0.205c-0.664-0.059-1.338,0.04-2,0.067
	c-0.045,0.002-0.045,0.069,0,0.071C107.071,5.784,107.745,5.883,108.409,5.824"/>
<path fill="#5E5E5E" d="M76.924,65.03c0.072-0.06-0.024-0.187-0.099-0.129c-1.576,1.203-3.299,2.442-4.467,4.067
	c-0.504,0.701-0.904,1.338-0.912,2.209c0,0.149,0.048,0.326,0.136,0.442c0.726,0.959-0.95,0.259-1.403,0.074
	c-2.263-0.922-1.888,2.677-1.748,3.713c0.218,1.629-0.817,1.095-1.79,2.071c-0.981,0.984-1.746,2.049-2.287,3.33
	c-0.064,0.152,0.186,0.25,0.262,0.111c0.893-1.662,2.104-3.578,4.251-3.791c0.146-0.015,0.292-0.119,0.283-0.283
	c-0.04-0.662-0.92-4.959,0.879-4.606c1.01,0.196,1.379,0.599,2.404,0.219c0.095-0.034,0.191-0.122,0.181-0.237
	c-0.011-0.099-0.005-0.211-0.083-0.289c-1.424-1.424-0.108-2.639,0.853-3.717C74.437,67.034,75.707,66.032,76.924,65.03"/>
<path fill="#5E5E5E" d="M120.921,18.94c-0.225-0.435-0.494-0.841-0.803-1.221c-0.045-0.054-0.135,0.018-0.096,0.074
	c0.275,0.405,0.479,0.852,0.801,1.221C120.872,19.07,120.95,18.999,120.921,18.94"/>
<path fill="#5E5E5E" d="M123.313,21.606c0.121,0.07,0.232-0.125,0.107-0.187c-0.795-0.392-1.426-1.047-1.988-1.723
	c-0.023-0.03-0.076,0.011-0.055,0.043C121.901,20.482,122.517,21.151,123.313,21.606"/>
<path fill="#5E5E5E" d="M123.948,22.255c0.068,0.052,0.172-0.05,0.119-0.12c-0.092-0.125-0.186-0.209-0.307-0.308
	c-0.084-0.069-0.191,0.035-0.121,0.12C123.739,22.068,123.823,22.165,123.948,22.255"/>
</svg>
