<?xml version="1.0" encoding="utf-8"?>
<!-- Generator: Adobe Illustrator 14.0.0, SVG Export Plug-In . SVG Version: 6.00 Build 43363)  -->
<!DOCTYPE svg PUBLIC "-//W3C//DTD SVG 1.1//EN" "http://www.w3.org/Graphics/SVG/1.1/DTD/svg11.dtd">
<svg version="1.1" id="Ebene_1" xmlns="http://www.w3.org/2000/svg" xmlns:xlink="http://www.w3.org/1999/xlink" x="0px" y="0px"
	 width="159.532px" height="75.291px" viewBox="0 0 159.532 75.291" enable-background="new 0 0 159.532 75.291"
	 xml:space="preserve">
<path fill="#5E5E5F" d="M21.966,45.812c-0.12-0.19-0.243-0.379-0.365-0.568c-0.039-0.061-0.137-0.002-0.096,0.057
	c0.128,0.186,0.255,0.372,0.385,0.557C21.922,45.903,21.996,45.861,21.966,45.812"/>
<path fill="#5E5E5F" d="M30.075,52.976c0.135,0.008,0.165-0.211,0.032-0.236c-1.407-0.268-1.3-1.405-0.832-2.36
	c0.01,0.375,0.13,0.752,0.33,1.091c0.04,0.067,0.144,0.006,0.106-0.063c-0.286-0.521-0.312-0.98-0.186-1.473
	c0.192-0.297,0.402-0.557,0.589-0.729c0.486-0.447,0.965-1.048,0.918-1.76c-0.116-1.735-1.948-2.006-2.814-3.295
	c-0.049-0.073-0.166-0.008-0.121,0.072c0.482,0.838,1.2,1.437,1.776,2.203c1.034,1.375-0.655,2.622-1.142,3.807
	C28.26,51.376,28.75,52.888,30.075,52.976"/>
<path fill="#5E5E5F" d="M30.163,49.189c-0.022,0.445-0.027,0.918,0.098,1.352c0.019,0.07,0.136,0.059,0.131-0.02
	c-0.026-0.443-0.048-0.888-0.071-1.332C30.315,49.086,30.167,49.086,30.163,49.189"/>
<path fill="#5E5E5F" d="M16.86,50.375c0.06,0.078,0.187,0.012,0.136-0.08c-0.027-0.049-0.038-0.098-0.057-0.146
	c0.012-0.016,0.024-0.035,0.023-0.063c-0.01-0.466,0.411-0.507,0.749-0.36c0.382,0.166,0.271,0.342,0.311,0.661
	c-0.002,0.001-0.004,0.003-0.006,0.004c-0.056,0.019-0.077,0.06-0.086,0.104c-0.026,0.002-0.053,0.004-0.08,0.004
	c-0.033-0.01-0.062-0.004-0.098-0.018c-0.007-0.002-0.01,0.004-0.015,0.006c-0.057-0.01-0.114-0.019-0.169-0.043
	c-0.105-0.043-0.196,0.097-0.092,0.157c0.461,0.271,0.752,0.466,1.298,0.245c0.403-0.163,0.673-0.477,0.765-0.882
	c0.112-0.213,0.188-0.446,0.217-0.665c0.102-0.768-0.614-1.507-1.326-1.639C17.034,47.402,16.044,49.31,16.86,50.375 M17.016,49.092
	c-0.014,0.011-0.029,0.015-0.044,0.022c0.01-0.018,0.016-0.037,0.026-0.057C17.002,49.07,17.012,49.082,17.016,49.092
	 M18.762,48.754c-0.004-0.003-0.008-0.004-0.011-0.007c-0.013-0.026-0.028-0.051-0.043-0.074
	C18.729,48.697,18.743,48.728,18.762,48.754"/>
<path fill="#5E5E5F" d="M20.665,53.667c2.624-1.664,4.487-5.113,3.099-8.097c-0.013-0.026-0.059-0.007-0.048,0.021
	c1.273,3.293-1.022,5.766-3.168,7.925C20.472,53.593,20.57,53.728,20.665,53.667"/>
<path fill="#5E5E5F" d="M23.385,51.873c-0.231,0.31-0.457,0.603-0.753,0.854c-0.063,0.055,0.028,0.145,0.092,0.091
	c0.301-0.256,0.562-0.543,0.747-0.896C23.501,51.865,23.422,51.821,23.385,51.873"/>
<path fill="#5E5E5F" d="M23.699,52.746c0.044-0.031,0.007-0.094-0.041-0.071c-0.113,0.05-0.214,0.112-0.32,0.175
	c-0.062,0.037-0.007,0.131,0.056,0.096C23.503,52.885,23.598,52.818,23.699,52.746"/>
<path fill="#5E5E5F" d="M13.945,51.611c0.04,0.055,0.127,0.007,0.092-0.053c-0.148-0.25-0.175-0.516-0.179-0.793
	c0.082-0.146,0.159-0.295,0.234-0.444c0.093,0.382,0.215,0.763,0.297,1.149c0.009,0.045,0.085,0.035,0.08-0.01
	c-0.058-0.539-0.13-1.064-0.154-1.595c0.332-0.741,0.598-1.532,0.85-2.358c0.001-0.002,0.005-0.002,0.006-0.006
	c0.699-1.599,1.862-2.507,3.66-2.182c1.822,0.331,3.255,1.863,3.402,3.702c0.074,0.922-0.412,1.817-1.158,2.547
	c-0.533,0.438-1.07,0.802-1.793,1.022c-1.067,0.324-2.358-0.097-3.398-0.321c-0.085-0.019-0.12,0.104-0.036,0.13
	c0.614,0.188,1.384,0.542,2.141,0.734c-1.365,0.205-2.644-0.235-3.101-1.743c-0.008-0.029-0.049-0.017-0.045,0.012
	c0.342,2.003,2.211,2.394,3.969,2.044c1.744-0.348,3.359-1.639,3.946-3.318c0.459-0.826,0.696-1.719,0.61-2.731
	c-0.126-1.478-1.531-2.722-2.199-3.97c-0.033-0.06-0.14-0.017-0.113,0.049c0.44,1.046,1.044,2.011,1.45,3.068
	c0.111,0.289,0.167,0.571,0.2,0.853c-0.38-0.886-1.098-1.613-1.95-2.131c0.001-0.169-0.015-0.332-0.067-0.515
	c-0.022-0.08-0.158-0.067-0.149,0.021c0.011,0.123,0.011,0.241,0.003,0.36c-0.108-0.06-0.222-0.104-0.332-0.157
	c0.128-0.244,0.179-0.534,0.163-0.828c-0.005-0.093-0.13-0.088-0.141,0c-0.038,0.299-0.142,0.511-0.3,0.696
	c-0.117-0.047-0.236-0.086-0.356-0.125c0.267-0.324,0.453-0.737,0.41-1.133c-0.008-0.074-0.113-0.078-0.117,0
	c-0.024,0.49-0.347,0.729-0.64,1.022c-0.251-0.067-0.503-0.116-0.754-0.146c0.397-0.237,0.741-0.543,0.955-1.026
	c0.039-0.089-0.084-0.166-0.131-0.078c-0.332,0.624-0.952,0.888-1.604,1.073c-0.329,0.015-0.645,0.068-0.941,0.164
	c0.419-0.414,0.928-0.771,1.56-1.086c0.865-0.433,1.338-0.819,1.724-1.709c0.029-0.066-0.053-0.113-0.096-0.057
	c-0.729,0.96-1.98,1.002-2.987,1.482c-1.01,0.482-1.511,1.126-2.048,2.099c-1.399,2.536-1.205,5.437-3.454,7.536
	c-0.187,0.174,0.067,0.516,0.277,0.357c0.845-0.631,1.465-1.367,1.961-2.18C13.741,51.238,13.813,51.429,13.945,51.611"/>
<path fill="#5E5E5F" d="M20.891,50.287c0.486-0.947,0.37-2.186-0.38-2.973c-0.026-0.027-0.065,0.014-0.041,0.041
	c0.676,0.769,0.738,1.982,0.367,2.91C20.825,50.295,20.875,50.316,20.891,50.287"/>
<path fill="#5E5E5F" d="M20.099,51.181c-0.038,0.026,0.003,0.08,0.039,0.052c0.174-0.136,0.303-0.275,0.425-0.455
	c0.008-0.011-0.01-0.024-0.018-0.015C20.408,50.939,20.289,51.052,20.099,51.181"/>
<path fill="#5E5E5F" d="M18.868,52.028c0.205-0.071,0.357-0.149,0.502-0.313c0.005-0.006-0.003-0.015-0.008-0.008
	c-0.13,0.161-0.295,0.266-0.498,0.309C18.856,52.019,18.86,52.03,18.868,52.028"/>
<path fill="#5E5E5F" d="M18.23,51.794c-0.048,0.021-0.027,0.101,0.021,0.08c0.131-0.055,0.093-0.031,0.204-0.139
	c0.036-0.033-0.017-0.086-0.054-0.053C18.344,51.72,18.287,51.757,18.23,51.794"/>
<path fill="#5E5E5F" d="M16.297,47.203l-0.062,0.063c-0.009,0.009,0.003,0.021,0.011,0.014c0.022-0.021,0.042-0.043,0.063-0.063
	C16.318,47.207,16.305,47.195,16.297,47.203"/>
<path fill="#5E5E5F" d="M18.918,46.371c0.04,0.017,0.068-0.052,0.029-0.068c-0.785-0.348-1.593-0.262-2.232,0.32
	c-0.028,0.026,0.011,0.08,0.043,0.055C17.391,46.201,18.181,46.085,18.918,46.371"/>
<path fill="#5E5E5F" d="M19.764,46.857c-0.059-0.045-0.051-0.035-0.137-0.065c-0.054-0.019-0.075,0.065-0.023,0.086
	c0.034,0.017,0.069,0.035,0.103,0.054C19.76,46.974,19.818,46.898,19.764,46.857"/>
<path fill="#5E5E5F" d="M22.004,54.204c-0.898-0.413-2.226-0.169-3.161-0.112c-1.743,0.104-3.441,0.23-5.186,0.079
	c-0.019-0.001-0.024,0.032-0.005,0.035c2.946,0.462,7.788-0.737,9.648,1.951c0.66,0.954,1.248,2.462,2.639,2.146
	c0.115-0.026,0.109-0.197,0-0.227C24.101,57.579,23.759,55.009,22.004,54.204"/>
<path fill="#5E5E5F" d="M72.704,24.224c-0.467-1.163-1.11-2.23-2.023-3.016c-0.088-0.076-0.217,0.05-0.129,0.129
	c0.873,0.775,1.463,1.791,1.894,2.894c-15.51,0.506-30.765,3.414-42.472,14.857c-0.011,0.011-0.008,0.022-0.015,0.033
	c-0.11,0.088-0.214,0.181-0.315,0.275c-0.135,0.078-0.28,0.149-0.331,0.184c-0.095,0.063-0.187,0.132-0.283,0.197
	c-0.014-0.002-0.03-0.004-0.045-0.006c-1.855-0.892-3.77-1.647-5.328-2.419c-0.9-0.863-2.382,0.065-3.283,0.612
	c-0.074,0.045-0.008,0.159,0.068,0.116c0.467-0.26,0.941-0.477,1.453-0.629c0.719-0.213,1.276,0.05,1.863,0.435
	c0.028,0.019,0.057,0.023,0.085,0.019c2.311,1.805,5.042,2.978,7.528,4.534c3.498,2.191,4.256,5.033,3.518,8.389
	c-0.014-0.958-0.149-1.906-0.432-2.768c-0.038-0.114-0.216-0.067-0.182,0.049c0.665,2.246,0.006,4.086-0.465,6.232
	c-1.051,2.262-2.856,4.457-4.859,5.862c-0.082,0.058-0.007,0.192,0.08,0.137c1.566-1.017,3.284-2.666,4.398-4.454
	c-0.178,0.553-0.402,1.088-0.753,1.598c-0.05,0.072,0.06,0.154,0.119,0.092c0.549-0.589,0.991-1.4,1.239-2.23
	c0.057-0.002,0.113-0.007,0.17-0.01c-0.064,0.146-0.113,0.301-0.166,0.457c-0.103,0.303-0.27,0.576-0.373,0.875
	c-0.023,0.066,0.059,0.124,0.116,0.089c0.383-0.233,0.68-0.959,0.726-1.438c0.123-0.008,0.244-0.019,0.365-0.031
	c-0.16,0.314-0.233,0.648-0.473,0.936c-0.056,0.068,0.036,0.166,0.1,0.1c0.279-0.285,0.511-0.66,0.567-1.061
	c0.127-0.018,0.252-0.041,0.375-0.072c-0.109,0.24-0.209,0.479-0.369,0.699c-0.068,0.094,0.077,0.196,0.156,0.121
	c0.242-0.232,0.369-0.558,0.447-0.882c0.112-0.036,0.221-0.082,0.328-0.134c-0.088,0.21-0.166,0.425-0.255,0.633
	c-0.015,0.034,0.018,0.081,0.056,0.057c0.29-0.192,0.43-0.529,0.494-0.867c0.076-0.051,0.148-0.113,0.219-0.178
	c0.13,0.059,0.264,0.109,0.393,0.172c-0.014,0.076-0.029,0.162-0.06,0.22c-0.039,0.069,0.048,0.13,0.106,0.082
	c0.097-0.082,0.137-0.138,0.162-0.214c0.049,0.021,0.096,0.049,0.147,0.064c0.586,0.184,0.901-0.263,0.914-0.748
	c0.139-0.123,0.234-0.271,0.316-0.445c0.023-0.002,0.044-0.006,0.065-0.008c-0.039,0.129-0.045,0.271-0.122,0.438
	c-0.032,0.071,0.069,0.133,0.106,0.062c0.116-0.223,0.295-0.348,0.388-0.57c0.052-0.014,0.106-0.028,0.156-0.047
	c-0.009,0.019-0.019,0.035-0.028,0.054c-0.038,0.075,0.062,0.131,0.112,0.065c0.075-0.1,0.132-0.174,0.178-0.248
	c0.287-0.172,0.501-0.447,0.618-0.857c0.007-0.006,0.015-0.003,0.022-0.012c0.189-0.226,0.328-0.475,0.391-0.756
	c1.1-0.22,1.768-0.785,1.28-2.217c0.149-0.052,0.292-0.104,0.42-0.16c2.146-0.937,3.526-2.642,2.789-5.012
	c-0.106-0.342-0.521-0.367-0.717-0.094c-0.703,0.986-1.666,1.57-2.709,2.023c0.368-4.65-4.122-9.106-8.703-8.582
	c-0.217,0.025-0.227,0.337,0,0.345c2.545,0.094,4.576,1.29,6.033,3.352c1.151,1.627,1.33,3.413,1.764,5.245
	c-0.619,0.229-1.243,0.447-1.847,0.694c-0.036-0.157-0.079-0.313-0.119-0.467c-0.023-0.086-0.116-0.127-0.197-0.115
	c0.11-0.059,0.191-0.176,0.16-0.338c-0.653-3.407-3.538-6.268-7.044-6.521c-0.118-0.009-0.135,0.171-0.027,0.201
	c3.287,0.919,5.465,3.271,6.483,6.482c0.06,0.187,0.221,0.242,0.361,0.205c-0.017,0.014-0.036,0.023-0.046,0.045
	c-0.04,0.082-0.069,0.164-0.089,0.25c-0.349-0.344-0.691-0.693-1.073-1.002c-0.064-0.051-0.155,0.035-0.092,0.092
	c0.432,0.385,0.739,0.936,1.15,1.351c0.002,0.017,0.003,0.031,0.005,0.047c-0.045,0.021-0.089,0.042-0.134,0.064
	c-1.011-0.453-1.559-1.607-2.486-2.204c-0.15-0.414-0.341-0.826-0.592-1.235c-1.02-1.667-2.807-2.921-4.785-3.971
	c0.247,0.001,0.495-0.005,0.729-0.076c0.105-0.032,0.102-0.176,0-0.209c-0.271-0.088-0.557-0.106-0.841-0.14
	c0.266-0.232,0.506-0.518,0.75-0.741c0.498-0.456,0.953-0.737,1.594-0.944c0.13-0.042,0.099-0.219-0.031-0.23
	c-0.28-0.024-0.556,0.033-0.819,0.13c11.933-9.539,26.365-12.375,41.136-13.287c0.409,1.254,0.638,2.585,0.819,3.806
	c0.019,0.13,0.244,0.099,0.23-0.032c-0.127-1.207-0.367-2.535-0.79-3.789c4.867-0.293,9.771-0.382,14.632-0.435
	c0.087-0.001,0.087-0.132,0-0.134C82.666,24.157,77.672,24.069,72.704,24.224 M35.812,49.25c0.031,0.057,0.058,0.116,0.085,0.175
	c-0.052,0.069-0.108,0.134-0.158,0.206C35.766,49.502,35.791,49.375,35.812,49.25 M36.06,49.224
	c-0.063-0.107-0.125-0.218-0.198-0.316c0.016-0.123,0.028-0.246,0.038-0.37c0.129,0.146,0.259,0.288,0.377,0.444
	C36.202,49.058,36.13,49.14,36.06,49.224 M36.416,48.851c-0.142-0.213-0.31-0.404-0.493-0.586c0.004-0.062,0.004-0.125,0.006-0.187
	c0.197,0.228,0.408,0.442,0.621,0.649C36.503,48.767,36.459,48.81,36.416,48.851 M36.722,48.578
	c-0.225-0.311-0.518-0.566-0.789-0.844c-0.004-0.25-0.022-0.502-0.053-0.752c0.357,0.475,0.729,0.959,1.141,1.379
	C36.92,48.431,36.817,48.5,36.722,48.578 M34.161,54.785c0.022-0.023,0.051-0.037,0.065-0.073c0.02-0.053,0.035-0.11,0.054-0.164
	c0.472-0.183,0.958-0.223,1.443-0.147c-0.22,0.123-0.448,0.23-0.709,0.303c-0.292,0.079-0.585,0.16-0.877,0.24
	C34.147,54.89,34.15,54.837,34.161,54.785 M37.432,54.283c0.018-0.116-0.052-0.08-0.186-0.122c-0.269-0.084-0.512-0.224-0.791-0.274
	c-0.72-0.133-1.43-0.004-2.064,0.332c0.077-0.238,0.143-0.479,0.203-0.726c0.8-0.099,1.909,0.166,2.924,0.263
	c-0.007,0.021-0.027,0.029-0.031,0.055C37.465,53.964,37.457,54.128,37.432,54.283 M38.167,54.009
	c-0.01-0.068-0.024-0.135-0.047-0.199c-0.004-0.011-0.016-0.016-0.02-0.025c0.073,0.001,0.145,0.001,0.216-0.002
	C38.26,53.855,38.212,53.933,38.167,54.009 M36.912,52.952c-0.763-0.063-1.507-0.106-2.222,0.136
	c0.03-0.145,0.047-0.293,0.071-0.439c0.009-0.023,0.018-0.047,0.028-0.07c0.041,0.083,0.146,0.134,0.221,0.046
	c0.601-0.712,2.54-0.528,4.201-0.604C39.018,53.228,37.963,53.042,36.912,52.952 M40.176,51.218
	c-0.747,0.213-1.587,0.125-2.356,0.152c-0.668,0.021-1.495,0.029-2.153,0.309c1.225-0.967,3.552-1.332,5.246-1.783
	C40.961,50.513,40.943,51,40.176,51.218 M44.281,45.449c0.65,4.122-5.438,3.431-8.413,4.997c-0.147,0.032-0.272,0.098-0.382,0.19
	c0.028-0.096,0.055-0.189,0.081-0.283c0.001-0.002,0.002-0.002,0.003-0.002c1.322-1.691,3.288-2.223,5.176-2.895
	c0.027,0.033,0.051,0.064,0.088,0.085c-0.045,0.071-0.103,0.129-0.143,0.206c-0.519,0.998-2.135,0.541-2.886,1.339
	c-0.075,0.08,0.044,0.199,0.121,0.12c0.711-0.73,1.777-0.459,2.633-0.878c0.254-0.125,0.529-0.591,0.694-0.794
	c0.141-0.174,0.316-0.325,0.502-0.469C42.682,46.681,43.554,46.195,44.281,45.449 M37.792,47.892
	c-0.216,0.111-0.425,0.232-0.626,0.362c-0.357-0.555-0.889-1.014-1.323-1.515c-0.05-0.307-0.122-0.614-0.219-0.92
	C36.417,46.429,36.917,47.41,37.792,47.892"/>
<path fill="#5E5E5F" d="M157.084,44.953c-2.287-0.625-4.268-2.055-6.448-2.957c-2.378-0.984-5.397-0.889-7.881-1.475
	c-1.181-0.279-2.323-0.455-3.479-0.557c-1.403-0.581-3.094-0.831-4.405-0.149c-0.261,0.024-0.515,0.08-0.772,0.138
	c-3.471-0.524-6.195-4.934-9.033-6.865c-2.508-1.709-5.898-3.042-8.035-5.331c1.052-0.625,2.359-1.394,2.4-2.734
	c0.043-1.381-0.09-3.315-1.49-4.091c-4.795-2.656-10.277,1.819-15.406,0.601c-2.773-0.934-5.514-1.95-8.44-2.559
	c-5.323-1.11-10.446-2.787-15.842-3.574c-5.602-0.816-11.502-0.921-17.084,0.278c0.933-0.688,1.813-1.48,2.687-2.123
	c1.09-0.804,4.393-1.432,3.786-3.358c-0.039-0.12-0.154-0.191-0.271-0.2c-0.215-0.145-0.519-0.224-0.851-0.239
	c-1.209-0.707-2.389-1.458-3.6-2.165c-1.594-0.931-3.388-1.157-5.054-1.912c-2.521-1.145-4.026-2.154-6.441-2.307
	c-0.721-0.854-1.94-0.919-2.832-0.212c-1.005,0.797-1.53,2.108-2.227,3.202c-1.528,1.903-2.677,4.154-4.093,6.183
	c-3.411,4.884-7.52,9.299-11.532,13.696c-3.143,2.115-5.845,4.656-8.639,7.198c-1.094,0.826-2.153,1.679-3.12,2.603
	c-0.098,0.094-0.191,0.192-0.289,0.286c-0.325,0.229-0.586,0.5-0.798,0.791c-3.395,3.433-6.19,7.161-8.663,11.353
	c-1.378,2.333-2.251,4.959-3.449,7.386c-0.206,0.418-2.8,3.158-2.717,4.241c0.149,1.97,2.223,2.687,4.041,2.988
	c0.012,0.01,0.009,0.03,0.025,0.032c1.214,0.242,2.459,0.482,3.649,0.021c0.621-0.24,1.105-0.304,1.751-0.277
	c0.175,0.006,0.301-0.05,0.399-0.141c0.454,0.521,0.994,0.889,1.526,0.581c0.371-0.213,0.494-0.592,0.582-0.985
	c0.443,0.038,0.748,0.437,1.137,0.709c0.185,0.131,0.387,0.176,0.584,0.164c-3.537,3.219-8.861,8.559-5.648,10.289
	c2.485,1.336,3.768-1.514,5.351-3.031c1.734-1.664,3.82-2.766,5.854-3.94c0.031,0.003,0.061,0.005,0.092-0.013
	c4.843-2.861,10.985-3.278,16.168-5.588c1.217-0.004,2.354-0.363,3.483-0.875c1-0.457,1.987-0.938,2.983-1.403
	c1.646-0.767,2.989-0.603,4.507-0.277c0.338,0.115,0.678,0.222,1.022,0.32c2.843,1.81,7.145,4.092,8.136-0.431
	c0.461-2.103,0.687-3.93,1.28-5.709c1.405-1.016,2.838-1.869,4.26-2.696c0.053-0.015,0.105-0.028,0.148-0.078
	c0.005-0.006,0.011-0.011,0.016-0.017c2.839-1.651,5.619-3.236,7.986-5.896c0.084-0.095,0.166-0.187,0.25-0.281
	c2.674-0.983,7.066,1.439,8.657,2.623c1.458,1.085,3.616,2.978,5.421,1.614c0.059-0.044,0.102-0.104,0.151-0.156
	c0.135-0.035,0.229-0.15,0.269-0.357c0.18-0.312,0.303-0.668,0.426-0.983c0.535-1.374,1.012-2.397,2.062-3.478
	c0.272-0.281,0.753-2.145,0.989-3.127c1.98-2.815,6.913-3.176,10.307-3.379c0.684,0.341,1.858,0.2,2.58,0.281
	c1.34,0.151,2.521,0.482,2.442,2.084c-0.007,0.139,0.212,0.169,0.241,0.033c0.197-0.895-0.049-1.653-0.66-2.172
	c0.49,0.155,0.926,0.405,1.313,0.732c0.008,0.012,0.004,0.025,0.018,0.036c0.649,0.522,1.219,1.631,0.725,2.413
	c-0.059,0.092,0.081,0.166,0.143,0.083c0.262-0.354,0.328-0.777,0.271-1.194c1.579,2.391,2.399,6.02,4.467,7.539
	c0.909,0.67,2.954,1.142,3.915,0.377c0.471-0.375,1.909,0.847,2.379,1.019c1.189,0.435,2.291,0.606,3.494,0.578
	c0.061,0.065,0.137,0.116,0.236,0.112c0.258-0.012,0.453-0.069,0.604-0.16c0.107-0.02,0.176-0.092,0.197-0.178
	c0.605-0.776-0.459-2.666-0.85-3.283c-0.83-1.315-2.002-2.403-3.078-3.545c0.012,0.006,0.022,0.015,0.033,0.021
	c0.049,0.024,0.098,0.022,0.142,0.01c0.521,0.321,1.039,0.638,1.556,0.953c0.018,0.017,0.039,0.033,0.057,0.05
	c0.008,0.008,0.017,0.006,0.024,0.01c0.224,0.203,0.446,0.406,0.685,0.595c1.117,0.883,2.248,1.551,3.256,2.336
	c0.42,0.416,0.824,0.854,1.191,1.351c0.221,0.297,0.396,0.618,0.549,0.953c-0.076,0.998-0.531,1.914-0.385,2.942
	c0.276,1.934,1.012,3.655,1.165,5.642c0,0.002,0.003,0.003,0.003,0.006c0.034,0.389,0.082,0.769,0.158,1.129
	c1.346,6.387,6.783,11.326,7.549,17.698c0.016,0.13,0.104,0.195,0.201,0.228c-0.013,0.014-0.025,0.029-0.037,0.041
	c-0.126,0.131,0.032,0.301,0.18,0.236c1.481-0.652,2.281-2.158,3.117-3.479c1.504-2.379,3.59-4.354,5.166-6.7
	c1.545-2.298,1.411-4.321,0.537-6.226c0.028-0.336,0.025-0.681-0.01-1.023c4.145,2.114,7.7-0.883,10.668-3.882
	c0.035-0.009,0.07-0.009,0.104-0.038C157.588,51.889,162.491,46.427,157.084,44.953 M137.694,41.371
	c0.015-0.032,0.029-0.065,0.045-0.099h0.072C137.772,41.305,137.729,41.338,137.694,41.371 M48.637,4.04
	c-0.058,0.072-0.111,0.14-0.164,0.211c-0.148,0.116-0.281,0.245-0.421,0.367c0.028-0.033,0.053-0.069,0.082-0.101
	C48.289,4.343,48.459,4.187,48.637,4.04 M5.277,59.988c0.081,0.149,0.188,0.276,0.345,0.344c0.005,0.002,0.007-0.002,0.012-0.002
	c-0.032,0.051-0.039,0.115,0.013,0.16c0.064,0.057,0.13,0.09,0.195,0.142c0.009,0.302,0.015,0.639,0.068,0.962
	C5.46,61.115,5.277,60.572,5.277,59.988 M6.399,61.031c0.021,0.351,0.023,0.715,0.096,1.049c-0.044-0.029-0.083-0.061-0.124-0.09
	c-0.074-0.152-0.134-0.311-0.179-0.492c-0.06-0.246-0.106-0.49-0.166-0.734C6.15,60.852,6.274,60.958,6.399,61.031 M7.792,61.541
	c0.037,0.465,0.094,0.893,0.398,1.228c-0.045,0.007-0.09,0.015-0.136,0.019c-0.101-0.031-0.199-0.063-0.293-0.099
	c-0.142-0.192-0.257-0.385-0.336-0.665c-0.057-0.201-0.101-0.406-0.15-0.609C7.446,61.469,7.619,61.509,7.792,61.541 M6.999,61.309
	c0.02,0.338,0.071,0.774,0.193,1.151c-0.087-0.041-0.168-0.082-0.248-0.123c-0.119-0.193-0.212-0.397-0.257-0.657
	c-0.034-0.187-0.057-0.371-0.085-0.556C6.732,61.195,6.865,61.257,6.999,61.309 M15.874,61.983c-0.258-0.112-0.51-0.112-0.75-0.046
	c0.012-0.058,0.024-0.117,0.037-0.175c0.132-0.524,0.619-0.173,0.957-0.045c0.278,0.104,0.551-0.007,0.777-0.157
	c0.114-0.076,0.075-0.262-0.071-0.262c-0.968-0.004-1.786-1.225-2.401,0.152c-0.238,0.535-0.154,1.308-0.922,0.851
	c-0.541-0.322-1.002-0.733-1.456-1.166c-0.062-0.06-0.165,0.017-0.119,0.092c0.108,0.183,0.271,0.47,0.469,0.774
	c-0.451-0.129-0.857-0.336-1.395-0.034c-0.769,0.429-1.515,0.603-2.294,0.726c-0.024-0.055-0.087-0.08-0.141-0.051
	c-0.265,0.143-0.432-0.578-0.526-1.059c0.187,0.024,0.375,0.035,0.563,0.037c0.034,0.271,0.093,0.537,0.198,0.795
	c0.033,0.084,0.148,0.053,0.135-0.037c-0.037-0.256-0.105-0.502-0.151-0.754c0.138-0.002,0.278-0.021,0.418-0.034
	c0.091,0.26,0.163,0.526,0.295,0.771c0.041,0.076,0.175,0.045,0.169-0.047c-0.017-0.264-0.103-0.505-0.199-0.746
	c0.84-0.113,1.707-0.377,2.609-0.687c1.657-0.571,3.046-0.972,4.726-0.472c0.12,0.377,0.175,0.771,0.243,1.158
	c0.026,0.153,0.054,0.309,0.098,0.459c-0.013,0.008-0.029,0.014-0.04,0.024C16.625,62.496,16.396,62.208,15.874,61.983
	 M19.577,59.066c-0.301,0.252-0.601,0.504-0.928,0.721c-0.147-0.037-0.294-0.078-0.443-0.125c0.36-0.174,0.666-0.422,0.956-0.695
	C19.299,59.001,19.438,59.035,19.577,59.066 M17.34,60.576c0.179,0.44,0.175,0.938,0.272,1.402
	c-0.031-0.018-0.063-0.029-0.098-0.037c-0.113-0.228-0.214-0.458-0.276-0.727c-0.057-0.254-0.128-0.498-0.216-0.737
	c0.051,0.019,0.099,0.027,0.15,0.046C17.231,60.544,17.281,60.555,17.34,60.576 M18.626,60.837c0.028,0.121,0.077,0.229,0.141,0.328
	c-0.022,0.022-0.042,0.048-0.064,0.07c-0.043,0.043-0.087,0.086-0.13,0.129c-0.02-0.18-0.062-0.358-0.116-0.535
	C18.514,60.833,18.57,60.837,18.626,60.837 M19.007,60.904c-0.023-0.029-0.045-0.064-0.066-0.096
	c0.056-0.005,0.11-0.004,0.165-0.014C19.074,60.83,19.041,60.867,19.007,60.904 M19.947,59.904c-0.03,0.026-0.055,0.061-0.086,0.09
	c-0.028-0.016-0.056-0.031-0.09-0.035c0.198-0.217,0.403-0.428,0.61-0.641c0.079,0.037,0.155,0.082,0.229,0.133
	C20.361,59.549,20.141,59.729,19.947,59.904 M19.443,59.921c-0.17-0.014-0.341-0.031-0.51-0.066c0.329-0.219,0.64-0.462,0.945-0.716
	c0.072,0.019,0.142,0.042,0.212,0.063C19.838,59.408,19.623,59.649,19.443,59.921 M17.932,60.755
	c0.021,0.355,0.082,0.732,0.222,1.033c-0.063,0.066-0.128,0.134-0.19,0.203c-0.063-0.471-0.18-0.953-0.418-1.352
	C17.674,60.68,17.81,60.726,17.932,60.755 M49.823,52.652c2.56-0.02,3.515,3.325,4.419,5.197c0.212,0.438,0.547,1.063,0.967,1.568
	c-2.617-1.699-3.644-7.551-7.584-5.034c-0.07,0.045-0.01,0.149,0.064,0.11c2.857-1.441,4.308,1.272,5.647,3.347
	c-1.119-1.443-3.018-2.199-4.757-2.589c-0.026-0.006-0.036,0.031-0.012,0.039c1.004,0.365,2.012,0.746,2.927,1.302
	c0.561,0.339,0.989,0.769,1.379,1.237c-0.399-0.289-0.804-0.569-1.221-0.834c-1.542-0.984-3.55-1.267-5.341-1.422
	c0.675-0.481,1.428-0.797,2.304-0.729c0.089,0.007,0.09-0.116,0.02-0.145c-0.468-0.187-0.913-0.213-1.343-0.129
	c0.804-0.686,1.63-1.349,2.491-1.972C49.782,52.626,49.793,52.654,49.823,52.652 M46.23,55.642c2.371,0.623,4.177,1.204,6.09,2.723
	c-1.58-0.451-3.007-1.254-4.574-1.731c-0.76-0.231-1.626-0.267-2.48-0.138c0.143-0.147,0.283-0.291,0.42-0.416
	c0.175-0.157,0.356-0.305,0.541-0.441C46.23,55.639,46.229,55.641,46.23,55.642 M53.728,58.432c0.014,0.021,0.029,0.042,0.043,0.063
	c-0.006-0.006-0.012-0.01-0.018-0.015C53.744,58.465,53.736,58.449,53.728,58.432 M46.187,57.609c0.023,0,0.044-0.003,0.066-0.002
	c-0.026,0.006-0.051,0.01-0.075,0.016C46.18,57.619,46.187,57.615,46.187,57.609 M77.887,38.149c1.784-0.923,3.915-1.14,5.594,0.226
	c1.323,1.076,1.674,3.054,2.15,4.594c0.037,0.119,0.233,0.103,0.226-0.03c-0.155-2.1-0.97-4.311-2.833-5.448
	c-1.299-0.793-2.815-0.662-4.173-0.111c0.337-0.256,0.684-0.499,1.04-0.73c2.233-1.003,4.66-0.165,6.076,1.831
	c0.576,0.813,0.688,2.239,1.039,3.173c0.163,0.436,0.512,0.998,0.904,1.325c-0.1,0.167-0.182,0.298-0.249,0.403
	c-0.101,0-0.212-0.012-0.341-0.044c-0.494-0.121-0.955-0.601-1.039-1.101c-0.022-0.143-0.268-0.109-0.252,0.034
	c0.066,0.622,0.719,1.263,1.402,1.509c-0.324,0.569-0.555,1.178-0.787,1.789c-0.037-0.012-0.074-0.023-0.111-0.035
	c-0.088-0.061-0.17,0.082-0.082,0.142c0.048,0.032,0.09,0.044,0.133,0.056c-0.098,0.254-0.199,0.508-0.314,0.756
	c-0.016,0.032-0.041,0.049-0.06,0.078c-0.286-0.259-0.642-0.923-0.726-1.059c-0.59-0.951-0.621-2.327-1.049-3.367
	c-0.476-1.158-1.713-1.9-2.789-2.4c-1.815-0.844-3.98-0.822-5.644,0.17C76.615,39.287,77.239,38.698,77.887,38.149 M85.766,34.446
	c1.327-0.396,2.68,0.754,3.03,2.013c0.181,0.652,0.278,1.322,0.481,1.971c0.074,0.235,0.213,0.633,0.436,0.875
	c-0.057,0.123-0.104,0.252-0.148,0.383c-0.484,0.104-0.955-1.153-1.137-1.504c-0.316-0.607-0.757-1.137-1.213-1.643
	c-0.906-1.005-2.049-1.808-3.385-1.755c0.581-0.181,1.189-0.334,1.829-0.458C85.641,34.392,85.682,34.471,85.766,34.446
	 M92.77,36.71c-0.273-0.311-0.551-0.621-0.851-0.905c-0.013-0.209-0.033-0.422-0.063-0.647c-0.025-0.185-0.035-0.356-0.037-0.519
	c0.511,0.635,1.053,1.262,1.643,1.813C93.227,36.532,92.994,36.617,92.77,36.71 M92.141,37.006
	c-0.099-0.051-0.199-0.094-0.305-0.129c0.049-0.22,0.078-0.447,0.082-0.677c0.171,0.227,0.354,0.442,0.542,0.654
	C92.352,36.904,92.245,36.953,92.141,37.006 M91.813,37.182c-0.02,0.012-0.039,0.025-0.059,0.037
	c0.007-0.019,0.008-0.038,0.014-0.057C91.782,37.17,91.799,37.175,91.813,37.182 M83.222,34.984
	c0.014,0.009,0.019,0.028,0.039,0.026c2.727-0.375,4.07,2.408,5.053,4.421c0.221,0.449,0.604,0.902,1.002,1.041
	c-0.354,0.661-0.705,1.295-1.006,1.82c-0.547-0.342-0.906-2.029-1.051-2.51c-0.23-0.768-0.371-1.583-0.932-2.19
	c-1.344-1.462-3.272-2.103-5.106-1.731C81.852,35.529,82.518,35.236,83.222,34.984 M74.792,41.179
	c0.005-0.004,0.011-0.002,0.016-0.007c1.899-2.02,4.7-1.714,6.958-0.507c2.375,1.27,1.934,3.627,3.141,5.574
	c0.037,0.059,0.08,0.121,0.128,0.184c-0.709-0.567-1.097-1.442-1.65-2.27c-0.05-0.076-0.17-0.007-0.121,0.07
	c0.52,0.835,0.83,1.84,1.444,2.555c-0.298-0.095-0.617-0.227-0.949-0.388c-0.377-0.897-0.943-1.802-1.569-2.485
	c-0.041-0.045-0.104,0.021-0.066,0.066c0.433,0.523,0.773,1.115,1.005,1.755c0.05,0.136,0.096,0.274,0.141,0.414
	c-0.274-0.149-0.548-0.308-0.82-0.472c-0.487-0.969-1.129-1.945-2.004-2.535c-1.329-0.896-2.715-1.021-4.208-0.975
	c0.174-0.071,0.346-0.138,0.513-0.191c1.979-0.645,4.745,0.084,6.131,1.581c0.137,0.147,0.349-0.07,0.219-0.22
	c-1.135-1.314-2.916-2.111-4.647-2.222c-1.549-0.099-2.944,0.447-4.395,0.876C74.304,41.712,74.547,41.443,74.792,41.179
	 M74.917,42.701c0.27-0.101,0.538-0.213,0.802-0.326c1.66,0.137,3.3,0.424,4.631,1.515c0.362,0.296,0.656,0.658,0.936,1.03
	c-0.651-0.439-1.171-0.813-1.38-0.937C78.956,43.422,76.844,42.781,74.917,42.701 M118.582,40.048
	c-0.157-0.119-0.284-0.281-0.399-0.457c0.182,0.15,0.363,0.3,0.547,0.449C118.672,40.012,118.623,40.021,118.582,40.048
	 M119.632,40.832c-0.006-0.006-0.003-0.016-0.011-0.023c-0.087-0.089-0.184-0.163-0.281-0.234c0.006-0.006,0.014-0.01,0.02-0.015
	c0.133,0.11,0.258,0.228,0.39,0.338C119.71,40.876,119.671,40.853,119.632,40.832 M132.774,66.27
	c-1.649-4.823-3.047-9.461-3.213-14.665c-0.002-0.09-0.14-0.09-0.14,0c-0.005,3.814,0.438,7.703,1.62,11.346
	c-1.348-2.82-2.318-5.703-2.482-9.133c-0.02-0.406-0.027-0.847-0.031-1.298c0.074-0.349,0.191-0.685,0.342-1.011
	c0.117-0.167,0.273-0.292,0.455-0.387c0.436,0.102,0.924,0.102,1.429,0.025c-0.015,3.344,0.565,6.441,1.474,9.657
	c0.506,1.798,1.219,3.554,1.875,5.302c0.395,1.055,0.426,2.344,0.514,3.592c-0.314-0.67-0.668-1.336-1.055-2.021
	C133.293,67.203,133.032,66.736,132.774,66.27 M135.125,70.904c-0.141-2.808-0.367-4.844-1.41-7.602
	c-1.502-3.973-2.648-7.903-2.816-12.176c0.358-0.064,0.721-0.166,1.076-0.295c0.489,7.766,6.5,15.203,4.322,22.947
	c-0.033,0.119,0.008,0.211,0.076,0.272c-0.16,0.2-0.328,0.39-0.496,0.579C135.838,73.277,135.561,72.067,135.125,70.904
	 M137.049,73.16c1.909-7.578-4.201-14.846-4.941-22.377c0.467-0.184,0.912-0.414,1.31-0.676c0.12,2.77,1.101,5.18,2.344,7.651
	c2.095,4.161,3.539,7.377,3.528,11.979C138.546,70.88,137.833,72.061,137.049,73.16 M144.334,56.994
	c-0.217-0.695-0.625-1.306-1.297-1.678c-0.09-0.05-0.196,0.075-0.113,0.147c0.654,0.565,0.741,1.253,0.779,1.964
	c-0.652-1.012-1.455-1.998-2.26-2.984c-0.086-0.105-0.221,0.03-0.174,0.135c0.605,1.388,1.375,2.648,2.115,3.965
	c0.799,1.42,0.809,2.807,0.414,4.127c-0.637-4.615-6.15-9.471-7.615-12.987c-0.013-0.03-0.063-0.019-0.051,0.013
	c1.992,5.245,7.115,9.082,6.799,14.926c-0.256,0.44-0.541,0.871-0.84,1.289c0.422-6.24-6.887-10.629-7.025-16.972
	c-0.002-0.098-0.147-0.098-0.151,0c-0.251,6.66,6.304,11.048,6.608,17.743c-0.276,0.361-0.553,0.713-0.821,1.052
	c-0.171,0.216-0.333,0.441-0.495,0.666c0.799-6.274-5.945-12.313-6.598-18.421c0.555-0.393,0.996-0.84,1.211-1.283
	c0.045-0.091-0.074-0.201-0.146-0.115c-0.738,0.889-1.792,1.33-2.896,1.566c-1.176,0.251-2.223-0.079-3.346-0.27
	c-0.005-0.049-0.006-0.096-0.011-0.144c0.069-3.166-1.696-6.479-3.653-8.8c-0.107-0.126-0.277,0.053-0.179,0.178
	c0.923,1.178,1.56,2.396,2.034,3.748c-0.688-0.738-1.539-1.369-2.441-1.953c-3.289-2.129-5.845-5.023-9.037-7.247
	c-0.063-0.044-0.117,0.056-0.059,0.101c1.426,1.098,2.551,2.466,3.697,3.815c-0.307-0.177-0.619-0.348-0.934-0.519
	c-0.16-0.26-0.332-0.509-0.574-0.679c-0.075-0.053-0.141,0.067-0.07,0.121c0.104,0.079,0.191,0.182,0.271,0.296
	c-0.066,0.013-0.123,0.078-0.082,0.158c0.75,1.462,1.836,2.791,2.789,4.123c0.486,0.674,2.471,2.988,2.275,4.162
	c-1.178-0.888-2.209-1.75-3.07-2.994c-0.756-1.09-1.371-2.261-2.027-3.41c-0.028-0.049-0.102-0.006-0.076,0.043
	c1.072,2.104,1.964,4.721,3.85,6.252c-0.23-0.053-0.458-0.109-0.684-0.174c0.004-0.119-0.066-0.246-0.211-0.241
	c-0.827,0.026-1.225-0.382-1.605-1.082c-0.303-0.56-0.529-1.155-0.932-1.655c-0.047-0.057-0.145,0.02-0.102,0.079
	c0.35,0.472,0.588,1.292,0.938,1.976c-0.171-0.14-0.335-0.295-0.487-0.475c-0.144-0.17-0.364-0.364-0.603-0.482
	c-0.211-0.586-0.293-1.244-0.495-1.824c-0.365-1.051-0.868-2.09-1.499-3.006c-0.04-0.059-0.139-0.002-0.096,0.057
	c0.847,1.174,1.334,2.529,1.675,3.929c0.038,0.162,0.063,0.336,0.087,0.511c-2.063-3.154-3.282-7.583-7.799-7.613
	c-0.079-0.001-0.078,0.118,0,0.123c2.957,0.16,4.912,2.748,5.929,5.301c0.366,0.919,0.575,1.887,1.017,2.68
	c-0.059,0.036-0.117,0.073-0.168,0.113c-0.07,0.056-0.139,0.092-0.207,0.14c-0.873-0.613-1.115-2.046-1.604-3.115
	c-0.675-1.47-1.406-2.674-2.856-3.471c-0.054-0.029-0.1,0.05-0.048,0.081c2.265,1.366,2.445,3.617,3.365,5.835
	c0.142,0.344,0.356,0.68,0.612,0.959c-0.066,0.026-0.133,0.057-0.197,0.075c-1.533-0.17-2.535-4.713-3.479-5.374
	c-0.061-0.042-0.113,0.053-0.057,0.096c0.672,0.514,1.557,4.033,2.781,5.357c-0.512-0.049-0.982-0.301-1.406-0.655
	c-0.124-0.174-0.24-0.362-0.348-0.584c-0.305-0.63-0.573-1.263-1.033-1.799c-0.053-0.062-0.159,0.021-0.109,0.085
	c0.332,0.438,0.555,1.023,0.801,1.598c-0.572-0.69-1.021-1.5-1.324-2.063c-1.186-2.218-2.323-5.435-4.721-6.481
	c3.049-0.059,6.42,0.215,8.17,1.794c0.18,0.161,0.437-0.091,0.267-0.265c-2.854-2.917-10.119-2.32-13.722-2.192
	c-1.799,0.064-4.728,0.211-7.2,0.984c-0.614-0.715-1.292-1.388-1.941-2.078c0.037-0.347,0.124-0.657,0.25-0.949
	c0.792,0.788,1.363,1.755,2.062,2.621c0.1,0.124,0.272-0.051,0.174-0.174c-0.708-0.878-1.329-1.835-2.167-2.599
	c0.241-0.507,0.579-0.988,0.913-1.598c0.054-0.097-0.072-0.195-0.151-0.118c-0.696,0.679-1.394,1.346-1.746,2.268
	c-0.163,0.426-0.202,0.869-0.202,1.319c-1.281-0.557-2.24-2.041-3.764-1.319c-0.061,0.029-0.018,0.127,0.045,0.107
	c1.372-0.44,2.529,1.411,3.736,1.872c0.02,0.394,0.039,0.791,0.017,1.183c-0.12,0.36-0.323,0.835-0.571,1.367
	c-0.104,0.11-0.211,0.218-0.301,0.337c-0.115-0.215-0.189-0.459-0.262-0.685c-0.182-0.57-0.303-1.157-0.52-1.716
	c-0.422-1.085-1.592-1.999-2.769-2.046c0.099-0.077,0.052-0.276-0.097-0.276c-3.308-0.001-5.886,0.866-8.195,2.447
	c-0.553-0.064-1.023,0.046-1.515,0.305c-0.084,0.044-0.024,0.191,0.066,0.155c0.358-0.145,0.722-0.201,1.097-0.204
	c-1.309,0.95-2.541,2.122-3.772,3.515c-2.429,2.746-4.521,5.535-7.701,7.49c-0.089,0.055-0.18,0.105-0.269,0.158
	c0.112-0.127,0.229-0.251,0.34-0.381c0.659-0.768,1.104-1.635,1.111-2.66c0.001-0.087-0.141-0.111-0.155-0.021
	c-0.249,1.576-1.683,2.307-2.714,3.32c0.21-0.391,0.371-0.805,0.438-1.25c0.019-0.135-0.168-0.195-0.209-0.058
	c-0.455,1.534-1.751,2.356-2.955,3.251c1.85-1.857,3.385-3.859,2.749-6.74c-0.019-0.085-0.146-0.048-0.129,0.036
	c0.508,2.627-1.029,4.047-2.66,5.497c1.487-2.072,2.369-4.611,1.644-7.107c-0.041-0.14-0.239-0.08-0.215,0.061
	c0.187,1.072,0.097,2.018-0.164,2.885c-0.101-0.145-0.211-0.268-0.379-0.354c-0.084-0.043-0.157,0.082-0.074,0.127
	c0.173,0.093,0.306,0.226,0.404,0.396c-0.067,0.201-0.144,0.398-0.228,0.593c-0.162-0.178-0.408-0.264-0.701-0.259
	c-0.108,0.002-0.104,0.153,0,0.164c0.286,0.03,0.485,0.136,0.567,0.382c-0.114,0.238-0.238,0.473-0.374,0.702
	c-0.112-0.253-0.314-0.437-0.571-0.58c-0.113-0.063-0.25,0.101-0.143,0.185c0.249,0.195,0.399,0.404,0.501,0.707
	c0.002,0.007,0.009,0.008,0.012,0.014c-0.094,0.148-0.191,0.294-0.291,0.439c-0.032-0.082-0.067-0.16-0.098-0.222
	c-0.188-0.364-0.592-0.335-0.906-0.175c-0.107,0.053-0.03,0.238,0.081,0.191c0.477-0.197,0.502,0.324,0.541,0.742
	c-0.165,0.221-0.333,0.443-0.504,0.666c-0.1-0.521-0.407-0.961-1.02-0.82c-0.071,0.016-0.056,0.132,0.017,0.125
	c0.59-0.041,0.758,0.531,0.729,1.048c-0.211,0.271-0.422,0.544-0.631,0.819c-0.07-0.188-0.152-0.357-0.196-0.459
	c-0.206-0.47-0.62-0.838-1.13-0.806c0.944-0.573,1.821-1.241,2.59-2.054c0.063-0.066-0.036-0.164-0.099-0.1
	c-1.307,1.321-2.754,2.287-4.466,3.002c-1.404,0.586-2.898,0.875-4.272,1.545c-0.079,0.037-0.027,0.137,0.046,0.133
	c-0.051,0.056-0.099,0.119-0.141,0.203c-0.049,0.098,0.079,0.166,0.141,0.084c0.133-0.16,0.297-0.232,0.492-0.215
	c0.17-0.004,0.173-0.248,0.026-0.271c1.406-0.575,2.895-0.892,4.271-1.552c0.386-0.186,0.763-0.385,1.131-0.598
	c0.011,0.063,0.056,0.119,0.134,0.111c0.596-0.054,0.787,0.585,0.91,1.055c0.04,0.151,0.052,0.358,0.108,0.535
	c-0.009,0.012-0.018,0.024-0.027,0.036c-0.118,0.167-0.206,0.349-0.309,0.521c-0.278-0.766-0.951-1.26-1.63-1.754
	c-0.096-0.069-0.207,0.082-0.124,0.162c0.312,0.299,0.65,0.575,0.947,0.891c0.321,0.339,0.442,0.73,0.532,1.162
	c-0.109,0.211-0.2,0.429-0.292,0.646c-0.244-0.438-0.537-0.856-0.79-1.185c-0.522-0.682-1.235-1.092-2.104-0.941
	c-0.119,0.02-0.092,0.223,0.029,0.213c1.008-0.09,1.603,0.635,2.015,1.461c0.205,0.411,0.321,0.918,0.499,1.373
	c-0.156,0.487-0.281,0.984-0.385,1.488c-0.067,0.172-0.132,0.346-0.195,0.52c-0.388-0.404-0.534-1.385-0.648-1.808
	c-0.303-1.129-1.279-2.069-2.249-2.644c-0.082-0.049-0.152,0.076-0.074,0.127c0.906,0.592,1.504,1.336,1.905,2.336
	c0.199,0.494,0.236,1.052,0.376,1.564c0.081,0.297,0.263,0.695,0.506,0.952c-0.093,0.36-0.141,0.912-0.205,1.521
	c-0.768-0.844-1.118-2.682-1.447-3.495c-0.476-1.177-1.233-2.161-2.446-2.601c-0.123-0.043-0.17,0.146-0.053,0.193
	c2.069,0.827,2.419,3.08,3.012,4.963c0.153,0.488,0.418,1.223,0.853,1.625c-0.057,0.426-0.134,0.846-0.247,1.219
	c-0.481-0.252-1.156-1.274-1.329-1.527c-0.671-0.977-0.941-2.098-1.42-3.159c-0.567-1.255-1.375-2.53-2.915-2.19
	c-0.049,0.01-0.027,0.08,0.019,0.072c1.741-0.261,2.372,1.838,2.733,3.111c0.354,1.244,0.806,2.522,1.624,3.549
	c0.216,0.271,0.542,0.697,0.912,0.947c-0.022,0.031-0.05,0.056-0.073,0.082c-3.227-0.553-2.82-7.522-6.918-6.938
	c0.658-0.474,1.335-0.927,2.056-1.33c0.163-0.09,0.02-0.329-0.144-0.248c-5.236,2.586-8.856,7.052-14.438,9.237
	c-2.31,0.904-5.006,1.535-7.616,2.335c1.565-1.533,3.238-3.005,4.043-5.091c0.041-0.107-0.128-0.15-0.17-0.047
	c-0.948,2.311-2.935,3.636-4.595,5.365c-0.93,0.299-1.842,0.629-2.717,1.004c0.19-0.17,0.388-0.326,0.57-0.508
	c0.118-0.117-0.054-0.273-0.178-0.178c-3.772,2.924-9.043,4.199-12.116,7.939c-0.179,0.232-0.369,0.455-0.555,0.684
	c-0.291,0.007-0.59-0.199-0.901-0.67c0.071-0.516,0.533-1.258,0.8-1.729c0.461-0.813,1.14-1.518,1.784-2.187
	c1.118-1.163,2.413-2.121,3.495-3.322c0.054-0.058-0.032-0.146-0.086-0.087c-1.103,1.18-2.331,2.214-3.55,3.268
	c-1.163,1.004-1.873,2.17-2.779,3.379c-0.312,0.416-0.388,0.828-0.312,1.183c-0.87-0.746-0.926-1.521-0.162-2.326
	c0.788-1.22,1.911-2.292,2.91-3.342c0.946-0.995,1.893-1.917,2.774-2.907c0.031-0.019,0.058-0.043,0.078-0.074
	c0.805-0.594,1.521-1.396,2.139-2.143c0.336-0.407,0.563-0.721,1.076-0.936c0.474-0.197,0.85,0.013,1.287-0.297
	c0.078-0.056,0.031-0.177-0.065-0.156c-0.447,0.101-0.886-0.01-1.333-0.008c-0.384-0.525-1.108-0.564-1.725-0.685
	c-0.007-0.063-0.09-0.117-0.149-0.058c-0.005,0.005-0.009,0.01-0.013,0.014c-1.125-0.262-2.134-0.934-3.237-1.273
	c-0.096-0.031-0.131,0.111-0.041,0.146c0.939,0.353,1.783,0.894,2.7,1.292c0.099,0.043,0.201,0.079,0.304,0.109
	c-0.285,0.277-0.588,0.526-0.959,0.686c-0.576-0.193-1.151-0.414-1.728-0.557c-2.061-0.824-4.377-0.883-6.326,0.242
	c-0.067,0.037-0.009,0.131,0.058,0.101c1.394-0.647,2.613-0.659,3.961-0.19c-2.487,0.912-4.998,2.735-7.541,1.465
	c-0.002,0-0.002-0.002-0.003-0.002c-0.21-0.104-0.419-0.226-0.629-0.375c-0.032-0.021-0.064-0.024-0.093-0.017
	c-0.001-0.011,0.01-0.019,0.004-0.03c-0.265-0.552-0.25-1.123-0.147-1.693c0.236-0.646,0.589-1.319,0.974-2
	c1.387-1.486,2.848-3.18,3.693-4.973c0.051-0.109-0.099-0.199-0.162-0.096c-0.527,0.884-1.271,1.617-2.021,2.342
	c0.044-0.091,0.086-0.182,0.126-0.273c1.077-2.45,2.275-4.762,3.641-6.984c-0.4,1.441-0.549,2.884-1.49,4.132
	c-0.026,0.036,0.029,0.075,0.061,0.046c0.911-0.844,1.207-2.086,1.569-3.234c0.389-1.228,0.931-2.391,1.548-3.514
	c0.611-0.871,1.25-1.73,1.929-2.576c1.099-1.369,2.29-2.708,3.541-3.997c0.377-0.273,0.746-0.566,1.152-0.788
	c0.865-0.476,1.783-0.761,2.747-0.42c0.098,0.035,0.182-0.109,0.102-0.176c-0.535-0.457-1.276-0.603-2.041-0.534
	c0.29-0.27,0.581-0.535,0.875-0.798c0.011-0.007,0.023-0.007,0.035-0.015c0.005-0.003,0.008-0.007,0.013-0.01
	c1.635-0.163,2.26,1.925,3.698,2.482c0.055,0.022,0.094-0.072,0.04-0.096c-1.317-0.592-1.863-2.641-3.342-2.682
	c0.372-0.267,0.732-0.549,1.098-0.823c0.622,0.305,1.268,0.475,1.553,1.207c0.132,0.339,0.224,0.771,0.479,1.047
	c0.71,0.767,2.11,0.976,3.087,1.186c0.062,0.014,0.106-0.074,0.044-0.107c-0.454-0.241-0.957-0.348-1.449-0.49
	c-0.999-0.287-1.6-0.677-1.975-1.687c-0.315-0.848-0.902-0.948-1.63-1.237c3.604-2.712,6.986-5.725,10.676-8.358
	c3.368-2.406,6.542-4.822,9.05-8.157c0.029-0.037-0.033-0.084-0.064-0.049c-2.04,2.28-4.406,4.09-6.888,5.763
	c1.423-1.23,2.745-2.604,3.701-4.232c0.058-0.098-0.09-0.183-0.152-0.089c-1.187,1.813-2.763,3.277-4.59,4.43
	c-0.089,0.056-0.184,0.112-0.279,0.169c2.135-2.279,4.068-4.752,6.02-7.22c3.036-3.836,5.144-8.577,8.793-11.864
	c0.459-0.151,0.716,0.018,1.039,0.3c-0.704,0.572-1.276,1.472-1.701,2.199c-2.353,4.026-4.983,7.971-8.23,11.339
	c-0.084,0.088,0.044,0.215,0.133,0.133c2.319-2.143,4.23-4.585,6.06-7.146c1.501-2.102,2.869-5.417,5.411-6.328
	c0.547,0.175,1.089,0.363,1.625,0.568c-0.685,0.408-1.303,1.119-1.782,1.686c-2.443,2.895-4.727,5.9-7.101,8.85
	c-0.06,0.075,0.044,0.184,0.108,0.108c1.665-2.002,3.314-4.019,5.004-6.001c1.004-1.177,3.016-3.979,4.9-4.188
	c0.349,0.147,0.695,0.3,1.041,0.456c-1.597,0.302-2.924,1.929-3.869,3.155c-2.615,3.393-5.284,7.926-9.185,10.014
	c-0.124,0.066-0.014,0.251,0.11,0.187c2.434-1.266,4.263-3.763,6.18-5.679c2.17-2.169,4.495-7.225,8.015-7.045
	c0.025,0.002,0.035-0.016,0.056-0.019C57.89,6.621,58.23,6.789,58.57,6.96C57.152,7.16,55.962,8.494,55,9.681
	c-2.919,3.601-5.539,7.018-9.456,9.621c-0.066,0.044-0.006,0.149,0.062,0.107c2.479-1.543,4.56-3.398,6.529-5.552
	c1.626-1.779,4.954-7.232,7.853-5.961c0.131,0.058,0.255,0.031,0.349-0.034c0.172,0.09,0.345,0.178,0.516,0.268
	c-1.707,0.5-3.08,2.282-4.168,3.63c-3.291,4.078-6.812,6.953-11.561,9.204c-0.079,0.037-0.01,0.151,0.068,0.116
	c3.284-1.452,6.054-2.97,8.648-5.471c2.144-2.069,4.895-6.593,8.163-6.886c0.438,0.226,0.879,0.45,1.32,0.671
	c-0.783,0.385-1.537,1.066-2.023,1.504c-2.785,2.509-4.728,5.532-8.271,7.129c-0.107,0.048-0.013,0.202,0.092,0.157
	c2.089-0.904,3.715-2.252,5.317-3.841c1.055-1.044,3.699-4.391,5.78-4.508c0.236,0.115,0.472,0.229,0.71,0.341
	c-2.417,1.185-3.925,4.086-6.391,5.28c-0.09,0.043-0.012,0.171,0.076,0.132c1.41-0.631,2.521-1.565,3.656-2.592
	c0.713-0.646,1.448-1.254,2.245-1.796c0.113-0.077,0.768-0.427,1.343-0.597c0.222,0.1,0.446,0.194,0.669,0.289
	c-0.963,0.925-2.464,1.325-3.51,2.124c-1.17,0.894-2.374,2.237-3.735,3.128c-1.63,0.445-3.223,1.014-4.768,1.716
	c-0.753,0.049-1.391,0.41-2.044,0.779c-1.022,0.574-2.069,0.735-3.13,1.159c-0.121,0.048-0.077,0.226,0.055,0.197
	c0.851-0.185,1.625-0.136,2.439-0.517c0.673-0.315,1.298-0.67,1.964-0.961c0.045,0.037,0.098,0.06,0.165,0.033
	c8.736-3.481,18.446-3.188,27.552-1.608c4.756,0.826,9.375,2.405,14.104,3.393c3.971,0.83,7.666,3.136,11.703,3.386
	c0.029,0.002,0.056,0.007,0.084,0.009h0.002h0.003c0.573,0.033,1.212-0.069,1.724-0.148c0.814-0.126,1.566-0.318,2.242-0.807
	c0.102-0.074,0.01-0.241-0.102-0.172c-1.186,0.737-2.59,0.236-3.873,0.364c-0.713-0.167-1.414-0.36-2.109-0.564
	c0.707,0.006,1.43-0.056,2.177-0.187c2.048-0.358,4.062-0.855,6.132-1.078c1.604-0.173,3.002,0.315,3.811,1.149
	c-0.896-0.401-1.992-0.392-2.768,0.219c-0.125,0.098,0.039,0.312,0.17,0.221c1.276-0.893,2.729,0.179,3.315,1.399
	c-0.015,0.251-0.063,0.507-0.161,0.771c-0.031-0.352-0.156-0.7-0.392-0.985c-0.604-0.729-1.708-0.808-2.158,0.102
	c-0.103,0.208,0.202,0.391,0.313,0.183c0.387-0.717,1.086-0.475,1.455,0.119c0.17,0.271,0.252,0.588,0.189,0.904
	c-0.087,0.428-0.406,0.625-0.689,0.907c-0.104-0.565-0.418-1.049-0.996-1.411c-0.062-0.038-0.133,0.053-0.078,0.101
	c0.631,0.545,0.713,1.182,0.6,1.918c-0.427-0.633-0.764-1.331-0.973-2.122c-0.035-0.139-0.262-0.114-0.252,0.034
	c0.074,1.097,0.418,2.033,0.936,2.857c-0.004,0.245,0.145,0.48,0.371,0.536c1.545,2.019,4.166,3.318,6.328,4.649
	c2.802,1.724,5.059,3.737,7.318,6.1c0.854,0.894,1.766,1.511,2.828,1.808c-1.117,0.184-2.216,0.158-3.211-0.561
	c-0.121-0.086-0.271,0.109-0.158,0.201c1.14,0.928,1.811,1.06,3.313,1.079c1.06,0.015,2.069-0.005,3.06-0.024
	c0.03,0.043,0.064,0.087,0.114,0.121c1.478,1.039,0.64,4.26-0.227,5.436c-0.066,0.091,0.071,0.182,0.147,0.114
	c1-0.884,1.727-2.636,1.625-4.159c0.072-0.497,0.348-0.855,0.756-1.15c0.256-0.185,0.545-0.258,0.828-0.363
	c1.6,0.047,3.219,0.195,4.978,0.619c1.674,0.401,1.618,0.383,3.215,0.582c-1.658-0.135-3.308-0.338-4.957-0.756
	c-0.048-0.013-0.067,0.057-0.021,0.072c2.6,0.891,5.321,1.258,8.055,1.407c1.004,0.352,1.955,0.789,2.916,1.267
	c-2.012,0.243-4,0.409-6.045,0.344c-3.036-0.097-5.785-1.574-8.563-2.625c-0.089-0.033-0.125,0.107-0.039,0.143
	c2.834,1.133,5.446,2.763,8.506,3.195c2.366,0.336,4.963,0.025,7.297-0.476c0.363,0.185,0.73,0.369,1.107,0.556
	c0.318,0.155,0.59,0.32,0.836,0.488c-5.128,2.518-12.268,1.69-16.758-1.674c-0.093-0.068-0.216,0.09-0.124,0.161
	c4.455,3.471,12.438,5.342,17.56,2.08c0.529,0.543,0.787,1.127,0.824,1.735c-5.424,4.123-14.804-0.265-19.857-2.953
	c-0.086-0.047-0.162,0.082-0.076,0.132c5.035,2.874,14.076,7.903,19.785,3.956c-0.258,0.869-0.813,1.752-1.461,2.594
	c-0.047-0.044-0.104-0.074-0.17-0.05c-5.932,2.138-13.25-0.968-17.901-4.697c-0.065-0.053-0.162,0.038-0.097,0.097
	c3.6,3.117,11.893,8.146,17.009,5.654c-0.524,0.459-1.054,0.919-1.593,1.361c-5.98,1.854-10.449-1.793-15.258-5.1
	c-0.146-0.103-0.279,0.133-0.138,0.237c3.515,2.574,8.713,7.207,13.485,6.278c-0.248,0.162-0.5,0.313-0.754,0.455
	c-0.055-0.063-0.131-0.107-0.226-0.084c-3.304,0.812-6.317-0.517-8.907-2.547c-0.041-0.033-0.1,0.022-0.059,0.058
	c1.854,1.543,4.664,3.503,7.301,3.394C147.491,57.615,145.989,57.631,144.334,56.994"/>
<path fill="#5E5E5F" d="M134.372,46.528c0.206-0.271,0.387-0.565,0.54-0.88c0.073-0.148-0.122-0.258-0.218-0.127
	c-0.182,0.248-0.364,0.494-0.551,0.738c-0.224-0.252-0.443-0.504-0.67-0.752c0.484-0.506,0.924-1.049,1.25-1.61
	c0.07-0.124-0.093-0.244-0.195-0.149c-0.479,0.444-0.869,1.008-1.291,1.516c-0.166-0.178-0.338-0.352-0.508-0.526
	c0.721-0.707,1.332-1.543,1.803-2.342c0.07-0.117-0.094-0.244-0.188-0.146c-0.664,0.689-1.236,1.495-1.886,2.207
	c-2.511-2.563-5.315-4.863-8.327-6.908c0.098-0.151,0.199-0.301,0.286-0.46c0.082-0.15-0.138-0.277-0.229-0.133
	c-0.092,0.149-0.174,0.303-0.266,0.452c-0.211-0.142-0.419-0.288-0.632-0.428c0.003-0.004,0.006-0.008,0.009-0.012
	c0.096-0.128-0.117-0.291-0.221-0.17c-0.007,0.008-0.014,0.017-0.02,0.025c-7.233-4.691-15.533-7.952-23.641-9.84
	c-0.052-0.013-0.072,0.063-0.021,0.079c7.801,2.4,15.896,5.875,23.111,10.516c-0.109,0.165-0.217,0.332-0.328,0.497
	c-0.105,0.155,0.141,0.292,0.248,0.144c0.112-0.156,0.221-0.315,0.33-0.475c0.232,0.152,0.461,0.308,0.692,0.462
	c-0.015,0.027-0.032,0.052-0.046,0.078c-0.059,0.115,0.102,0.208,0.172,0.101c0.016-0.022,0.029-0.044,0.044-0.065
	c2.985,1.997,5.801,4.2,8.366,6.617c-0.492,0.462-1.043,0.852-1.717,1.091c-0.147,0.054-0.086,0.286,0.066,0.237
	c0.686-0.217,1.324-0.604,1.903-1.086c0.19,0.182,0.384,0.361,0.571,0.546c-0.504,0.532-1.053,1.028-1.664,1.431
	c-0.066,0.044-0.008,0.143,0.063,0.107c0.635-0.332,1.258-0.797,1.829-1.32c0.25,0.248,0.493,0.502,0.737,0.754
	c-0.141,0.167-0.275,0.339-0.428,0.495c-0.09,0.09,0.027,0.251,0.137,0.179c0.195-0.126,0.363-0.273,0.521-0.429
	c1.035,1.082,2.033,2.192,2.961,3.354c0.107,0.135,0.338-0.043,0.239-0.185C136.331,48.865,135.373,47.679,134.372,46.528"/>
<path fill="#5E5E5F" d="M21.32,61.101c-0.246,0.254-0.452,0.523-0.64,0.822c-0.049,0.077,0.075,0.149,0.121,0.072
	c0.178-0.291,0.375-0.557,0.611-0.803C21.468,61.132,21.379,61.042,21.32,61.101"/>
<path fill="#5E5E5F" d="M26.253,56.375c0.177,0.459,0.326,0.934,0.603,1.344c0.043,0.063,0.132,0.009,0.101-0.059
	c-0.204-0.436-0.385-0.877-0.563-1.324C26.359,56.25,26.219,56.287,26.253,56.375"/>
<path fill="#5E5E5F" d="M27.165,56.042c0.09,0.615,0.229,1.223,0.321,1.836c0.016,0.102,0.192,0.078,0.179-0.023
	c-0.076-0.625-0.246-1.232-0.348-1.854C27.301,55.9,27.149,55.944,27.165,56.042"/>
<path fill="#5E5E5F" d="M27.235,61.392c-0.062-0.098-0.218-0.008-0.156,0.092c0.159,0.264,0.274,0.521,0.534,0.697
	c0.083,0.057,0.178-0.069,0.106-0.138C27.514,61.849,27.385,61.626,27.235,61.392"/>
<path fill="#5E5E5F" d="M27.968,60.521c-0.126-0.167-0.405-0.018-0.289,0.169c0.143,0.229,0.337,0.412,0.607,0.468
	c0.135,0.028,0.239-0.13,0.137-0.236C28.283,60.778,28.089,60.683,27.968,60.521"/>
<path fill="#5E5E5F" d="M33.502,59.397c-0.256,0.405-0.561,0.772-0.838,1.164c-0.058,0.081,0.076,0.185,0.139,0.106
	c0.302-0.379,0.589-0.772,0.842-1.188C33.699,59.389,33.56,59.308,33.502,59.397"/>
<path fill="#5E5E5F" d="M34.239,59.462c0.034,0.235-0.02,0.435-0.163,0.596c-0.063,0.087,0.076,0.191,0.147,0.113
	c0.209-0.228,0.254-0.457,0.186-0.756C34.384,59.302,34.219,59.352,34.239,59.462"/>
<path fill="#5E5E5F" d="M35.107,59.184c0.018,0.058,0.035,0.114,0.053,0.171c0.011,0.214,0.352,0.207,0.328,0
	c-0.019-0.162-0.024-0.186-0.113-0.328C35.268,58.857,35.011,59.007,35.107,59.184"/>
<path fill="#5E5E5F" d="M26.242,37.936c0.39,0.01,0.765,0.08,1.138,0.19c0.12,0.037,0.185-0.134,0.083-0.198
	c-0.381-0.235-0.779-0.305-1.221-0.32C26.03,37.601,26.031,37.931,26.242,37.936"/>
<path fill="#5E5E5F" d="M29.492,37.506c0.087,0,0.087-0.135,0-0.135S29.405,37.506,29.492,37.506"/>
<path fill="#5E5E5F" d="M28.825,35.455c-1.019-0.086-1.642-0.312-2.3-1.11c-0.499-0.607-0.958-1.177-1.68-1.525
	c-0.046-0.022-0.085,0.042-0.041,0.071c1.399,0.909,2.051,3.038,4.039,2.696C28.923,35.574,28.895,35.46,28.825,35.455"/>
<path fill="#5E5E5F" d="M30.112,36.152c-0.135-0.112-0.105-0.093-0.259-0.178c-0.053-0.03-0.118,0.047-0.067,0.088
	c0.137,0.108,0.107,0.09,0.263,0.172C30.099,36.261,30.16,36.191,30.112,36.152"/>
<path fill="#5E5E5F" d="M30.992,36.351c0.103,0,0.103-0.158,0-0.158S30.889,36.351,30.992,36.351"/>
<path fill="#5E5E5F" d="M28.408,38.318c0.183,0.006,0.156-0.292-0.034-0.253c-0.162,0.033-0.15,0.033-0.274,0.149
	c-0.06,0.056,0.002,0.162,0.08,0.137C28.256,38.34,28.332,38.329,28.408,38.318"/>
<path fill="#5E5E5F" d="M29.459,38.16c0.004,0.011,0.008,0.023,0.012,0.035c0.054,0.171,0.26,0.184,0.359,0.046
	c0.012-0.016,0.01-0.032,0.017-0.049l0.003,0.003c0.001-0.008,0.002-0.016,0.004-0.024c0.011-0.038,0.009-0.073-0.004-0.109
	c-0.006-0.029-0.018-0.052-0.034-0.072C29.703,37.84,29.385,37.927,29.459,38.16"/>
<path fill="#5E5E5F" d="M30.75,37.449c0.028-0.028,0.057-0.056,0.084-0.084c0.121-0.12-0.066-0.306-0.186-0.186
	c-0.028,0.028-0.056,0.056-0.084,0.083C30.443,37.383,30.63,37.569,30.75,37.449"/>
<path fill="#5E5E5F" d="M32.161,36.288c0.023-0.031,0.046-0.062,0.068-0.092c0.104-0.142-0.102-0.35-0.244-0.245
	c-0.031,0.023-0.061,0.045-0.092,0.068C31.638,36.209,31.974,36.543,32.161,36.288"/>
<path fill="#5E5E5F" d="M29.242,34.542c0.132,0,0.132-0.205,0-0.205S29.11,34.542,29.242,34.542"/>
<path fill="#5E5E5F" d="M27.479,33.105c0.004,0.01,0.009,0.019,0.013,0.029c0.247-0.396-0.286-0.735-0.608-0.469
	c-0.157,0.13-0.189,0.243-0.214,0.44C26.606,33.623,27.415,33.615,27.479,33.105"/>
<path fill="#5E5E5F" d="M27.575,31.561c0.265,0,0.265-0.41,0-0.41S27.31,31.561,27.575,31.561"/>
<path fill="#5E5E5F" d="M28.658,32.846c0.525,0,0.525-0.814,0-0.814S28.133,32.846,28.658,32.846"/>
<path fill="#5E5E5F" d="M28.158,34.303c0.098,0.003,0.195-0.056,0.19-0.182v-0.016c0-0.007-0.005-0.009-0.006-0.015
	c-0.001-0.056-0.004-0.103-0.035-0.156c-0.064-0.111-0.234-0.111-0.298,0c-0.031,0.053-0.034,0.1-0.035,0.156
	c-0.001,0.006-0.006,0.008-0.006,0.015v0.016C27.963,34.247,28.06,34.306,28.158,34.303"/>
<path fill="#5E5E5F" d="M29.742,33.221c0.257,0,0.257-0.398,0-0.398S29.485,33.221,29.742,33.221"/>
<path fill="#5E5E5F" d="M25.577,32.603c0.048,0.043,0.114,0.043,0.162,0c0.015-0.013,0.028-0.026,0.043-0.039
	c0.384-0.348-0.632-0.348-0.248,0C25.549,32.577,25.562,32.589,25.577,32.603"/>
<path fill="#5E5E5F" d="M26.575,31.853c0.212,0,0.212-0.328,0-0.328S26.363,31.853,26.575,31.853"/>
<path fill="#5E5E5F" d="M29.193,30.662c0.028-0.014,0.057-0.029,0.085-0.043c0.252-0.128,0.271-0.571,0-0.693
	c-0.028-0.013-0.057-0.025-0.085-0.038C28.316,29.495,28.382,31.075,29.193,30.662"/>
<path fill="#5E5E5F" d="M30.157,31.257c0.025-0.104,0.02-0.183-0.036-0.276c-0.097-0.16-0.329-0.16-0.426,0
	c-0.056,0.093-0.061,0.172-0.036,0.276C29.72,31.503,30.096,31.503,30.157,31.257"/>
<path fill="#5E5E5F" d="M30.917,32.003c-0.011-0.022-0.021-0.044-0.03-0.066c-0.051-0.109-0.239-0.109-0.289,0
	c-0.01,0.022-0.02,0.044-0.031,0.066C30.392,32.384,31.092,32.384,30.917,32.003"/>
<path fill="#5E5E5F" d="M28.575,31.404c0.027,0.001,0.056,0.002,0.083,0.003c0.174,0.006,0.174-0.276,0-0.27
	c-0.027,0.001-0.056,0.002-0.083,0.003C28.405,31.146,28.405,31.398,28.575,31.404"/>
<path fill="#5E5E5F" d="M30.268,29.678c0.021-0.009,0.042-0.018,0.062-0.027c0.354-0.149,0.119-0.605-0.172-0.639
	c-0.025-0.003-0.049-0.005-0.073-0.008C29.57,28.945,29.647,29.94,30.268,29.678"/>
<path fill="#5E5E5F" d="M30.825,30.436c0.212,0,0.212-0.328,0-0.328S30.613,30.436,30.825,30.436"/>
<path fill="#5E5E5F" d="M31.242,28.901c0.382,0,0.382-0.592,0-0.592S30.86,28.901,31.242,28.901"/>
<path fill="#5E5E5F" d="M31.742,27.805c0.257,0,0.257-0.398,0-0.398S31.485,27.805,31.742,27.805"/>
<path fill="#5E5E5F" d="M32.971,27.105c-0.001-0.028-0.002-0.056-0.003-0.083c-0.007-0.186-0.28-0.186-0.287,0
	c-0.001,0.027-0.002,0.055-0.003,0.083C32.671,27.294,32.978,27.294,32.971,27.105"/>
<path fill="#5E5E5F" d="M33.46,26.672c0.023,0.003,0.047,0.007,0.069,0.011c0.27,0.042,0.27-0.364,0-0.322
	c-0.022,0.003-0.046,0.007-0.069,0.01C33.312,26.396,33.312,26.649,33.46,26.672"/>
<path fill="#5E5E5F" d="M32.408,28.189c0.216,0,0.216-0.334,0-0.334S32.192,28.189,32.408,28.189"/>
<path fill="#5E5E5F" d="M31.742,29.83c0.182,0,0.182-0.281,0-0.281S31.56,29.83,31.742,29.83"/>
<path fill="#5E5E5F" d="M31.71,30.899c-0.154,0.046-0.112,0.3,0.067,0.255c0.025-0.005,0.048-0.011,0.072-0.017
	c0.057-0.014,0.093-0.069,0.095-0.126l0.003-0.072C31.954,30.802,31.75,30.775,31.71,30.899"/>
<path fill="#5E5E5F" d="M31.232,33.534c0.071,0.007,0.141-0.01,0.176-0.081c0.008-0.016,0.016-0.032,0.024-0.047
	c0.186-0.374-0.461-0.483-0.44-0.12c0.004,0.069,0.01,0.124,0.026,0.191C31.045,33.584,31.154,33.586,31.232,33.534 M31.292,33.514
	c-0.004-0.001-0.007-0.002-0.01-0.003C31.285,33.512,31.288,33.513,31.292,33.514"/>
<path fill="#5E5E5F" d="M30.242,34.008c-0.556,0-0.556,0.861,0,0.861S30.798,34.008,30.242,34.008"/>
<path fill="#5E5E5F" d="M31.658,35.212c0.245,0,0.245-0.381,0-0.381S31.413,35.212,31.658,35.212"/>
<path fill="#5E5E5F" d="M30.933,35.542c-0.01-0.022-0.02-0.044-0.03-0.066c-0.028-0.059-0.129-0.059-0.157,0
	c-0.01,0.022-0.02,0.044-0.03,0.066C30.606,35.779,31.043,35.779,30.933,35.542"/>
<path fill="#5E5E5F" d="M29.742,35.395c0.159,0,0.159-0.246,0-0.246S29.583,35.395,29.742,35.395"/>
<path fill="#5E5E5F" d="M28.825,36.042c-0.19,0-0.19,0.293,0,0.293C29.014,36.335,29.014,36.042,28.825,36.042"/>
<path fill="#5E5E5F" d="M26.825,35.557c-0.17,0-0.17,0.264,0,0.264S26.995,35.557,26.825,35.557"/>
<path fill="#5E5E5F" d="M32.363,34.022c-0.002-0.082-0.009-0.136-0.032-0.214c-0.053-0.17-0.293-0.17-0.346,0
	c-0.023,0.078-0.03,0.132-0.032,0.214C31.946,34.287,32.37,34.287,32.363,34.022"/>
<path fill="#5E5E5F" d="M32.742,35.199c0.121,0,0.121-0.187,0-0.187S32.621,35.199,32.742,35.199"/>
<path fill="#5E5E5F" d="M33.034,32.314c0.004-0.042,0.008-0.083,0.013-0.125c0.023-0.224-0.28-0.389-0.458-0.263
	c-0.035,0.024-0.07,0.049-0.105,0.073C31.875,32.425,32.953,33.071,33.034,32.314"/>
<path fill="#5E5E5F" d="M33.158,30.483c0.273,0,0.273-0.422,0-0.422C32.886,30.061,32.886,30.483,33.158,30.483"/>
<path fill="#5E5E5F" d="M31.658,32.11c-0.102,0-0.102,0.158,0,0.158C31.761,32.268,31.761,32.11,31.658,32.11"/>
<path fill="#5E5E5F" d="M32.408,29.79c0.238,0,0.238-0.369,0-0.369S32.17,29.79,32.408,29.79"/>
<path fill="#5E5E5F" d="M30.948,30.946c-0.118,0.071-0.111,0.076-0.201,0.197c-0.07,0.093,0.089,0.187,0.156,0.092
	c0.045-0.046,0.089-0.092,0.133-0.138C31.132,31.037,31.045,30.887,30.948,30.946"/>
<path fill="#5E5E5F" d="M33.528,31.662c0.433,0.197,0.842-0.366,0.4-0.625C33.515,30.794,33.135,31.484,33.528,31.662"/>
<path fill="#5E5E5F" d="M33.492,28.93c-0.227,0-0.227,0.352,0,0.352S33.719,28.93,33.492,28.93"/>
<path fill="#5E5E5F" d="M33.243,28.185c0.085,0.245,0.413,0.245,0.498,0c0.004-0.013,0.003-0.026,0.007-0.04
	c0.015-0.035,0.025-0.075,0.022-0.123c0-0.003,0-0.006-0.001-0.01c0.011-0.186-0.133-0.27-0.277-0.262
	c-0.145-0.008-0.288,0.076-0.277,0.262c-0.001,0.004-0.001,0.007-0.001,0.01c-0.003,0.048,0.006,0.088,0.022,0.123
	C33.24,28.159,33.239,28.171,33.243,28.185"/>
<path fill="#5E5E5F" d="M34.533,27.81c0.026,0.006,0.053,0.012,0.079,0.017c0.789,0.169,0.789-1.112,0-0.943
	c-0.026,0.005-0.053,0.011-0.079,0.017C34.081,26.997,34.081,27.714,34.533,27.81"/>
<path fill="#5E5E5F" d="M34.834,25.931c-0.003,0.001-0.006,0.001-0.01,0.002c0.207-0.023,0.207-0.3,0-0.322
	c0.004,0,0.007,0.001,0.01,0.002C34.487,25.435,34.487,26.108,34.834,25.931"/>
<path fill="#5E5E5F" d="M35.575,25.243c0.178,0,0.178-0.275,0-0.275C35.396,24.968,35.396,25.243,35.575,25.243"/>
<path fill="#5E5E5F" d="M35.825,27.52c0.212,0,0.212-0.328,0-0.328S35.613,27.52,35.825,27.52"/>
<path fill="#5E5E5F" d="M34.658,28.893c-0.166,0-0.166,0.258,0,0.258S34.824,28.893,34.658,28.893"/>
<path fill="#5E5E5F" d="M34.741,30.38c-0.048-0.04-0.1-0.074-0.154-0.103c-0.229-0.137-0.403,0.238-0.145,0.342
	c0.056,0.026,0.114,0.047,0.172,0.061C34.806,30.736,34.882,30.484,34.741,30.38"/>
<path fill="#5E5E5F" d="M35.658,29.77c0.212,0,0.212-0.328,0-0.328S35.446,29.77,35.658,29.77"/>
<path fill="#5E5E5F" d="M34.992,31.37c-0.196,0-0.196,0.305,0,0.305S35.188,31.37,34.992,31.37"/>
<path fill="#5E5E5F" d="M34.075,32.996c0.182,0,0.182-0.281,0-0.281S33.893,32.996,34.075,32.996"/>
<path fill="#5E5E5F" d="M32.992,33.031c-0.204,0-0.204,0.316,0,0.316S33.196,33.031,32.992,33.031"/>
<path fill="#5E5E5F" d="M33.25,34.512c0.067-0.028,0.134-0.057,0.201-0.085c0.186-0.051,0.131-0.299-0.043-0.316
	c-0.172-0.018-0.191-0.004-0.342,0.088C32.865,34.32,33.044,34.627,33.25,34.512"/>
<path fill="#5E5E5F" d="M34.141,34.517c-0.132,0.084-0.162,0.124-0.184,0.283c-0.041,0.302,0.394,0.356,0.409,0.055
	c0.005-0.008,0.011-0.017,0.016-0.026C34.563,34.691,34.328,34.396,34.141,34.517"/>
<path fill="#5E5E5F" d="M34.897,34.063c-0.009-0.04-0.022-0.071-0.041-0.107c-0.049-0.086-0.18-0.086-0.229,0
	c-0.019,0.036-0.032,0.067-0.041,0.107C34.53,34.323,34.954,34.323,34.897,34.063"/>
<path fill="#5E5E5F" d="M35.583,32.262c0.022-0.011,0.042-0.022,0.064-0.033c0.093-0.048,0.093-0.199,0-0.248
	c-0.022-0.011-0.042-0.022-0.064-0.032C35.243,31.773,35.243,32.438,35.583,32.262"/>
<path fill="#5E5E5F" d="M36.492,30.454c0.234,0,0.234-0.363,0-0.363S36.258,30.454,36.492,30.454"/>
<path fill="#5E5E5F" d="M37.158,29.354c0.105,0,0.105-0.164,0-0.164S37.053,29.354,37.158,29.354"/>
<path fill="#5E5E5F" d="M38.325,27.464c0.14,0,0.14-0.217,0-0.217S38.185,27.464,38.325,27.464"/>
<path fill="#5E5E5F" d="M36.492,28.347c0.204,0,0.204-0.316,0-0.316S36.288,28.347,36.492,28.347"/>
<path fill="#5E5E5F" d="M37.908,25.951c0.23,0,0.23-0.357,0-0.357S37.678,25.951,37.908,25.951"/>
<path fill="#5E5E5F" d="M37.492,27.542c-0.189,0-0.189,0.293,0,0.293S37.681,27.542,37.492,27.542"/>
<path fill="#5E5E5F" d="M38.075,28.933c0.208,0,0.208-0.322,0-0.322S37.867,28.933,38.075,28.933"/>
<path fill="#5E5E5F" d="M38.325,30.554c-0.174,0-0.174,0.27,0,0.27S38.499,30.554,38.325,30.554"/>
<path fill="#5E5E5F" d="M36.908,31.895c0.159,0,0.159-0.246,0-0.246S36.749,31.895,36.908,31.895"/>
<path fill="#5E5E5F" d="M37.178,30.936c-0.123,0.181,0.184,0.363,0.293,0.172c0.043-0.048,0.086-0.097,0.128-0.145
	c0.133-0.116-0.037-0.325-0.185-0.239C37.285,30.799,37.257,30.819,37.178,30.936"/>
<path fill="#5E5E5F" d="M36.158,32.971c0.257,0,0.257-0.398,0-0.398S35.901,32.971,36.158,32.971"/>
<path fill="#5E5E5F" d="M39.575,29.185c0.102,0,0.102-0.158,0-0.158S39.473,29.185,39.575,29.185"/>
<path fill="#5E5E5F" d="M36.742,26.689c0.216,0,0.216-0.334,0-0.334S36.526,26.689,36.742,26.689"/>
<path fill="#5E5E5F" d="M36.716,25.688c0.027-0.048,0.042-0.082,0.055-0.135c0.02-0.089-0.056-0.165-0.145-0.144
	c-0.053,0.012-0.087,0.027-0.135,0.054C36.254,25.599,36.584,25.924,36.716,25.688"/>
<path fill="#5E5E5F" d="M37.729,24.105c-0.001-0.014-0.003-0.028-0.004-0.042c-0.028-0.3-0.438-0.3-0.467,0
	c-0.001,0.014-0.003,0.028-0.004,0.042C37.225,24.412,37.758,24.412,37.729,24.105"/>
<path fill="#5E5E5F" d="M25.126,41.241c-0.211-0.315-0.47-0.59-0.655-0.922c-0.047-0.083-0.172-0.009-0.127,0.073
	c0.184,0.342,0.429,0.635,0.685,0.924C25.077,41.368,25.166,41.298,25.126,41.241"/>
<path fill="#5E5E5F" d="M27.848,43.541c0.138,0.06,0.257-0.143,0.119-0.203c-0.238-0.104-0.406-0.25-0.637-0.319
	c0.123-0.304,0.253-0.729-0.058-0.925c-0.437-0.273-1.025-0.15-1.488-0.395c-0.097-0.051-0.182,0.092-0.086,0.146
	c0.291,0.166,0.603,0.23,0.93,0.281c0.164,0.026,0.332,0.049,0.482,0.123c0.276,0.14,0.018,0.619-0.062,0.791
	c-0.044,0.095,0.01,0.181,0.11,0.191C27.422,43.264,27.616,43.438,27.848,43.541"/>
<path fill="#5E5E5F" d="M27.991,43.883c0.144,0,0.144-0.224,0-0.224S27.847,43.883,27.991,43.883"/>
<path fill="#5E5E5F" d="M38.369,37.588c2.126,1.378,3.399,3.371,4.251,5.718c0.055,0.15,0.285,0.092,0.242-0.068
	c-0.631-2.376-2.184-4.665-4.417-5.782C38.357,37.412,38.286,37.534,38.369,37.588"/>
<path fill="#5E5E5F" d="M43.046,45.105c-0.004-0.193-0.022-0.334-0.086-0.515c-0.024-0.067-0.132-0.038-0.107,0.03
	c0.063,0.156,0.09,0.318,0.082,0.484C42.937,45.177,43.047,45.177,43.046,45.105"/>
<path fill="#5E5E5F" d="M43.392,41.732c-0.308-0.535-0.496-1.229-1.13-1.456c-0.099-0.036-0.141,0.122-0.043,0.159
	c0.574,0.214,0.721,0.913,1.036,1.377C43.312,41.896,43.444,41.821,43.392,41.732"/>
<path fill="#5E5E5F" d="M43.611,43.382c0.056,0.083,0.11,0.167,0.165,0.251c0.039,0.06,0.137,0.003,0.096-0.056
	c-0.056-0.083-0.113-0.166-0.169-0.249C43.665,43.273,43.574,43.324,43.611,43.382"/>
<path fill="#5E5E5F" d="M43.993,43.436c0.022,0.038,0.045,0.075,0.068,0.112c0.022,0.111,0.202,0.086,0.196-0.026
	c-0.006-0.121-0.008-0.122-0.084-0.224C44.071,43.164,43.877,43.324,43.993,43.436"/>
<path fill="#5E5E5F" d="M36.157,36.671c-0.218-0.021-0.235,0.299-0.049,0.363c0.356,0.122,0.761,0.079,1.133,0.117
	c0.147,0.015,0.172-0.217,0.034-0.253C36.911,36.803,36.532,36.707,36.157,36.671"/>
<path fill="#5E5E5F" d="M33.991,37.055c0.257,0,0.257-0.398,0-0.398S33.734,37.055,33.991,37.055"/>
<path fill="#5E5E5F" d="M40.427,36.893c0.047,0.082,0.173,0.008,0.127-0.074c-0.299-0.529-0.806-0.751-1.397-0.763
	c-0.065-0.001-0.064,0.096,0,0.1C39.711,36.185,40.15,36.4,40.427,36.893"/>
<path fill="#5E5E5F" d="M42.407,38.984c-0.049,0-0.049,0.076,0,0.076S42.456,38.984,42.407,38.984"/>
<path fill="#5E5E5F" d="M36.54,54.792c-0.014,0.152-0.05,0.301-0.109,0.443c-0.036,0.082,0.074,0.151,0.121,0.072
	c0.099-0.172,0.138-0.296,0.143-0.494C36.697,54.726,36.553,54.704,36.54,54.792"/>
<path fill="#5E5E5F" d="M49.488,33.273c0.092,0.123,0.159,0.252,0.25,0.375c0.003,0.003,0.008,0,0.006-0.003
	c-0.092-0.123-0.159-0.252-0.25-0.375C49.491,33.268,49.486,33.271,49.488,33.273"/>
<path fill="#5E5E5F" d="M51.07,36.673c0.22,0.35,0.368,0.721,0.501,1.111c0.02,0.057,0.109,0.033,0.09-0.025
	c-0.133-0.401-0.277-0.777-0.499-1.139C51.126,36.563,51.034,36.615,51.07,36.673"/>
<path fill="#5E5E5F" d="M51.028,31.61c-0.052-0.043-0.127,0.031-0.074,0.074c1.083,0.9,1.482,2.214,1.977,3.48
	c0.029,0.073,0.149,0.041,0.119-0.033C52.543,33.85,52.13,32.516,51.028,31.61"/>
<path fill="#5E5E5F" d="M53.19,37.161c0.991,2.749,0.798,5.62,0.847,8.486c0.002,0.103,0.156,0.103,0.158,0
	c0.062-2.86,0.023-5.778-0.903-8.514C53.27,37.069,53.167,37.097,53.19,37.161"/>
<path fill="#5E5E5F" d="M53.051,29.611c-0.047-0.077-0.169-0.006-0.121,0.071c0.392,0.641,0.854,1.236,1.247,1.877
	c0.05,0.08,0.177,0.006,0.127-0.075C53.909,30.845,53.446,30.251,53.051,29.611"/>
<path fill="#5E5E5F" d="M55.706,37.147c0.025,0.296,0.115,0.576,0.134,0.875c0.002,0.034,0.053,0.034,0.053,0
	c-0.013-0.297-0.098-0.579-0.117-0.875C55.772,37.102,55.702,37.102,55.706,37.147"/>
<path fill="#5E5E5F" d="M56.343,34.16c0.083,0.181,0.131,0.352,0.256,0.503c0.019,0.024,0.052-0.009,0.033-0.033
	c-0.112-0.139-0.171-0.334-0.244-0.496C56.374,34.103,56.328,34.129,56.343,34.16"/>
<path fill="#5E5E5F" d="M56.912,39.147c0.026,0.261,0.109,0.507,0.145,0.767c0.009,0.068,0.124,0.051,0.121-0.017
	c-0.01-0.255-0.089-0.495-0.108-0.75C57.063,39.045,56.9,39.046,56.912,39.147"/>
<path fill="#5E5E5F" d="M57.307,28.431c1.054,1.909,1.887,3.852,2.392,5.978c0.012,0.055,0.095,0.031,0.084-0.024
	c-0.443-2.169-1.278-4.101-2.359-6.022C57.381,28.287,57.265,28.355,57.307,28.431"/>
<path fill="#5E5E5F" d="M59.889,36.55c0.224,0.855,0.232,1.72,0.246,2.597c0.002,0.136,0.209,0.136,0.211,0
	c0.015-0.897-0.018-1.782-0.254-2.653C60.057,36.363,59.855,36.419,59.889,36.55"/>
<path fill="#5E5E5F" d="M59.915,29.316c0.494,1.029,0.827,2.101,0.983,3.232c0.015,0.107,0.203,0.082,0.19-0.026
	c-0.132-1.161-0.504-2.251-1.021-3.295C60.017,29.125,59.866,29.214,59.915,29.316"/>
<path fill="#5E5E5F" d="M62.454,35.532c0.121,0.409,0.142,0.837,0.262,1.246c0.01,0.033,0.059,0.02,0.05-0.013
	c-0.113-0.412-0.125-0.841-0.238-1.254C62.515,35.464,62.439,35.485,62.454,35.532"/>
<path fill="#5E5E5F" d="M62.616,38.783c-0.147,0-0.147,0.229,0,0.229S62.763,38.783,62.616,38.783"/>
<path fill="#5E5E5F" d="M63.215,32.154c0.362,2.418,0.861,4.79,0.617,7.243c-0.017,0.177,0.286,0.218,0.311,0.042
	c0.351-2.515-0.456-4.847-0.877-7.299C63.26,32.107,63.21,32.121,63.215,32.154"/>
<path fill="#5E5E5F" d="M68.456,43.085c-0.025,0.045,0.045,0.086,0.07,0.041c1.691-3.011,4.641-4.625,7.574-6.229
	c0.055-0.03,0.006-0.116-0.051-0.086C73.023,38.426,70.122,39.93,68.456,43.085"/>
<path fill="#5E5E5F" d="M81.901,43.779c0.104,0.09,0.052,0.07,0.173,0.086c0.011,0,0.011-0.017,0-0.019
	c-0.054-0.026-0.108-0.054-0.161-0.081C81.905,43.758,81.892,43.771,81.901,43.779"/>
<path fill="#5E5E5F" d="M86.736,45.027c-0.245-0.251-0.397-0.525-0.506-0.857c-0.03-0.094-0.171-0.057-0.146,0.039
	c0.092,0.371,0.246,0.685,0.493,0.976C86.67,45.292,86.836,45.13,86.736,45.027"/>
<path fill="#5E5E5F" d="M76.787,28.919c0.331,0.939,0.455,1.898,0.637,2.872c0.014,0.078,0.143,0.06,0.137-0.019
	c-0.067-0.993-0.271-1.962-0.616-2.897C76.909,28.777,76.751,28.818,76.787,28.919"/>
<path fill="#5E5E5F" d="M78.03,27.447c0.468,0.863,0.7,1.766,0.859,2.728c0.02,0.117,0.219,0.09,0.207-0.028
	c-0.102-0.996-0.401-1.929-0.894-2.801C78.138,27.235,77.968,27.334,78.03,27.447"/>
<path fill="#5E5E5F" d="M40.241,23.755c0.982,0.046,1.559,0.798,2.19,1.452c0.066,0.068,0.191-0.024,0.133-0.103
	c-0.575-0.8-1.278-1.533-2.323-1.566C40.1,23.534,40.102,23.75,40.241,23.755"/>
<path fill="#5E5E5F" d="M43.443,24.445c0.05,0.058,0.152-0.021,0.106-0.082c-0.38-0.496-0.9-0.787-1.402-1.144
	c-0.065-0.047-0.125,0.059-0.062,0.106C42.557,23.68,43.057,23.99,43.443,24.445"/>
<path fill="#5E5E5F" d="M46.208,24.43c0.046,0.039,0.113-0.028,0.066-0.066c-0.75-0.613-1.55-1.143-2.39-1.623
	c-0.039-0.022-0.074,0.039-0.035,0.061C44.678,23.285,45.468,23.816,46.208,24.43"/>
<path fill="#5E5E5F" d="M48.343,26.295c0.03,0.028,0.073-0.015,0.045-0.046c-0.228-0.246-0.46-0.47-0.752-0.638
	c-0.046-0.025-0.087,0.045-0.041,0.072C47.876,25.847,48.104,26.076,48.343,26.295"/>
<path fill="#5E5E5F" d="M44.575,32.67c0.277,0.388,0.603,0.736,0.889,1.118c0.023,0.032,0.078,0.003,0.054-0.032
	c-0.262-0.397-0.591-0.743-0.861-1.133C44.622,32.573,44.541,32.622,44.575,32.67"/>
<path fill="#5E5E5F" d="M47.718,20.979c1.82,0.717,3.43,1.455,4.814,2.876c0.107,0.108,0.269-0.056,0.166-0.166
	c-1.377-1.481-3.064-2.207-4.935-2.874C47.658,20.778,47.618,20.94,47.718,20.979"/>
<path fill="#5E5E5F" d="M54.3,23.311c0.058,0.077,0.188,0.004,0.131-0.077c-0.66-0.938-1.505-1.744-2.53-2.272
	c-0.08-0.042-0.152,0.078-0.071,0.121C52.832,21.613,53.623,22.413,54.3,23.311"/>
<path fill="#5E5E5F" d="M56.215,18.74c1.311,0.295,2.027,1.446,2.547,2.592c0.063,0.141,0.27,0.019,0.207-0.121
	c-0.544-1.212-1.314-2.382-2.703-2.658C56.146,18.53,56.092,18.712,56.215,18.74"/>
<path fill="#5E5E5F" d="M60.421,20.864c-0.361-0.71-0.77-1.383-1.265-2.009c-0.047-0.059-0.128,0.025-0.082,0.083
	c0.485,0.621,0.882,1.288,1.236,1.991C60.347,21.004,60.459,20.938,60.421,20.864"/>
<path fill="#5E5E5F" d="M70.723,24.052c0.032,0.022,0.074-0.03,0.043-0.055c-0.373-0.292-0.664-0.67-0.992-1.009
	c-0.042-0.043-0.109,0.023-0.067,0.067C70.039,23.401,70.325,23.779,70.723,24.052"/>
<path fill="#5E5E5F" d="M79.235,24.703c-0.099-0.146-0.337-0.01-0.238,0.139c0.274,0.412,0.55,0.798,0.909,1.14
	c0.113,0.108,0.271-0.054,0.17-0.17C79.768,25.461,79.495,25.089,79.235,24.703"/>
<path fill="#5E5E5F" d="M77.833,17.769c0.158,0.034,0.226-0.21,0.066-0.243c-2.297-0.483-4.624-0.321-6.925,0.059
	c-0.082,0.014-0.046,0.137,0.035,0.124C73.285,17.37,75.568,17.284,77.833,17.769"/>
<path fill="#5E5E5F" d="M92.491,25.006c-0.752-0.016-1.482-0.218-2.225-0.331c-0.123-0.018-0.18,0.166-0.051,0.193
	c0.76,0.158,1.494,0.394,2.275,0.419C92.672,25.293,92.672,25.01,92.491,25.006"/>
<path fill="#5E5E5F" d="M96.396,26.037c-0.583-0.185-1.162-0.364-1.724-0.611c-0.129-0.056-0.242,0.123-0.113,0.193
	c0.568,0.307,1.16,0.563,1.807,0.643C96.499,26.278,96.512,26.074,96.396,26.037"/>
<path fill="#5E5E5F" d="M112.218,26.355c1.687,0.897,2.464-3.273,0.315-2.293c-0.27,0.123-0.062,0.484,0.188,0.444
	c0.505-0.081,0.638,0.129,0.517,0.608c-0.076,0.308-0.381,0.89-0.776,0.681c-0.771-0.41-0.728-1.588-0.216-2.15
	c0.652-0.711,1.724-0.703,2.347,0.024c0.067,0.079,0.198-0.024,0.144-0.11c-0.705-1.062-2.078-1.117-2.959-0.221
	C110.952,24.174,111.161,25.793,112.218,26.355"/>
<path fill="#5E5E5F" d="M114.489,26.734c0.047-0.197-0.199-0.281-0.311-0.131c-1.28,1.718-3.758,0.5-4.795-0.948
	c-0.051-0.07-0.156-0.01-0.117,0.068C110.045,27.268,113.815,29.544,114.489,26.734"/>
<path fill="#5E5E5F" d="M114.664,28.145c-0.058,0.213,0.245,0.285,0.321,0.089c0.033-0.082,0.066-0.164,0.098-0.246
	c0.085-0.215-0.287-0.326-0.35-0.097C114.709,27.976,114.686,28.061,114.664,28.145"/>
<path fill="#5E5E5F" d="M115.908,28.642c-0.062,0-0.062,0.094,0,0.094S115.969,28.642,115.908,28.642"/>
<path fill="#5E5E5F" d="M115.064,38.243c0.192,0.307,0.427,0.437,0.788,0.383c0.107-0.016,0.1-0.186,0-0.209
	c-0.254-0.059-0.438-0.097-0.617-0.305C115.153,38.017,115,38.14,115.064,38.243"/>
<path fill="#5E5E5F" d="M116.287,38.382c0.026-0.057,0.054-0.112,0.08-0.169s-0.058-0.107-0.086-0.05
	c-0.028,0.055-0.056,0.111-0.087,0.165C116.164,38.389,116.257,38.442,116.287,38.382"/>
<path fill="#5E5E5F" d="M116.68,38.271c0.072,0.084,0.146,0.168,0.221,0.251c0.004,0.117,0.189,0.117,0.18,0
	c-0.021-0.298-0.127-0.48-0.445-0.415C116.528,38.128,116.573,38.291,116.68,38.271"/>
<path fill="#5E5E5F" d="M128.903,39.675c0.104,0.033,0.165-0.121,0.072-0.172c-0.766-0.427-1.153-1.118-1.686-1.78
	c-0.049-0.059-0.152,0.021-0.107,0.082C127.678,38.476,128.051,39.399,128.903,39.675"/>
<path fill="#5E5E5F" d="M115.716,27.975c-0.03-0.033-0.06-0.065-0.09-0.098c-0.027-0.069-0.121-0.076-0.146,0
	c-0.041,0.118-0.072,0.149-0.064,0.27C115.44,28.556,116.063,28.215,115.716,27.975"/>
</svg>
