<?xml version="1.0" encoding="utf-8"?>
<!-- Generator: Adobe Illustrator 14.0.0, SVG Export Plug-In . SVG Version: 6.00 Build 43363)  -->
<!DOCTYPE svg PUBLIC "-//W3C//DTD SVG 1.1//EN" "http://www.w3.org/Graphics/SVG/1.1/DTD/svg11.dtd">
<svg version="1.1" id="Ebene_1" xmlns="http://www.w3.org/2000/svg" xmlns:xlink="http://www.w3.org/1999/xlink" x="0px" y="0px"
	 width="126.39px" height="234.226px" viewBox="0 0 126.39 234.226" enable-background="new 0 0 126.39 234.226"
	 xml:space="preserve">
<path fill="#5E5E5F" d="M66.308,76.33c0.672-1.065,0.891-2.02,0.988-3.256c0.32-4.029-5.016-4.664-3.29-9.399
	c0.034-0.094-0.119-0.159-0.161-0.068c-2.001,4.329,1.934,5.24,2.386,9.467c0.227,2.12-2.266,4.614-2.502,6.914
	c-0.156,1.541,0.64,2.831,1.584,3.939c0.177,0.207,0.543-0.012,0.455-0.265C64.837,80.945,64.654,78.955,66.308,76.33"/>
<path fill="#5E5E5F" d="M66.089,85.081c0.34,0,0.34-0.527,0-0.527C65.749,84.554,65.749,85.081,66.089,85.081"/>
<path fill="#5E5E5F" d="M67.246,86.786c0.01-0.025,0.02-0.05,0.027-0.076c0.311-0.86-1.342-0.86-1.033,0
	c0.01,0.026,0.018,0.051,0.027,0.076C66.439,87.269,67.072,87.269,67.246,86.786"/>
<path fill="#5E5E5F" d="M67.339,87.786c-0.578,0-0.578,0.896,0,0.896S67.917,87.786,67.339,87.786"/>
<path fill="#5E5E5F" d="M67.757,89.241c-0.529,0-0.529,0.82,0,0.82C68.285,90.061,68.285,89.241,67.757,89.241"/>
<path fill="#5E5E5F" d="M67.839,90.902c-0.32,0-0.32,0.498,0,0.498S68.16,90.902,67.839,90.902"/>
<path fill="#5E5E5F" d="M67.515,92.659c0.016,0.02,0.029,0.039,0.043,0.058c0.063,0.084,0.166,0.084,0.229,0
	c0.014-0.019,0.029-0.038,0.043-0.058C68.076,92.325,67.271,92.325,67.515,92.659"/>
<path fill="#5E5E5F" d="M67.339,93.737c-0.213,0-0.213,0.328,0,0.328S67.552,93.737,67.339,93.737"/>
<path fill="#5E5E5F" d="M66.603,95.254c0.01,0.018,0.018,0.029,0.033,0.04c0.021,0.014,0.039,0.029,0.061,0.043
	c0.055,0.041,0.129,0.006,0.164-0.043c0.01-0.013,0.018-0.026,0.025-0.04C67.076,94.982,66.431,94.916,66.603,95.254"/>
<path fill="#5E5E5F" d="M66.089,96.405c-0.104,0-0.104,0.158,0,0.158C66.191,96.563,66.191,96.405,66.089,96.405"/>
<path fill="#5E5E5F" d="M65.921,98.218c0.088,0,0.088-0.135,0-0.135C65.835,98.083,65.835,98.218,65.921,98.218"/>
<path fill="#5E5E5F" d="M78.156,86.232c0.043-2.872,0.543-4.808,2.988-6.718c0.992-0.775,1.521-1.599,2.031-2.728
	c1.666-3.684-3.145-6.087,0.084-9.959c0.064-0.076-0.059-0.19-0.129-0.118c-3.348,3.397,0.047,5.585-0.957,9.715
	C81.669,78.497,78.48,80,77.48,82.085c-0.67,1.397-0.357,2.879,0.158,4.242C77.732,86.581,78.152,86.5,78.156,86.232"/>
<path fill="#5E5E5F" d="M78.156,87.179c-0.32-0.114-0.498,0.382-0.18,0.497C78.296,87.79,78.474,87.294,78.156,87.179"/>
<path fill="#5E5E5F" d="M77.568,89.259c-0.002,0.027-0.002,0.054,0,0.081c-0.002,0.513,0.596,0.727,0.92,0.331
	c0.018-0.02,0.035-0.042,0.053-0.062C79.123,88.905,77.568,88.346,77.568,89.259"/>
<path fill="#5E5E5F" d="M78.238,90.643c-0.545-0.195-0.848,0.648-0.303,0.844C78.48,91.683,78.783,90.839,78.238,90.643"/>
<path fill="#5E5E5F" d="M78.138,92.155c-0.498-0.18-0.775,0.592-0.277,0.772C78.359,93.105,78.636,92.334,78.138,92.155"/>
<path fill="#5E5E5F" d="M77.486,94.214c0.303,0.108,0.471-0.36,0.168-0.469C77.353,93.637,77.183,94.106,77.486,94.214"/>
<path fill="#5E5E5F" d="M76.755,95.29c0.008,0.023,0.014,0.046,0.02,0.069c0.031,0.101,0.129,0.136,0.217,0.077
	c0.02-0.013,0.039-0.027,0.059-0.04C77.394,95.165,76.638,94.893,76.755,95.29"/>
<path fill="#5E5E5F" d="M76.226,96.245c-0.201-0.072-0.313,0.236-0.111,0.309C76.314,96.625,76.425,96.316,76.226,96.245"/>
<path fill="#5E5E5F" d="M75.078,97.533c0.039,0.058,0.121,0.05,0.168,0.015c0.016-0.009,0.027-0.018,0.041-0.029
	c0.268-0.192-0.316-0.473-0.268-0.095c0.002,0.019,0.006,0.033,0.018,0.05C75.052,97.493,75.064,97.512,75.078,97.533"/>
<path fill="#5E5E5F" d="M74.146,98.333c-0.096-0.035-0.148,0.113-0.053,0.148C74.189,98.516,74.242,98.367,74.146,98.333"/>
<path fill="#5E5E5F" d="M73.421,99.855c-0.082-0.029-0.129,0.098-0.047,0.127S73.503,99.884,73.421,99.855"/>
<path fill="#5E5E5F" d="M88.943,92.84c1.012-2.688,2.137-4.34,5.084-5.311c1.195-0.393,1.973-0.991,2.834-1.88
	c2.813-2.904-0.898-6.791,3.447-9.343c0.088-0.05,0.01-0.198-0.08-0.155c-4.299,2.064-1.846,5.271-4.188,8.819
	c-1.176,1.78-4.686,2.115-6.332,3.739c-1.102,1.088-1.309,2.589-1.285,4.045C88.427,93.026,88.849,93.091,88.943,92.84"/>
<path fill="#5E5E5F" d="M88.623,93.732c-0.264-0.216-0.598,0.19-0.338,0.407C88.548,94.355,88.882,93.949,88.623,93.732"/>
<path fill="#5E5E5F" d="M88.091,96.19c0.023-0.014,0.047-0.027,0.07-0.041c0.787-0.466-0.488-1.518-0.797-0.658
	c-0.01,0.025-0.02,0.051-0.027,0.076C87.164,96.049,87.652,96.452,88.091,96.19"/>
<path fill="#5E5E5F" d="M87.529,97.019c-0.449-0.368-1.018,0.324-0.572,0.692C87.404,98.08,87.974,97.389,87.529,97.019"/>
<path fill="#5E5E5F" d="M86.923,98.409c-0.408-0.338-0.932,0.294-0.523,0.632C86.808,99.377,87.332,98.745,86.923,98.409"/>
<path fill="#5E5E5F" d="M85.929,99.742c-0.246-0.204-0.564,0.18-0.316,0.384C85.861,100.331,86.177,99.946,85.929,99.742"/>
<path fill="#5E5E5F" d="M84.56,100.89c0,0.024-0.002,0.048-0.004,0.072c-0.006,0.106,0.074,0.171,0.178,0.146
	c0.023-0.006,0.045-0.012,0.068-0.018C85.205,100.989,84.585,100.477,84.56,100.89"/>
<path fill="#5E5E5F" d="M83.74,101.61c-0.166-0.136-0.375,0.117-0.209,0.254C83.693,101.998,83.902,101.745,83.74,101.61"/>
<path fill="#5E5E5F" d="M82.376,102.504c0.02-0.003,0.031-0.007,0.049-0.013c0.316-0.091-0.137-0.552-0.221-0.18
	c-0.004,0.019-0.006,0.033,0,0.052c0.008,0.024,0.012,0.047,0.018,0.071C82.24,102.501,82.32,102.522,82.376,102.504"/>
<path fill="#5E5E5F" d="M81.076,102.872c-0.078-0.065-0.178,0.057-0.1,0.122S81.154,102.936,81.076,102.872"/>
<path fill="#5E5E5F" d="M79.878,104.059c-0.066-0.056-0.152,0.049-0.086,0.104C79.861,104.218,79.945,104.114,79.878,104.059"/>
<path fill="#5E5E5F" d="M96.857,102.708c1.861-2.186,3.479-3.361,6.582-3.277c1.258,0.034,2.191-0.266,3.303-0.812
	c3.629-1.78,1.451-6.695,6.406-7.625c0.098-0.017,0.074-0.183-0.023-0.174c-4.744,0.489-3.521,4.336-6.924,6.883
	c-1.709,1.277-5.125,0.406-7.225,1.377c-1.404,0.65-2.107,1.993-2.578,3.371C96.31,102.708,96.685,102.914,96.857,102.708"/>
<path fill="#5E5E5F" d="M96.255,103.439c-0.176-0.292-0.627-0.022-0.457,0.268C95.974,104,96.427,103.731,96.255,103.439"/>
<path fill="#5E5E5F" d="M94.923,105.573c0.027-0.005,0.055-0.01,0.08-0.016c0.898-0.171,0.055-1.592-0.527-0.888
	c-0.02,0.02-0.035,0.042-0.051,0.062C94.099,105.127,94.421,105.671,94.923,105.573"/>
<path fill="#5E5E5F" d="M94.113,106.163c-0.297-0.498-1.066-0.039-0.771,0.458C93.636,107.12,94.408,106.662,94.113,106.163"/>
<path fill="#5E5E5F" d="M93.074,107.266c-0.27-0.457-0.977-0.039-0.705,0.417C92.638,108.138,93.345,107.719,93.074,107.266"/>
<path fill="#5E5E5F" d="M91.259,108.437c0.164,0.278,0.592,0.023,0.428-0.253C91.525,107.908,91.095,108.162,91.259,108.437"/>
<path fill="#5E5E5F" d="M90.169,109.072c0.414,0.04,0.004-0.65-0.158-0.27c-0.01,0.023-0.02,0.043-0.029,0.066
	c-0.041,0.098,0.014,0.186,0.119,0.197C90.125,109.067,90.148,109.069,90.169,109.072"/>
<path fill="#5E5E5F" d="M88.996,109.201c-0.111-0.184-0.393-0.017-0.283,0.168C88.82,109.551,89.103,109.384,88.996,109.201"/>
<path fill="#5E5E5F" d="M87.314,109.341c-0.012,0.017-0.018,0.029-0.02,0.05c0,0.024-0.002,0.048-0.006,0.072
	c-0.006,0.069,0.063,0.115,0.121,0.118c0.018,0.003,0.031,0.004,0.051,0.005C87.789,109.608,87.519,109.02,87.314,109.341"/>
<path fill="#5E5E5F" d="M85.925,109.569c0.053,0.086,0.188,0.006,0.137-0.082C86.009,109.399,85.875,109.48,85.925,109.569"/>
<path fill="#5E5E5F" d="M84.417,110.268c0.045,0.075,0.16,0.006,0.115-0.068C84.49,110.124,84.373,110.194,84.417,110.268"/>
<path fill="#5E5E5F" d="M120.296,108.989c-4.629-1.146-4.779,2.889-8.844,4.135c-2.039,0.623-4.959-1.352-7.264-1.149
	c-1.541,0.137-2.658,1.163-3.566,2.3c-0.17,0.212,0.113,0.532,0.346,0.398c2.49-1.429,4.41-1.987,7.301-0.858
	c1.174,0.457,2.152,0.491,3.385,0.354c4.016-0.449,3.629-5.81,8.607-5.009C120.359,109.176,120.392,109.012,120.296,108.989"/>
<path fill="#5E5E5F" d="M99.634,115.254c0.064,0.335,0.582,0.234,0.521-0.099C100.087,114.821,99.572,114.922,99.634,115.254"/>
<path fill="#5E5E5F" d="M98.064,115.711c-0.025,0.013-0.049,0.027-0.068,0.041c-0.441,0.262-0.322,0.883,0.184,0.961
	c0.029,0.005,0.053,0.009,0.08,0.012C99.164,116.869,98.849,115.246,98.064,115.711"/>
<path fill="#5E5E5F" d="M97.216,116.995c-0.111-0.569-0.99-0.398-0.881,0.17C96.445,117.734,97.326,117.563,97.216,116.995"/>
<path fill="#5E5E5F" d="M95.06,117.835c0.1,0.521,0.908,0.364,0.805-0.154C95.765,117.16,94.96,117.314,95.06,117.835"/>
<path fill="#5E5E5F" d="M94.25,118.076c-0.061-0.314-0.549-0.222-0.488,0.094C93.822,118.487,94.312,118.391,94.25,118.076"/>
<path fill="#5E5E5F" d="M92.464,118.09c-0.018,0.02-0.033,0.034-0.051,0.053c-0.07,0.077-0.049,0.18,0.045,0.225
	c0.023,0.011,0.043,0.02,0.064,0.031C92.898,118.575,92.746,117.788,92.464,118.09"/>
<path fill="#5E5E5F" d="M91.05,118.184c0.039,0.207,0.363,0.146,0.322-0.061C91.332,117.913,91.009,117.974,91.05,118.184"/>
<path fill="#5E5E5F" d="M89.744,117.686c-0.018,0.012-0.027,0.021-0.035,0.041c-0.008,0.021-0.021,0.043-0.031,0.064
	c-0.027,0.063,0.02,0.129,0.074,0.152c0.014,0.01,0.029,0.014,0.047,0.021C90.097,118.097,90.044,117.453,89.744,117.686"/>
<path fill="#5E5E5F" d="M88.359,117.43c0.021,0.099,0.176,0.068,0.156-0.031C88.496,117.299,88.341,117.329,88.359,117.43"/>
<path fill="#5E5E5F" d="M86.705,117.579c0.016,0.086,0.148,0.059,0.131-0.025C86.82,117.468,86.687,117.493,86.705,117.579"/>
<path fill="#5E5E5F" d="M126.244,113.958c0.113-0.943-0.064-1.828-0.441-2.65c-0.535-1.773-2.389-3.51-3.607-4.646
	c-0.754-0.704-1.639-1.211-2.586-1.574c-1.465-0.818-3.076-1.278-4.727-1.164c-1.408,0.1-2.389,0.412-3.621,1.055
	c-1.998,1.041-2.85,0.878-4.424-0.039c2.137-0.142,4.455,0.008,6.107-1.786c0.854-0.927,1.918-2.067,1.83-3.459
	c-0.049-0.76-0.111-1.194-0.285-1.937c-0.449-1.929-0.051-3.696,1.113-4.615c0.627-0.286,1.27-0.479,2.035-0.478
	c1.699,0.003,2.49,1.568,3.396,2.732c0.059,0.076,0.197,0.038,0.168-0.069c-0.197-0.667-0.455-1.299-0.803-1.842
	c-0.211-0.934-0.686-1.712-1.328-2.363c-1.111-1.476-3.424-2.479-4.949-3.134c-0.947-0.407-1.953-0.584-2.967-0.606
	c-1.656-0.273-3.328-0.161-4.842,0.505c-1.291,0.569-2.107,1.194-3.051,2.217c-1.527,1.655-2.383,1.79-4.174,1.459
	c1.961-0.855,4.193-1.499,5.143-3.746c0.488-1.162,1.105-2.594,0.551-3.875c-0.305-0.699-0.508-1.085-0.924-1.726
	c-1.076-1.664-1.299-3.462-0.51-4.721c0.49-0.48,1.029-0.879,1.75-1.137c1.602-0.572,2.875,0.633,4.121,1.422
	c0.08,0.052,0.199-0.031,0.135-0.121c-0.412-0.56-0.867-1.068-1.377-1.462c-0.52-0.812-1.234-1.387-2.064-1.782
	c-1.547-1.006-4.053-1.167-5.703-1.267c-1.029-0.063-2.035,0.11-2.996,0.433c-1.65,0.303-3.188,0.973-4.387,2.113
	c-1.023,0.972-1.58,1.837-2.121,3.118c-0.877,2.074-1.639,2.491-3.436,2.785c1.557-1.468,3.439-2.829,3.572-5.264
	c0.068-1.26,0.164-2.816-0.791-3.833c-0.521-0.556-0.846-0.849-1.453-1.312c-1.574-1.202-2.395-2.818-2.078-4.27
	c0.299-0.618,0.672-1.176,1.264-1.662c1.313-1.08,2.918-0.377,4.359-0.056c0.092,0.021,0.176-0.097,0.084-0.16
	c-0.578-0.388-1.176-0.712-1.789-0.909c-0.76-0.586-1.621-0.884-2.531-0.978c-1.797-0.43-4.217,0.269-5.811,0.735
	c-0.99,0.288-1.877,0.792-2.674,1.422c-1.449,0.843-2.668,1.993-3.412,3.471c-0.635,1.262-0.865,2.265-0.941,3.652
	c-0.125,2.249-0.699,2.899-2.291,3.784c0.969-1.909,2.281-3.827,1.58-6.162c-0.361-1.209-0.795-2.706-2.041-3.339
	c-0.496-0.254-0.848-0.412-1.285-0.568c-0.365-1.226-0.578-2.478-0.746-3.739c0.115-1.021,0.182-2.068,0.197-3.136
	c0.451-0.049,0.904-0.081,1.334-0.135c0.094-0.012,0.131-0.152,0.025-0.178c-0.453-0.115-0.904-0.197-1.348-0.235
	c0.002-0.98-0.039-1.966-0.1-2.951c0.182-1.955,0.156-3.924,0.154-5.894c2.334,0.005,5.229-0.009,6.414-2.004
	c2.301-3.88,0.084-8.534-1.172-12.41c-2.135-6.584-3.533-13.362-6.053-19.83C67.757,10.548,66.177,5.63,65.341,0.23
	c-0.04-0.262-0.364-0.289-0.534-0.14c-0.17-0.149-0.493-0.122-0.534,0.14c-0.837,5.4-2.419,10.318-4.4,15.405
	c-2.519,6.468-3.919,13.246-6.053,19.83c-1.255,3.876-3.471,8.53-1.17,12.41c1.183,1.995,4.079,2.009,6.414,2.004
	c-0.002,1.97-0.029,3.939,0.154,5.894c-0.135,2.152-0.129,4.312,0.082,6.361c-0.025,0.22-0.051,0.441-0.073,0.659
	c-0.069,0.632-0.186,1.278-0.188,1.909c-0.621,0.998-1.048,2.093-1.189,3.263c-0.171,1.402-0.05,2.423,0.347,3.754
	c0.733,2.45,0.223,3.156-1.404,4.926c-1.173,1.275-1.6,2.769-1.46,4.269c-2.742-2.788,0.531-7.291-2.215-10.504
	c-0.817-0.955-1.824-2.149-3.218-2.224c-0.76-0.042-1.196-0.033-1.956,0.054c-1.969,0.216-3.677-0.389-4.452-1.657
	c-0.209-0.654-0.323-1.315-0.23-2.076c0.205-1.683,1.851-2.286,3.115-3.05c0.081-0.046,0.061-0.188-0.048-0.172
	c-0.685,0.117-1.344,0.296-1.924,0.577c-0.97,0.103-1.813,0.492-2.545,1.068c-1.578,0.941-2.835,3.089-3.661,4.513
	c-0.516,0.891-0.81,1.867-0.953,2.871c-0.468,1.612-0.555,3.287-0.072,4.872c0.413,1.348,0.937,2.234,1.84,3.29
	c1.46,1.711,1.491,2.581,0.953,4.316c-0.616-2.049-0.992-4.34-3.11-5.549c-1.094-0.622-2.443-1.406-3.781-1.005
	c-0.729,0.218-1.135,0.374-1.822,0.713c-1.779,0.869-3.592,0.878-4.749-0.053c-0.418-0.545-0.75-1.128-0.921-1.875
	c-0.377-1.654,0.97-2.779,1.901-3.924c0.06-0.072-0.007-0.199-0.103-0.147c-0.606,0.343-1.165,0.734-1.616,1.195
	c-0.87,0.421-1.527,1.063-2.019,1.842c-1.18,1.416-1.637,3.88-1.934,5.508c-0.186,1.013-0.131,2.031,0.074,3.024
	c0.104,1.675,0.589,3.281,1.579,4.61c0.846,1.129,1.639,1.785,2.844,2.475c1.954,1.116,2.278,1.923,2.357,3.739
	c-1.272-1.719-2.4-3.75-4.803-4.171c-1.241-0.214-2.776-0.496-3.898,0.334c-0.613,0.452-0.942,0.736-1.475,1.287
	c-1.381,1.42-3.082,2.041-4.484,1.558c-0.579-0.372-1.09-0.809-1.503-1.455c-0.913-1.428-0.028-2.942,0.461-4.335
	c0.033-0.088-0.073-0.184-0.146-0.103c-0.455,0.528-0.848,1.084-1.117,1.671c-0.664,0.678-1.06,1.489-1.262,2.37
	c-0.655,1.733-0.244,4.238,0.03,5.884c0.17,1.016,0.563,1.957,1.095,2.822c0.665,1.541,1.663,2.887,3.044,3.802
	c1.177,0.776,2.144,1.126,3.513,1.367c2.215,0.389,2.794,1.039,3.483,2.721c-1.779-1.188-3.528-2.717-5.93-2.3
	c-1.24,0.218-2.781,0.473-3.558,1.633c-0.424,0.633-0.638,1.011-0.951,1.71c-0.817,1.803-2.211,2.963-3.694,2.982
	c-0.67-0.154-1.297-0.392-1.905-0.859c-1.343-1.035-1.023-2.759-1.033-4.237c0.002-0.093-0.132-0.147-0.172-0.046
	c-0.25,0.649-0.431,1.306-0.486,1.948c-0.396,0.864-0.494,1.761-0.388,2.658c-0.028,1.853,1.206,4.071,2.021,5.527
	c0.504,0.9,1.192,1.653,1.984,2.288c1.148,1.225,2.542,2.152,4.15,2.547c1.372,0.332,2.399,0.334,3.769,0.098
	c2.217-0.384,2.981,0.032,4.198,1.382c-2.076-0.515-4.238-1.362-6.358-0.157c-1.094,0.625-2.457,1.385-2.795,2.739
	c-0.186,0.738-0.258,1.168-0.315,1.931c-0.162,1.976-1.08,3.539-2.474,4.059c-0.682,0.08-1.352,0.068-2.077-0.167
	c-1.616-0.519-1.897-2.249-2.406-3.638c-0.03-0.088-0.174-0.092-0.178,0.016c-0.017,0.697,0.034,1.378,0.201,2.002
	c-0.08,0.943,0.13,1.82,0.534,2.629c0.6,1.752,2.512,3.422,3.772,4.518c0.778,0.676,1.683,1.15,2.643,1.48
	c1.493,0.764,3.119,1.165,4.766,0.992c1.402-0.15,2.37-0.497,3.579-1.182c1.957-1.112,2.815-0.979,4.418-0.121
	c-2.128,0.218-4.448,0.151-6.036,2.002c-0.818,0.959-1.844,2.136-1.703,3.524c0.073,0.759,0.151,1.187,0.354,1.925
	c0.518,1.912,0.182,3.693-0.953,4.654c-0.613,0.307-1.249,0.521-2.014,0.547c-1.695,0.059-2.544-1.475-3.494-2.609
	c-0.057-0.072-0.195-0.028-0.162,0.076c0.222,0.659,0.499,1.282,0.867,1.813c0.244,0.916,0.738,1.669,1.391,2.293
	c1.155,1.447,3.522,2.372,5.078,2.977c0.963,0.375,1.978,0.516,2.993,0.5c1.662,0.213,3.326,0.041,4.816-0.679
	c1.269-0.616,2.063-1.271,2.968-2.323c1.466-1.707,2.319-1.873,4.118-1.607c-1.929,0.924-4.137,1.646-5.004,3.925
	c-0.446,1.181-1.013,2.634-0.41,3.894c0.326,0.688,0.545,1.065,0.983,1.69c1.135,1.625,1.422,3.416,0.679,4.703
	c-0.475,0.497-0.998,0.914-1.709,1.196c-1.577,0.629-2.896-0.527-4.17-1.273c-0.08-0.05-0.196,0.039-0.129,0.125
	c0.432,0.547,0.903,1.039,1.431,1.413c0.538,0.778,1.256,1.321,2.082,1.687c1.578,0.971,4.119,1.041,5.788,1.084
	c1.032,0.026,2.033-0.185,2.983-0.541c1.638-0.363,3.146-1.088,4.304-2.269c0.985-1.011,1.512-1.892,2.008-3.19
	c0.801-2.104,1.547-2.548,3.331-2.906c-1.503,1.522-3.336,2.951-3.382,5.387c-0.021,1.261-0.062,2.82,0.931,3.803
	c0.54,0.537,0.874,0.818,1.499,1.258c1.616,1.146,2.491,2.731,2.229,4.193c-0.277,0.629-0.63,1.2-1.203,1.707
	c-1.272,1.125-2.903,0.482-4.355,0.213c-0.092-0.021-0.17,0.102-0.079,0.16c0.591,0.369,1.202,0.672,1.824,0.848
	c0.77,0.551,1.629,0.816,2.528,0.881c1.813,0.383,4.229-0.412,5.813-0.938c0.981-0.324,1.853-0.861,2.625-1.52
	c1.418-0.895,2.593-2.086,3.284-3.59c0.585-1.283,0.783-2.291,0.81-3.681c0.05-2.558,0.75-3.073,2.839-4.263
	c0.001,0,0.002-0.002,0.003-0.002c-0.413,1.16-0.723,2.336-0.739,3.631c-0.024,1.666,0.681,3.482,1.494,5.007
	c-0.001,0.56-0.005,1.12-0.005,1.68c-0.006,18.665-0.478,37.402,0.295,56.052c0.009,0.211,0.092,0.367,0.207,0.48
	c0.236,0.734,0.867,1.357,1.522,1.73c0.194,0.109,0.394,0.199,0.594,0.279c1.417,0.942,3.503,1.002,5.013,0.165
	c0.383-0.097,0.752-0.243,1.105-0.444c0.656-0.373,1.287-0.996,1.525-1.73c0.115-0.113,0.197-0.27,0.207-0.48
	c0.758-18.373,0.314-36.83,0.297-55.219c0.461-2.322,2.031-4.348,3.238-6.465c0.16,0.564,0.418,1.112,0.832,1.633
	c0.787,0.984,1.748,2.213,3.139,2.34c0.758,0.07,1.195,0.073,1.957,0.017c1.975-0.146,3.66,0.519,4.389,1.812
	c0.188,0.662,0.279,1.327,0.158,2.084c-0.264,1.678-1.932,2.221-3.223,2.937c-0.084,0.044-0.066,0.188,0.041,0.176
	c0.689-0.093,1.355-0.249,1.945-0.509c0.945-0.066,1.777-0.408,2.514-0.932c1.641-0.86,2.998-3.011,3.885-4.424
	c0.549-0.875,0.879-1.842,1.057-2.842c0.523-1.593,0.67-3.261,0.246-4.859c-0.363-1.363-0.855-2.267-1.719-3.354
	c-1.4-1.763-1.402-2.631-0.799-4.349c0.541,2.069,0.834,4.375,2.906,5.658c1.074,0.66,2.395,1.491,3.744,1.141
	c0.738-0.191,1.15-0.336,1.848-0.646c1.809-0.806,3.621-0.751,4.744,0.221c0.398,0.56,0.709,1.153,0.854,1.906
	c0.318,1.67-1.066,2.744-2.039,3.854c-0.064,0.07,0,0.201,0.098,0.152c0.617-0.322,1.191-0.693,1.658-1.139
	c0.867-0.382,1.535-0.986,2.051-1.729c1.252-1.363,1.803-3.844,2.158-5.475c0.221-1.008,0.203-2.029,0.033-3.029
	c-0.045-1.677-0.471-3.297-1.412-4.658c-0.803-1.159-1.57-1.844-2.754-2.575c-1.914-1.187-2.209-2.003-2.223-3.823
	c1.211,1.766,2.266,3.835,4.65,4.342c1.234,0.26,2.758,0.594,3.91-0.193c0.629-0.428,0.969-0.704,1.52-1.232
	c1.43-1.371,3.15-1.931,4.537-1.398c0.564,0.393,1.059,0.847,1.449,1.506c0.865,1.463-0.076,2.943-0.615,4.316
	c-0.035,0.088,0.068,0.188,0.143,0.109c0.475-0.512,0.887-1.055,1.176-1.631c0.689-0.654,1.113-1.45,1.348-2.324
	c0.715-1.709,0.393-4.227,0.178-5.879c-0.133-1.021-0.496-1.979-0.994-2.861c-0.609-1.563-1.559-2.943-2.904-3.906
	c-1.148-0.819-2.102-1.203-3.463-1.492c-2.203-0.469-2.756-1.137-3.385-2.846c1.736,1.25,3.43,2.842,5.846,2.512
	c1.248-0.174,2.795-0.373,3.613-1.504c0.447-0.616,0.674-0.99,1.014-1.674c0.881-1.772,2.313-2.883,3.797-2.851
	c0.664,0.178,1.283,0.438,1.873,0.928c1.309,1.084,0.924,2.796,0.881,4.269c-0.004,0.096,0.127,0.156,0.172,0.055
	c0.271-0.641,0.477-1.291,0.555-1.932c0.426-0.846,0.557-1.738,0.482-2.639c0.096-1.851-1.061-4.113-1.824-5.597
	c-0.471-0.917-1.133-1.694-1.9-2.356c-1.102-1.265-2.463-2.244-4.055-2.694c-1.359-0.382-2.387-0.421-3.764-0.232
	c-2.232,0.304-2.98-0.137-4.15-1.532c2.057,0.588,4.189,1.515,6.352,0.385c1.117-0.584,2.504-1.297,2.893-2.635
	c0.211-0.732,0.299-1.163,0.387-1.919c0.23-1.968,1.203-3.497,2.611-3.967c0.684-0.057,1.354-0.022,2.074,0.239
	c1.598,0.577,1.814,2.317,2.271,3.719c0.029,0.092,0.174,0.103,0.182-0.007C126.414,115.267,126.388,114.586,126.244,113.958
	 M67.734,60.666c0.059-0.1,0.131-0.176,0.199-0.261c0.016,0.347,0.037,0.69,0.064,1.032c-0.117,0.911-0.232,1.853-0.217,2.772
	c-0.369-0.47-0.6-0.995-0.674-1.552C67.181,61.972,67.343,61.322,67.734,60.666 M55.253,38.923c0.477-1.559,0.927-3.122,1.383-4.684
	c-0.131,1.509-0.255,3.016-0.449,4.495c-0.024,0.176,0.25,0.197,0.298,0.04c0.9-2.873,1.015-5.884,1.411-8.852
	c0.537-1.872,1.07-3.743,1.613-5.616c0.157-0.546,0.337-1.103,0.523-1.665c-0.445,3.694-0.644,7.406-0.929,11.26
	c-0.015,0.198,0.282,0.19,0.304,0c0.666-5.762,1.796-11.375,2.747-17.054c1.05-2.798,2.068-5.681,2.652-8.541
	c0.584,2.86,1.601,5.743,2.65,8.541c0.951,5.679,2.082,11.292,2.748,17.054c0.023,0.19,0.32,0.198,0.305,0
	c-0.285-3.854-0.484-7.566-0.93-11.26c0.188,0.562,0.365,1.119,0.523,1.665c0.545,1.873,1.078,3.744,1.613,5.616
	c0.396,2.968,0.512,5.979,1.41,8.852c0.051,0.157,0.322,0.136,0.301-0.04c-0.195-1.479-0.32-2.986-0.449-4.495
	c0.455,1.562,0.904,3.125,1.381,4.684c0.613,2.003,2.867,7.802-1.08,8.471c-0.719,0.122-1.445,0.174-2.172,0.21
	c-0.428-0.608,0.871-1.132,1.307-1.386c0.469-0.273,0.969-0.588,1.301-1.025c0.787-1.034,0.361-2.149,0.195-3.33
	c-0.021-0.157-0.287-0.12-0.275,0.038c0.063,0.889,0.504,2.316-0.336,2.97c-0.66,0.514-1.418,0.676-2.139,1.057
	c-0.551,0.292-1.025,0.728-1.178,1.204c-0.787-0.827,0.652-1.946,1.504-2.769c0.668-0.646,0.963-1.182,1.176-2.095
	c0.449-1.919-1.131-4.102-1.701-5.836c-0.078-0.239-0.42-0.141-0.373,0.104c0.33,1.767,2.752,5.809,0.391,7.171
	c-0.832,0.48-1.773,1.116-2.207,2.013c-0.412,0.851-0.346,1.532,0.023,2.026c-0.061,0.009-0.109,0.032-0.166,0.048
	c-0.707-1.498-1.424-3.059-0.238-4.36c0.121-0.133-0.037-0.365-0.199-0.258c-1.254,0.841-2.096,2.336-1.311,3.757
	c-0.041,0.059-0.082,0.12-0.145,0.182c-0.193,0.199-0.002,0.571,0.281,0.48c0.076-0.025,0.146-0.053,0.215-0.083
	c0.025,0.036,0.049,0.073,0.072,0.109c-0.309,0.289-0.469,0.788-0.529,1.152c-0.033,0.212,0.262,0.303,0.328,0.09
	c0.088-0.274,0.324-0.447,0.539-0.628c0.074,0.158,0.141,0.317,0.199,0.477c-0.002,0.008-0.004,0.017-0.006,0.025
	c-0.928,0.775-0.725,2.405-0.537,3.453c0.029,0.162,0.303,0.125,0.287-0.039c-0.051-0.58-0.094-1.19,0.094-1.752
	c0.1-0.306,0.232-0.547,0.389-0.776c0.008,0.009,0.021,0.012,0.031,0.02c0.342,1.853-0.148,3.752-0.088,5.711
	c-0.072,1.053-0.119,2.11-0.123,3.16c-0.258,0.028-0.516,0.071-0.77,0.135c-1.832,0.211-3.864,1.679-5.201,2.653
	c-0.11,0.081-0.21,0.176-0.315,0.263c0.168-2.015,0.144-4.121-0.001-6.212c0.059-1.958-0.431-3.857-0.087-5.71
	c0.008-0.008,0.021-0.011,0.028-0.02c0.156,0.229,0.289,0.47,0.392,0.776c0.185,0.562,0.142,1.172,0.091,1.752
	c-0.014,0.164,0.259,0.201,0.288,0.039c0.188-1.048,0.391-2.678-0.537-3.453c-0.002-0.008-0.002-0.017-0.004-0.025
	c0.057-0.16,0.123-0.319,0.198-0.477c0.215,0.181,0.45,0.354,0.538,0.628c0.066,0.213,0.361,0.122,0.327-0.09
	c-0.06-0.364-0.221-0.863-0.526-1.152c0.021-0.036,0.047-0.073,0.07-0.109c0.068,0.03,0.14,0.058,0.217,0.083
	c0.28,0.091,0.472-0.281,0.278-0.48c-0.06-0.062-0.103-0.123-0.144-0.182c0.786-1.421-0.055-2.916-1.311-3.757
	c-0.16-0.107-0.318,0.125-0.198,0.258c1.184,1.301,0.468,2.862-0.239,4.36c-0.055-0.016-0.105-0.039-0.166-0.048
	c0.371-0.494,0.435-1.175,0.024-2.026c-0.435-0.897-1.375-1.533-2.208-2.013c-2.359-1.362,0.06-5.404,0.391-7.171
	c0.046-0.244-0.293-0.342-0.373-0.104c-0.57,1.734-2.15,3.917-1.702,5.836c0.213,0.913,0.509,1.449,1.177,2.095
	c0.853,0.823,2.29,1.942,1.506,2.769c-0.153-0.476-0.63-0.912-1.18-1.204c-0.72-0.381-1.478-0.543-2.137-1.057
	c-0.841-0.654-0.4-2.081-0.337-2.97c0.011-0.158-0.253-0.195-0.276-0.038c-0.167,1.181-0.592,2.296,0.196,3.33
	c0.331,0.437,0.831,0.752,1.299,1.025c0.438,0.254,1.736,0.778,1.309,1.386c-0.728-0.036-1.452-0.088-2.174-0.21
	C52.388,46.726,54.642,40.926,55.253,38.923 M57.428,83.355c0.281,0.205,0.461,0.473,0.503,0.835
	C57.725,83.939,57.563,83.656,57.428,83.355 M68.832,120.862c-0.307,12.197-0.479,24.395-0.563,36.594
	c-0.402-2.559-0.816-5.085-0.58-7.723c0.01-0.104-0.154-0.104-0.164,0c-0.387,4.02,0.416,7.859,0.711,11.85
	c-0.027,5.1-0.043,10.201-0.045,15.302c-0.002,14.558-0.283,29.157-0.002,43.724c-0.443-4.814-0.693-9.643-0.748-14.5
	c0-0.108-0.168-0.108-0.168,0c-0.047,7.739-0.051,15.446,1.154,23.092c0.014,0.408,0.023,0.818,0.041,1.227
	c-0.053,0.13-0.119,0.291,0.002,0.198c-0.137,0.104-0.287,0.221-0.404,0.348c-0.213,0.228-0.447,0.445-0.693,0.644
	c-1.32,0.482-2.84,0.746-4.286,0.615c-0.246-0.166-0.466-0.326-0.605-0.42c-0.342-0.234-0.653-0.537-0.936-0.839
	c-0.116-0.127-0.268-0.243-0.402-0.348c0.12,0.093,0.053-0.068,0.001-0.198c0.016-0.408,0.026-0.818,0.041-1.227
	c1.205-7.646,1.201-15.353,1.155-23.092c-0.001-0.108-0.17-0.108-0.17,0c-0.055,4.857-0.305,9.686-0.747,14.5
	c0.28-14.566,0.001-29.166-0.003-43.724c-0.002-5.101-0.018-10.202-0.046-15.302c0.298-3.99,1.1-7.83,0.712-11.85
	c-0.01-0.104-0.174-0.104-0.163,0c0.235,2.638-0.179,5.164-0.58,7.723c-0.087-12.321-0.259-24.641-0.571-36.96
	c0.439-1.009,0.802-1.853,1.944-2.318c0.899-0.366,1.958-0.401,2.913-0.403C67.906,117.772,68.203,119.243,68.832,120.862
	 M59.424,168.245c-0.065-0.524-0.041-1.045,0.023-1.565c-0.002,0.558-0.003,1.115-0.005,1.673
	C59.438,168.315,59.428,168.28,59.424,168.245 M70.179,171.662c-0.006-4.281-0.023-8.562-0.049-12.843
	c0.189,0.131,0.424,0.256,0.684,0.367c1.113,0.563,1.787,1.229,2.18,1.967c-0.021,0.037-0.035,0.078-0.027,0.125
	C73.537,165.333,71.619,168.138,70.179,171.662 M117.042,114.923c-0.666,5.763-6.229,2.875-10.268,2.871
	c-1.293-0.504-2.74-0.491-4.164-0.041c-0.172,0.056-0.287,0.173-0.354,0.315c-1.262,0.274-2.246,1.063-2.107,2.586
	c0.008,0.093,0.129,0.104,0.172,0.026c0.504-0.944,1.371-1.44,2.342-1.631c0.031,0.009,0.061,0.024,0.096,0.027
	c0.227,0.02,0.422,0.077,0.629,0.118c-0.271,0.137-0.57,0.227-0.865,0.185c-0.072-0.013-0.113,0.099-0.047,0.134
	c0.24,0.129,0.494,0.145,0.748,0.106c-0.031,0.058-0.061,0.118-0.088,0.18c-0.34,0.259-0.709,0.423-1.246,0.239
	c-0.059-0.018-0.086,0.066-0.031,0.091c0.346,0.146,0.719,0.203,1.08,0.172c-0.018,0.052-0.035,0.103-0.051,0.156
	c-0.365,0.245-0.813,0.36-1.246,0.262c-0.064-0.015-0.1,0.075-0.035,0.101c0.369,0.143,0.762,0.213,1.15,0.156
	c-0.008,0.032-0.014,0.066-0.021,0.1c-0.391,0.395-0.891,0.643-1.428,0.242c-0.031-0.026-0.068,0.019-0.043,0.045
	c0.385,0.447,0.83,0.484,1.279,0.308c-0.438,0.485-0.973,0.64-1.732,0.26c-0.086-0.044-0.145,0.079-0.096,0.14
	c0.652,0.824,1.586,1.088,2.439,0.351c0.201-0.173,0.414-0.431,0.611-0.722c0.586-0.758,1.184-1.252,1.793-1.549
	c0.854,0.623,1.555,1.43,2.301,2.215c0.916,1.096,1.781,2.236,2.928,3.123c1.605,1.242,3.871-0.055,5.695,0.229
	c0.014,0.004,0.021-0.018,0.008-0.021c-2.104-0.664-3.875,0.672-5.799-1.012c-0.107-0.093-0.201-0.195-0.301-0.291
	c0.377,0.172,0.779,0.279,1.246,0.272c3.133-0.052,5.074-0.754,7.832,1.481c1.58,1.283,2.695,2.851,3.553,4.584
	c-2.258-2.045-5.314-1.525-7.191,2.265c-2.576,5.196-6.836,0.598-10.633-0.771c-1.047-0.912-2.414-1.39-3.906-1.449
	c-0.182-0.006-0.328,0.066-0.439,0.179c-1.279-0.169-2.473,0.239-2.857,1.72c-0.025,0.09,0.086,0.141,0.152,0.083
	c0.793-0.718,1.779-0.892,2.756-0.742c0.027,0.019,0.047,0.044,0.08,0.058c0.213,0.098,0.406,0.205,0.592,0.318
	c-0.313,0.043-0.641,0.033-0.916-0.113c-0.064-0.035-0.139,0.055-0.092,0.109c0.184,0.203,0.418,0.305,0.67,0.354
	c-0.049,0.043-0.096,0.093-0.143,0.141c-0.406,0.127-0.813,0.157-1.254-0.197c-0.049-0.037-0.105,0.033-0.061,0.075
	c0.277,0.253,0.609,0.435,0.957,0.527c-0.033,0.043-0.066,0.085-0.1,0.13c-0.428,0.107-0.887,0.066-1.26-0.176
	c-0.057-0.036-0.119,0.037-0.068,0.082c0.299,0.26,0.645,0.459,1.029,0.537c-0.018,0.028-0.035,0.058-0.053,0.086
	c-0.504,0.24-1.057,0.304-1.426-0.256c-0.02-0.035-0.07-0.004-0.057,0.029c0.213,0.551,0.617,0.736,1.1,0.721
	c-0.574,0.311-1.129,0.274-1.719-0.34c-0.066-0.072-0.162,0.025-0.135,0.098c0.336,0.996,1.123,1.562,2.178,1.156
	c0.248-0.095,0.533-0.264,0.816-0.472c0.813-0.519,1.545-0.778,2.221-0.854c0.588,0.873,0.969,1.869,1.402,2.854
	c0.494,1.347,0.922,2.715,1.703,3.94c1.092,1.711,3.662,1.258,5.283,2.141c0.012,0.009,0.025-0.009,0.014-0.018
	c-1.754-1.336-3.871-0.678-5.113-2.914c-0.068-0.123-0.123-0.25-0.186-0.377c0.295,0.291,0.639,0.527,1.08,0.68
	c2.967,1.012,5.031,1.008,6.869,4.043c1.055,1.743,1.574,3.596,1.793,5.518c-1.432-2.689-4.484-3.233-7.533-0.303
	c-4.182,4.02-6.637-1.751-9.746-4.324c-0.676-1.211-1.801-2.121-3.184-2.682c-0.17-0.068-0.332-0.049-0.475,0.018
	c-1.148-0.592-2.41-0.611-3.271,0.652c-0.055,0.076,0.037,0.162,0.115,0.13c0.986-0.405,1.971-0.243,2.84,0.226
	c0.02,0.029,0.033,0.063,0.061,0.09c0.166,0.164,0.313,0.33,0.447,0.5c-0.307-0.066-0.613-0.187-0.822-0.418
	c-0.049-0.055-0.148,0.006-0.123,0.074c0.105,0.252,0.291,0.426,0.512,0.558c-0.061,0.024-0.121,0.055-0.184,0.084
	c-0.426-0.019-0.814-0.126-1.111-0.609c-0.035-0.052-0.109-0.004-0.082,0.05c0.174,0.332,0.424,0.614,0.721,0.82
	c-0.045,0.029-0.09,0.059-0.137,0.088c-0.439-0.044-0.857-0.238-1.127-0.591c-0.041-0.054-0.125-0.006-0.092,0.056
	c0.193,0.344,0.453,0.648,0.787,0.852c-0.025,0.021-0.053,0.043-0.08,0.064c-0.553,0.055-1.096-0.074-1.254-0.724
	c-0.008-0.04-0.064-0.028-0.063,0.008c0.012,0.593,0.338,0.901,0.801,1.05c-0.65,0.101-1.166-0.119-1.514-0.901
	c-0.037-0.089-0.158-0.03-0.158,0.048c-0.023,1.051,0.527,1.85,1.656,1.824c0.258-0.006,0.57-0.064,0.896-0.158
	c0.961-0.221,1.744-0.209,2.416-0.045c0.254,1.014,0.277,2.07,0.35,3.138c0.01,1.435-0.053,2.87,0.27,4.289
	c0.447,1.979,3.021,2.423,4.248,3.802c0.008,0.012,0.027,0,0.018-0.012c-1.199-1.85-3.414-1.947-3.826-4.471
	c-0.023-0.139-0.031-0.279-0.045-0.418c0.178,0.373,0.42,0.711,0.785,1.004c2.449,1.955,4.393,2.65,5.096,6.129
	c0.402,1.996,0.264,3.916-0.178,5.798c-0.439-3.015-3.127-4.56-6.986-2.832c-5.295,2.367-5.654-3.89-7.709-7.364
	c-0.227-1.369-0.977-2.609-2.09-3.604c-0.137-0.121-0.297-0.159-0.453-0.143c-0.879-0.945-2.063-1.391-3.299-0.494
	c-0.076,0.054-0.021,0.166,0.064,0.162c1.068-0.049,1.939,0.444,2.598,1.183c0.01,0.03,0.01,0.063,0.025,0.095
	c0.102,0.211,0.182,0.417,0.252,0.622c-0.266-0.166-0.514-0.382-0.633-0.671c-0.027-0.068-0.143-0.045-0.141,0.025
	c0.014,0.273,0.129,0.502,0.293,0.701c-0.064,0.002-0.133,0.01-0.199,0.017c-0.396-0.161-0.727-0.396-0.842-0.95
	c-0.016-0.061-0.102-0.041-0.096,0.02c0.053,0.371,0.193,0.722,0.404,1.017c-0.053,0.011-0.107,0.022-0.16,0.036
	c-0.396-0.19-0.725-0.514-0.861-0.938c-0.02-0.066-0.115-0.049-0.104,0.02c0.064,0.39,0.205,0.765,0.453,1.068
	c-0.033,0.012-0.066,0.023-0.098,0.034c-0.539-0.136-1.008-0.438-0.938-1.106c0.008-0.039-0.051-0.047-0.061-0.012
	c-0.188,0.559,0.008,0.961,0.393,1.258c-0.645-0.129-1.051-0.51-1.113-1.36c-0.006-0.097-0.141-0.083-0.166-0.009
	c-0.377,0.981-0.129,1.918,0.943,2.277c0.244,0.082,0.559,0.133,0.898,0.154c0.977,0.117,1.709,0.395,2.285,0.775
	c-0.102,1.035-0.436,2.033-0.727,3.057c-0.477,1.357-1.023,2.691-1.201,4.143c-0.25,2.014,2.021,3.301,2.711,5.014
	c0.002,0.015,0.025,0.01,0.021-0.006c-0.504-2.146-2.555-2.986-2.09-5.502c0.025-0.138,0.064-0.272,0.1-0.408
	c0.041,0.412,0.154,0.812,0.398,1.211c1.645,2.67,3.238,3.98,2.723,7.49c-0.295,2.017-1.074,3.775-2.129,5.396
	c0.605-2.984-1.4-5.348-5.617-5.027c-6.146,0.463-3.748-6.355-4.939-10.26c-0.063-0.467-0.164-0.918-0.354-1.377
	c-0.221-0.54-1.244-1.26-1.141-1.845c0.012-0.063-0.082-0.089-0.104-0.03c-0.215,0.503-0.074,0.814,0.215,1.249
	c-0.109-0.073-0.225-0.142-0.348-0.203c-0.232-0.266-0.439-0.593-0.455-0.95c-0.002-0.074-0.117-0.09-0.141-0.022
	c-0.08,0.261-0.049,0.515,0.039,0.757c-0.063-0.02-0.129-0.036-0.195-0.052c-0.318-0.285-0.549-0.617-0.469-1.179
	c0.006-0.062-0.082-0.072-0.096-0.014c-0.078,0.368-0.063,0.745,0.035,1.094c-0.055-0.008-0.109-0.016-0.164-0.021
	c-0.309-0.313-0.508-0.729-0.492-1.173c0.004-0.068-0.092-0.085-0.104-0.018c-0.072,0.391-0.066,0.789,0.063,1.159
	c-0.033-0.001-0.066-0.001-0.1-0.001c-0.463-0.311-0.801-0.754-0.508-1.357c0.018-0.035-0.031-0.063-0.055-0.033
	c-0.365,0.464-0.318,0.906-0.059,1.314c-0.211-0.127-0.375-0.279-0.488-0.461c-0.082-11.396-0.246-22.791-0.516-34.186
	c0.066-0.547,0.123-1.096,0.178-1.639c0.027-0.261,0.041-0.521,0.047-0.78c1.076-4.737-5.191-5.777-8.221-3.646
	c-0.105,0.07-0.202,0.155-0.3,0.235c-0.043-0.026-0.098-0.031-0.14,0.02c-0.605,0.733-1.421,1.448-1.482,2.475
	c-0.074,1.179,0.136,2.368,0.32,3.552c-0.254,10.711-0.411,21.425-0.495,32.139c-0.175-0.048-0.362-0.08-0.569-0.094
	c-0.091-0.006-0.121,0.114-0.052,0.167c0.248,0.187,0.445,0.402,0.614,0.632c-0.009,1.182-0.021,2.362-0.028,3.543
	c-0.818,1.356-2.118,2.123-3.383,2.996c-1.234,0.744-2.506,1.426-3.567,2.43c-1.474,1.395-0.542,3.832-1.101,5.592
	c-0.009,0.013,0.015,0.025,0.019,0.01c0.979-1.975-0.068-3.93,1.893-5.571c0.107-0.091,0.224-0.169,0.336-0.252
	c-0.23,0.345-0.396,0.724-0.461,1.187c-0.434,3.105-0.038,5.131-2.672,7.511c-1.512,1.364-3.231,2.226-5.076,2.805
	c2.367-1.915,2.324-5.015-1.131-7.454c-4.737-3.346,0.462-6.846,2.401-10.388c1.061-0.894,1.745-2.17,2.032-3.635
	c0.035-0.179-0.016-0.336-0.108-0.464c0.364-1.237,0.144-2.48-1.258-3.088c-0.085-0.037-0.154,0.066-0.108,0.139
	c0.588,0.895,0.608,1.893,0.312,2.836c-0.024,0.025-0.051,0.041-0.071,0.07c-0.13,0.195-0.266,0.371-0.406,0.537
	c0.007-0.314,0.066-0.639,0.254-0.889c0.046-0.058-0.032-0.144-0.096-0.107c-0.227,0.15-0.364,0.367-0.451,0.607
	c-0.035-0.054-0.075-0.109-0.116-0.164c-0.063-0.422-0.029-0.824,0.389-1.205c0.045-0.045-0.019-0.108-0.065-0.072
	c-0.294,0.234-0.522,0.533-0.67,0.863c-0.037-0.039-0.072-0.078-0.112-0.119c-0.038-0.438,0.071-0.885,0.366-1.217
	c0.047-0.05-0.016-0.123-0.067-0.08c-0.304,0.256-0.554,0.567-0.689,0.936c-0.025-0.021-0.052-0.045-0.079-0.067
	c-0.156-0.532-0.135-1.089,0.474-1.368c0.037-0.016,0.015-0.068-0.021-0.061c-0.578,0.125-0.822,0.498-0.882,0.979
	c-0.217-0.617-0.097-1.16,0.601-1.649c0.08-0.054,0-0.163-0.075-0.147c-1.037,0.178-1.716,0.868-1.478,1.973
	c0.056,0.261,0.179,0.57,0.341,0.882c0.387,0.881,0.531,1.645,0.5,2.325c-0.949,0.445-1.985,0.668-3.023,0.943
	c-1.408,0.282-2.832,0.493-4.167,1.078c-1.86,0.813-1.809,3.422-2.93,4.891c-0.012,0.008,0.007,0.027,0.017,0.014
	c1.589-1.527,1.263-3.721,3.666-4.602c0.131-0.049,0.264-0.082,0.396-0.123c-0.332,0.246-0.615,0.549-0.833,0.961
	c-1.457,2.774-1.771,4.814-5.054,6.164c-1.883,0.772-3.794,1-5.726,0.92c2.876-1,3.884-3.932,1.458-7.396
	c-3.327-4.751,2.749-6.287,5.771-8.962c1.302-0.482,2.377-1.453,3.145-2.734c0.093-0.156,0.1-0.32,0.055-0.472
	c0.76-1.042,0.973-2.288-0.14-3.333c-0.066-0.064-0.166,0.011-0.147,0.094c0.25,1.04-0.069,1.988-0.668,2.775
	c-0.03,0.015-0.061,0.021-0.089,0.042c-0.189,0.14-0.377,0.259-0.565,0.366c0.112-0.293,0.278-0.578,0.541-0.75
	c0.062-0.039,0.018-0.146-0.054-0.133c-0.265,0.064-0.467,0.223-0.63,0.42c-0.017-0.064-0.036-0.129-0.057-0.195
	c0.085-0.418,0.253-0.786,0.773-1.003c0.058-0.026,0.021-0.107-0.035-0.091c-0.355,0.121-0.674,0.326-0.923,0.588
	c-0.021-0.051-0.042-0.1-0.065-0.151c0.11-0.425,0.367-0.808,0.757-1.021c0.06-0.031,0.024-0.121-0.037-0.099
	c-0.371,0.14-0.713,0.347-0.964,0.646c-0.018-0.028-0.034-0.059-0.053-0.088c0.032-0.555,0.242-1.07,0.908-1.129
	c0.039,0,0.037-0.058,0.001-0.063c-0.586-0.078-0.941,0.189-1.161,0.623c0.004-0.655,0.302-1.126,1.123-1.35
	c0.095-0.023,0.057-0.153-0.021-0.166c-1.036-0.182-1.908,0.238-2.058,1.359c-0.033,0.256-0.023,0.575,0.02,0.912
	c0.069,0.98-0.064,1.753-0.329,2.391c-1.04,0.096-2.083-0.045-3.147-0.137c-1.422-0.211-2.833-0.494-4.287-0.395
	c-2.024,0.135-2.859,2.609-4.409,3.611c-0.015,0.004-0.004,0.027,0.01,0.018c2.011-0.899,2.447-3.073,5.005-3.09
	c0.14-0.002,0.277,0.012,0.415,0.019c-0.395,0.119-0.764,0.308-1.108,0.622c-2.31,2.118-3.295,3.932-6.841,4.091
	c-2.033,0.091-3.908-0.343-5.7-1.069c3.046,0.029,4.986-2.388,3.874-6.467c-1.523-5.598,4.715-4.986,8.464-6.482
	c1.389-0.012,2.728-0.563,3.884-1.51c0.14-0.115,0.202-0.269,0.211-0.426c1.067-0.723,1.689-1.822,0.996-3.184
	c-0.041-0.082-0.16-0.045-0.17,0.039c-0.116,1.064-0.737,1.848-1.569,2.385c-0.033,0.005-0.063,0-0.097,0.012
	c-0.226,0.067-0.443,0.115-0.657,0.153c0.206-0.237,0.458-0.451,0.764-0.524c0.07-0.015,0.065-0.131-0.007-0.143
	c-0.27-0.029-0.514,0.051-0.734,0.182c0.008-0.064,0.011-0.134,0.015-0.201c0.22-0.365,0.502-0.655,1.066-0.684
	c0.064-0.005,0.056-0.094-0.004-0.096c-0.376-0.006-0.743,0.078-1.065,0.24c-0.003-0.055-0.006-0.109-0.012-0.166
	c0.249-0.361,0.619-0.635,1.059-0.703c0.065-0.01,0.063-0.106-0.002-0.105c-0.396,0.004-0.788,0.085-1.127,0.282
	c-0.005-0.034-0.013-0.067-0.019-0.101c0.219-0.512,0.589-0.926,1.236-0.754c0.038,0.01,0.055-0.043,0.023-0.061
	c-0.525-0.271-0.95-0.141-1.304,0.191c0.227-0.613,0.664-0.957,1.514-0.889c0.096,0.01,0.103-0.125,0.034-0.162
	c-0.911-0.521-1.875-0.422-2.394,0.582c-0.124,0.237-0.226,0.558-0.3,0.905c-0.265,0.921-0.638,1.601-1.092,2.103
	c-1.021-0.262-1.964-0.752-2.94-1.201c-1.264-0.678-2.496-1.42-3.896-1.818c-1.95-0.559-3.571,1.488-5.37,1.906
	c-0.015,0-0.013,0.025,0.004,0.021c2.196-0.166,3.343-2.064,5.756-1.215c0.131,0.047,0.256,0.104,0.383,0.157
	c-0.412-0.021-0.823,0.03-1.252,0.211c-2.89,1.212-4.432,2.585-7.823,1.536c-1.942-0.604-3.561-1.645-5.002-2.936
	c2.857,1.059,5.499-0.561,5.834-4.775c0.459-5.782,6.122-3.098,10.157-3.237c1.311,0.458,2.758,0.394,4.166-0.106
	c0.17-0.062,0.28-0.184,0.342-0.328c1.25-0.319,2.207-1.145,2.015-2.66c-0.012-0.092-0.137-0.098-0.174-0.02
	c-0.469,0.961-1.318,1.487-2.281,1.713c-0.033-0.006-0.063-0.021-0.098-0.023c-0.233-0.012-0.455-0.04-0.67-0.077
	c0.274-0.153,0.584-0.269,0.897-0.235c0.07,0.01,0.104-0.102,0.043-0.136c-0.245-0.118-0.501-0.126-0.753-0.077
	c0.027-0.06,0.055-0.123,0.083-0.188c0.33-0.268,0.691-0.444,1.231-0.28c0.062,0.017,0.084-0.069,0.029-0.091
	c-0.35-0.133-0.724-0.178-1.084-0.135c0.016-0.053,0.032-0.105,0.046-0.159c0.357-0.257,0.799-0.39,1.234-0.306
	c0.065,0.015,0.095-0.078,0.032-0.099c-0.373-0.13-0.769-0.187-1.153-0.116c0.006-0.033,0.011-0.067,0.016-0.103
	c0.378-0.406,0.868-0.67,1.417-0.29c0.033,0.023,0.067-0.021,0.043-0.049c-0.403-0.432-0.848-0.452-1.292-0.26
	c0.419-0.502,0.95-0.676,1.726-0.325c0.087,0.042,0.14-0.082,0.089-0.14c-0.685-0.8-1.623-1.031-2.451-0.263
	c-0.196,0.181-0.399,0.444-0.584,0.744c-0.562,0.78-1.145,1.295-1.744,1.614c-0.873-0.59-1.595-1.372-2.365-2.129
	c-0.958-1.063-1.864-2.176-3.046-3.023c-1.646-1.186-3.864,0.191-5.697-0.024c-0.014-0.003-0.021,0.021-0.004,0.021
	c2.123,0.588,3.844-0.812,5.826,0.806c0.108,0.088,0.205,0.184,0.306,0.276c-0.38-0.159-0.782-0.249-1.246-0.224
	c-3.13,0.162-5.046,0.933-7.883-1.201c-1.625-1.226-2.796-2.753-3.714-4.455c2.33,1.963,5.365,1.335,7.106-2.519
	c2.386-5.286,6.807-0.846,10.651,0.388c1.078,0.875,2.464,1.304,3.957,1.31c0.183,0,0.326-0.078,0.435-0.194
	c1.284,0.123,2.464-0.33,2.795-1.821c0.02-0.09-0.095-0.137-0.157-0.078c-0.766,0.746-1.744,0.955-2.727,0.841
	c-0.028-0.018-0.051-0.042-0.083-0.056c-0.217-0.09-0.414-0.191-0.604-0.298c0.311-0.053,0.642-0.056,0.924,0.081
	c0.063,0.035,0.134-0.06,0.086-0.113c-0.19-0.194-0.43-0.287-0.683-0.327c0.048-0.047,0.095-0.098,0.142-0.149
	c0.4-0.14,0.803-0.183,1.255,0.154c0.053,0.036,0.103-0.037,0.058-0.076c-0.285-0.244-0.622-0.413-0.973-0.493
	c0.031-0.045,0.064-0.088,0.097-0.135c0.421-0.121,0.882-0.096,1.263,0.131c0.06,0.035,0.116-0.041,0.065-0.083
	c-0.309-0.247-0.661-0.435-1.047-0.499c0.017-0.03,0.033-0.061,0.051-0.092c0.493-0.254,1.043-0.337,1.431,0.207
	c0.024,0.033,0.072,0.002,0.058-0.031c-0.234-0.544-0.646-0.714-1.13-0.681c0.564-0.331,1.122-0.316,1.734,0.276
	c0.067,0.07,0.16-0.03,0.131-0.101c-0.373-0.984-1.18-1.52-2.219-1.076c-0.245,0.104-0.527,0.285-0.804,0.505
	c-0.791,0.544-1.513,0.83-2.185,0.928c-0.621-0.852-1.036-1.832-1.505-2.803c-0.542-1.326-1.017-2.68-1.843-3.878
	c-1.148-1.672-3.701-1.126-5.354-1.949c-0.012-0.008-0.026,0.012-0.012,0.018c1.799,1.271,3.892,0.537,5.211,2.729
	c0.073,0.119,0.131,0.244,0.195,0.366c-0.303-0.279-0.654-0.501-1.099-0.635c-2.999-0.905-5.063-0.828-7.011-3.796
	c-1.114-1.704-1.7-3.537-1.987-5.449c1.526,2.635,4.597,3.071,7.538,0.033c4.034-4.167,6.692,1.508,9.893,3.97
	c0.719,1.188,1.877,2.06,3.281,2.57c0.171,0.061,0.333,0.037,0.473-0.036c1.167,0.55,2.43,0.523,3.246-0.768
	c0.05-0.077-0.041-0.161-0.12-0.127c-0.971,0.442-1.961,0.314-2.845-0.123c-0.023-0.029-0.036-0.061-0.066-0.088
	c-0.173-0.158-0.325-0.32-0.466-0.484c0.308,0.055,0.62,0.163,0.841,0.389c0.047,0.052,0.146-0.013,0.119-0.078
	c-0.114-0.248-0.306-0.417-0.532-0.54c0.062-0.027,0.121-0.059,0.184-0.091c0.426,0.003,0.816,0.098,1.13,0.568
	c0.038,0.053,0.109,0.001,0.081-0.051c-0.188-0.326-0.447-0.599-0.75-0.794c0.045-0.03,0.09-0.061,0.135-0.093
	c0.438,0.028,0.865,0.208,1.146,0.55c0.043,0.052,0.123,0.001,0.091-0.056c-0.206-0.338-0.477-0.634-0.818-0.825
	c0.026-0.022,0.052-0.044,0.078-0.067c0.55-0.074,1.096,0.034,1.279,0.678c0.01,0.039,0.065,0.025,0.063-0.01
	c-0.036-0.594-0.372-0.889-0.839-1.02c0.646-0.124,1.169,0.076,1.546,0.844c0.04,0.087,0.16,0.025,0.158-0.051
	c-0.021-1.052-0.596-1.83-1.725-1.763c-0.257,0.014-0.569,0.085-0.894,0.192c-0.949,0.253-1.732,0.268-2.409,0.128
	c-0.291-1.007-0.35-2.063-0.463-3.13c-0.061-1.431-0.05-2.866-0.423-4.272c-0.513-1.963-3.1-2.313-4.376-3.645
	c-0.01-0.011-0.032,0.001-0.019,0.013c1.265,1.805,3.479,1.821,3.98,4.331c0.028,0.136,0.042,0.273,0.061,0.41
	c-0.191-0.366-0.445-0.693-0.819-0.97c-2.517-1.866-4.485-2.491-5.313-5.943c-0.473-1.98-0.402-3.903-0.026-5.799
	c0.547,2.995,3.285,4.444,7.082,2.58c5.206-2.556,5.787,3.683,7.967,7.082c0.274,1.361,1.067,2.574,2.218,3.529
	c0.14,0.115,0.301,0.147,0.457,0.126c0.913,0.912,2.11,1.314,3.315,0.376c0.073-0.056,0.014-0.166-0.07-0.161
	c-1.067,0.088-1.953-0.373-2.639-1.087c-0.012-0.032-0.014-0.064-0.029-0.096c-0.11-0.208-0.198-0.412-0.276-0.614
	c0.273,0.156,0.529,0.364,0.66,0.651c0.028,0.066,0.143,0.037,0.139-0.033c-0.022-0.272-0.146-0.495-0.317-0.687
	c0.065-0.006,0.135-0.015,0.203-0.025c0.398,0.147,0.735,0.369,0.871,0.917c0.018,0.062,0.103,0.038,0.094-0.021
	c-0.065-0.369-0.218-0.714-0.438-1.001c0.054-0.013,0.106-0.026,0.16-0.042c0.403,0.176,0.742,0.489,0.891,0.906
	c0.023,0.063,0.115,0.043,0.104-0.023c-0.079-0.386-0.232-0.757-0.491-1.052c0.033-0.012,0.065-0.024,0.098-0.037
	c0.542,0.117,1.019,0.403,0.975,1.071c-0.005,0.039,0.053,0.046,0.061,0.011c0.167-0.568-0.043-0.961-0.436-1.243
	c0.645,0.104,1.066,0.47,1.161,1.318c0.008,0.094,0.142,0.076,0.166,0.003c0.338-0.996,0.058-1.921-1.026-2.242
	c-0.248-0.073-0.565-0.113-0.908-0.121c-0.978-0.083-1.72-0.334-2.308-0.694c0.066-1.043,0.366-2.055,0.621-3.093
	c0.427-1.371,0.923-2.72,1.05-4.172c0.18-2.021-2.136-3.225-2.886-4.91c-0.006-0.016-0.03-0.01-0.022,0.005
	c0.58,2.126,2.658,2.891,2.281,5.423c-0.02,0.137-0.053,0.271-0.082,0.407c-0.056-0.409-0.185-0.804-0.444-1.19
	c-1.734-2.608-3.377-3.862-2.987-7.391c0.224-2.023,0.939-3.809,1.935-5.466c-0.499,3.004,1.59,5.293,5.792,4.823
	c6.125-0.685,3.979,6.21,5.304,10.071c0.08,0.466,0.198,0.915,0.403,1.369c0.241,0.531,1.291,1.214,1.205,1.799
	c-0.009,0.07,0.086,0.09,0.11,0.029c0.19-0.51,0.041-0.815-0.262-1.238c0.112,0.069,0.229,0.134,0.357,0.19
	c0.238,0.258,0.455,0.576,0.486,0.933c0.002,0.071,0.121,0.084,0.14,0.015c0.071-0.262,0.029-0.515-0.066-0.753
	c0.065,0.017,0.133,0.032,0.2,0.046c0.325,0.273,0.568,0.596,0.509,1.157c-0.005,0.064,0.084,0.071,0.095,0.012
	c0.063-0.37,0.038-0.746-0.073-1.09c0.049,0.005,0.098,0.01,0.148,0.014c0.025,0.055,0.045,0.112,0.071,0.168
	c0.068,0.135,0.173,0.22,0.292,0.273c0.117,0.218,0.187,0.461,0.187,0.712c0,0.069,0.093,0.08,0.104,0.015
	c0.01-0.068,0.011-0.137,0.017-0.205c0.516,0.928,1.379,1.511,2.647,1.193c0.092-0.023,0.081-0.147,0-0.175
	c-0.394-0.138-0.715-0.356-0.998-0.607c0.396-0.727,0.321-1.51-0.455-2.078c-0.136-0.1-0.309-0.194-0.498-0.285
	c0.148-2.001,1.353-3.309,2.459-4.745c0.94-1.074,1.933-2.101,2.628-3.367c0.981-1.78-0.648-3.817-0.647-5.664
	c0-0.012-0.021-0.016-0.024-0.002c-0.331,2.177,1.261,3.722-0.105,5.884c-0.075,0.119-0.161,0.229-0.243,0.342
	c0.114-0.398,0.157-0.812,0.078-1.275c-0.533-3.085-1.527-4.897,0.258-7.964c1.023-1.758,2.398-3.101,3.978-4.215
	c-1.67,2.546-0.683,5.483,3.349,6.754c5.533,1.745,1.643,6.664,0.875,10.628c-0.738,1.174-1,2.596-0.83,4.077
	c0.023,0.181,0.119,0.316,0.246,0.409c0.029,1.29,0.617,2.408,2.139,2.56c0.094,0.009,0.127-0.111,0.061-0.164
	c-0.832-0.673-1.154-1.619-1.158-2.607c0.014-0.031,0.035-0.055,0.045-0.091c0.064-0.224,0.141-0.431,0.223-0.63
	c0.09,0.299,0.129,0.625,0.027,0.92c-0.023,0.068,0.076,0.128,0.123,0.072c0.17-0.212,0.238-0.459,0.248-0.714
	c0.051,0.041,0.105,0.081,0.16,0.12c0.188,0.383,0.279,0.777-0.002,1.269c-0.029,0.052,0.049,0.097,0.082,0.046
	c0.209-0.313,0.336-0.668,0.375-1.027c0.047,0.027,0.094,0.054,0.145,0.08c0.168,0.406,0.197,0.866,0.018,1.273
	c-0.025,0.06,0.057,0.111,0.094,0.052c0.211-0.336,0.354-0.707,0.373-1.098c0.029,0.012,0.061,0.025,0.092,0.038
	c0.313,0.459,0.461,0.997-0.035,1.449c-0.027,0.025,0.008,0.068,0.041,0.05c0.51-0.294,0.631-0.722,0.543-1.196
	c0.395,0.52,0.443,1.074-0.074,1.749c-0.057,0.076,0.049,0.157,0.119,0.12c0.936-0.486,1.367-1.35,0.807-2.331
	c-0.133-0.23-0.342-0.485-0.592-0.732c-0.637-0.723-1.008-1.408-1.186-2.065c0.773-0.719,1.701-1.248,2.609-1.83
	c1.252-0.694,2.537-1.328,3.623-2.286c1.525-1.342,0.68-3.811,1.305-5.548c0.006-0.012-0.014-0.023-0.021-0.011
	c-1.047,1.937-0.072,3.93-2.09,5.502c-0.111,0.087-0.23,0.161-0.344,0.24c0.24-0.336,0.422-0.711,0.504-1.174
	c0.543-3.084,0.221-5.125,2.938-7.407c1.559-1.309,3.307-2.107,5.168-2.62c-2.432,1.83-2.496,4.928,0.867,7.488
	c4.617,3.513-0.707,6.826-2.77,10.296c-1.094,0.855-1.82,2.105-2.16,3.558c-0.041,0.177,0.002,0.337,0.09,0.468
	c-0.408,1.223-0.232,2.474,1.148,3.131c0.084,0.041,0.156-0.06,0.111-0.134c-0.555-0.915-0.539-1.914-0.209-2.846
	c0.025-0.024,0.053-0.039,0.074-0.068c0.137-0.19,0.279-0.36,0.424-0.52c-0.016,0.314-0.09,0.634-0.285,0.877
	c-0.047,0.056,0.027,0.146,0.09,0.108c0.234-0.14,0.381-0.35,0.477-0.587c0.033,0.055,0.07,0.11,0.109,0.166
	c0.047,0.424,0,0.826-0.432,1.194c-0.045,0.04,0.014,0.107,0.063,0.072c0.303-0.224,0.541-0.515,0.699-0.84
	c0.035,0.041,0.07,0.082,0.107,0.124c0.025,0.439-0.104,0.881-0.412,1.204c-0.045,0.047,0.016,0.123,0.07,0.08
	c0.313-0.244,0.574-0.545,0.721-0.907c0.025,0.022,0.051,0.045,0.076,0.067c0.139,0.539,0.098,1.095-0.521,1.352
	c-0.037,0.014-0.018,0.068,0.02,0.061c0.58-0.104,0.838-0.467,0.914-0.943c0.195,0.623,0.055,1.161-0.66,1.622
	c-0.08,0.052-0.004,0.164,0.072,0.154c1.043-0.142,1.744-0.809,1.549-1.921c-0.047-0.254-0.154-0.556-0.297-0.864
	c-0.365-0.913-0.475-1.688-0.416-2.376c0.969-0.411,2.014-0.595,3.063-0.833c1.412-0.23,2.834-0.392,4.18-0.925
	c1.889-0.748,1.93-3.358,3.104-4.78c0.01-0.009-0.004-0.027-0.016-0.018c-1.641,1.47-1.396,3.674-3.828,4.471
	c-0.133,0.044-0.27,0.073-0.404,0.109c0.34-0.234,0.637-0.526,0.871-0.934c1.555-2.718,1.941-4.748,5.27-5.977
	c1.91-0.704,3.824-0.864,5.752-0.717c-2.908,0.9-4.018,3.793-1.719,7.34c3.154,4.868-2.975,6.184-6.09,8.751
	c-1.316,0.434-2.426,1.366-3.236,2.618c-0.1,0.153-0.111,0.318-0.072,0.471c-0.799,1.013-1.057,2.25,0.02,3.336
	c0.066,0.066,0.168-0.004,0.15-0.09c-0.211-1.048,0.141-1.983,0.768-2.747c0.029-0.015,0.063-0.02,0.092-0.04
	c0.191-0.133,0.385-0.245,0.574-0.346c-0.121,0.29-0.299,0.566-0.564,0.729c-0.063,0.037-0.023,0.146,0.051,0.132
	c0.266-0.053,0.473-0.202,0.643-0.393c0.014,0.064,0.031,0.129,0.049,0.195c-0.1,0.415-0.279,0.778-0.811,0.978
	c-0.055,0.022-0.023,0.105,0.035,0.089c0.359-0.109,0.684-0.302,0.941-0.555c0.02,0.051,0.039,0.102,0.061,0.154
	c-0.127,0.421-0.396,0.794-0.793,0.993c-0.061,0.03-0.031,0.121,0.037,0.1c0.375-0.126,0.723-0.321,0.984-0.611
	c0.016,0.029,0.031,0.059,0.049,0.089c-0.053,0.554-0.279,1.064-0.949,1.096c-0.039,0-0.039,0.058-0.004,0.063
	c0.582,0.099,0.949-0.155,1.182-0.577c-0.027,0.652-0.342,1.111-1.17,1.303c-0.094,0.022-0.061,0.153,0.016,0.169
	c1.029,0.22,1.916-0.171,2.105-1.284c0.043-0.255,0.045-0.577,0.014-0.917c-0.033-0.98,0.125-1.746,0.414-2.373
	c1.047-0.058,2.092,0.121,3.158,0.252c1.408,0.261,2.801,0.59,4.25,0.544c2.031-0.065,2.953-2.507,4.539-3.449
	c0.012-0.005,0.004-0.026-0.008-0.022c-2.043,0.828-2.559,2.986-5.115,2.912c-0.141-0.004-0.279-0.021-0.416-0.034
	c0.398-0.105,0.777-0.279,1.133-0.583c2.383-2.033,3.434-3.812,6.982-3.843c2.035-0.016,3.891,0.481,5.656,1.271
	c-3.043-0.137-5.064,2.21-4.102,6.326c1.322,5.648-4.891,4.814-8.689,6.175c-1.389-0.036-2.746,0.465-3.934,1.37
	c-0.145,0.11-0.213,0.261-0.227,0.418c-1.096,0.683-1.756,1.76-1.109,3.145c0.039,0.085,0.158,0.054,0.172-0.033
	c0.156-1.058,0.803-1.819,1.652-2.327c0.033-0.002,0.063,0.003,0.098-0.006c0.227-0.059,0.445-0.1,0.658-0.131
	c-0.213,0.232-0.471,0.432-0.777,0.495c-0.072,0.014-0.072,0.13,0,0.142c0.27,0.04,0.516-0.029,0.74-0.152
	c-0.008,0.065-0.014,0.131-0.021,0.198c-0.232,0.358-0.525,0.639-1.092,0.647c-0.061,0.002-0.059,0.092,0.002,0.096
	c0.375,0.019,0.744-0.053,1.074-0.203c0,0.055,0.002,0.108,0.004,0.164c-0.262,0.354-0.643,0.614-1.084,0.667
	c-0.064,0.008-0.066,0.104,0.002,0.106c0.396,0.01,0.789-0.056,1.135-0.241c0.006,0.033,0.01,0.067,0.016,0.101
	c-0.236,0.503-0.623,0.906-1.264,0.71c-0.037-0.014-0.057,0.041-0.025,0.057c0.514,0.291,0.945,0.176,1.309-0.142
	c-0.248,0.604-0.697,0.929-1.543,0.83c-0.096-0.012-0.109,0.123-0.043,0.164c0.895,0.555,1.861,0.487,2.416-0.496
	c0.129-0.23,0.242-0.54,0.328-0.879c0.297-0.919,0.697-1.588,1.17-2.077c1.014,0.298,1.939,0.823,2.902,1.309
	c1.236,0.722,2.438,1.504,3.818,1.952c1.934,0.625,3.625-1.362,5.438-1.711c0.014-0.001,0.014-0.024-0.002-0.024
	c-2.201,0.088-3.416,1.943-5.797,1.01c-0.131-0.051-0.254-0.114-0.381-0.173c0.412,0.036,0.826,0,1.264-0.165
	c2.932-1.107,4.521-2.426,7.871-1.254c1.922,0.672,3.5,1.769,4.893,3.109C120.226,109.199,117.529,110.723,117.042,114.923"/>
<path fill="#5E5E5F" d="M100.789,127.322c2.828-0.503,4.824-0.377,7.162,1.662c0.947,0.827,1.857,1.19,3.063,1.478
	c3.932,0.938,5.381-4.24,9.797-1.802c0.084,0.05,0.172-0.094,0.09-0.149c-3.969-2.643-5.475,1.103-9.721,0.9
	c-2.129-0.104-4.209-2.949-6.447-3.537c-1.496-0.394-2.895,0.194-4.133,0.957C100.367,126.971,100.525,127.37,100.789,127.322"/>
<path fill="#5E5E5F" d="M99.337,127.418c-0.053,0.337,0.469,0.417,0.521,0.082C99.91,127.165,99.39,127.084,99.337,127.418"/>
<path fill="#5E5E5F" d="M97.705,127.317c-0.027,0.004-0.055,0.01-0.078,0.016c-0.504,0.096-0.602,0.721-0.15,0.967
	c0.021,0.014,0.045,0.025,0.07,0.037C98.347,128.778,98.601,127.144,97.705,127.317"/>
<path fill="#5E5E5F" d="M96.472,128.237c0.09-0.572-0.797-0.709-0.887-0.137S96.382,128.811,96.472,128.237"/>
<path fill="#5E5E5F" d="M94.16,128.299c-0.082,0.521,0.73,0.65,0.811,0.127C95.054,127.903,94.242,127.776,94.16,128.299"/>
<path fill="#5E5E5F" d="M92.824,128.174c-0.051,0.318,0.443,0.395,0.492,0.077C93.365,127.936,92.873,127.858,92.824,128.174"/>
<path fill="#5E5E5F" d="M91.566,127.694c-0.094,0.049-0.107,0.152-0.035,0.227c0.018,0.018,0.033,0.032,0.051,0.049
	c0.293,0.295,0.416-0.498,0.049-0.309C91.609,127.674,91.587,127.682,91.566,127.694"/>
<path fill="#5E5E5F" d="M90.267,127.271c-0.031,0.208,0.293,0.261,0.324,0.051C90.625,127.11,90.3,127.059,90.267,127.271"/>
<path fill="#5E5E5F" d="M89.207,126.36c-0.021,0.006-0.033,0.012-0.047,0.027c-0.016,0.018-0.033,0.033-0.051,0.05
	c-0.049,0.051-0.025,0.129,0.018,0.169c0.014,0.014,0.023,0.023,0.037,0.035C89.402,126.868,89.57,126.243,89.207,126.36"/>
<path fill="#5E5E5F" d="M88.148,125.674c0.016-0.1-0.139-0.123-0.156-0.023C87.976,125.751,88.132,125.776,88.148,125.674"/>
<path fill="#5E5E5F" d="M86.382,125.231c-0.014,0.087,0.121,0.105,0.133,0.021C86.529,125.167,86.396,125.144,86.382,125.231"/>
<path fill="#5E5E5F" d="M96.328,138.637c-0.266,0.057-0.252,0.482,0.014,0.527c2.83,0.483,4.668,1.277,6.178,3.986
	c0.613,1.1,1.346,1.749,2.381,2.428c3.385,2.211,6.5-2.17,9.828,1.617c0.066,0.075,0.195-0.029,0.137-0.109
	c-2.84-3.83-5.525-0.814-9.451-2.441c-1.971-0.818-2.965-4.199-4.871-5.51C99.267,138.259,97.751,138.339,96.328,138.637"/>
<path fill="#5E5E5F" d="M94.943,138.764c-0.164,0.299,0.299,0.552,0.463,0.254C95.566,138.719,95.105,138.467,94.943,138.764"/>
<path fill="#5E5E5F" d="M93.441,138.117c-0.029-0.006-0.055-0.01-0.08-0.015c-0.506-0.076-0.811,0.479-0.469,0.861
	c0.018,0.021,0.033,0.039,0.055,0.059C93.55,139.708,94.341,138.258,93.441,138.117"/>
<path fill="#5E5E5F" d="M91.181,138.137c-0.277,0.508,0.51,0.939,0.789,0.428C92.244,138.057,91.458,137.628,91.181,138.137"/>
<path fill="#5E5E5F" d="M90.49,138.235c0.256-0.465-0.463-0.857-0.719-0.393C89.517,138.305,90.24,138.701,90.49,138.235"/>
<path fill="#5E5E5F" d="M88.558,137.272c-0.156,0.284,0.283,0.521,0.436,0.239C89.148,137.23,88.71,136.991,88.558,137.272"/>
<path fill="#5E5E5F" d="M87.607,136.385c-0.023,0.005-0.047,0.006-0.07,0.01c-0.105,0.014-0.154,0.106-0.111,0.201
	c0.012,0.021,0.021,0.041,0.031,0.063C87.632,137.036,88.017,136.331,87.607,136.385"/>
<path fill="#5E5E5F" d="M86.457,135.557c-0.102,0.186,0.188,0.346,0.289,0.158S86.56,135.37,86.457,135.557"/>
<path fill="#5E5E5F" d="M85.714,134.351c-0.021,0.013-0.043,0.021-0.064,0.028c-0.063,0.033-0.068,0.115-0.041,0.166
	c0.006,0.018,0.014,0.031,0.023,0.046c0.148,0.294,0.516-0.237,0.135-0.25C85.748,134.34,85.732,134.34,85.714,134.351"/>
<path fill="#5E5E5F" d="M85.003,133.337c0.047-0.088-0.09-0.162-0.141-0.075C84.816,133.352,84.955,133.427,85.003,133.337"/>
<path fill="#5E5E5F" d="M83.609,132.388c0.043-0.077-0.076-0.142-0.117-0.063C83.449,132.401,83.57,132.463,83.609,132.388"/>
<path fill="#5E5E5F" d="M88.15,148.805c2.5,1.411,3.959,2.779,4.465,5.84c0.205,1.243,0.674,2.102,1.42,3.09
	c2.438,3.227,6.85,0.157,8.703,4.848c0.033,0.093,0.191,0.037,0.162-0.057c-1.375-4.566-4.924-2.637-8.068-5.494
	c-1.576-1.438-1.367-4.955-2.719-6.834c-0.904-1.256-2.355-1.693-3.799-1.895C88.046,148.266,87.916,148.673,88.15,148.805"/>
<path fill="#5E5E5F" d="M86.968,147.955c-0.254,0.226,0.096,0.62,0.35,0.396C87.572,148.124,87.222,147.729,86.968,147.955"/>
<path fill="#5E5E5F" d="M85.775,146.837c-0.025-0.017-0.049-0.028-0.07-0.04c-0.451-0.244-0.924,0.175-0.732,0.65
	c0.008,0.025,0.02,0.049,0.031,0.074C85.339,148.373,86.576,147.274,85.775,146.837"/>
<path fill="#5E5E5F" d="M83.64,146.092c-0.432,0.384,0.162,1.055,0.6,0.669C84.669,146.376,84.076,145.708,83.64,146.092"/>
<path fill="#5E5E5F" d="M82.414,145.337c-0.396,0.351,0.15,0.967,0.545,0.612C83.353,145.6,82.81,144.985,82.414,145.337"/>
<path fill="#5E5E5F" d="M81.466,144.39c-0.244,0.215,0.09,0.587,0.328,0.373C82.035,144.55,81.703,144.177,81.466,144.39"/>
<path fill="#5E5E5F" d="M80.8,143.219c-0.104-0.023-0.18,0.049-0.172,0.152c0.002,0.025,0.006,0.046,0.008,0.07
	c0.037,0.414,0.639-0.119,0.234-0.207C80.847,143.231,80.824,143.224,80.8,143.219"/>
<path fill="#5E5E5F" d="M80.068,142.066c-0.158,0.142,0.061,0.388,0.219,0.247C80.447,142.17,80.228,141.924,80.068,142.066"/>
<path fill="#5E5E5F" d="M79.613,140.827c-0.002,0.018,0.002,0.033,0.006,0.052c0.041,0.326,0.566-0.05,0.213-0.19
	c-0.02-0.008-0.033-0.012-0.055-0.008s-0.047,0.002-0.07,0.004C79.638,140.695,79.603,140.768,79.613,140.827"/>
<path fill="#5E5E5F" d="M79.345,139.367c-0.076,0.069,0.029,0.187,0.105,0.118C79.525,139.418,79.421,139.303,79.345,139.367"/>
<path fill="#5E5E5F" d="M78.46,138.121c0.066-0.06-0.023-0.159-0.09-0.101C78.306,138.079,78.398,138.178,78.46,138.121"/>
<path fill="#5E5E5F" d="M80.439,157.756c-0.426-1.486-1.646-2.391-2.936-3.066c-0.238-0.127-0.5,0.213-0.324,0.416
	c1.875,2.174,2.785,3.955,2.227,7.006c-0.229,1.238-0.076,2.205,0.291,3.388c1.203,3.862,6.393,2.466,6.551,7.506
	c0.002,0.099,0.166,0.101,0.172,0.002c0.25-4.762-3.742-4.147-5.734-7.901C79.687,163.221,81.074,159.983,80.439,157.756"/>
<path fill="#5E5E5F" d="M76.357,153.905c-0.316,0.127-0.121,0.616,0.193,0.491C76.867,154.268,76.669,153.78,76.357,153.905"/>
<path fill="#5E5E5F" d="M75.558,152.389c-0.342-0.383-0.928-0.148-0.91,0.364c0,0.026,0.002,0.053,0.006,0.081
	c0.027,0.912,1.563,0.298,0.957-0.385C75.591,152.427,75.576,152.407,75.558,152.389"/>
<path fill="#5E5E5F" d="M73.855,151.028c-0.537,0.215-0.203,1.047,0.336,0.832C74.726,151.643,74.394,150.813,73.855,151.028"/>
<path fill="#5E5E5F" d="M72.955,149.902c-0.49,0.194-0.186,0.961,0.307,0.761C73.753,150.467,73.449,149.706,72.955,149.902"/>
<path fill="#5E5E5F" d="M72.384,148.69c-0.303,0.12-0.115,0.582,0.182,0.463C72.865,149.034,72.679,148.57,72.384,148.69"/>
<path fill="#5E5E5F" d="M72.214,147.401c-0.021-0.012-0.041-0.025-0.063-0.038c-0.088-0.056-0.184-0.015-0.213,0.085
	c-0.004,0.025-0.01,0.045-0.016,0.069C71.818,147.918,72.564,147.622,72.214,147.401"/>
<path fill="#5E5E5F" d="M71.853,146.03c-0.195,0.078-0.074,0.386,0.123,0.307C72.175,146.256,72.054,145.95,71.853,146.03"/>
<path fill="#5E5E5F" d="M72.097,144.653c-0.016-0.013-0.027-0.023-0.049-0.025c-0.021-0.004-0.045-0.014-0.066-0.02
	c-0.068-0.014-0.125,0.045-0.137,0.102c-0.008,0.018-0.01,0.032-0.012,0.051C71.761,145.081,72.382,144.905,72.097,144.653"/>
<path fill="#5E5E5F" d="M72.146,143.392c0.094-0.037,0.035-0.183-0.059-0.147C71.992,143.286,72.052,143.43,72.146,143.392"/>
<path fill="#5E5E5F" d="M71.626,141.648c-0.082,0.033-0.029,0.158,0.049,0.126C71.759,141.741,71.708,141.616,71.626,141.648"/>
<path fill="#5E5E5F" d="M52.253,155.198c0.063,2.87-0.368,4.822-2.743,6.82c-0.963,0.811-1.463,1.652-1.933,2.797
	c-1.53,3.742,3.36,5.972,0.274,9.958c-0.064,0.077,0.062,0.187,0.13,0.112c3.225-3.513-0.244-5.58,0.608-9.744
	c0.432-2.088,3.562-3.703,4.489-5.824c0.619-1.419,0.253-2.891-0.31-4.234C52.665,154.834,52.247,154.928,52.253,155.198"/>
<path fill="#5E5E5F" d="M52.22,154.25c0.324,0.104,0.486-0.397,0.164-0.501C52.06,153.645,51.9,154.145,52.22,154.25"/>
<path fill="#5E5E5F" d="M52.733,152.151c0.001-0.029,0-0.057-0.001-0.08c-0.019-0.514-0.619-0.705-0.933-0.299
	c-0.017,0.021-0.033,0.043-0.048,0.066C51.192,152.56,52.767,153.063,52.733,152.151"/>
<path fill="#5E5E5F" d="M52.017,150.792c0.551,0.173,0.822-0.679,0.271-0.854C51.736,149.76,51.462,150.614,52.017,150.792"/>
<path fill="#5E5E5F" d="M52.062,149.277c0.504,0.162,0.754-0.618,0.247-0.782C51.806,148.334,51.554,149.117,52.062,149.277"/>
<path fill="#5E5E5F" d="M52.64,147.198c-0.311-0.102-0.458,0.375-0.151,0.473C52.793,147.766,52.945,147.293,52.64,147.198"/>
<path fill="#5E5E5F" d="M53.089,145.956c-0.021,0.018-0.036,0.027-0.057,0.044c-0.339,0.243,0.428,0.488,0.299,0.095
	c-0.01-0.021-0.015-0.045-0.022-0.066C53.274,145.926,53.176,145.897,53.089,145.956"/>
<path fill="#5E5E5F" d="M53.927,144.808c-0.202-0.063-0.303,0.25-0.102,0.313C54.03,145.187,54.132,144.874,53.927,144.808"/>
<path fill="#5E5E5F" d="M54.929,143.792c-0.043-0.054-0.124-0.044-0.17-0.008c-0.015,0.01-0.026,0.019-0.041,0.03
	c-0.26,0.203,0.332,0.463,0.272,0.086c-0.004-0.02-0.006-0.035-0.022-0.049C54.954,143.834,54.943,143.813,54.929,143.792"/>
<path fill="#5E5E5F" d="M55.878,142.809c-0.098-0.029-0.145,0.121-0.048,0.15C55.928,142.991,55.973,142.842,55.878,142.809"/>
<path fill="#5E5E5F" d="M56.54,141.285c-0.084-0.026-0.123,0.103-0.041,0.129S56.624,141.311,56.54,141.285"/>
<path fill="#5E5E5F" d="M41.237,148.978c-0.911,2.722-1.978,4.413-4.891,5.49c-1.179,0.437-1.933,1.062-2.763,1.979
	c-2.706,3.004,1.142,6.756-3.112,9.463c-0.086,0.051-0.004,0.195,0.086,0.149c4.223-2.215,1.658-5.334,3.868-8.964
	c1.112-1.819,4.604-2.28,6.195-3.963c1.062-1.125,1.217-2.635,1.14-4.09C41.748,148.775,41.323,148.722,41.237,148.978"/>
<path fill="#5E5E5F" d="M41.526,148.075c0.271,0.207,0.593-0.21,0.324-0.416C41.58,147.452,41.261,147.868,41.526,148.075"/>
<path fill="#5E5E5F" d="M41.97,145.601c-0.022,0.015-0.046,0.028-0.067,0.046c-0.772,0.49,0.541,1.496,0.817,0.627
	c0.011-0.027,0.02-0.053,0.025-0.076C42.902,145.708,42.402,145.325,41.97,145.601"/>
<path fill="#5E5E5F" d="M42.505,144.752c0.459,0.35,1.005-0.359,0.543-0.714C42.589,143.686,42.043,144.397,42.505,144.752"/>
<path fill="#5E5E5F" d="M43.06,143.342c0.42,0.322,0.918-0.327,0.498-0.652C43.138,142.368,42.636,143.019,43.06,143.342"/>
<path fill="#5E5E5F" d="M44.003,141.974c0.257,0.194,0.56-0.201,0.306-0.394C44.051,141.38,43.749,141.778,44.003,141.974"/>
<path fill="#5E5E5F" d="M45.149,140.564c-0.024,0.009-0.045,0.015-0.067,0.021c-0.399,0.117,0.237,0.605,0.25,0.191
	c-0.002-0.023,0-0.048,0-0.07C45.336,140.599,45.252,140.538,45.149,140.564"/>
<path fill="#5E5E5F" d="M46.124,140.029c0.173,0.13,0.373-0.131,0.203-0.263C46.157,139.639,45.956,139.9,46.124,140.029"/>
<path fill="#5E5E5F" d="M47.613,139.151c-0.021-0.064-0.103-0.084-0.156-0.064c-0.019,0.004-0.032,0.008-0.052,0.015
	c-0.311,0.102,0.156,0.547,0.229,0.172c0.001-0.019,0.005-0.035-0.004-0.054C47.623,139.199,47.621,139.174,47.613,139.151"/>
<path fill="#5E5E5F" d="M48.839,138.546c-0.082-0.06-0.178,0.065-0.096,0.126C48.823,138.733,48.916,138.61,48.839,138.546"/>
<path fill="#5E5E5F" d="M49.896,137.443c0.068,0.054,0.152-0.054,0.082-0.106C49.908,137.283,49.826,137.391,49.896,137.443"/>
<path fill="#5E5E5F" d="M32.974,139.399c-1.777,2.252-3.354,3.482-6.459,3.512c-1.258,0.012-2.178,0.344-3.27,0.928
	c-3.563,1.912-1.211,6.744-6.129,7.852c-0.099,0.02-0.07,0.184,0.03,0.171c4.724-0.655,3.364-4.458,6.672-7.127
	c1.662-1.336,5.104-0.588,7.172-1.634c1.38-0.699,2.035-2.067,2.455-3.462C33.524,139.379,33.143,139.187,32.974,139.399"/>
<path fill="#5E5E5F" d="M33.552,138.647c0.186,0.285,0.63,0.002,0.445-0.282C33.814,138.079,33.372,138.362,33.552,138.647"/>
<path fill="#5E5E5F" d="M34.806,136.468c-0.026,0.005-0.053,0.013-0.079,0.021c-0.892,0.201,0.004,1.59,0.558,0.867
	c0.018-0.022,0.036-0.043,0.049-0.063C35.648,136.884,35.306,136.356,34.806,136.468"/>
<path fill="#5E5E5F" d="M35.597,135.851c0.315,0.483,1.066,0,0.752-0.487C36.037,134.875,35.284,135.36,35.597,135.851"/>
<path fill="#5E5E5F" d="M36.596,134.711c0.286,0.445,0.977,0.003,0.691-0.445C36.999,133.821,36.308,134.264,36.596,134.711"/>
<path fill="#5E5E5F" d="M37.946,133.743c0.177,0.27,0.595,0,0.42-0.268C38.192,133.201,37.774,133.473,37.946,133.743"/>
<path fill="#5E5E5F" d="M39.602,133.065c0.007-0.023,0.018-0.045,0.024-0.066c0.039-0.099-0.019-0.185-0.123-0.194
	c-0.027,0-0.048-0.003-0.072-0.003C39.017,132.775,39.451,133.452,39.602,133.065"/>
<path fill="#5E5E5F" d="M40.88,132.453c-0.116-0.178-0.395-0.001-0.278,0.179C40.719,132.811,40.996,132.633,40.88,132.453"/>
<path fill="#5E5E5F" d="M42.12,132.19c-0.325-0.009-0.039,0.568,0.156,0.24c0.01-0.018,0.019-0.031,0.017-0.053
	c0-0.021,0.006-0.045,0.006-0.07c0.002-0.067-0.067-0.113-0.125-0.114C42.155,132.192,42.142,132.191,42.12,132.19"/>
<path fill="#5E5E5F" d="M43.657,132.154c-0.057-0.085-0.188,0.001-0.133,0.086S43.709,132.24,43.657,132.154"/>
<path fill="#5E5E5F" d="M45.138,131.399c-0.048-0.072-0.161,0.001-0.112,0.074C45.072,131.545,45.187,131.473,45.138,131.399"/>
<path fill="#5E5E5F" d="M28.438,127.588c-2.436,1.518-4.334,2.145-7.266,1.12c-1.187-0.414-2.166-0.413-3.391-0.233
	c-3.999,0.594-3.419,5.937-8.423,5.315c-0.101-0.015-0.13,0.149-0.03,0.171c4.666,0.982,4.674-3.057,8.688-4.449
	c2.019-0.695,5.004,1.174,7.304,0.889c1.533-0.191,2.613-1.258,3.48-2.428C28.962,127.756,28.669,127.446,28.438,127.588"/>
<path fill="#5E5E5F" d="M29.237,127.077c0.076,0.331,0.591,0.215,0.515-0.115C29.676,126.629,29.166,126.749,29.237,127.077"/>
<path fill="#5E5E5F" d="M31.154,125.451c-0.027-0.005-0.054-0.006-0.083-0.008c-0.905-0.112-0.533,1.499,0.232,1.005
	c0.026-0.016,0.049-0.028,0.069-0.043C31.806,126.127,31.664,125.512,31.154,125.451"/>
<path fill="#5E5E5F" d="M32.107,125.137c0.133,0.563,1.003,0.361,0.872-0.205C32.851,124.37,31.978,124.569,32.107,125.137"/>
<path fill="#5E5E5F" d="M33.433,124.403c0.119,0.518,0.918,0.333,0.802-0.188C34.115,123.702,33.312,123.883,33.433,124.403"/>
<path fill="#5E5E5F" d="M35.032,123.948c0.073,0.313,0.56,0.201,0.484-0.107C35.446,123.522,34.961,123.637,35.032,123.948"/>
<path fill="#5E5E5F" d="M36.818,123.871c0.014-0.021,0.03-0.036,0.047-0.056c0.069-0.078,0.044-0.18-0.052-0.223
	c-0.024-0.01-0.043-0.02-0.065-0.027C36.367,123.399,36.547,124.182,36.818,123.871"/>
<path fill="#5E5E5F" d="M38.229,123.727c-0.05-0.207-0.37-0.135-0.322,0.072C37.956,124.009,38.277,123.936,38.229,123.727"/>
<path fill="#5E5E5F" d="M39.551,124.178c0.016-0.014,0.026-0.023,0.032-0.045c0.008-0.02,0.021-0.04,0.029-0.063
	c0.023-0.064-0.025-0.131-0.079-0.151c-0.016-0.007-0.028-0.013-0.048-0.021C39.182,123.782,39.255,124.42,39.551,124.178"/>
<path fill="#5E5E5F" d="M40.942,124.385c-0.021-0.1-0.178-0.064-0.153,0.036C40.812,124.52,40.964,124.483,40.942,124.385"/>
<path fill="#5E5E5F" d="M42.46,124.207c0.021,0.085,0.152,0.056,0.134-0.03C42.571,124.09,42.438,124.122,42.46,124.207"/>
<path fill="#5E5E5F" d="M28.166,114.94c-2.806,0.604-4.804,0.553-7.216-1.403c-0.978-0.791-1.897-1.122-3.113-1.368
	c-3.964-0.792-5.225,4.431-9.725,2.154c-0.088-0.048-0.171,0.096-0.086,0.15c4.059,2.502,5.434-1.295,9.682-1.248
	c2.134,0.028,4.312,2.798,6.57,3.307c1.51,0.34,2.887-0.299,4.098-1.107C28.603,115.276,28.432,114.884,28.166,114.94"/>
<path fill="#5E5E5F" d="M29.614,114.794c0.039-0.338-0.479-0.398-0.522-0.065C29.05,115.066,29.573,115.131,29.614,114.794"/>
<path fill="#5E5E5F" d="M31.444,113.847c-0.022-0.014-0.049-0.023-0.073-0.035c-0.815-0.412-1.012,1.229-0.121,1.024
	c0.026-0.005,0.054-0.01,0.078-0.017C31.83,114.704,31.902,114.078,31.444,113.847"/>
<path fill="#5E5E5F" d="M33.339,113.977c0.068-0.574-0.82-0.681-0.891-0.103C32.382,114.449,33.271,114.554,33.339,113.977"/>
<path fill="#5E5E5F" d="M34.761,113.728c0.062-0.524-0.756-0.624-0.817-0.096C33.88,114.159,34.695,114.256,34.761,113.728"/>
<path fill="#5E5E5F" d="M35.603,113.745c-0.036,0.32,0.457,0.379,0.492,0.062C36.136,113.485,35.64,113.429,35.603,113.745"/>
<path fill="#5E5E5F" d="M37.345,113.965c-0.302-0.285-0.396,0.513-0.034,0.312c0.017-0.014,0.041-0.024,0.061-0.037
	c0.093-0.05,0.103-0.155,0.029-0.227C37.378,113.996,37.366,113.98,37.345,113.965"/>
<path fill="#5E5E5F" d="M38.356,114.578c-0.023,0.214,0.304,0.254,0.328,0.041C38.709,114.407,38.382,114.367,38.356,114.578"/>
<path fill="#5E5E5F" d="M39.776,115.491c0.021-0.008,0.033-0.014,0.047-0.031c0.014-0.016,0.031-0.031,0.049-0.051
	c0.044-0.051,0.02-0.13-0.024-0.168c-0.012-0.012-0.021-0.021-0.038-0.035C39.563,114.991,39.418,115.619,39.776,115.491"/>
<path fill="#5E5E5F" d="M40.858,116.138c-0.011,0.101,0.144,0.116,0.158,0.018C41.028,116.054,40.871,116.036,40.858,116.138"/>
<path fill="#5E5E5F" d="M42.505,116.501c-0.01,0.086,0.125,0.103,0.136,0.015C42.651,116.431,42.515,116.415,42.505,116.501"/>
<path fill="#5E5E5F" d="M32.188,102.946c-2.844-0.38-4.708-1.105-6.315-3.762c-0.653-1.075-1.407-1.697-2.467-2.34
	c-3.463-2.086-6.416,2.403-9.879-1.263c-0.067-0.074-0.195,0.033-0.134,0.113c2.974,3.727,5.552,0.619,9.533,2.101
	c1.998,0.748,3.112,4.09,5.065,5.334c1.306,0.83,2.817,0.695,4.229,0.344C32.486,103.409,32.457,102.983,32.188,102.946"/>
<path fill="#5E5E5F" d="M33.601,103.298c0.151-0.305-0.316-0.537-0.471-0.238C32.978,103.363,33.449,103.603,33.601,103.298"/>
<path fill="#5E5E5F" d="M35.124,103.891c0.028,0.005,0.056,0.01,0.08,0.01c0.512,0.062,0.792-0.502,0.441-0.874
	c-0.02-0.022-0.041-0.039-0.061-0.059C34.958,102.305,34.219,103.783,35.124,103.891"/>
<path fill="#5E5E5F" d="M37.382,103.79c0.26-0.518-0.542-0.918-0.803-0.398C36.321,103.91,37.122,104.31,37.382,103.79"/>
<path fill="#5E5E5F" d="M38.067,103.668c-0.237,0.475,0.496,0.842,0.736,0.367C39.04,103.563,38.304,103.192,38.067,103.668"/>
<path fill="#5E5E5F" d="M39.591,104.336c-0.143,0.289,0.304,0.512,0.442,0.225C40.182,104.272,39.734,104.051,39.591,104.336"/>
<path fill="#5E5E5F" d="M41.087,105.402c0.105-0.017,0.15-0.111,0.104-0.205c-0.013-0.023-0.02-0.042-0.035-0.064
	c-0.186-0.37-0.547,0.349-0.138,0.282C41.038,105.408,41.064,105.407,41.087,105.402"/>
<path fill="#5E5E5F" d="M42.194,106.202c0.097-0.191-0.196-0.34-0.294-0.15C41.806,106.245,42.1,106.393,42.194,106.202"/>
<path fill="#5E5E5F" d="M42.927,107.391c0.021,0,0.037-0.001,0.056-0.014c0.019-0.009,0.041-0.017,0.063-0.031
	c0.058-0.033,0.063-0.115,0.033-0.166c-0.007-0.015-0.013-0.026-0.022-0.046C42.896,106.848,42.546,107.391,42.927,107.391"/>
<path fill="#5E5E5F" d="M43.728,108.367c-0.045,0.091,0.097,0.157,0.143,0.07C43.915,108.345,43.773,108.275,43.728,108.367"/>
<path fill="#5E5E5F" d="M45.276,109.325c0.037-0.077-0.086-0.138-0.123-0.059C45.116,109.344,45.238,109.405,45.276,109.325"/>
<path fill="#5E5E5F" d="M40.032,93.02c-2.549-1.32-4.057-2.634-4.672-5.678c-0.251-1.232-0.75-2.072-1.529-3.036
	c-2.555-3.135-6.852,0.091-8.87-4.531c-0.037-0.093-0.194-0.034-0.162,0.061c1.537,4.513,5.013,2.461,8.259,5.203
	c1.627,1.379,1.545,4.902,2.962,6.733c0.949,1.223,2.417,1.607,3.865,1.755C40.154,93.555,40.271,93.145,40.032,93.02"/>
<path fill="#5E5E5F" d="M41.241,93.829c0.244-0.235-0.116-0.612-0.362-0.383C40.633,93.68,40.995,94.063,41.241,93.829"/>
<path fill="#5E5E5F" d="M42.474,94.902c0.025,0.015,0.05,0.027,0.072,0.036c0.459,0.232,0.916-0.204,0.709-0.674
	c-0.01-0.025-0.022-0.049-0.035-0.074C42.855,93.353,41.658,94.494,42.474,94.902"/>
<path fill="#5E5E5F" d="M44.013,94.923c-0.418,0.401,0.2,1.048,0.62,0.647C45.052,95.17,44.435,94.523,44.013,94.923"/>
<path fill="#5E5E5F" d="M45.319,95.688c-0.385,0.366,0.183,0.96,0.568,0.595C46.269,95.917,45.703,95.321,45.319,95.688"/>
<path fill="#5E5E5F" d="M46.526,96.833c-0.231,0.224,0.111,0.584,0.341,0.36C47.104,96.972,46.756,96.612,46.526,96.833"/>
<path fill="#5E5E5F" d="M47.505,98.329c0.022,0.001,0.047,0.009,0.068,0.012c0.106,0.02,0.18-0.053,0.168-0.157
	c-0.006-0.027-0.004-0.046-0.011-0.072C47.68,97.7,47.098,98.255,47.505,98.329"/>
<path fill="#5E5E5F" d="M48.12,99.227c-0.153,0.149,0.072,0.39,0.228,0.241C48.502,99.321,48.274,99.082,48.12,99.227"/>
<path fill="#5E5E5F" d="M48.847,100.688c-0.002-0.017-0.004-0.029-0.006-0.051c-0.054-0.323-0.565,0.07-0.209,0.198
	c0.022,0.007,0.035,0.011,0.058,0.006c0.021-0.003,0.045-0.003,0.07-0.008C48.825,100.821,48.858,100.746,48.847,100.688"/>
<path fill="#5E5E5F" d="M49.056,102.024c-0.071,0.07,0.037,0.181,0.111,0.115C49.241,102.067,49.13,101.953,49.056,102.024"/>
<path fill="#5E5E5F" d="M50.094,103.353c-0.063,0.06,0.032,0.159,0.096,0.097C50.251,103.389,50.155,103.291,50.094,103.353"/>
<path fill="#5E5E5F" d="M50.459,86.758c0.245,0.119,0.493-0.229,0.312-0.426c-1.952-2.105-2.926-3.851-2.477-6.924
	c0.183-1.244-0.004-2.203-0.411-3.375c-1.344-3.813-6.479-2.232-6.815-7.264c-0.004-0.1-0.169-0.097-0.173,0.003
	c-0.081,4.766,3.885,4.011,6.013,7.689c1.065,1.85-0.205,5.137,0.509,7.339C47.896,85.272,49.148,86.13,50.459,86.758"/>
<path fill="#5E5E5F" d="M51.634,87.502c0.311-0.139,0.099-0.616-0.211-0.483C51.112,87.155,51.323,87.64,51.634,87.502"/>
<path fill="#5E5E5F" d="M52.487,88.988c0.354,0.374,0.932,0.117,0.896-0.395c0-0.027-0.006-0.054-0.009-0.082
	c-0.062-0.911-1.572-0.243-0.944,0.418C52.451,88.952,52.468,88.971,52.487,88.988"/>
<path fill="#5E5E5F" d="M53.872,89.469c-0.528,0.236-0.166,1.055,0.364,0.819C54.768,90.054,54.403,89.236,53.872,89.469"/>
<path fill="#5E5E5F" d="M54.843,90.631c-0.485,0.215-0.152,0.965,0.334,0.752C55.659,91.168,55.327,90.415,54.843,90.631"/>
<path fill="#5E5E5F" d="M55.592,92.117c-0.294,0.132-0.093,0.587,0.198,0.454C56.088,92.442,55.884,91.987,55.592,92.117"/>
<path fill="#5E5E5F" d="M56.278,93.799c0.004-0.027,0.013-0.045,0.013-0.072c0.091-0.405-0.644-0.079-0.284,0.129
	c0.02,0.008,0.04,0.023,0.061,0.034C56.16,93.945,56.255,93.901,56.278,93.799"/>
<path fill="#5E5E5F" d="M56.413,95.213c0.195-0.088,0.063-0.389-0.131-0.304C56.086,94.998,56.219,95.3,56.413,95.213"/>
<path fill="#5E5E5F" d="M56.482,96.48c0.06-0.322-0.557-0.126-0.263,0.116c0.018,0.014,0.03,0.022,0.051,0.025
	c0.022,0.005,0.043,0.012,0.07,0.015c0.065,0.011,0.12-0.049,0.131-0.106C56.476,96.513,56.478,96.501,56.482,96.48"/>
<path fill="#5E5E5F" d="M56.216,97.858c-0.092,0.042-0.025,0.182,0.066,0.146C56.374,97.961,56.311,97.816,56.216,97.858"/>
<path fill="#5E5E5F" d="M56.743,99.459c-0.077,0.035-0.022,0.16,0.058,0.123C56.879,99.546,56.822,99.421,56.743,99.459"/>
<path fill="#5E5E5F" d="M60.114,41.681c-0.475-1.809,0.266-3.237,0.597-4.982c0.243-1.288,0.192-2.663,0.155-3.965
	c-0.004-0.144-0.216-0.143-0.223,0c-0.094,1.954-0.389,3.816-1.036,5.663c-0.445,1.277-0.71,2.31,0.144,3.437
	C59.881,42.006,60.175,41.914,60.114,41.681"/>
<path fill="#5E5E5F" d="M60.306,42.204c-0.027-0.063-0.121-0.017-0.106,0.045c0.036,0.159,0.127,0.22,0.259,0.316
	c0.097,0.072,0.203-0.11,0.094-0.162C60.47,42.337,60.388,42.27,60.306,42.204"/>
<path fill="#5E5E5F" d="M62.71,224.609c-0.011-0.101-0.165-0.103-0.158,0c0.137,1.931-1.38,4.535,0.121,6.208
	c0.091,0.102,0.251-0.029,0.183-0.143C61.699,228.713,62.914,226.693,62.71,224.609"/>
<path fill="#5E5E5F" d="M63.058,228.754c0.107,0.338,0.237,0.669,0.347,1.008c0.042,0.131,0.251,0.069,0.203-0.057
	c-0.127-0.333-0.276-0.658-0.403-0.992C63.169,228.624,63.027,228.659,63.058,228.754"/>
<path fill="#5E5E5F" d="M62.04,204.234c0.011,0.117,0.171,0.117,0.182,0c0.255-2.702,0.006-5.543-0.137-8.25
	c-0.006-0.101-0.161-0.103-0.158,0C62.011,198.715,61.782,201.518,62.04,204.234"/>
<path fill="#5E5E5F" d="M62.005,205.39c-0.121,0-0.121,0.187,0,0.187S62.126,205.39,62.005,205.39"/>
<path fill="#5E5E5F" d="M62.463,204.842c-0.091-0.042-0.159-0.085-0.237-0.146c-0.174-0.131-0.373,0.148-0.229,0.295
	c0.116,0.117,0.227,0.143,0.383,0.158C62.54,205.163,62.608,204.909,62.463,204.842"/>
<path fill="#5E5E5F" d="M62.212,194.859c-0.001-0.801-0.01-1.603-0.134-2.396c-0.014-0.097-0.161-0.056-0.146,0.041
	c0.117,0.779,0.115,1.567,0.115,2.354C62.048,194.965,62.212,194.965,62.212,194.859"/>
<path fill="#5E5E5F" d="M63.327,216.359c0.005,0.067,0.103,0.067,0.105,0c0.009-0.239-0.016-0.421-0.11-0.644
	c-0.039-0.094-0.172-0.039-0.128,0.055C63.291,215.971,63.315,216.139,63.327,216.359"/>
<path fill="#5E5E5F" d="M63.299,217.984c-0.008-0.063-0.095-0.052-0.086,0.013c0.213,1.526-0.43,2.969-0.274,4.487
	c0.008,0.085,0.133,0.089,0.133,0C63.08,220.991,63.479,219.469,63.299,217.984"/>
<path fill="#5E5E5F" d="M62.88,223.085c-0.029,0-0.029,0.047,0,0.047C62.91,223.132,62.91,223.085,62.88,223.085"/>
<path fill="#5E5E5F" d="M62.88,223.495c-0.15,0.014-0.23,0.042-0.35,0.141c-0.138,0.113,0.065,0.323,0.2,0.198
	c0.06-0.058,0.128-0.099,0.208-0.126C63.039,223.661,62.991,223.484,62.88,223.495"/>
<path fill="#5E5E5F" d="M61.823,147c0.102,0.578,0.043,1.153,0.073,1.733c0.007,0.141,0.21,0.141,0.217,0
	c0.03-0.588-0.022-1.194-0.177-1.764C61.918,146.895,61.811,146.926,61.823,147"/>
<path fill="#5E5E5F" d="M69.498,41.681c-0.063,0.233,0.234,0.325,0.363,0.153c0.854-1.127,0.59-2.16,0.145-3.437
	c-0.648-1.847-0.945-3.709-1.037-5.663c-0.006-0.143-0.219-0.144-0.223,0c-0.037,1.302-0.088,2.677,0.156,3.965
	C69.232,38.444,69.972,39.872,69.498,41.681"/>
<path fill="#5E5E5F" d="M69.306,42.204c-0.082,0.066-0.164,0.133-0.246,0.199c-0.111,0.052-0.004,0.234,0.094,0.162
	c0.131-0.096,0.223-0.157,0.26-0.316C69.427,42.187,69.333,42.141,69.306,42.204"/>
<path fill="#5E5E5F" d="M67.062,224.609c0.006-0.103-0.148-0.101-0.158,0c-0.205,2.084,1.01,4.104-0.148,6.065
	c-0.066,0.113,0.094,0.244,0.186,0.143C68.441,229.144,66.923,226.54,67.062,224.609"/>
<path fill="#5E5E5F" d="M66.408,228.713c-0.127,0.334-0.275,0.659-0.402,0.992c-0.047,0.126,0.162,0.188,0.203,0.057
	c0.107-0.339,0.238-0.67,0.346-1.008C66.585,228.659,66.443,228.624,66.408,228.713"/>
<path fill="#5E5E5F" d="M67.529,195.984c-0.146,2.707-0.393,5.548-0.139,8.25c0.012,0.117,0.172,0.117,0.184,0
	c0.256-2.716,0.027-5.519,0.111-8.25C67.689,195.881,67.533,195.883,67.529,195.984"/>
<path fill="#5E5E5F" d="M67.607,205.39c-0.121,0-0.121,0.187,0,0.187S67.728,205.39,67.607,205.39"/>
<path fill="#5E5E5F" d="M67.386,204.697c-0.076,0.06-0.146,0.104-0.236,0.146c-0.146,0.067-0.078,0.32,0.082,0.306
	c0.156-0.015,0.266-0.04,0.383-0.156C67.759,204.844,67.562,204.565,67.386,204.697"/>
<path fill="#5E5E5F" d="M67.564,194.859c0-0.787-0.002-1.575,0.115-2.354c0.016-0.097-0.131-0.138-0.145-0.041
	c-0.125,0.793-0.133,1.595-0.135,2.396C67.4,194.965,67.564,194.965,67.564,194.859"/>
<path fill="#5E5E5F" d="M66.285,216.359c0.012-0.22,0.037-0.388,0.133-0.589c0.045-0.094-0.09-0.148-0.127-0.055
	c-0.096,0.223-0.119,0.404-0.111,0.644C66.181,216.426,66.281,216.426,66.285,216.359"/>
<path fill="#5E5E5F" d="M66.4,217.996c0.008-0.063-0.078-0.075-0.088-0.013c-0.178,1.486,0.221,3.008,0.229,4.5
	c0,0.09,0.125,0.086,0.133,0C66.83,220.965,66.185,219.522,66.4,217.996"/>
<path fill="#5E5E5F" d="M66.732,223.085c-0.029,0-0.029,0.047,0,0.047S66.761,223.085,66.732,223.085"/>
<path fill="#5E5E5F" d="M67.082,223.634c-0.119-0.099-0.197-0.126-0.35-0.14c-0.111-0.01-0.16,0.166-0.057,0.213
	c0.078,0.027,0.146,0.068,0.207,0.126C67.017,223.958,67.22,223.749,67.082,223.634"/>
<path fill="#5E5E5F" d="M67.716,148.734c0.029-0.581-0.027-1.157,0.072-1.733c0.014-0.074-0.094-0.106-0.113-0.033
	c-0.152,0.572-0.207,1.178-0.178,1.767C67.505,148.874,67.708,148.874,67.716,148.734"/>
</svg>
