<?xml version="1.0" encoding="utf-8"?>
<!-- Generator: Adobe Illustrator 14.0.0, SVG Export Plug-In . SVG Version: 6.00 Build 43363)  -->
<!DOCTYPE svg PUBLIC "-//W3C//DTD SVG 1.1//EN" "http://www.w3.org/Graphics/SVG/1.1/DTD/svg11.dtd">
<svg version="1.1" id="Layer_1" xmlns="http://www.w3.org/2000/svg" xmlns:xlink="http://www.w3.org/1999/xlink" x="0px" y="0px"
	 width="152.052px" height="39.321px" viewBox="509.5 103.5 152.052 39.321" enable-background="new 509.5 103.5 152.052 39.321"
	 xml:space="preserve">
<g>
	<g>
		<path fill="#FFFFFF" d="M518.047,108.451c2.296,0,3.981,0.527,5.056,1.58c0.945,0.92,1.417,2.204,1.417,3.851v3.306
			c0,1.611-0.734,2.973-2.202,4.086l3.051,9.936h-4.455l-2.498-8.573c-0.116,0-0.239,0-0.37,0h-2.376v8.573h-4.119v-22.758H518.047z
			 M520.51,113.936c0-1.319-0.785-1.979-2.354-1.979h-2.485v7.283h2.485c0.654,0,1.209-0.193,1.667-0.581
			c0.458-0.388,0.687-0.854,0.687-1.398V113.936z"/>
		<path fill="#FFFFFF" d="M535.507,125.978l-1.001,5.231h-4.289l4.643-22.758h5.667l4.576,22.758h-4.331l-0.964-5.231H535.507z
			 M537.671,113.663l-1.525,8.973h3.051L537.671,113.663z"/>
		<path fill="#FFFFFF" d="M550.692,131.209l-4.882-22.758h4.317l3.429,17.74l3.452-17.74h4.32l-4.969,22.758H550.692z"/>
		<path fill="#FFFFFF" d="M566.306,131.209v-22.776h11.726v3.451h-7.606v6.211h5.558v3.451h-5.558v6.212h7.606v3.451H566.306
			L566.306,131.209z"/>
		<path fill="#FFFFFF" d="M587.024,108.433l5.467,15.307v-15.307h4.119v22.776h-4.424l-5.667-14.585v14.585h-4.12v-22.776H587.024z"
			/>
		<path fill="#FFFFFF" d="M605.947,131.209h-4.12v-22.776h11.727v3.451h-7.606v6.211h5.558v3.451h-5.558V131.209L605.947,131.209z"
			/>
		<path fill="#FFFFFF" d="M617.92,131.209v-22.776h11.727v3.451h-7.606v6.211h5.558v3.451h-5.558v6.212h7.606v3.451H617.92
			L617.92,131.209z"/>
		<path fill="#FFFFFF" d="M645.239,131.209h-11.225v-22.758h4.119v19.343h7.105V131.209z"/>
		<path fill="#FFFFFF" d="M660.83,131.209h-11.225v-22.758h4.119v19.343h7.105V131.209z"/>
	</g>
	<g>
		<path fill="#FFFFFF" d="M517.914,138.402h-0.782v-2.592c0-0.045-0.019-0.098-0.055-0.154c-0.037-0.056-0.064-0.1-0.083-0.131
			c-0.098-0.082-0.2-0.141-0.304-0.177c-0.104-0.036-0.215-0.054-0.332-0.054c-0.239,0-0.46,0.077-0.663,0.23
			c-0.202,0.154-0.334,0.345-0.396,0.57v2.306h-0.764v-2.407c-0.038-0.215-0.135-0.386-0.293-0.512
			c-0.158-0.125-0.355-0.188-0.59-0.188c-0.111,0-0.229,0.015-0.353,0.045c-0.161,0.057-0.301,0.142-0.418,0.254
			c-0.118,0.113-0.208,0.244-0.27,0.393v2.415h-0.708v-3.567h0.708v0.613c0.129-0.201,0.297-0.368,0.505-0.5
			s0.444-0.197,0.707-0.197c0.03,0,0.076,0,0.138,0c0.281,0,0.531,0.071,0.748,0.215c0.217,0.143,0.375,0.33,0.473,0.56
			c0.116-0.235,0.305-0.423,0.565-0.563s0.545-0.211,0.852-0.211c0.221,0,0.425,0.037,0.612,0.111
			c0.187,0.074,0.351,0.189,0.492,0.349c0.11,0.107,0.181,0.237,0.211,0.392L517.914,138.402L517.914,138.402z"/>
		<path fill="#FFFFFF" d="M526.56,137.565c-0.258,0.286-0.571,0.512-0.939,0.675c-0.368,0.164-0.758,0.246-1.169,0.246
			c-0.393,0-0.768-0.08-1.123-0.238c-0.332-0.179-0.583-0.411-0.755-0.697c-0.171-0.287-0.257-0.6-0.257-0.937
			c0-0.456,0.158-0.863,0.474-1.224c0.316-0.361,0.642-0.563,0.976-0.606c0.334-0.043,0.563-0.065,0.686-0.065
			c0.393,0,0.759,0.074,1.1,0.223c0.341,0.148,0.591,0.375,0.751,0.68c0.159,0.304,0.239,0.66,0.239,1.07h-3.462
			c0,0.348,0.131,0.646,0.395,0.896c0.264,0.251,0.594,0.377,0.992,0.377c0.122,0,0.232-0.011,0.33-0.031
			c0.245-0.031,0.456-0.104,0.634-0.219s0.352-0.27,0.523-0.464L526.56,137.565z M525.795,136.23
			c-0.067-0.286-0.23-0.521-0.488-0.701c-0.258-0.182-0.562-0.273-0.912-0.273c-0.313,0-0.588,0.096-0.824,0.288
			c-0.236,0.192-0.391,0.421-0.465,0.687H525.795L525.795,136.23z"/>
		<path fill="#FFFFFF" d="M535.885,135.418l-0.626,0.299c-0.049-0.144-0.173-0.262-0.373-0.357c-0.2-0.094-0.413-0.142-0.64-0.142
			c-0.16,0-0.301,0.026-0.423,0.081c-0.123,0.054-0.204,0.125-0.244,0.215s-0.06,0.163-0.06,0.22c0,0.133,0.092,0.264,0.276,0.392
			l1.436,0.424c0.215,0.076,0.378,0.189,0.488,0.338s0.166,0.311,0.166,0.484c0,0.226-0.079,0.438-0.235,0.635
			s-0.37,0.337-0.64,0.419c-0.099,0.021-0.21,0.038-0.336,0.054c-0.126,0.016-0.241,0.023-0.346,0.023
			c-0.344,0-0.664-0.059-0.962-0.174c-0.298-0.116-0.551-0.29-0.759-0.521l0.644-0.363c0.099,0.171,0.246,0.309,0.442,0.412
			c0.196,0.104,0.408,0.155,0.635,0.155c0.215,0,0.389-0.038,0.521-0.116c0.132-0.076,0.216-0.146,0.253-0.207
			c0.037-0.062,0.056-0.125,0.056-0.192c0-0.107-0.043-0.206-0.129-0.296s-0.206-0.157-0.359-0.203
			c-0.294-0.072-0.603-0.152-0.925-0.238c-0.322-0.088-0.554-0.213-0.695-0.377c-0.178-0.19-0.267-0.393-0.267-0.608
			c0-0.333,0.131-0.575,0.394-0.727s0.494-0.242,0.695-0.272c0.2-0.031,0.437-0.047,0.708-0.047
			c0.296,0.021,0.544,0.088,0.746,0.199C535.526,135.039,535.713,135.203,535.885,135.418z"/>
		<path fill="#FFFFFF" d="M545.552,135.418l-0.626,0.299c-0.049-0.144-0.173-0.262-0.373-0.357c-0.199-0.094-0.413-0.142-0.64-0.142
			c-0.16,0-0.301,0.026-0.424,0.081c-0.122,0.054-0.204,0.125-0.243,0.215c-0.04,0.09-0.061,0.163-0.061,0.22
			c0,0.133,0.093,0.264,0.276,0.392l1.437,0.424c0.215,0.076,0.377,0.189,0.487,0.338s0.166,0.311,0.166,0.484
			c0,0.226-0.078,0.438-0.235,0.635s-0.37,0.337-0.64,0.419c-0.098,0.021-0.21,0.038-0.336,0.054
			c-0.125,0.016-0.241,0.023-0.345,0.023c-0.344,0-0.665-0.059-0.962-0.174c-0.298-0.116-0.551-0.29-0.76-0.521l0.645-0.363
			c0.098,0.171,0.245,0.309,0.441,0.412c0.197,0.104,0.408,0.155,0.636,0.155c0.215,0,0.388-0.038,0.52-0.116
			c0.132-0.076,0.216-0.146,0.253-0.207c0.036-0.062,0.055-0.125,0.055-0.192c0-0.107-0.043-0.206-0.129-0.296
			s-0.206-0.157-0.359-0.203c-0.294-0.072-0.603-0.152-0.925-0.238c-0.322-0.088-0.554-0.213-0.695-0.377
			c-0.178-0.19-0.267-0.393-0.267-0.608c0-0.333,0.131-0.575,0.394-0.727c0.262-0.151,0.494-0.242,0.694-0.272
			c0.201-0.031,0.437-0.047,0.709-0.047c0.296,0.021,0.545,0.088,0.745,0.199C545.192,135.039,545.379,135.203,545.552,135.418z"/>
		<path fill="#FFFFFF" d="M555.559,137.565c-0.258,0.286-0.571,0.512-0.939,0.675c-0.368,0.164-0.758,0.246-1.169,0.246
			c-0.393,0-0.768-0.08-1.124-0.238c-0.332-0.179-0.583-0.411-0.755-0.697c-0.172-0.287-0.258-0.6-0.258-0.937
			c0-0.456,0.158-0.863,0.474-1.224c0.316-0.361,0.642-0.563,0.976-0.606c0.335-0.043,0.563-0.065,0.687-0.065
			c0.393,0,0.759,0.074,1.1,0.223s0.591,0.375,0.75,0.68c0.16,0.304,0.239,0.66,0.239,1.07h-3.461c0,0.348,0.131,0.646,0.395,0.896
			c0.264,0.251,0.594,0.377,0.992,0.377c0.122,0,0.232-0.011,0.33-0.031c0.245-0.031,0.456-0.104,0.634-0.219
			s0.352-0.27,0.523-0.464L555.559,137.565z M554.795,136.23c-0.067-0.286-0.23-0.521-0.488-0.701
			c-0.258-0.182-0.562-0.273-0.912-0.273c-0.313,0-0.588,0.096-0.824,0.288c-0.236,0.192-0.391,0.421-0.465,0.687H554.795
			L554.795,136.23z"/>
		<path fill="#FFFFFF" d="M564.978,138.402h-0.783v-2.486c-0.062-0.184-0.183-0.332-0.362-0.445
			c-0.18-0.112-0.384-0.168-0.613-0.168c-0.124,0-0.254,0.02-0.391,0.061c-0.173,0.077-0.323,0.173-0.45,0.288
			s-0.218,0.247-0.274,0.396v2.355h-0.727v-3.568h0.727v0.614c0.16-0.22,0.35-0.39,0.571-0.511c0.221-0.119,0.484-0.18,0.792-0.18
			c0.417,0,0.759,0.105,1.027,0.318c0.267,0.212,0.428,0.497,0.483,0.855V138.402L564.978,138.402z"/>
		<path fill="#FFFFFF" d="M575.022,138.939c-0.117,0.403-0.386,0.719-0.806,0.947c-0.421,0.227-0.886,0.341-1.395,0.341
			c-0.338,0-0.654-0.048-0.948-0.142c-0.295-0.095-0.526-0.219-0.695-0.373c-0.169-0.152-0.282-0.3-0.341-0.44
			s-0.097-0.301-0.115-0.479h0.811c0,0.271,0.135,0.484,0.405,0.641c0.27,0.156,0.589,0.234,0.957,0.234
			c0.288,0,0.556-0.049,0.801-0.146c0.246-0.097,0.421-0.234,0.525-0.414c0.025-0.087,0.046-0.161,0.064-0.223
			c0.019-0.061,0.031-0.117,0.037-0.168v-0.914c-0.166,0.221-0.39,0.388-0.672,0.503s-0.583,0.173-0.902,0.173
			c-0.294,0-0.578-0.046-0.852-0.139c-0.273-0.092-0.508-0.225-0.704-0.398s-0.344-0.373-0.442-0.598
			c-0.098-0.226-0.147-0.451-0.147-0.676c0-0.313,0.084-0.613,0.253-0.905c0.168-0.292,0.403-0.532,0.704-0.722
			c0.362-0.204,0.752-0.307,1.169-0.307c0.092,0,0.19,0.008,0.294,0.023c0.264,0.02,0.511,0.1,0.741,0.238
			c0.23,0.137,0.416,0.309,0.557,0.514v-0.676h0.7V138.939L575.022,138.939z M574.211,137.251c0.074-0.194,0.11-0.389,0.11-0.583
			c0-0.297-0.086-0.562-0.258-0.794c-0.172-0.233-0.434-0.4-0.785-0.503c-0.166-0.025-0.314-0.038-0.443-0.038
			c-0.043,0-0.083,0-0.12,0c-0.056,0.011-0.182,0.033-0.379,0.069c-0.197,0.035-0.403,0.18-0.619,0.434
			c-0.215,0.253-0.323,0.535-0.323,0.848c0,0.189,0.047,0.375,0.143,0.556c0.096,0.182,0.235,0.339,0.42,0.472
			c0.277,0.169,0.585,0.254,0.924,0.254c0.283,0,0.546-0.063,0.79-0.188C573.914,137.651,574.094,137.477,574.211,137.251z"/>
		<path fill="#FFFFFF" d="M584.559,137.565c-0.258,0.286-0.571,0.512-0.939,0.675c-0.368,0.164-0.758,0.246-1.169,0.246
			c-0.393,0-0.767-0.08-1.123-0.238c-0.332-0.179-0.583-0.411-0.755-0.697c-0.172-0.287-0.258-0.6-0.258-0.937
			c0-0.456,0.158-0.863,0.474-1.224c0.316-0.361,0.642-0.563,0.976-0.606c0.335-0.043,0.563-0.065,0.686-0.065
			c0.393,0,0.759,0.074,1.1,0.223s0.591,0.375,0.75,0.68c0.16,0.304,0.239,0.66,0.239,1.07h-3.461c0,0.348,0.131,0.646,0.395,0.896
			c0.264,0.251,0.594,0.377,0.992,0.377c0.122,0,0.232-0.011,0.33-0.031c0.245-0.031,0.456-0.104,0.634-0.219
			s0.352-0.27,0.523-0.464L584.559,137.565z M583.795,136.23c-0.067-0.286-0.23-0.521-0.488-0.701
			c-0.258-0.182-0.562-0.273-0.912-0.273c-0.313,0-0.588,0.096-0.824,0.288c-0.236,0.192-0.391,0.421-0.465,0.687H583.795
			L583.795,136.23z"/>
		<path fill="#FFFFFF" d="M593.664,134.988l-0.441,0.506c-0.16-0.117-0.326-0.176-0.498-0.176c-0.238,0-0.457,0.098-0.653,0.295
			s-0.325,0.412-0.387,0.648v2.141h-0.745v-3.537h0.689v0.867c0.08-0.236,0.223-0.449,0.429-0.641
			c0.206-0.192,0.443-0.304,0.714-0.334C593.09,134.758,593.389,134.834,593.664,134.988z"/>
		<path fill="#FFFFFF" d="M612.998,134.988l-0.442,0.506c-0.159-0.117-0.325-0.176-0.497-0.176c-0.239,0-0.457,0.098-0.654,0.295
			c-0.195,0.197-0.324,0.412-0.387,0.648v2.141h-0.745v-3.537h0.69v0.867c0.08-0.236,0.223-0.449,0.428-0.641
			c0.206-0.192,0.443-0.304,0.714-0.334C612.424,134.758,612.721,134.834,612.998,134.988z"/>
		<path fill="#FFFFFF" d="M623.097,138.402h-0.69v-0.707c-0.153,0.254-0.387,0.451-0.699,0.594
			c-0.313,0.142-0.642,0.213-0.985,0.213c-0.172,0-0.338-0.016-0.497-0.047c-0.16-0.031-0.362-0.109-0.607-0.238
			c-0.246-0.128-0.465-0.344-0.658-0.646s-0.291-0.626-0.291-0.969c0-0.287,0.074-0.566,0.221-0.838
			c0.104-0.169,0.273-0.362,0.508-0.58c0.236-0.218,0.576-0.36,1.021-0.427c0.049,0,0.103-0.003,0.16-0.008
			c0.059-0.006,0.104-0.008,0.133-0.008c0.343,0,0.655,0.064,0.939,0.191c0.284,0.129,0.523,0.314,0.719,0.561v-0.66h0.729
			L623.097,138.402L623.097,138.402z M622.233,137.27c0.092-0.195,0.137-0.4,0.137-0.617c0-0.287-0.079-0.545-0.238-0.771
			s-0.398-0.394-0.716-0.502c-0.11-0.025-0.245-0.041-0.403-0.046c-0.16-0.005-0.252-0.008-0.275-0.008
			c-0.393,0.052-0.707,0.212-0.945,0.482c-0.239,0.271-0.358,0.567-0.358,0.892c0,0.2,0.044,0.385,0.134,0.551
			c0.088,0.168,0.248,0.33,0.481,0.486c0.231,0.157,0.521,0.235,0.862,0.235c0.287,0,0.548-0.06,0.78-0.181
			S622.104,137.496,622.233,137.27z"/>
		<path fill="#FFFFFF" d="M632.957,134.834l-2.017,3.69h-0.193l-2.077-3.69l0.901-0.001l1.315,2.622l1.215-2.621H632.957
			L632.957,134.834z"/>
		<path fill="#FFFFFF" d="M642.559,137.565c-0.258,0.286-0.57,0.512-0.938,0.675c-0.368,0.164-0.759,0.246-1.169,0.246
			c-0.393,0-0.768-0.08-1.123-0.238c-0.332-0.179-0.584-0.411-0.756-0.697c-0.172-0.287-0.258-0.6-0.258-0.937
			c0-0.456,0.158-0.863,0.475-1.224c0.316-0.361,0.641-0.563,0.976-0.606c0.335-0.043,0.563-0.065,0.687-0.065
			c0.393,0,0.76,0.074,1.1,0.223c0.341,0.148,0.591,0.375,0.75,0.68c0.16,0.304,0.24,0.66,0.24,1.07h-3.462
			c0,0.348,0.132,0.646,0.395,0.896c0.263,0.251,0.595,0.377,0.992,0.377c0.122,0,0.232-0.011,0.33-0.031
			c0.245-0.031,0.456-0.104,0.634-0.219s0.352-0.27,0.523-0.464L642.559,137.565z M641.795,136.23
			c-0.067-0.286-0.23-0.521-0.488-0.701c-0.258-0.182-0.561-0.273-0.911-0.273c-0.313,0-0.587,0.096-0.823,0.288
			s-0.393,0.421-0.466,0.687H641.795L641.795,136.23z"/>
		<path fill="#FFFFFF" d="M651.978,138.402h-0.782v-2.486c-0.063-0.184-0.184-0.332-0.363-0.445
			c-0.18-0.112-0.383-0.168-0.612-0.168c-0.124,0-0.255,0.02-0.39,0.061c-0.174,0.077-0.324,0.173-0.451,0.288
			s-0.219,0.247-0.273,0.396v2.355h-0.729v-3.568h0.729v0.614c0.159-0.22,0.35-0.39,0.57-0.511c0.221-0.119,0.484-0.18,0.791-0.18
			c0.418,0,0.76,0.105,1.027,0.318c0.267,0.212,0.428,0.497,0.482,0.855L651.978,138.402L651.978,138.402z"/>
		<path fill="#FFFFFF" d="M661.552,135.418l-0.626,0.299c-0.049-0.144-0.174-0.262-0.373-0.357c-0.199-0.094-0.412-0.142-0.64-0.142
			c-0.159,0-0.301,0.026-0.423,0.081c-0.123,0.054-0.205,0.125-0.244,0.215c-0.041,0.09-0.061,0.163-0.061,0.22
			c0,0.133,0.092,0.264,0.276,0.392l1.437,0.424c0.215,0.076,0.377,0.189,0.487,0.338s0.166,0.311,0.166,0.484
			c0,0.226-0.078,0.438-0.235,0.635c-0.156,0.197-0.369,0.337-0.639,0.419c-0.1,0.021-0.211,0.038-0.337,0.054
			s-0.241,0.023-0.345,0.023c-0.344,0-0.664-0.059-0.963-0.174c-0.297-0.116-0.551-0.29-0.759-0.521l0.645-0.363
			c0.099,0.171,0.245,0.309,0.442,0.412c0.195,0.104,0.407,0.155,0.635,0.155c0.215,0,0.389-0.038,0.52-0.116
			c0.133-0.076,0.217-0.146,0.254-0.207s0.055-0.125,0.055-0.192c0-0.107-0.043-0.206-0.129-0.296s-0.205-0.157-0.359-0.203
			c-0.295-0.072-0.603-0.152-0.925-0.238c-0.322-0.088-0.554-0.213-0.694-0.377c-0.179-0.19-0.268-0.393-0.268-0.608
			c0-0.333,0.131-0.575,0.394-0.727s0.493-0.242,0.694-0.272c0.201-0.031,0.438-0.047,0.709-0.047
			c0.296,0.021,0.545,0.088,0.745,0.199C661.192,135.039,661.379,135.203,661.552,135.418z"/>
	</g>
</g>
</svg>
