<?xml version="1.0" encoding="utf-8"?>
<!-- Generator: Adobe Illustrator 14.0.0, SVG Export Plug-In . SVG Version: 6.00 Build 43363)  -->
<!DOCTYPE svg PUBLIC "-//W3C//DTD SVG 1.1//EN" "http://www.w3.org/Graphics/SVG/1.1/DTD/svg11.dtd">
<svg version="1.1" id="Layer_1" xmlns="http://www.w3.org/2000/svg" xmlns:xlink="http://www.w3.org/1999/xlink" x="0px" y="0px"
	 width="1176px" height="252px" viewBox="0 0 1176 252" enable-background="new 0 0 1176 252" xml:space="preserve">
<g>
	<g>
		<path d="M50.795,0.142c17.954,0,31.135,4.119,39.545,12.358c7.386,7.198,11.08,17.236,11.08,30.114v25.852
			c0,12.596-5.74,23.249-17.216,31.96l23.86,77.699H73.226L53.693,111.08c-0.91,0-1.875,0-2.897,0h-18.58v67.045H0V0.142H50.795z
			 M70.057,43.039c0-10.32-6.136-15.483-18.409-15.483H32.216v56.96h19.432c5.114,0,9.46-1.514,13.04-4.545
			c3.58-3.03,5.369-6.676,5.369-10.938V43.039z"/>
		<path d="M187.347,137.216l-7.828,40.909h-33.545L182.284,0.142H226.6l35.793,177.983H228.52l-7.538-40.909H187.347z
			 M204.27,40.909l-11.932,70.17h23.863L204.27,40.909z"/>
		<path d="M306.1,178.125L267.921,0.142h33.766l26.811,138.736l27-138.736h33.784l-38.862,177.983H306.1z"/>
		<path d="M428.211,178.125V0h91.705v26.989h-59.488v48.58h43.466v26.988h-43.466v48.581h59.488v26.988L428.211,178.125
			L428.211,178.125z"/>
		<path d="M590.242,0l42.752,119.711V0h32.216v178.125h-34.603L586.291,64.062v114.062h-32.218V0H590.242z"/>
		<path d="M738.231,178.125h-32.217V0h91.705v26.989h-59.488v48.58h43.465v26.988h-43.465V178.125L738.231,178.125z"/>
		<path d="M831.875,178.125V0h91.705v26.989h-59.487v48.58h43.467v26.988h-43.467v48.581h59.487v26.988L831.875,178.125
			L831.875,178.125z"/>
		<path d="M1045.522,178.125h-87.783V0.142h32.217V151.42h55.566V178.125z"/>
		<path d="M1167.464,178.125h-87.785V0.142h32.217V151.42h55.568V178.125z"/>
	</g>
	<g>
		<path d="M49.76,234.38h-6.12v-20.26c0-0.361-0.144-0.764-0.432-1.206s-0.504-0.784-0.648-1.024
			c-0.769-0.644-1.561-1.106-2.376-1.388c-0.816-0.28-1.681-0.422-2.592-0.422c-1.872,0-3.6,0.604-5.184,1.81
			s-2.617,2.692-3.097,4.461v18.028h-5.976v-18.827c-0.292-1.684-1.056-3.017-2.291-4c-1.236-0.982-2.774-1.474-4.616-1.474
			c-0.873,0-1.793,0.121-2.762,0.36c-1.26,0.441-2.352,1.104-3.271,1.986c-0.921,0.881-1.625,1.903-2.107,3.066v18.887H2.745v-27.9
			h5.544v4.801c1.004-1.577,2.32-2.883,3.946-3.913c1.627-1.031,3.471-1.548,5.528-1.548c0.239,0,0.598,0,1.077,0
			c2.201,0,4.151,0.562,5.85,1.681c1.699,1.12,2.932,2.58,3.697,4.38c0.911-1.839,2.386-3.311,4.425-4.41
			c2.038-1.1,4.258-1.65,6.658-1.65c1.728,0,3.322,0.291,4.786,0.871c1.462,0.58,2.746,1.49,3.85,2.729
			c0.863,0.841,1.414,1.86,1.655,3.06v21.902H49.76z"/>
		<path d="M117.369,227.84c-2.017,2.241-4.465,4-7.345,5.28c-2.88,1.279-5.929,1.92-9.144,1.92c-3.072,0-6-0.621-8.784-1.859
			c-2.592-1.399-4.561-3.22-5.904-5.461c-1.344-2.24-2.016-4.68-2.016-7.32c0-3.56,1.235-6.75,3.708-9.569
			c2.472-2.819,5.016-4.399,7.632-4.74c2.616-0.339,4.403-0.51,5.364-0.51c3.071,0,5.939,0.58,8.604,1.739
			c2.664,1.162,4.619,2.932,5.868,5.311c1.248,2.381,1.872,5.17,1.872,8.37H90.152c0,2.722,1.028,5.062,3.087,7.021
			c2.06,1.959,4.645,2.939,7.758,2.939c0.956,0,1.817-0.08,2.584-0.24c1.915-0.24,3.566-0.81,4.956-1.709
			c1.389-0.9,2.752-2.109,4.093-3.631L117.369,227.84z M111.393,217.399c-0.529-2.239-1.8-4.069-3.815-5.489
			c-2.017-1.419-4.393-2.13-7.128-2.13c-2.448,0-4.598,0.75-6.444,2.25c-1.848,1.5-3.061,3.291-3.636,5.369H111.393L111.393,217.399
			z"/>
		<path d="M190.305,211.04l-4.896,2.34c-0.386-1.119-1.357-2.049-2.916-2.79c-1.562-0.739-3.229-1.11-5.005-1.11
			c-1.248,0-2.353,0.211-3.312,0.633c-0.961,0.421-1.597,0.982-1.908,1.684s-0.468,1.273-0.468,1.715c0,1.041,0.72,2.064,2.16,3.066
			l11.231,3.309c1.681,0.602,2.952,1.483,3.816,2.646c0.864,1.163,1.296,2.425,1.296,3.788c0,1.765-0.612,3.42-1.836,4.963
			s-2.893,2.636-5.004,3.277c-0.77,0.16-1.646,0.301-2.628,0.422c-0.984,0.119-1.884,0.18-2.7,0.18
			c-2.689,0-5.196-0.454-7.524-1.359c-2.328-0.906-4.309-2.267-5.939-4.08l5.04-2.841c0.768,1.339,1.919,2.413,3.456,3.224
			c1.536,0.812,3.191,1.217,4.968,1.217c1.68,0,3.035-0.301,4.068-0.902c1.031-0.602,1.691-1.143,1.979-1.624
			s0.433-0.983,0.433-1.504c0-0.842-0.337-1.612-1.009-2.315c-0.672-0.701-1.607-1.231-2.808-1.594
			c-2.304-0.561-4.716-1.183-7.236-1.863c-2.52-0.683-4.332-1.664-5.436-2.948c-1.394-1.483-2.088-3.066-2.088-4.751
			c0-2.605,1.025-4.5,3.078-5.684c2.052-1.183,3.861-1.895,5.432-2.135c1.569-0.24,3.417-0.361,5.542-0.361
			c2.317,0.162,4.26,0.682,5.83,1.561C187.491,208.08,188.952,209.36,190.305,211.04z"/>
		<path d="M265.904,211.04l-4.896,2.34c-0.385-1.119-1.356-2.049-2.916-2.79c-1.562-0.739-3.229-1.11-5.004-1.11
			c-1.249,0-2.354,0.211-3.313,0.633c-0.959,0.421-1.596,0.982-1.906,1.684c-0.313,0.701-0.47,1.273-0.47,1.715
			c0,1.041,0.722,2.064,2.16,3.066l11.232,3.309c1.68,0.602,2.952,1.483,3.814,2.646c0.864,1.163,1.296,2.425,1.296,3.788
			c0,1.765-0.61,3.42-1.836,4.963c-1.224,1.543-2.892,2.636-5.004,3.277c-0.769,0.16-1.645,0.301-2.628,0.422
			c-0.983,0.119-1.884,0.18-2.7,0.18c-2.688,0-5.195-0.454-7.522-1.359c-2.329-0.906-4.31-2.267-5.94-4.08l5.04-2.841
			c0.769,1.339,1.92,2.413,3.456,3.224c1.536,0.812,3.191,1.217,4.968,1.217c1.681,0,3.035-0.301,4.068-0.902
			c1.031-0.602,1.692-1.143,1.98-1.624c0.286-0.481,0.432-0.983,0.432-1.504c0-0.842-0.337-1.612-1.008-2.315
			c-0.673-0.701-1.609-1.231-2.81-1.594c-2.304-0.561-4.716-1.183-7.234-1.863c-2.521-0.683-4.333-1.664-5.438-2.948
			c-1.393-1.483-2.088-3.066-2.088-4.751c0-2.605,1.025-4.5,3.078-5.684c2.052-1.183,3.862-1.895,5.432-2.135
			s3.416-0.361,5.542-0.361c2.317,0.162,4.261,0.682,5.829,1.561C263.09,208.08,264.552,209.36,265.904,211.04z"/>
		<path d="M344.168,227.84c-2.017,2.241-4.464,4-7.344,5.28c-2.881,1.279-5.93,1.92-9.145,1.92c-3.072,0-6.001-0.621-8.784-1.859
			c-2.592-1.399-4.561-3.22-5.903-5.461c-1.346-2.24-2.017-4.68-2.017-7.32c0-3.56,1.235-6.75,3.708-9.569
			c2.472-2.819,5.016-4.399,7.632-4.74c2.615-0.339,4.403-0.51,5.364-0.51c3.071,0,5.939,0.58,8.604,1.739
			c2.664,1.162,4.618,2.932,5.867,5.311c1.248,2.381,1.872,5.17,1.872,8.37h-27.071c0,2.722,1.027,5.062,3.087,7.021
			c2.059,1.959,4.645,2.939,7.757,2.939c0.956,0,1.818-0.08,2.584-0.24c1.915-0.24,3.567-0.81,4.956-1.709
			c1.389-0.9,2.752-2.109,4.093-3.631L344.168,227.84z M338.193,217.399c-0.528-2.239-1.8-4.069-3.815-5.489
			c-2.017-1.419-4.393-2.13-7.128-2.13c-2.447,0-4.598,0.75-6.443,2.25c-1.849,1.5-3.061,3.291-3.637,5.369H338.193L338.193,217.399
			z"/>
		<path d="M417.825,234.38h-6.12V214.94c-0.485-1.44-1.431-2.601-2.834-3.48c-1.404-0.879-3.003-1.32-4.794-1.32
			c-0.97,0-1.985,0.162-3.052,0.48c-1.355,0.6-2.53,1.35-3.522,2.25s-1.707,1.93-2.143,3.09v18.42h-5.688v-27.9h5.688v4.801
			c1.247-1.719,2.735-3.051,4.465-3.99c1.728-0.939,3.79-1.41,6.19-1.41c3.264,0,5.94,0.831,8.028,2.49
			c2.088,1.66,3.348,3.891,3.78,6.689L417.825,234.38L417.825,234.38z"/>
		<path d="M496.376,238.58c-0.913,3.159-3.015,5.629-6.302,7.41c-3.288,1.778-6.924,2.67-10.906,2.67
			c-2.642,0-5.112-0.37-7.416-1.11c-2.306-0.74-4.117-1.71-5.438-2.91c-1.32-1.199-2.208-2.35-2.664-3.449
			c-0.457-1.102-0.756-2.352-0.898-3.75h6.336c0,2.119,1.055,3.789,3.168,5.01c2.11,1.22,4.606,1.83,7.486,1.83
			c2.256,0,4.345-0.381,6.266-1.141c1.919-0.76,3.287-1.84,4.104-3.24c0.191-0.68,0.36-1.26,0.504-1.739
			c0.146-0.479,0.24-0.92,0.288-1.32v-7.14c-1.296,1.721-3.049,3.029-5.256,3.93c-2.208,0.9-4.561,1.35-7.056,1.35
			c-2.306,0-4.525-0.359-6.66-1.08c-2.137-0.719-3.973-1.76-5.508-3.119c-1.537-1.359-2.689-2.92-3.456-4.68
			c-0.77-1.761-1.152-3.521-1.152-5.281c0-2.438,0.659-4.799,1.98-7.079c1.318-2.28,3.154-4.16,5.508-5.64
			c2.831-1.601,5.879-2.4,9.144-2.4c0.722,0,1.487,0.061,2.306,0.18c2.062,0.16,3.994,0.78,5.796,1.86
			c1.8,1.079,3.251,2.421,4.354,4.021v-5.281h5.474L496.376,238.58L496.376,238.58z M490.037,225.38
			c0.577-1.52,0.866-3.04,0.866-4.561c0-2.318-0.675-4.389-2.021-6.209c-1.349-1.82-3.396-3.129-6.141-3.93
			c-1.3-0.201-2.455-0.301-3.467-0.301c-0.338,0-0.65,0-0.938,0c-0.435,0.081-1.422,0.262-2.963,0.54
			c-1.54,0.28-3.152,1.41-4.839,3.39c-1.685,1.98-2.526,4.19-2.526,6.631c0,1.479,0.372,2.931,1.119,4.35
			c0.745,1.42,1.842,2.65,3.285,3.689c2.167,1.32,4.574,1.98,7.225,1.98c2.214,0,4.271-0.488,6.175-1.47
			C487.713,228.511,489.121,227.142,490.037,225.38z"/>
		<path d="M570.968,227.84c-2.017,2.241-4.464,4-7.345,5.28c-2.88,1.279-5.929,1.92-9.144,1.92c-3.072,0-6.001-0.621-8.784-1.859
			c-2.592-1.399-4.561-3.22-5.903-5.461c-1.346-2.24-2.017-4.68-2.017-7.32c0-3.56,1.235-6.75,3.708-9.569
			c2.472-2.819,5.016-4.399,7.632-4.74c2.615-0.339,4.403-0.51,5.364-0.51c3.071,0,5.939,0.58,8.604,1.739
			c2.664,1.162,4.619,2.932,5.867,5.311c1.248,2.381,1.872,5.17,1.872,8.37h-27.071c0,2.722,1.027,5.062,3.087,7.021
			c2.059,1.959,4.645,2.939,7.757,2.939c0.956,0,1.818-0.08,2.584-0.24c1.915-0.24,3.566-0.81,4.956-1.709
			c1.389-0.9,2.752-2.109,4.093-3.631L570.968,227.84z M564.992,217.399c-0.528-2.239-1.8-4.069-3.815-5.489
			c-2.017-1.419-4.393-2.13-7.128-2.13c-2.447,0-4.598,0.75-6.443,2.25c-1.849,1.5-3.061,3.291-3.637,5.369H564.992L564.992,217.399
			z"/>
		<path d="M642.177,207.681l-3.457,3.959c-1.249-0.918-2.545-1.379-3.888-1.379c-1.872,0-3.577,0.771-5.112,2.309
			c-1.537,1.541-2.545,3.23-3.024,5.07v16.74h-5.832v-27.66h5.4v6.78c0.623-1.839,1.739-3.51,3.348-5.01
			c1.609-1.5,3.469-2.37,5.58-2.61C637.687,205.88,640.017,206.479,642.177,207.681z"/>
		<path d="M793.375,207.681l-3.454,3.959c-1.25-0.918-2.546-1.379-3.89-1.379c-1.871,0-3.576,0.771-5.11,2.309
			c-1.537,1.541-2.546,3.23-3.025,5.07v16.74h-5.832v-27.66h5.4v6.78c0.623-1.839,1.739-3.51,3.348-5.01
			c1.609-1.5,3.469-2.37,5.58-2.61C788.888,205.88,791.216,206.479,793.375,207.681z"/>
		<path d="M872.36,234.38h-5.4v-5.52c-1.2,1.979-3.022,3.523-5.473,4.634c-2.447,1.11-5.016,1.666-7.703,1.666
			c-1.344,0-2.641-0.121-3.889-0.36c-1.248-0.242-2.832-0.861-4.752-1.865c-1.92-1-3.635-2.685-5.148-5.049
			c-1.512-2.365-2.268-4.891-2.268-7.576c0-2.244,0.572-4.43,1.719-6.554c0.813-1.321,2.139-2.835,3.979-4.538
			c1.838-1.703,4.5-2.816,7.985-3.338c0.383,0,0.802-0.02,1.254-0.061c0.455-0.039,0.802-0.059,1.039-0.059
			c2.677,0,5.123,0.5,7.345,1.5c2.221,1,4.096,2.459,5.625,4.379v-5.16h5.688L872.36,234.38L872.36,234.38z M865.595,225.528
			c0.719-1.528,1.078-3.139,1.078-4.828c0-2.252-0.623-4.266-1.867-6.035s-3.111-3.078-5.599-3.922
			c-0.86-0.201-1.916-0.322-3.159-0.362c-1.244-0.041-1.961-0.062-2.15-0.062c-3.064,0.404-5.529,1.66-7.396,3.773
			c-1.866,2.111-2.799,4.436-2.799,6.969c0,1.569,0.347,3.008,1.041,4.314c0.693,1.309,1.949,2.575,3.769,3.803
			c1.817,1.228,4.067,1.84,6.748,1.84c2.246,0,4.28-0.473,6.1-1.418C863.179,228.656,864.589,227.298,865.595,225.528z"/>
		<path d="M949.472,206.479l-15.769,28.86h-1.512l-16.252-28.86l7.055-0.008l10.287,20.504l9.498-20.496H949.472L949.472,206.479z"
			/>
		<path d="M1024.567,227.84c-2.016,2.241-4.463,4-7.344,5.28c-2.879,1.279-5.928,1.92-9.144,1.92c-3.071,0-6.002-0.621-8.784-1.859
			c-2.593-1.399-4.562-3.22-5.904-5.461c-1.344-2.24-2.016-4.68-2.016-7.32c0-3.56,1.235-6.75,3.709-9.569
			c2.471-2.819,5.014-4.399,7.631-4.74c2.614-0.339,4.403-0.51,5.364-0.51c3.07,0,5.939,0.58,8.604,1.739
			c2.664,1.162,4.619,2.932,5.867,5.311c1.248,2.381,1.873,5.17,1.873,8.37h-27.072c0,2.722,1.027,5.062,3.086,7.021
			s4.646,2.939,7.758,2.939c0.955,0,1.818-0.08,2.584-0.24c1.914-0.24,3.566-0.81,4.955-1.709c1.39-0.9,2.752-2.109,4.094-3.631
			L1024.567,227.84z M1018.593,217.399c-0.529-2.239-1.802-4.069-3.816-5.489c-2.016-1.419-4.393-2.13-7.129-2.13
			c-2.447,0-4.596,0.75-6.443,2.25c-1.847,1.5-3.061,3.291-3.637,5.369H1018.593L1018.593,217.399z"/>
		<path d="M1098.226,234.38h-6.121V214.94c-0.484-1.44-1.43-2.601-2.834-3.48c-1.404-0.879-3.002-1.32-4.793-1.32
			c-0.969,0-1.986,0.162-3.051,0.48c-1.357,0.6-2.531,1.35-3.523,2.25c-0.991,0.9-1.707,1.93-2.143,3.09v18.42h-5.688v-27.9h5.688
			v4.801c1.248-1.719,2.735-3.051,4.465-3.99c1.728-0.939,3.791-1.41,6.191-1.41c3.264,0,5.938,0.831,8.026,2.49
			c2.088,1.66,3.349,3.891,3.781,6.689L1098.226,234.38L1098.226,234.38z"/>
		<path d="M1173.104,211.04l-4.896,2.34c-0.385-1.119-1.354-2.049-2.916-2.79c-1.561-0.739-3.229-1.11-5.004-1.11
			c-1.248,0-2.352,0.211-3.312,0.633c-0.959,0.421-1.596,0.982-1.906,1.684c-0.313,0.701-0.469,1.273-0.469,1.715
			c0,1.041,0.721,2.064,2.16,3.066l11.231,3.309c1.681,0.602,2.951,1.483,3.814,2.646c0.865,1.163,1.297,2.425,1.297,3.788
			c0,1.765-0.611,3.42-1.836,4.963s-2.893,2.636-5.004,3.277c-0.771,0.16-1.646,0.301-2.629,0.422
			c-0.984,0.119-1.884,0.18-2.699,0.18c-2.689,0-5.197-0.454-7.523-1.359c-2.33-0.906-4.309-2.267-5.94-4.08l5.041-2.841
			c0.768,1.339,1.92,2.413,3.455,3.224c1.536,0.812,3.19,1.217,4.969,1.217c1.68,0,3.035-0.301,4.067-0.902
			c1.031-0.602,1.691-1.143,1.98-1.624c0.287-0.481,0.432-0.983,0.432-1.504c0-0.842-0.338-1.612-1.008-2.315
			c-0.674-0.701-1.609-1.231-2.809-1.594c-2.306-0.561-4.717-1.183-7.236-1.863c-2.52-0.683-4.332-1.664-5.436-2.948
			c-1.394-1.483-2.088-3.066-2.088-4.751c0-2.605,1.024-4.5,3.077-5.684c2.052-1.183,3.861-1.895,5.433-2.135
			c1.567-0.24,3.416-0.361,5.541-0.361c2.317,0.162,4.26,0.682,5.83,1.561C1170.289,208.08,1171.753,209.36,1173.104,211.04z"/>
	</g>
</g>
</svg>
