<?xml version="1.0" encoding="utf-8"?>
<!-- Generator: Adobe Illustrator 14.0.0, SVG Export Plug-In . SVG Version: 6.00 Build 43363)  -->
<!DOCTYPE svg PUBLIC "-//W3C//DTD SVG 1.1//EN" "http://www.w3.org/Graphics/SVG/1.1/DTD/svg11.dtd">
<svg version="1.1" id="Ebene_1" xmlns="http://www.w3.org/2000/svg" xmlns:xlink="http://www.w3.org/1999/xlink" x="0px" y="0px"
	 width="780.262px" height="358.807px" viewBox="0 0 780.262 358.807" enable-background="new 0 0 780.262 358.807"
	 xml:space="preserve">
<g>
	<path fill-rule="evenodd" clip-rule="evenodd" d="M780.262,135.875c0,0.542,0,1.085,0,1.627c-0.8-0.333-0.567,0.617-0.813,0.813
		c-25.417,20.308-66.486,3.736-94.38-2.441c4.979,10.805,18.802,15.406,30.104,21.968c11.827,6.867,25.472,10.516,34.986,18.713
		c-25.93,13.336-46.62-7.535-66.717-11.391c7.376,12.423,23.323,23.322,31.73,37.427c-16.318,4.633-27.38-4.959-38.24-10.577
		c-3.236,8.399,3.751,13.599,3.255,21.968c-14.014,2.04-24.116-6.771-34.172-11.391c1.381,5.512,2.454,15.292,1.627,20.341
		c-11.352-0.582-19.07-4.796-25.222-10.577c1.235,2.561,2.712,4.881,3.254,8.136c-6.042-4.264-8.557-12.055-12.204-18.713
		c-0.045,7.373,3.783,17.908,4.068,27.663c-11.962-2.412-20.938-7.812-25.223-17.9c-2.185,5.952,0.457,16.729-1.627,22.782
		c-12.926-5.517-16.503-20.382-26.036-29.291c1.374,12.548,6.001,25.88,4.068,39.054c-15.066,4.358-24.829-3.279-30.104-11.391
		c0.912,4.513,2.585,8.264,2.441,13.832c-5.19,4.099-13.025,2.777-21.154,2.44c-3.018-4.033-6.598-7.506-8.137-13.018
		c-2.812,5.658,3.107,13.534,1.628,17.899c-8.01,0.212-11.579-10.511-14.646-17.899c-1.36,5.712,2.504,13.218,1.627,21.154
		c-19.229,6.779-32.676-5.656-38.24-17.9c-1.711,2.628-0.173,8.506-2.44,10.577c-12.388,0.454-10.362-13.504-12.204-23.595
		c-2.11,6.568-1.008,16.35-4.882,21.154c-9.151,0.946-12.398-10.874-15.459-18.713c-0.409,6.765,1.553,16.333,0,25.222
		c-4.501-2.551-4.462-9.641-7.322-13.831c3.582,15.077,9.41,30.712,13.831,47.189c4.375,16.303,12.375,32.504,12.204,49.631
		c-10.429,0.123-12.325-8.286-16.271-14.645c-1.109,4.109,3.408,9.597,2.44,16.271c-4.718-3.418-5.998-10.273-8.137-16.271
		c-0.613,6.046,0.426,17.467,0,26.035c-2.764,2.596-8.156,5.276-12.204,4.068c-2.764-4.016-1.956-11.604-4.067-16.272
		c-2.177,7.045-1.199,17.243-5.695,21.968c-9.283-1.245-14.313-1.245-23.596,0c-3.703-5.247-4.561-13.339-4.881-21.968
		c-3.635,3.417-1.706,12.397-4.882,16.272c-4.047,1.208-9.44-1.473-12.205-4.068c0-7.051,0-14.103,0-21.154
		c-3.389,4.205-3.877,11.311-8.95,13.832c-0.109-3.688-1.991-5.604-2.441-8.95c-2.524,2.629-4.655,5.651-10.577,4.882
		c-2.807-8.609,3.156-15.208,4.068-22.781c-1.271-2.262-3.326,5.801-4.882,3.255c8.129-21.976,17.968-42.24,23.595-66.717
		c-1.767-2.494-1.299,4.061-4.068,3.254c0.519-4.397-0.904-8.108,0-10.577c-1.766-2.493-1.299,4.061-4.068,3.255
		c1.009-4.687,2.062-9.329,3.254-13.832c-3.848,5.107-6.294,15.937-13.832,14.646c-4.841-4.108-4.28-13.62-4.882-21.968
		c-3.75,8.725,0.489,25.439-13.018,24.408c-1.582-2.486-1.858-6.277-1.627-10.577c-6.691,2.311-6.046,12.178-12.205,16.272
		c-6.517,4.334-17.825,3.784-26.849,1.628c-0.401-8.267,1.868-13.862,2.441-21.154c-4.456,6.265-6.9,18.398-15.459,17.899
		c-0.992-4.692,3.206-10.768,2.441-17.899c-2.952,4.371-5.219,9.426-8.95,13.018c-8.129,0.337-15.964,1.658-21.154-2.44
		c-0.03-5.184,1.161-9.145,2.441-13.019c-4.552,5.309-14.863,15.926-30.104,10.577c-1.848-12.822,2.501-26.153,4.068-38.24
		c-8.848,6.071-13.215,23.668-26.036,28.478c-1.546-6.591-0.522-15.751-0.813-23.596c-4.902,10.016-13.382,16.451-26.036,18.714
		c1.422-11.867,3.162-23.417,6.509-33.358c-8.932,12.222-15.8,26.508-36.613,26.85c-1.082-5.827,2.086-14.088,3.254-20.341
		c-9.744,2.218-21.092,14.128-35.799,11.391c1.409-9.982,5.051-17.73,8.136-26.036c-13.045,5.688-22.269,19.472-43.122,14.646
		c8.684-15.183,23.646-24.086,32.544-39.054c-13.137,1.914-25.097,17.529-41.495,18.713c-8.316,0.602-14.104-3.41-23.595-4.068
		c7.386-10.088,21.01-13.99,31.731-20.341c11.125-6.589,21.812-13.034,30.104-21.968c-15.875-0.793-30.503,13.389-49.631,13.832
		c-16.167,0.375-32.371-4.29-44.749-11.391c0-0.813,0-1.627,0-2.441c31.152-7.901,66.538-11.57,91.125-26.036
		c-21.247,1.966-45.826,8.739-68.344,4.068c21.045-16.693,54.106-22.487,86.244-28.477c10.321-1.923,22.654-1.635,30.104-8.95
		c-19.752-4.115-51.738-0.333-62.649-10.577c37.955,6.169,78.067-1.738,110.652-5.695c31.733-3.854,63.086-3.653,87.871,6.509
		c16.385,6.718,41.988,21.504,67.53,17.086c19.792-3.423,20.859-25.715,29.291-39.867c2.694-4.523,8.446-6.591,10.577-11.391
		c4.375-9.854,1.676-22.03,7.323-31.731c6.14,9.759,4.011,22.795,8.95,32.545c2.895,5.713,7.976,7.045,10.577,12.205
		c9.492,18.825,12.261,42.119,43.936,39.054c33.429-3.235,53.898-24.519,84.616-26.85c34.196-2.595,60.87,4.857,87.871,8.136
		c28.794,3.497,57.368,0.972,78.921,0c-13.788,11.162-44.604,5.297-63.462,11.391c18.317,8.985,42.432,8.041,63.462,13.832
		c9.722,2.677,19.666,6.537,28.478,9.764c9.064,3.32,19.736,6.208,23.595,13.832c-20.251,2.835-44.03-2.032-61.835-1.627
		C720.272,123.724,750.762,129.305,780.262,135.875z"/>
</g>
</svg>
